<?xml version="1.0" encoding="utf-8"?>
<!-- Generator: Adobe Illustrator 21.0.2, SVG Export Plug-In . SVG Version: 6.00 Build 0)  -->
<svg version="1.1" id="Layer_1" xmlns="http://www.w3.org/2000/svg" xmlns:xlink="http://www.w3.org/1999/xlink" x="0px" y="0px"
	 viewBox="0 0 28 35" style="enable-background:new 0 0 28 35;" xml:space="preserve">
<style type="text/css">
	.st0{fill:#4A4A4A;fill-opacity:0.4;}
	.st1{fill:#026AB8;}
	.st2{fill:#FFFFFF;}
</style>
<title>PIN V3 - Work</title>
<desc>Created with Sketch.</desc>
<g id="Page-1_1_">
	<g id="_x32_.0-Live-Powercut-Map-Option-3" transform="translate(-983.000000, -257.000000)">
		<g id="Map-Key" transform="translate(971.000000, 115.000000)">
			<g id="PIN-V3---Work" transform="translate(6.000000, 136.000000)">
				<g id="Group-3-Copy">
					<g>
						<ellipse id="Oval-2" class="st0" cx="20" cy="39" rx="9" ry="2"/>
						<path id="Rectangle-3" class="st1" d="M29.9,10.1L29.9,10.1L29.9,10.1c5.5,5.5,5.5,14.3,0,19.8L20,39.8l-9.9-9.9l0,0
							c-5.5-5.5-5.5-14.3,0-19.8l0,0l0,0C15.6,4.6,24.4,4.6,29.9,10.1z"/>
						<circle id="Oval-3" class="st2" cx="20" cy="20" r="11"/>
					</g>
				</g>
			</g>
		</g>
	</g>
</g>
<g>
	<path class="st1" d="M12.8,16.4c0-0.2,0.1-0.3,0.3-0.3h2.1c0.2,0,0.3,0.1,0.3,0.3v3.7h3.3c0.5,0,0.9-0.4,0.9-0.9v-6.4
		c0-0.3-0.1-0.6-0.4-0.9l-4.5-4c-0.4-0.4-1-0.4-1.4,0l-4.5,4c-0.2,0.2-0.4,0.6-0.4,0.9v6.4c0,0.5,0.4,0.9,0.9,0.9h3.3V16.4z"/>
</g>
</svg>
