<svg xmlns="http://www.w3.org/2000/svg" width="26" height="26" viewBox="0 0 26 26">
    <g fill="none" fill-rule="evenodd">
        <path fill="#FFF" d="M0 13c0 7.18 5.82 13 13 13s13-5.82 13-13S20.18 0 13 0 0 5.82 0 13z"/>
        <path fill="#F76100" d="M2.6 13c0-5.46 4.204-9.946 9.533-10.39V0C5.36.45 0 6.09 0 13s5.36 12.551 12.133 13v-2.609c-5.329-.444-9.533-4.93-9.533-10.39"/>
        <path fill="#118483" d="M13.867 0v2.61C19.196 3.054 23.4 7.54 23.4 13c0 5.46-4.204 9.947-9.533 10.391V26C20.64 25.551 26 19.91 26 13S20.64.45 13.867 0z"/>
        <g fill="#757575" transform="translate(6.067 11.267)">
            <circle cx="1.733" cy="1.733" r="1.733"/>
            <circle cx="6.933" cy="1.733" r="1.733"/>
            <circle cx="12.133" cy="1.733" r="1.733"/>
        </g>
    </g>
</svg>
