<svg id="Layer_1" data-name="Layer 1" xmlns="http://www.w3.org/2000/svg" xmlns:xlink="http://www.w3.org/1999/xlink" viewBox="0 0 33 33"><defs><style>.cls-1,.cls-2{fill:none;}.cls-1{clip-rule:evenodd;}.cls-3{fill:#fff;}.cls-4{fill:#882b86;}.cls-5{clip-path:url(#clip-path);}.cls-6{clip-path:url(#clip-path-2);}</style><clipPath id="clip-path" transform="translate(0 0)"><path class="cls-1" d="M23.5,20l-3.7-2.7c-1.5-1.2-1.2-2.8-1.2-3.8a3.7,3.7,0,0,0-4-3.5c-3.1,0-3.3.6-3.3.6l3.2,1.6c1.2.7.6,2.2.2,3a2,2,0,0,1-2.7,1L9.5,15.1a6.6,6.6,0,0,0,1.9,4,5.3,5.3,0,0,0,3.7,1,5.3,5.3,0,0,1,3,1.1L20.5,23"/></clipPath><clipPath id="clip-path-2" transform="translate(0 0)"><rect class="cls-2" x="-760.5" y="-234" width="1280" height="755"/></clipPath></defs><title>pin_planned</title><circle class="cls-3" cx="16.5" cy="16.5" r="15"/><path class="cls-4" d="M16.5,33A16.5,16.5,0,1,1,33,16.5,16.5,16.5,0,0,1,16.5,33Zm0-30A13.5,13.5,0,1,0,30,16.5,13.5,13.5,0,0,0,16.5,3Z" transform="translate(0 0)"/><g class="cls-5"><g class="cls-6"><rect class="cls-4" x="4.5" y="5" width="24" height="23"/></g></g></svg>