<svg id="Layer_1" data-name="Layer 1" xmlns="http://www.w3.org/2000/svg" viewBox="0 0 33 33"><defs><style>.cls-1{fill:#fff;}.cls-2{fill:#46afe4;}</style></defs><title>pin_tweet</title><circle class="cls-1" cx="16.5" cy="16.5" r="15"/><path class="cls-2" d="M16.5,33A16.5,16.5,0,1,1,33,16.5,16.5,16.5,0,0,1,16.5,33Zm0-30A13.5,13.5,0,1,0,30,16.5,13.5,13.5,0,0,0,16.5,3Z" transform="translate(0 0)"/><path class="cls-2" d="M23.5,12.4a4.2,4.2,0,0,1-1.6.4,2.6,2.6,0,0,0,1.2-1.5l-1.7.7a2.9,2.9,0,0,0-2-.9,2.8,2.8,0,0,0-2.8,2.7,1.3,1.3,0,0,0,.1.6A7.8,7.8,0,0,1,11,11.5a3.3,3.3,0,0,0-.4,1.4,2.8,2.8,0,0,0,1.2,2.3,2.1,2.1,0,0,1-1.2-.3h0a2.8,2.8,0,0,0,2.2,2.7H11.6a2.8,2.8,0,0,0,2.6,1.9,5.6,5.6,0,0,1-3.4,1.2h-.7a7.6,7.6,0,0,0,4.2,1.2,7.7,7.7,0,0,0,7.8-7.8v-.4A4.4,4.4,0,0,0,23.5,12.4Z" transform="translate(0 0)"/></svg>