<svg id="Layer_1" data-name="Layer 1" xmlns="http://www.w3.org/2000/svg" xmlns:xlink="http://www.w3.org/1999/xlink" viewBox="0 0 33 33"><defs><style>.cls-1,.cls-2{fill:none;}.cls-1{clip-rule:evenodd;}.cls-3{fill:#fff;}.cls-4{fill:#ec6522;}.cls-5{clip-path:url(#clip-path);}.cls-6{clip-path:url(#clip-path-2);}</style><clipPath id="clip-path" transform="translate(0 0)"><polygon class="cls-1" points="22.2 15.7 14.7 25.3 16.2 19.1 10.2 19.1 17.7 8.9 16.2 15.7 22.2 15.7"/></clipPath><clipPath id="clip-path-2" transform="translate(0 0)"><rect class="cls-2" x="-492.8" y="-236.1" width="1280" height="755"/></clipPath></defs><title>planned_power_cut</title><circle class="cls-3" cx="16.5" cy="16.5" r="15"/><path class="cls-4" d="M16.5,33A16.5,16.5,0,1,1,33,16.5,16.5,16.5,0,0,1,16.5,33Zm0-30A13.5,13.5,0,1,0,30,16.5,13.5,13.5,0,0,0,16.5,3Z" transform="translate(0 0)"/><g class="cls-5"><g class="cls-6"><rect class="cls-4" x="5.2" y="3.9" width="22" height="26.36"/></g></g></svg>