<svg width="16" height="16" viewBox="0 0 16 16" fill="none" xmlns="http://www.w3.org/2000/svg">
<path d="M8.87647 5.28356H7.12355V3.53072H8.87647V5.28356ZM8.84802 12.4196H7.13422V6.19733H8.86577L8.84802 12.4196ZM8.00002 1.00136e-05C6.14918 8.0473e-06 4.35559 0.641761 2.92487 1.81592C1.49415 2.99008 0.514815 4.624 0.153732 6.43928C-0.207351 8.25456 0.0721596 10.1389 0.944639 11.7712C1.81712 13.4035 3.22858 14.6828 4.93854 15.391C6.64849 16.0993 8.55114 16.1928 10.3223 15.6555C12.0934 15.1183 13.6235 13.9835 14.6518 12.4446C15.68 10.9057 16.1429 9.05781 15.9615 7.21588C15.7801 5.37395 14.9656 3.6519 13.6569 2.34316C12.914 1.60029 12.0321 1.01101 11.0615 0.608965C10.0909 0.206925 9.05057 -1.51034e-06 7.99999 0L8.00002 1.00136e-05Z" fill="#0268B8"/>
</svg>
