<svg width="63" height="80" viewBox="0 0 63 80" fill="none" xmlns="http://www.w3.org/2000/svg">
<circle cx="31.5" cy="76" r="3.25" stroke="#313548" stroke-width="1.5"/>
<path fill-rule="evenodd" clip-rule="evenodd" d="M31.4987 7.59578e-06C23.6896 -0.00548419 16.1915 2.96716 10.6512 8.27445L10.6499 8.27565C5.1117 13.6057 1.99662 20.8386 2 28.3855C2.00339 35.9324 5.12495 43.1627 10.668 48.4881L10.6709 48.491L11.1876 47.9473C10.6709 48.4909 10.671 48.491 10.6712 48.4912L10.6718 48.4918L10.6746 48.4944L10.6856 48.5049L10.7289 48.5461L10.8981 48.7068L11.5402 49.317L13.8327 51.4955L20.7948 58.1115L27.7727 64.7428L30.0849 66.9403L30.7398 67.5628L30.9159 67.7303L30.9629 67.775L30.9742 67.7858L30.978 67.7893C31.1057 67.9125 31.2658 67.9813 31.4297 67.9963C31.4571 67.9988 31.4847 67.9998 31.5122 67.9993C31.6934 67.9961 31.8739 67.9277 32.0156 67.7931L52.3265 48.4909L52.3295 48.4881C57.8725 43.1627 60.994 35.9324 60.9974 28.3855C61.0008 20.8386 57.8857 13.6057 52.3475 8.27565L52.3462 8.27445C46.8059 2.96716 39.3078 -0.00548404 31.4987 7.59578e-06Z" fill="#313548"/>
<path d="M31.5053 29.3335C32.8586 29.3322 34.1559 28.7934 35.1121 27.8358C36.0683 26.8781 36.605 25.5799 36.6043 24.2267C36.6036 22.8734 36.0655 21.5757 35.1084 20.6191C34.1512 19.6624 32.8533 19.125 31.5 19.125C30.1467 19.125 28.8488 19.6624 27.8917 20.6191C26.9345 21.5757 26.3964 22.8734 26.3958 24.2267C26.3951 25.5799 26.9318 26.8781 27.888 27.8358C28.8442 28.7934 30.1415 29.3322 31.4948 29.3335H31.5053Z" stroke="white" stroke-width="1.5" stroke-linecap="round" stroke-linejoin="round"/>
<path d="M24 40.875V36.375C24.0023 35.5801 24.3191 34.8184 24.8812 34.2563C25.4434 33.6941 26.2051 33.3773 27 33.375H36C36.7949 33.3773 37.5566 33.6941 38.1187 34.2563C38.6809 34.8184 38.9977 35.5801 39 36.375V40.875" stroke="white" stroke-width="1.5" stroke-linecap="round" stroke-linejoin="round"/>
</svg>
