<svg width="26" height="31" viewBox="0 0 26 31" fill="none" xmlns="http://www.w3.org/2000/svg">
<path fill-rule="evenodd" clip-rule="evenodd" d="M21.4856 4.51487C20.3713 3.40052 19.0485 2.51657 17.5926 1.91349C16.1368 1.3104 14.5764 1 13.0005 1C11.4247 1 9.86429 1.3104 8.40842 1.91349C6.95255 2.51657 5.62974 3.40052 4.51551 4.51487C3.40097 5.62912 2.51686 6.95201 1.91366 8.408C1.31046 9.86399 1 11.4245 1 13.0005C1 14.5765 1.31046 16.1371 1.91366 17.5931C2.51686 19.0491 3.40097 20.372 4.51551 21.4862L12.9999 29.9706L21.4856 21.4862C23.7358 19.2355 25 16.1832 25 13.0005C25 9.81788 23.7358 6.76554 21.4856 4.51487Z" fill="#E13000" stroke="#E13000"/>
<path fill-rule="evenodd" clip-rule="evenodd" d="M20.2443 12.6254C20.2444 13.5766 20.0571 14.5185 19.6932 15.3973C19.3292 16.2762 18.7958 17.0747 18.1232 17.7474C17.4507 18.42 16.6523 18.9536 15.7735 19.3177C14.8948 19.6818 13.9529 19.8692 13.0017 19.8693C12.0505 19.8694 11.1086 19.6821 10.2298 19.3182C9.35095 18.9543 8.55242 18.4208 7.87976 17.7483C7.20711 17.0757 6.6735 16.2773 6.30942 15.3985C5.94533 14.5198 5.7579 13.5779 5.75781 12.6267C5.75781 10.7057 6.52094 8.86335 7.87931 7.50498C9.23768 6.14661 11.08 5.38348 13.001 5.38348C14.9221 5.38348 16.7644 6.14661 18.1228 7.50498C19.4812 8.86335 20.2443 10.7057 20.2443 12.6267V12.6254Z" fill="#FAFAFA" stroke="#E13000"/>
</svg>
