<svg width="100" height="43" viewBox="0 0 100 43" fill="none" xmlns="http://www.w3.org/2000/svg">
    <path d="M3.02 8.87C1.323 8.87.164 7.789.164 6.22V.087h1.597v6.119a1.305 1.305 0 0 0 1.322 1.432 1.29 1.29 0 0 0 1.309-1.432V.088h1.485V6.22c0 1.57-1.158 2.65-2.855 2.65M11.134 8.733 8.654 4.36H8.63v4.372H7.032V.089H8.63v3.946h.025L11.134.089h1.635l-2.705 3.995 2.856 4.649h-1.786zM2.064 16.39l-.34-.027v3.417H.164v-8.279a5.358 5.358 0 0 1 2.39-.49c2.228 0 3.157 1.156 3.157 2.69 0 1.57-1.07 2.875-3.648 2.688h.001zm.465-4.461a2.147 2.147 0 0 0-.805.138v3.354l.328.025c1.56.124 2.125-.566 2.125-1.758 0-1.17-.465-1.76-1.647-1.76M8.756 19.907c-1.9 0-2.818-1.509-2.818-3.506 0-2.023.918-3.517 2.818-3.517 1.913 0 2.819 1.494 2.819 3.517 0 1.997-.919 3.506-2.819 3.506zm0-6.056c-1.082 0-1.296 1.244-1.296 2.537 0 1.281.239 2.476 1.296 2.476 1.095 0 1.296-1.193 1.296-2.476 0-1.294-.2-2.538-1.296-2.538zM19.022 19.78h-1.384l-1.17-4.245a3.941 3.941 0 0 1-.138-.867h-.025a4.587 4.587 0 0 1-.15.867l-1.196 4.245h-1.384l-1.887-6.771h1.547l.993 4.384c.066.293.108.592.124.892h.025c.037-.301.096-.6.176-.892l1.195-4.384h1.284l1.145 4.384c.073.294.128.592.163.892h.026c.026-.304.073-.606.138-.904l1.044-4.372h1.361l-1.887 6.77zM22.455 16.954c.124 1.255.73 1.884 1.85 1.884a3.72 3.72 0 0 0 1.71-.377l.366.967a4.63 4.63 0 0 1-2.24.479c-1.925 0-3.144-1.244-3.144-3.528 0-2.211 1.119-3.492 2.892-3.492 1.8 0 2.782 1.193 2.718 3.466l-4.152.6zm1.385-3.129c-.895 0-1.51.73-1.473 2.352l2.806-.428c0-1.37-.49-1.922-1.333-1.922M30.318 14.014a1.859 1.859 0 0 0-1.435.05v5.715h-1.535v-6.405c.705-.34 1.56-.528 3.271-.478l-.301 1.118zM5.272 30.827l-3.286-5.576c-.29-.49-.503-.968-.503-.968h-.026s.051.49.051 1.006v5.538H.161v-8.641h1.51l3.095 5.25c.29.491.466.88.466.88h.025s-.038-.414-.038-.917v-5.213h1.333v8.641h-1.28zM8.819 28.003c.124 1.255.73 1.884 1.85 1.884a3.713 3.713 0 0 0 1.71-.377l.365.967a4.648 4.648 0 0 1-2.24.477c-1.925 0-3.145-1.243-3.145-3.528 0-2.21 1.12-3.491 2.893-3.491 1.8 0 2.781 1.193 2.718 3.465l-4.151.603zm1.383-3.128c-.893 0-1.51.728-1.472 2.348l2.805-.427c0-1.37-.49-1.919-1.333-1.919M15.874 30.904a1.711 1.711 0 0 1-1.863-1.834v-4.032h-.753v-.981h.753v-1.494l1.536-.427v1.919h1.107v.98h-1.107v3.957c0 .527.214.879.743.879.124 0 .247-.022.365-.062v.956a1.972 1.972 0 0 1-.78.139M24.152 30.827h-1.384l-1.17-4.246a3.972 3.972 0 0 1-.139-.867h-.024a4.565 4.565 0 0 1-.152.867l-1.194 4.246h-1.385l-1.886-6.772h1.547l.993 4.385c.067.293.108.592.124.893h.026c.037-.302.096-.6.176-.893l1.196-4.385h1.283l1.144 4.385c.074.294.129.592.163.893h.026c.027-.305.073-.607.138-.906l1.044-4.372h1.362l-1.888 6.772zM28.944 30.955c-1.9 0-2.819-1.508-2.819-3.506 0-2.023.92-3.518 2.819-3.518 1.913 0 2.819 1.495 2.819 3.518 0 1.998-.918 3.506-2.819 3.506zm0-6.056c-1.082 0-1.295 1.244-1.295 2.538 0 1.282.238 2.476 1.295 2.476 1.095 0 1.296-1.193 1.296-2.476 0-1.294-.201-2.538-1.296-2.538zM35.46 25.063a1.85 1.85 0 0 0-1.435.051v5.713h-1.534v-6.405a6.669 6.669 0 0 1 3.27-.478l-.3 1.12zM39.976 30.83l-2.265-3.455h-.024v3.455h-1.523v-9.863h1.523v6.156h.024l2.151-3.065h1.561l-2.34 3.103L41.7 30.83h-1.724zM43.724 30.942c-.659.02-1.31-.15-1.875-.49l.403-.98c.371.262.817.399 1.271.388a.956.956 0 0 0 1.044-.951c0-.578-.302-.854-.993-1.119-1.284-.489-1.548-1.194-1.548-1.897a2 2 0 0 1 2.152-1.96 3.117 3.117 0 0 1 1.761.479l-.377.891c-.31-.24-.69-.372-1.082-.377a.887.887 0 0 0-.969.892c0 .553.414.83 1.006 1.07 1.321.525 1.623 1.203 1.623 1.995 0 1.106-.928 2.06-2.413 2.06" fill="#fff"/>
    <path d="M32.391.514c-8.452.52-15.477 1.505-15.31 1.542l.333.124c.14.05 6.983-.764 14.878-1.211 55.831-3.265 89.816 12.952 34.84 25.54-4.219.967-8.686 1.878-12.778 2.835-.938.218-2.418.511-2.622.796-.205.284.604.854 2.532.667 1.412-.139 2.755-.349 4.012-.542a154.457 154.457 0 0 0 11.33-2.166C124.057 15.566 98.15 0 48.392 0c-5.104 0-10.46.164-16 .512" fill="#fff"/>
    <path d="M32.254 1.133c-7.761.437-14.26 1.292-14.095 1.33l.333.124c.14.048 6.458-.638 13.662-1 50.763-2.64 79.763 11.846 31.591 22.744-3.637.83-7.494 1.612-11.005 2.442-.892.18-1.768.432-2.619.755-.53.244-.403.8 1.125.85a25.627 25.627 0 0 0 3.274-.323 123.895 123.895 0 0 0 11.72-2.12C114.796 14.843 91.752.737 45.882.735c-4.353 0-8.907.128-13.63.396" fill="#fff"/>
    <path d="M32.113 1.772c-7.05.345-13.008 1.074-12.848 1.11l.335.128c.141.045 5.922-.511 12.414-.785C77.617.22 101.493 12.94 60.225 22.073c-3.218.719-6.646 1.4-9.648 2.137-.79.14-1.56.385-2.286.727-.299.253-.03.736 1.35.78 1.05-.02 2.1-.11 3.139-.27a103.552 103.552 0 0 0 9.964-1.756c42.562-9.58 22.518-22.203-19.448-22.204-3.578 0-7.305.095-11.182.285" fill="#fff"/>
    <path d="M31.979 2.388c-6.364.26-11.799.867-11.635.901.11.044.221.086.331.128.142.045 5.399-.387 11.203-.576 40.641-1.399 59.555 9.618 24.898 17.02-3.149.676-6.852 1.34-9.369 2.104-1.45.443-.304 1.328 2.75 1.024 3.08-.32 6.139-.82 9.16-1.5C96.128 13.404 79.05 2.203 40.734 2.203c-2.809 0-5.727.062-8.754.186" fill="#fff"/>
    <path d="M31.841 3.003c-5.676.176-10.583.656-10.425.694.114.042.223.086.332.124.142.044 4.876-.265 9.996-.371 35.732-.805 49.694 8.528 21.552 14.166-2.305.467-4.803.928-6.728 1.453-1.026.278-1.866.705-1.399 1.007.689.444 1.721.474 3.945.247a63.165 63.165 0 0 0 6.746-1.061C86.99 12.706 72.942 2.898 38.07 2.897c-2.01 0-4.087.033-6.228.1" fill="#fff"/>
    <path d="M31.708 3.616c-4.992.093-9.377.45-9.218.488.109.042.223.085.332.124.143.044 4.35-.144 8.789-.164 30.877-.222 39.893 7.442 18.175 11.3-1.993.353-5.33.866-5.984 1.402-.415.343-.673 1.082 1.75 1.068a39.488 39.488 0 0 0 6.82-.81C77.879 12.035 66.983 3.582 35.237 3.58c-1.152 0-2.323.011-3.528.034" fill="#fff"/>
    <path d="M31.57 4.244c-4.293.008-8.136.239-7.977.278.11.042.22.085.332.124.065.02.878.018 2.1.016 1.432 0 3.429-.006 5.446.027 25.932.368 29.872 6.333 14.668 8.33-1.939.255-3.718.583-4.46 1.037-.58.356-.028.85 1.448 1.003a24.45 24.45 0 0 0 5.62-.365C68.524 11.38 61.085 4.242 31.899 4.241h-.329" fill="#fff"/>
    <path d="M24.664 4.928c.112.043.222.083.332.124.143.043 3.284.102 6.34.247 8.47.396 17.714 1.629 17.23 3.766-.087.399-.598.841-1.926 1.185-1.5.392-4.05.443-5.716.792-1.655.348-1.48.805-.422 1.122 1.534.374 3.125.46 4.69.253C58.744 10.9 56.109 5.372 31.436 4.853a121.41 121.41 0 0 0-2.543-.026c-2.475 0-4.348.071-4.228.1z" fill="#fff"/>
    <path d="m25.732 5.332.333.127c.143.041 2.764.223 5.137.445 3.055.212 6.089.666 9.073 1.356 1.225.345 4.266 1.392.446 1.7-1.326.104-1.92.203-2.046.517-.108.267.64.635 1.46.804 1.39.281 4.119-.172 5.252-.452 2.638-.648 1.458-1.643.156-2.208C42.86 6.456 37.206 5.774 31.3 5.46a104.305 104.305 0 0 0-4.972-.147c-.2-.015-.4-.008-.598.02M1.527 40.668A3.211 3.211 0 0 1 0 40.363v-4.935c.46-.215.964-.32 1.472-.306 1.63 0 2.335 1.12 2.335 2.734 0 1.613-.65 2.812-2.28 2.812zm-.031-4.896a1.37 1.37 0 0 0-.509.078v4.05c.17.053.347.08.524.08.924 0 1.285-.675 1.285-2.14 0-1.402-.399-2.068-1.3-2.068M5.177 38.827c.079.783.454 1.176 1.152 1.176a2.3 2.3 0 0 0 1.065-.234l.227.602a2.874 2.874 0 0 1-1.394.298c-1.198 0-1.96-.775-1.96-2.2 0-1.38.698-2.18 1.803-2.18 1.121 0 1.733.743 1.693 2.167l-2.586.371zm.862-1.951c-.557 0-.94.454-.917 1.465l1.747-.266c0-.854-.306-1.2-.83-1.2zM9.352 34.44h-.956v6.15h.956v-6.15zM10.645 35.639a.476.476 0 1 1 .524-.47.5.5 0 0 1-.524.47zm-.478.729h.955v4.222h-.955v-4.222zM13.84 40.59h-.909l-1.378-4.223h1.016l.743 2.723c.053.19.087.384.102.58h.016c.02-.195.058-.39.11-.58l.76-2.723h.893l-1.352 4.222zM16.235 38.827c.079.783.456 1.176 1.152 1.176a2.3 2.3 0 0 0 1.065-.234l.227.602a2.866 2.866 0 0 1-1.393.298c-1.2 0-1.96-.775-1.96-2.2 0-1.38.698-2.18 1.803-2.18 1.12 0 1.733.743 1.691 2.167l-2.585.371zm.862-1.951c-.557 0-.94.454-.916 1.465l1.748-.266c0-.854-.31-1.2-.832-1.2zM21.264 36.993a1.154 1.154 0 0 0-.893.033v3.563h-.956v-3.995a4.15 4.15 0 0 1 2.038-.297l-.189.697zM22.314 35.639a.476.476 0 1 1 .524-.47.496.496 0 0 1-.524.47zm-.478.729h.955v4.222h-.955v-4.222zM25.941 40.59v-2.993c0-.345-.157-.705-.76-.705a1.602 1.602 0 0 0-.658.117v3.58h-.956v-3.995a3.886 3.886 0 0 1 1.653-.306c1.261 0 1.677.612 1.677 1.293v3.008h-.956zM29.167 42.36a3.042 3.042 0 0 1-1.44-.298l.265-.627c.313.162.66.247 1.011.248a.852.852 0 0 0 .971-.948v-.266c-.246.117-.518.17-.79.157-1.012 0-1.7-.784-1.7-2.061 0-1.37.68-2.28 2.042-2.28.476-.023.95.083 1.37.306v4.058a1.57 1.57 0 0 1-1.732 1.708l.003.003zm.801-5.417a1.009 1.009 0 0 0-.495-.094c-.743 0-1.052.612-1.052 1.671 0 1.026.298 1.551 1.003 1.551.188.004.375-.042.54-.133l.004-2.995zM34.462 42.273h-.469l.704-1.684-1.423-4.222h.462l1.018 3.33c.048.153.082.31.102.47h.016s.039-.212.117-.47l1.052-3.33h.384l-1.963 5.906zM38.308 40.668c-1.114 0-1.551-.956-1.551-2.185 0-1.254.439-2.194 1.535-2.194 1.12 0 1.552.94 1.552 2.194 0 1.23-.439 2.185-1.536 2.185zm0-4.104c-.948 0-1.128 1.033-1.128 1.927 0 .893.203 1.872 1.128 1.872.94 0 1.114-.98 1.114-1.872 0-.894-.173-1.927-1.114-1.927zM41.968 40.675a1.2 1.2 0 0 1-1.362-1.323v-2.985h.423v2.97a.92.92 0 0 0 .99 1.027c.306.014.61-.057.878-.204V36.37h.423v3.96c-.408.24-.875.36-1.348.346M45.71 36.657a1.322 1.322 0 0 0-1.04.117v3.815h-.424v-4.003a2.882 2.882 0 0 1 1.59-.298l-.125.369zM48.49 38.662c.063 1.12.58 1.677 1.419 1.677.353.01.702-.076 1.01-.248l.134.306c-.354.19-.75.283-1.152.273-1.018 0-1.81-.619-1.81-2.2 0-1.486.713-2.179 1.599-2.179.908 0 1.511.572 1.511 1.975l-2.71.396zm1.191-2.06c-.673 0-1.197.517-1.197 1.801l2.302-.352c0-1.058-.423-1.45-1.105-1.45zM52.446 34.44h-.423v6.15h.423v-6.15zM53.669 38.662c.062 1.12.579 1.677 1.418 1.677.352.01.702-.076 1.01-.248l.133.306c-.354.19-.75.284-1.151.273-1.02 0-1.81-.619-1.81-2.2 0-1.486.713-2.179 1.598-2.179.909 0 1.512.572 1.512 1.975l-2.71.396zm1.19-2.06c-.674 0-1.198.517-1.198 1.801l2.303-.352c0-1.058-.424-1.45-1.105-1.45zM58.501 40.668c-.885 0-1.535-.854-1.535-2.185 0-1.371.626-2.194 1.567-2.194a1.33 1.33 0 0 1 .877.267l-.117.266a1.09 1.09 0 0 0-.697-.22c-.878 0-1.2.8-1.2 1.85 0 1.096.4 1.887 1.176 1.887.256.005.507-.075.713-.227l.124.29c-.263.19-.584.284-.908.266M61.219 40.613a.9.9 0 0 1-.94-.99v-3.008h-.496v-.248h.496v-1.011l.424-.157v1.168h.783v.243h-.783v3.04a.59.59 0 0 0 .61.665l.173-.015v.273a.82.82 0 0 1-.267.04zM63.585 36.657a1.325 1.325 0 0 0-1.042.117v3.815h-.423v-4.003a2.887 2.887 0 0 1 1.59-.298l-.125.369zM64.485 35.47a.283.283 0 1 1 0-.566.283.283 0 0 1 0 .565zm-.211.9h.423v4.222h-.423V36.37zM67.046 40.668c-.885 0-1.535-.854-1.535-2.185 0-1.371.627-2.194 1.567-2.194.315-.018.626.077.878.267l-.118.266a1.09 1.09 0 0 0-.697-.22c-.877 0-1.199.8-1.199 1.85 0 1.096.4 1.887 1.176 1.887.256.005.507-.075.713-.227l.123.29c-.263.19-.584.284-.909.266M68.864 35.47a.283.283 0 1 1-.001-.566.283.283 0 0 1 0 .565zm-.212.9h.423v4.222h-.422V36.37zM71.23 40.613a.9.9 0 0 1-.941-.99v-3.008h-.495v-.248h.495v-1.011l.423-.157v1.168h.784v.243h-.784v3.04a.59.59 0 0 0 .611.665l.173-.015v.273a.813.813 0 0 1-.266.04zM73 42.273h-.47l.704-1.684-1.423-4.222h.461l1.02 3.33c.047.153.081.31.101.47h.016c.031-.16.07-.316.117-.47l1.053-3.33h.383L73 42.273z" fill="#fff"/>
</svg>
