<svg viewBox="0 0 41 41"><path d="M8.54 36.61a.5.5 0 0 1-.35-.85L10.93 33a.5.5 0 0 1 .35-.15h7.1a1.61 1.61 0 0 0 1.62-1.6v-3.11a.5.5 0 0 1 1 0v3.11a2.62 2.62 0 0 1-2.61 2.61H11.5l-2.6 2.6a.5.5 0 0 1-.36.15z"/><path d="M29.19 30.06a.5.5 0 0 1-.35-.15l-4-4h-10a3.53 3.53 0 0 1-3.52-3.52V15.2a3.53 3.53 0 0 1 3.52-3.52h11.33a3.53 3.53 0 0 1 3.52 3.52v14.36a.5.5 0 0 1-.31.46.49.49 0 0 1-.19.04zM14.83 12.67a2.53 2.53 0 0 0-2.52 2.52v7.14a2.53 2.53 0 0 0 2.52 2.52H25a.5.5 0 0 1 .35.15l3.34 3.34V15.2a2.53 2.53 0 0 0-2.52-2.52z"/><path d="M20.5 41a20.31 20.31 0 0 1-12.45-4.21.5.5 0 1 1 .61-.79 19.32 19.32 0 0 0 11.84 4 19.5 19.5 0 1 0-15.75-8 .5.5 0 0 1-.81.59A20.5 20.5 0 1 1 20.5 41z"/><path d="M8.36 31.83a.5.5 0 0 1-.5-.5v-5.07a2.61 2.61 0 0 1 2.61-2.61h2a.5.5 0 0 1 0 1h-2a1.61 1.61 0 0 0-1.61 1.61v5.07a.5.5 0 0 1-.5.5z"/></svg>