<svg viewBox="0 0 40.99 40.99"><path d="M13.719 13.334l.009-1 13.759.123-.009 1zM22.72 18.8l-6.12-.05a.5.5 0 0 1 0-1l6.12.05a.5.5 0 0 1 0 1zM24 21.47l-7.37-.07a.5.5 0 0 1 0-1l7.37.07a.5.5 0 0 1 0 1zm-10.433 6.172l.009-1 13.76.122-.01 1z"/><circle cx="20.6" cy="29.94" r=".91" transform="rotate(-89.49 20.6 29.938)"/><path d="M20.46 41a20.37 20.37 0 0 1-10-2.6.5.5 0 0 1 .49-.87 19.47 19.47 0 1 0-4.11-3.07.5.5 0 0 1-.7.72A20.51 20.51 0 1 1 20.46 41z"/><path d="M35.21 12a.5.5 0 0 1-.43-.25 16.81 16.81 0 0 0-3.12-3.85l-.42-.37a.5.5 0 0 1 .65-.76l.44.39a17.85 17.85 0 0 1 3.31 4.07.5.5 0 0 1-.43.75zM8.38 33.11A.5.5 0 0 1 8 33a17.89 17.89 0 0 1-3.29-4.6.5.5 0 0 1 .89-.45 16.85 16.85 0 0 0 3.13 4.31.5.5 0 0 1-.35.85zM25.43 33h-9.88a2.5 2.5 0 0 1-2.49-2.51l.11-19.24a2.48 2.48 0 0 1 .74-1.76 2.61 2.61 0 0 1 1.77-.72l9.87.06A2.51 2.51 0 0 1 28 11.31l-.11 19.24A2.5 2.5 0 0 1 25.43 33zm0-1a1.5 1.5 0 0 0 1.5-1.49l.07-19.2a1.51 1.51 0 0 0-1.45-1.51l-9.87-.06a1.63 1.63 0 0 0-1.06.44 1.49 1.49 0 0 0-.45 1.06l-.11 19.24a1.5 1.5 0 0 0 1.5 1.52zm7.24-19.06a.5.5 0 0 1-.43-.24A11.86 11.86 0 0 0 30 10l-.3-.26a.5.5 0 0 1 .66-.74l.32.28a12.86 12.86 0 0 1 2.42 2.91.5.5 0 0 1-.43.76zM10.12 31.08a.5.5 0 0 1-.35-.14 12.8 12.8 0 0 1-2.43-3.22.5.5 0 0 1 .88-.47 11.76 11.76 0 0 0 2.25 3 .5.5 0 0 1-.35.86z"/></svg>