<svg xmlns="http://www.w3.org/2000/svg" viewBox="0 0 41.03 41.07"><path d="M18.2,33.76a.5.5,0,0,1-.49-.62l2.15-8.9H11.3a.5.5,0,0,1-.4-.8L22.4,7.87a.5.5,0,0,1,.89.4L21.12,18H29.7a.5.5,0,0,1,.39.81L18.59,33.57A.5.5,0,0,1,18.2,33.76ZM12.29,23.24H20.5a.5.5,0,0,1,.49.62l-1.76,7.27L28.67,19H20.5a.5.5,0,0,1-.49-.61l1.79-8.08Z" transform="translate(0.03 -0.14)"/><path d="M20.5,41.21a20.69,20.69,0,0,1-3.56-.31.5.5,0,0,1-.41-.53v-.29a.5.5,0,0,1,.11-.29L26,28.52a.5.5,0,1,1,.77.64L17.77,40a19.56,19.56,0,1,0-4.7-1.29.5.5,0,0,1-.38.92,20.51,20.51,0,1,1,7.81,1.54Z" transform="translate(0.03 -0.14)"/></svg>