<svg viewBox="0 0 41 41"><path d="M17.14 24h-2.91a.5.5 0 0 1-.5-.5v-2.92a.5.5 0 0 1 .5-.5h2.92a.5.5 0 0 1 .5.5v2.92a.5.5 0 0 1-.51.5zm-2.42-1h1.92v-1.92h-1.91zM22 24h-3a.5.5 0 0 1-.5-.5v-2.92a.5.5 0 0 1 .5-.5h3a.5.5 0 0 1 .5.5v2.92a.5.5 0 0 1-.5.5zm-2.42-1h1.92v-1.92h-1.96zm7.19 1h-2.91a.5.5 0 0 1-.5-.5v-2.92a.5.5 0 0 1 .5-.5h2.92a.5.5 0 0 1 .5.5v2.92a.5.5 0 0 1-.51.5zm-2.42-1h1.92v-1.92h-1.91zm-7.21 6.13h-2.91a.5.5 0 0 1-.5-.5v-2.92a.5.5 0 0 1 .5-.5h2.92a.5.5 0 0 1 .5.5v2.92a.5.5 0 0 1-.51.5zm-2.42-1h1.92v-1.92h-1.91zm7.28 1h-3a.5.5 0 0 1-.5-.5v-2.92a.5.5 0 0 1 .5-.5h3a.5.5 0 0 1 .5.5v2.92a.5.5 0 0 1-.5.5zm-2.42-1h1.92v-1.92h-1.96zm7.19 1h-2.91a.5.5 0 0 1-.5-.5v-2.92a.5.5 0 0 1 .5-.5h2.92a.5.5 0 0 1 .5.5v2.92a.5.5 0 0 1-.51.5zm-2.42-1h1.92v-1.92h-1.91zm1.42-9.9H15.23a1.5 1.5 0 0 1-1.5-1.5V12.1a1.5 1.5 0 0 1 1.5-1.5h10.54a1.5 1.5 0 0 1 1.5 1.5v4.63a1.5 1.5 0 0 1-1.5 1.5zM15.23 11.6a.5.5 0 0 0-.5.5v4.63a.5.5 0 0 0 .5.5h10.54a.5.5 0 0 0 .5-.5V12.1a.5.5 0 0 0-.5-.5z"/><path d="M20.5 41a20.49 20.49 0 1 1 16.73-8.65.5.5 0 0 1-.82-.58 19.51 19.51 0 1 0-2.94 3.28.5.5 0 0 1 .67.75A20.47 20.47 0 0 1 20.5 41z"/><path d="M36.82 32.56H13.09a2.5 2.5 0 0 1-2.5-2.5V10a2.5 2.5 0 0 1 2.5-2.5h14.82a2.5 2.5 0 0 1 2.5 2.5v18.63a.5.5 0 0 1-1 0V10a1.5 1.5 0 0 0-1.5-1.5H13.09a1.5 1.5 0 0 0-1.5 1.5v20.06a1.5 1.5 0 0 0 1.5 1.5h23.73a.5.5 0 0 1 0 1z"/></svg>