<svg viewBox="0 0 48.5 41.6"><path d="M43.3 41.6H5.2c-1.9 0-3.6-1-4.5-2.7-.9-1.7-.9-3.6.1-5.3l19-31.2c1-1.6 2.7-2.5 4.5-2.5 1.8 0 3.5.9 4.5 2.5l19 31.2c1 1.6 1 3.6.1 5.3-1 1.7-2.7 2.7-4.6 2.7zM2.5 34.7c-.6 1-.6 2.2-.1 3.2C3 39 4 39.6 5.2 39.6h38.1c1.2 0 2.2-.6 2.8-1.6.6-1 .6-2.2-.1-3.2L27 3.6c-.6-1-1.7-1.5-2.8-1.5-1.1 0-2.2.6-2.8 1.6l-18.9 31z"/><path d="M24.8 26.7c-.6 0-1-.4-1-1v-12c0-.6.4-1 1-1s1 .4 1 1v12c0 .6-.4 1-1 1zm0 6.3c-.6 0-1-.4-1-1v-2.3c0-.6.4-1 1-1s1 .4 1 1V32c0 .6-.4 1-1 1z"/></svg>