<svg viewBox="0 0 41 41"><path d="M20.5 41A20.5 20.5 0 1 1 41 20.06a.5.5 0 0 1-.49.51.5.5 0 0 1-.5-.49 19.48 19.48 0 1 0-.8 6c-.14-.31-.81-1.38-3.14-1.38s-3.51 2-4.87 4-2.74 4.2-5.2 4.2c-4.89 0-6-4.44-6-6a.5.5 0 0 1 1 0 5 5 0 0 0 5 5c1.92 0 3.1-1.82 4.36-3.75 1.37-2.1 2.92-4.48 5.7-4.48 3.06 0 3.92 1.62 4.1 2.08a.51.51 0 0 1 .05.39A20.59 20.59 0 0 1 20.5 41z"/><path d="M21.89 27.24h-2.78a1.46 1.46 0 0 1-1.47-1.45v-1.43A4.3 4.3 0 0 0 15.86 21a5.27 5.27 0 0 1-2.13-4.21v-2.44a1.46 1.46 0 0 1 1.47-1.45h10.61a1.46 1.46 0 0 1 1.47 1.45v2.38A5.27 5.27 0 0 1 25.15 21a4.3 4.3 0 0 0-1.79 3.41v1.43a1.46 1.46 0 0 1-1.47 1.4zm-6.7-13.34a.46.46 0 0 0-.47.45v2.38a4.26 4.26 0 0 0 1.73 3.41 5.3 5.3 0 0 1 2.19 4.21v1.43a.46.46 0 0 0 .47.45h2.78a.46.46 0 0 0 .47-.45v-1.42a5.3 5.3 0 0 1 2.19-4.21 4.26 4.26 0 0 0 1.73-3.41v-2.39a.46.46 0 0 0-.47-.45z"/><path d="M17.36 13.9a.5.5 0 0 1-.5-.5V9.77a.5.5 0 0 1 1 0v3.63a.5.5 0 0 1-.5.5zm6.28 0a.5.5 0 0 1-.5-.5V9.77a.5.5 0 1 1 1 0v3.63a.5.5 0 0 1-.5.5zm-3.14 0a.5.5 0 0 1-.5-.5V8.69a.5.5 0 0 1 1 0v4.71a.5.5 0 0 1-.5.5zm0 7.1a2.07 2.07 0 1 1 2.07-2.07A2.07 2.07 0 0 1 20.5 21zm0-3.14a1.07 1.07 0 1 0 1.07 1.07 1.07 1.07 0 0 0-1.07-1.1z"/></svg>