<svg viewBox="0 0 41.03 41.03"><path d="M20.51 41h-.34A20.51 20.51 0 1 1 41 20.42a.5.5 0 0 1-.5.5.5.5 0 0 1-.5-.5A19.52 19.52 0 1 0 20.19 40h.32a19.6 19.6 0 0 0 18.54-13.39 6.26 6.26 0 0 0-3.47-.47 12.45 12.45 0 0 0-4.92 2.58A.5.5 0 1 1 30 28a13.26 13.26 0 0 1 5.42-2.8 7 7 0 0 1 4.49.78.5.5 0 0 1 .22.57A20.6 20.6 0 0 1 20.51 41z"/><path d="M26.69 31.37c-2.87 0-8.08-3.08-10.86-6.31-3.37-3.91-6-11.31-4-13l2.88-2.48a.77.77 0 0 1 .61-.19.79.79 0 0 1 .55.34l3.23 4.6a1 1 0 0 1-.17 1.37l-1.82 1.57a1.92 1.92 0 0 0-.46 2.2 8.51 8.51 0 0 0 .48 1 14.57 14.57 0 0 0 3.52 4.09 8.54 8.54 0 0 0 .85.6 2 2 0 0 0 2.26-.12l1.82-1.57a1 1 0 0 1 1.38 0l2.52 2.4a.5.5 0 0 1-.69.72l-2.52-2.4-1.84 1.51a2.94 2.94 0 0 1-3.44.21 9.07 9.07 0 0 1-.94-.66 15.6 15.6 0 0 1-3.77-4.38 9.46 9.46 0 0 1-.52-1 2.92 2.92 0 0 1 .73-3.36l1.82-1.57-3.11-4.49-2.7 2.32c-1.15 1 .64 7.63 4.09 11.63s9.75 6.76 10.9 5.77L30 28a.5.5 0 1 1 .66.75l-2.52 2.21a2.18 2.18 0 0 1-1.45.41z"/></svg>