<svg viewBox="0 0 41 41"><path d="M20.5 41C10.042 40.993 1.267 33.11.143 22.712-.98 12.314 5.906 2.74 16.121.497c10.216-2.243 20.48 3.568 23.814 13.48C43.27 23.89 38.604 34.723 29.11 39.11a.501.501 0 1 1-.42-.91c9.04-4.178 13.482-14.494 10.306-23.933-3.177-9.439-12.952-14.97-22.68-12.832C6.59 3.573.036 12.693 1.11 22.594 2.183 32.494 10.54 39.998 20.5 40a.5.5 0 1 1 0 1z"/><path d="M28.9 39.15a.5.5 0 0 1-.5-.5v-6.82a8.2 8.2 0 0 0-7.9-8.46 8.2 8.2 0 0 0-7.9 8.46.5.5 0 1 1-1 0c0-5.22 4-9.46 8.9-9.46s8.9 4.24 8.9 9.46v6.83a.5.5 0 0 1-.5.49zm-8.4-19.88A5.28 5.28 0 1 1 25.78 14a5.29 5.29 0 0 1-5.28 5.27zm0-9.56a4.28 4.28 0 1 0 0 8.56 4.28 4.28 0 0 0 0-8.56z"/></svg>