<svg viewBox="0 0 41 41"><path d="M18.77 20.43a.76.76 0 0 1 .76-.79.79.79 0 0 1 0 1.57.76.76 0 0 1-.76-.78zm.2-5.5v-1.15h1.17v1.15l-.16 3.44h-.78z"/><path d="M26.12 25.31h-12.7a5.94 5.94 0 0 1-6-5.92 5.79 5.79 0 0 1 5.34-5.9 6.92 6.92 0 0 1 13.76 1.12v.47a5.16 5.16 0 0 1 4.64 5.1 5 5 0 0 1-5.04 5.13zM13.19 14.48a4.8 4.8 0 0 0-4.78 4.91 4.92 4.92 0 0 0 4.92 4.92h12.79a4 4 0 0 0 4-4.12 4.17 4.17 0 0 0-4.19-4.13h-.58l.08-.57a6 6 0 0 0 .06-.87 5.92 5.92 0 0 0-11.8-.62v.45z"/><path d="M31.83 20.91h-1.21v-1h1.15a2.1 2.1 0 0 0 2.14-2.14 2.16 2.16 0 0 0-2.18-2.14h-.58l.09-.57a3.18 3.18 0 0 0-3.14-3.64 3.12 3.12 0 0 0-2.27 1l-.72-.69a4.11 4.11 0 0 1 3-1.27 4.18 4.18 0 0 1 4.18 4.18v.08a3.16 3.16 0 0 1 2.64 3.1 3.07 3.07 0 0 1-3.1 3.09z"/><path d="M20.5 41a20.71 20.71 0 0 1-3.56-.31.5.5 0 0 1-.41-.53v-.29a.5.5 0 0 1 .11-.28L26 28.31a.5.5 0 1 1 .77.64l-9 10.86a19.8 19.8 0 0 0 2.73.19 19.48 19.48 0 1 0-7.43-1.47.5.5 0 0 1-.38.92A20.51 20.51 0 1 1 20.5 41z"/><path d="M19 33.69a.5.5 0 0 1-.38-.82l3.67-4.42a.5.5 0 1 1 .77.64l-3.67 4.42a.5.5 0 0 1-.39.18zm-3.42-.11a.5.5 0 0 1-.38-.82l3.67-4.42a.5.5 0 0 1 .77.64L16 33.4a.5.5 0 0 1-.42.18zm-3.41-.11a.5.5 0 0 1-.38-.82l3.67-4.42a.5.5 0 1 1 .77.64l-3.67 4.42a.5.5 0 0 1-.39.18z"/></svg>