<svg viewBox="0 0 33 33"><g fill="none"><path fill="#00ACED" d="M16.3 0C7.292 0-.01 7.302-.01 16.31S7.292 32.62 16.3 32.62s16.31-7.302 16.31-16.31C32.604 7.305 25.305.006 16.3 0z"/><path fill="#FFF" d="M26.498 11.045c-.7.31-1.451.52-2.239.613a3.91 3.91 0 0 0 1.714-2.156 7.806 7.806 0 0 1-2.476.946 3.898 3.898 0 0 0-6.642 3.555A11.065 11.065 0 0 1 8.82 9.931a3.896 3.896 0 0 0 1.206 5.204 3.883 3.883 0 0 1-1.765-.487v.049a3.9 3.9 0 0 0 3.127 3.822 3.904 3.904 0 0 1-1.763.067 3.902 3.902 0 0 0 3.643 2.707 7.822 7.822 0 0 1-4.84 1.667 7.93 7.93 0 0 1-.931-.052 11.033 11.033 0 0 0 5.976 1.751c7.17 0 11.09-5.94 11.09-11.091 0-.168-.003-.337-.011-.504a7.923 7.923 0 0 0 1.945-2.017"/></g></svg>