<svg viewBox="0 0 41 41"><path d="M17.72 17.31h-5a.5.5 0 0 1-.48-.65 8.85 8.85 0 0 1 5.27-5.83.5.5 0 0 1 .67.47v5.52a.5.5 0 0 1-.46.49zm-4.25-1h3.75V12a7.89 7.89 0 0 0-3.75 4.31z"/><path d="M20.5 41a20.53 20.53 0 0 1-9.86-2.52.5.5 0 1 1 .48-.88 19.5 19.5 0 1 0-7.5-7.34l8.27-8.07a8.11 8.11 0 0 1-.18-2.07.5.5 0 0 1 .5-.5h9.38c1.25 0 2.26-1.54 2.26-2.81v-5a.5.5 0 0 1 .75-.43 10.14 10.14 0 0 1 4.66 8.3 8.61 8.61 0 0 1-8.77 8.62h-2.7a6.38 6.38 0 0 0-4.56 1.91l-8.81 9.11a.5.5 0 1 1-.72-.7l8.81-9.07a7.38 7.38 0 0 1 5.28-2.21h2.68a7.53 7.53 0 0 0 7.77-7.62 9.38 9.38 0 0 0-3.41-6.93v4c0 1.8-1.39 3.81-3.26 3.81h-8.86a5.47 5.47 0 0 0 .22 1.58.5.5 0 0 1-.13.5l-8.94 8.74a.5.5 0 0 1-.74 0A20.5 20.5 0 1 1 20.5 41z"/><path d="M16.06 26.14a.5.5 0 0 1-.45-.72l1.65-3.31a.5.5 0 1 1 .89.45l-1.65 3.31a.5.5 0 0 1-.44.27zm2.76 0a.5.5 0 0 1-.45-.72L20 22.1a.5.5 0 1 1 .89.45l-1.65 3.31a.5.5 0 0 1-.42.28zm2.76 0a.5.5 0 0 1-.45-.72l1.66-3.31a.5.5 0 0 1 .89.45L22 25.86a.5.5 0 0 1-.42.28z"/></svg>