<svg viewBox="0 0 39.38 39.38"><path d="M28.33 25.19a.5.5 0 0 1-.44-.74A9.33 9.33 0 0 0 15.23 11.8a.5.5 0 1 1-.48-.88 10.34 10.34 0 0 1 14 14 .5.5 0 0 1-.42.27zm-8.64 9.42l-7.3-7.31a10.34 10.34 0 0 1 0-14.61l.25-.24.68.73-.22.22a9.34 9.34 0 0 0 0 13.2l6.6 6.6 6.6-6.6.21-.22.74.67-.25.25z"/><path d="M19.69 26.13a6.43 6.43 0 0 1-4.55-11l.71.71a5.43 5.43 0 1 0 7.76 7.61l.72.69a6.39 6.39 0 0 1-4.64 1.99zm5.6-3.97h-.17a.5.5 0 0 1-.31-.64 5.44 5.44 0 0 0-6.93-6.93.5.5 0 0 1-.33-.94 6.44 6.44 0 0 1 8.2 8.2.5.5 0 0 1-.46.31z"/><path d="M33.3 33.64a.5.5 0 0 1-.35-.15L5.85 6.4a.5.5 0 0 1 .71-.71l27.1 27.1a.5.5 0 0 1-.35.85z"/><path d="M19.69 39.38a19.67 19.67 0 1 1 19-14.56.5.5 0 0 1-1-.26A18.69 18.69 0 1 0 33 32.82a.5.5 0 1 1 .72.71 19.55 19.55 0 0 1-14.03 5.85z"/></svg>