<svg viewBox="0 0 82 82"><path d="M34.28 48h-5.83a1 1 0 0 1-1-1v-5.83a1 1 0 0 1 1-1h5.83a1 1 0 0 1 1 1V47a1 1 0 0 1-1 1zm-4.83-2h3.83v-3.83h-3.83zm14.47 2h-5.84a1 1 0 0 1-1-1v-5.83a1 1 0 0 1 1-1h5.83a1 1 0 0 1 1 1V47a1 1 0 0 1-.99 1zm-4.83-2h3.83v-3.83h-3.84zm14.45 2h-5.83a1 1 0 0 1-1-1v-5.83a1 1 0 0 1 1-1h5.83a1 1 0 0 1 1 1V47a1 1 0 0 1-1 1zm-4.83-2h3.83v-3.83h-3.83zM34.28 58.25h-5.83a1 1 0 0 1-1-1v-5.83a1 1 0 0 1 1-1h5.83a1 1 0 0 1 1 1v5.83a1 1 0 0 1-1 1zm-4.83-2h3.83v-3.83h-3.83zm14.47 2h-5.84a1 1 0 0 1-1-1v-5.83a1 1 0 0 1 1-1h5.83a1 1 0 0 1 1 1v5.83a1 1 0 0 1-.99 1zm-4.83-2h3.83v-3.83h-3.84zm14.45 2h-5.83a1 1 0 0 1-1-1v-5.83a1 1 0 0 1 1-1h5.83a1 1 0 0 1 1 1v5.83a1 1 0 0 1-1 1zm-4.83-2h3.83v-3.83h-3.83zm3.84-19.79h-23.1a2 2 0 0 1-2-2V23.2a2 2 0 0 1 2-2h23.1a2 2 0 0 1 2 2v11.26a2 2 0 0 1-2 2zM29.45 23.2v11.26h23.1V23.2z"/><path d="M41 82a41 41 0 1 1 33.46-17.3 1 1 0 1 1-1.63-1.16A39 39 0 1 0 67 70.11a1 1 0 0 1 1.33 1.49A40.94 40.94 0 0 1 41 82z"/><path d="M73.64 65.12H26.17a5 5 0 0 1-5-5V20a5 5 0 0 1 5-5h29.66a5 5 0 0 1 5 5v37.25a1 1 0 0 1-2 0V20a3 3 0 0 0-3-3H26.17a3 3 0 0 0-3 3v40.12a3 3 0 0 0 3 3h47.47a1 1 0 0 1 0 2z"/></svg>