<svg viewBox="0 0 82 82.01"><path d="M41 82a41 41 0 1 1 41-41.88 1 1 0 0 1-1 1 1 1 0 0 1-1-1 39 39 0 1 0-1.6 12c-.29-.63-1.62-2.76-6.29-2.76-4.48 0-7 3.92-9.73 8.06S56.9 65.85 52 65.85c-9.78 0-12-8.87-12-12a1 1 0 0 1 2 0c0 2.59 1.83 10 10 10 3.83 0 6.21-3.64 8.72-7.5 2.74-4.2 5.85-9 11.41-9 6.13 0 7.84 3.25 8.2 4.16a1 1 0 0 1 .11.77A41.18 41.18 0 0 1 41 82z"/><path d="M43.78 54.49h-5.55a2.92 2.92 0 0 1-2.93-2.91v-2.86a8.6 8.6 0 0 0-3.58-6.82 10.54 10.54 0 0 1-4.27-8.43v-4.76a2.92 2.92 0 0 1 2.93-2.91h21.25a2.92 2.92 0 0 1 2.93 2.91v4.77a10.54 10.54 0 0 1-4.27 8.43 8.6 8.6 0 0 0-3.58 6.82v2.86a2.92 2.92 0 0 1-2.93 2.9zM30.38 27.8a.92.92 0 0 0-.93.91v4.76a8.53 8.53 0 0 0 3.46 6.82 10.6 10.6 0 0 1 4.39 8.43v2.86a.92.92 0 0 0 .93.91h5.55a.92.92 0 0 0 .93-.91v-2.86a10.6 10.6 0 0 1 4.39-8.43 8.53 8.53 0 0 0 3.46-6.82v-4.76a.92.92 0 0 0-.93-.91z"/><path d="M34.73 27.8a1 1 0 0 1-1-1v-7.26a1 1 0 0 1 2 0v7.26a1 1 0 0 1-1 1zm12.55 0a1 1 0 0 1-1-1v-7.26a1 1 0 0 1 2 0v7.26a1 1 0 0 1-1 1zm-6.28 0a1 1 0 0 1-1-1v-9.42a1 1 0 1 1 2 0v9.42a1 1 0 0 1-1 1zm0 14.13a4.14 4.14 0 1 1 4.14-4.14A4.14 4.14 0 0 1 41 41.93zm0-6.28a2.14 2.14 0 1 0 2.14 2.14A2.14 2.14 0 0 0 41 35.65z"/></svg>