<svg viewBox="0 0 82 82"><path d="M35.44 34.62h-9.93a1 1 0 0 1-1-1.31c1.82-5.67 5.67-9.92 10.54-11.67a1 1 0 0 1 1.34.94v11a1 1 0 0 1-.95 1.04zm-8.51-2h7.51V24.1a15.79 15.79 0 0 0-7.51 8.52z"/><path d="M41 82a41 41 0 0 1-19.73-5 1 1 0 0 1 1-1.75 39 39 0 1 0-15-14.67l16.5-16.2a16.19 16.19 0 0 1-.36-4.14 1 1 0 0 1 1-1h18.75c2.5 0 4.52-3.07 4.52-5.62v-9.93a1 1 0 0 1 1.5-.86C54.58 26 58.5 33 58.5 39.44A17.21 17.21 0 0 1 41 56.69h-5.41a12.76 12.76 0 0 0-9.13 3.82L8.85 78.65a1 1 0 0 1-1.44-1.39L25 59.1a14.76 14.76 0 0 1 10.55-4.42H41c8.86 0 15.55-6.55 15.55-15.25a18.76 18.76 0 0 0-6.83-13.85v8c0 3.6-2.79 7.62-6.52 7.62H25.41a10.91 10.91 0 0 0 .43 3.16 1 1 0 0 1-.26 1L7.73 62.84a1 1 0 0 1-1.48-.09l-.07-.1A41 41 0 1 1 41 82z"/><path d="M32.13 52.27a1 1 0 0 1-.89-1.45l3.31-6.62a1 1 0 1 1 1.79.89L33 51.72a1 1 0 0 1-.87.55zm5.51 0a1 1 0 0 1-.89-1.45l3.31-6.62a1 1 0 1 1 1.79.89l-3.31 6.62a1 1 0 0 1-.9.56zm5.52 0a1 1 0 0 1-.89-1.45l3.31-6.62a1 1 0 1 1 1.79.89l-3.31 6.62a1 1 0 0 1-.9.56z"/></svg>