<svg viewBox="0 0 82 82"><path d="M41 82h-.68A41 41 0 1 1 82 40.81a1 1 0 0 1-1 1 1 1 0 0 1-1-1A39.21 39.21 0 0 0 41.65 2 39 39 0 0 0 7.53 61a39 39 0 0 0 32.82 19H41a39.17 39.17 0 0 0 37.06-26.8 12.5 12.5 0 0 0-6.93-.94c-4.66.73-9.79 5.1-9.84 5.15A1 1 0 0 1 60 55.88c.23-.19 5.61-4.78 10.83-5.61a14.15 14.15 0 0 1 9 1.56 1 1 0 0 1 .39 1.17A41.18 41.18 0 0 1 41 82z"/><path d="M53.46 62.62c-5.35 0-15.39-5.08-21.81-12.53a44.61 44.61 0 0 1-7.94-14.54c-1.1-3.37-2.56-9.34 0-11.53l5.75-5a1.53 1.53 0 0 1 1.22-.39 1.58 1.58 0 0 1 1.1.68l6.45 9.21a2.1 2.1 0 0 1-.33 2.73l-3.63 3.13a3.84 3.84 0 0 0-.93 4.39 17.38 17.38 0 0 0 1 1.9 29.11 29.11 0 0 0 7 8.17A16.73 16.73 0 0 0 43 50.1a3.89 3.89 0 0 0 4.52-.25l3.63-3.13a2.1 2.1 0 0 1 2.75.07l5 4.79A1 1 0 1 1 57.57 53l-5-4.79h-.09l-3.61 3.11a5.88 5.88 0 0 1-6.89.42 18.27 18.27 0 0 1-1.87-1.33 31.09 31.09 0 0 1-7.54-8.75 18.71 18.71 0 0 1-1-2.08 5.83 5.83 0 0 1 1.45-6.72l3.63-3.13v-.09l-6.18-8.81-5.47 4.7c-1 .82-1.13 4 .62 9.39a42.49 42.49 0 0 0 7.56 13.86c6.89 8 19.47 13.52 21.79 11.53l5-4.42a1 1 0 1 1 1.32 1.5l-5 4.42a4.25 4.25 0 0 1-2.83.81z"/></svg>