<svg viewBox="0 0 82 82"><circle cx="40.34" cy="31.29" r="1.51"/><path d="M40.34 44.72a1 1 0 0 1-1-1v-6.53h-.51a1 1 0 0 1 0-2h1.51a1 1 0 0 1 1 1v7.54a1 1 0 0 1-1 .99z"/><path d="M41.85 44.72h-3a1 1 0 0 1 0-2h3a1 1 0 0 1 0 2zM17.08 73.23a1 1 0 0 1-.71-1.71l5.5-5.5a1 1 0 0 1 .71-.29h14.2A3.23 3.23 0 0 0 40 62.5v-6.23a1 1 0 0 1 2 0v6.23a5.23 5.23 0 0 1-5.22 5.22H23l-5.21 5.21a1 1 0 0 1-.71.3z"/><path d="M58.38 60.11a1 1 0 0 1-.71-.29l-8.1-8.1h-19.9a7.05 7.05 0 0 1-7-7V30.4a7.05 7.05 0 0 1 7-7h22.66a7.05 7.05 0 0 1 7 7v28.71a1 1 0 0 1-1 1zM29.67 25.35a5.05 5.05 0 0 0-5 5v14.32a5.05 5.05 0 0 0 5 5H50a1 1 0 0 1 .71.29l6.68 6.68V30.4a5.05 5.05 0 0 0-5-5z"/><path d="M41 82a40.62 40.62 0 0 1-24.89-8.42A1 1 0 1 1 17.32 72 38.64 38.64 0 0 0 41 80 39 39 0 1 0 9.51 64a1 1 0 0 1-1.61 1.2A41 41 0 1 1 41 82z"/><path d="M16.71 63.67a1 1 0 0 1-1-1V52.53a5.23 5.23 0 0 1 5.22-5.22h3.91a1 1 0 0 1 0 2h-3.9a3.23 3.23 0 0 0-3.22 3.22v10.14a1 1 0 0 1-1.01 1z"/></svg>