<svg viewBox="0 0 82 82.02"><path d="M27.437 26.699l.018-2 27.52.245-.019 2zM45.44 37.63l-12.24-.11a1 1 0 1 1 0-2l12.24.11a1 1 0 0 1 0 2zM48.05 43l-14.75-.17a1 1 0 0 1 0-2l14.76.17a1 1 0 0 1 0 2zM27.144 55.314l.017-2 27.52.245-.018 2z"/><circle cx="41.2" cy="59.9" r="1.81" transform="rotate(-89.49 41.205 59.9)"/><path d="M40.92 82A40.76 40.76 0 0 1 21 76.79 1 1 0 1 1 22 75a39 39 0 0 0 56.51-44.6 39 39 0 1 0-64.78 38.51 1 1 0 1 1-1.4 1.43A40.86 40.86 0 1 1 40.92 82z"/><path d="M70.43 24.11a1 1 0 0 1-.86-.49 33.69 33.69 0 0 0-6.25-7.69l-.83-.74a1 1 0 0 1 1.3-1.52l.88.78a35.63 35.63 0 0 1 6.62 8.15 1 1 0 0 1-.86 1.51zM16.76 66.25a1 1 0 0 1-.71-.29 35.63 35.63 0 0 1-6.63-9.14 1 1 0 1 1 1.78-.9 33.65 33.65 0 0 0 6.26 8.63 1 1 0 0 1-.71 1.71zm36.1-.13L29.1 66a3 3 0 0 1-3-3l.24-42.49a3 3 0 0 1 3-3l23.74.14a3 3 0 0 1 3 3l-.25 42.49a3 3 0 0 1-3 3zM29.36 19.5a1 1 0 0 0-1 1L28.12 63a1 1 0 0 0 1 1l23.74.14a1 1 0 0 0 1-1l.25-42.49a1 1 0 0 0-1-1l-23.74-.15zm35.99 6.4a1 1 0 0 1-.86-.48A23.78 23.78 0 0 0 60 20l-.59-.51A1 1 0 1 1 60.72 18l.64.55a25.74 25.74 0 0 1 4.84 5.83 1 1 0 0 1-.85 1.52zM20.23 62.19a1 1 0 0 1-.69-.28 25.49 25.49 0 0 1-4.87-6.45 1 1 0 1 1 1.77-.94 23.54 23.54 0 0 0 4.49 5.94 1 1 0 0 1-.69 1.72z"/></svg>