<?xml version="1.0" encoding="utf-8"?>
<!-- Generator: Adobe Illustrator 21.0.2, SVG Export Plug-In . SVG Version: 6.00 Build 0)  -->
<svg version="1.1" id="Layer_1" xmlns="http://www.w3.org/2000/svg" xmlns:xlink="http://www.w3.org/1999/xlink" x="0px" y="0px"
	 viewBox="0 0 20 15" style="enable-background:new 0 0 20 15;" xml:space="preserve">
<style type="text/css">
	.st0{fill:#0467B8;}
</style>
<g>
	<path class="st0" d="M12,15c-0.1,0-0.3,0-0.4-0.1c-0.2-0.2-0.2-0.5,0-0.7L17.8,8H1C0.7,8,0.5,7.8,0.5,7.5S0.7,7,1,7h16.8l-6.1-6.1
		c-0.2-0.2-0.2-0.5,0-0.7s0.5-0.2,0.7,0l7,7c0,0,0,0,0,0l0,0c0,0,0,0,0,0l0,0l0,0c0,0,0.1,0.1,0.1,0.2c0,0.1,0,0.1,0,0.2l0,0
		c0,0,0,0,0,0c0,0,0,0,0,0v0c0,0,0,0,0,0v0c0,0,0,0,0,0c0,0,0,0,0,0l0,0c0,0.1,0,0.1,0,0.2c0,0.1-0.1,0.1-0.1,0.2l0,0l0,0
		c0,0,0,0,0,0l0,0c0,0,0,0,0,0l-7,7C12.3,15,12.1,15,12,15z"/>
</g>
</svg>
