<svg width="20" height="21" fill="none" xmlns="http://www.w3.org/2000/svg">
    <g clip-path="url(#a)" fill="#30354A">
        <path d="M10 14.219a3.719 3.719 0 1 1 3.667-3.719A3.696 3.696 0 0 1 10 14.219zm0-6.423a2.705 2.705 0 1 0 2.667 2.704A2.689 2.689 0 0 0 10 7.796z"/>
        <path d="M10.022 18.5c-2.543 0-4.906-1.267-7.224-3.873a23.845 23.845 0 0 1-1.877-2.51l-.843-1.345a.511.511 0 0 1 0-.544l.838-1.337a23.827 23.827 0 0 1 1.877-2.512C5.116 3.767 7.48 2.5 10.022 2.5c2.516 0 4.878 1.245 7.219 3.805.7.781 1.33 1.623 1.882 2.515.01.014.588.97.823 1.434a.51.51 0 0 1 .054.231c0 .09-.018.179-.054.26-.235.465-.814 1.42-.814 1.42-.556.9-1.19 1.748-1.896 2.535-2.336 2.555-4.698 3.8-7.214 3.8zm-8.929-8 .667 1.066a22.847 22.847 0 0 0 1.785 2.387c2.113 2.376 4.234 3.533 6.477 3.533 2.223 0 4.345-1.139 6.486-3.48a17.024 17.024 0 0 0 1.781-2.385s.398-.657.652-1.121c-.256-.468-.66-1.132-.66-1.135-.52-.838-1.111-1.63-1.768-2.365-2.147-2.348-4.268-3.486-6.491-3.486-2.243 0-4.364 1.157-6.482 3.539a22.831 22.831 0 0 0-1.785 2.389L1.093 10.5z"/>
    </g>
    <defs>
        <clipPath id="a">
            <path fill="#fff" transform="translate(0 2.5)" d="M0 0h20v16H0z"/>
        </clipPath>
    </defs>
</svg>
