<svg width="20" height="21" fill="none" xmlns="http://www.w3.org/2000/svg">
    <g clip-path="url(#a)" fill="#30354A">
        <path d="M10 14.166a3.67 3.67 0 0 0 3.667-3.666 3.63 3.63 0 0 0-.755-2.204l2.437-2.438a12.67 12.67 0 0 0-.774-.64l-2.37 2.37A3.632 3.632 0 0 0 10 6.834 3.67 3.67 0 0 0 6.333 10.5a3.63 3.63 0 0 0 .756 2.204l-2.4 2.4c.254.234.51.45.766.648l2.34-2.34a3.631 3.631 0 0 0 2.205.754zm2.667-3.666a2.665 2.665 0 0 1-4.164 2.204l3.702-3.702c.301.442.463.964.462 1.498zm-5.334 0a2.665 2.665 0 0 1 4.165-2.205l-3.702 3.703a2.65 2.65 0 0 1-.463-1.498zM19.854 1.353a.5.5 0 0 0-.707-.707l-3.85 3.85c.256.2.511.418.766.648l3.79-3.79zM.147 19.646a.5.5 0 1 0 .707.707l3.88-3.88a13.72 13.72 0 0 1-.758-.656l-3.83 3.83z"/>
        <path d="M19.123 8.82a17.743 17.743 0 0 0-1.883-2.515 17.096 17.096 0 0 0-1.177-1.16 13.93 13.93 0 0 0-.766-.649A8.465 8.465 0 0 0 10.022 2.5c-2.543 0-4.906 1.267-7.229 3.88A23.826 23.826 0 0 0 .916 8.89l-.838 1.338a.51.51 0 0 0 0 .544l.843 1.345c.57.877 1.197 1.715 1.877 2.51.391.44.784.826 1.178 1.19.252.233.505.454.759.656a8.367 8.367 0 0 0 5.287 2.027c2.516 0 4.878-1.245 7.214-3.8a17.816 17.816 0 0 0 1.896-2.534s.58-.956.814-1.42a.642.642 0 0 0 .054-.26.51.51 0 0 0-.054-.232c-.235-.464-.814-1.42-.823-1.434zm-.834 2.801a17.012 17.012 0 0 1-1.781 2.384c-2.142 2.342-4.263 3.48-6.486 3.48a7.373 7.373 0 0 1-4.567-1.733 12.29 12.29 0 0 1-.766-.647 15.62 15.62 0 0 1-1.144-1.152 22.844 22.844 0 0 1-1.785-2.387L1.093 10.5l.662-1.058a22.834 22.834 0 0 1 1.785-2.39c2.118-2.38 4.239-3.538 6.482-3.538a7.459 7.459 0 0 1 4.553 1.704c.258.196.516.41.774.64.407.36.796.742 1.164 1.142a16.928 16.928 0 0 1 1.767 2.365c.002.003.405.667.66 1.135-.253.464-.65 1.121-.65 1.121z"/>
    </g>
    <defs>
        <clipPath id="a">
            <path fill="#fff" transform="translate(0 .5)" d="M0 0h20v20H0z"/>
        </clipPath>
    </defs>
</svg>
