<svg xmlns="http://www.w3.org/2000/svg" width="49" height="49" viewBox="0 0 49 49">
    <path fill-rule="evenodd" d="M25.419 9.217V6.44h2.322a.598.598 0 0 0 0-1.195h-5.826a.597.597 0 1 0 0 1.195h2.279v2.756a15.241 15.241 0 0 0-6.109 1.396.613.613 0 0 0 .513 1.112 14.03 14.03 0 0 1 5.902-1.292c7.78 0 14.087 6.308 14.087 14.088 0 7.78-6.307 14.087-14.087 14.087-7.78 0-14.088-6.307-14.088-14.087a14.03 14.03 0 0 1 3.283-9.04.612.612 0 1 0-.939-.786A15.252 15.252 0 0 0 9.187 24.5c0 8.457 6.856 15.312 15.313 15.312S39.812 32.957 39.812 24.5c0-8.148-6.364-14.807-14.393-15.283M48.999 24.5C49 38.03 38.032 49 24.5 49 10.97 49 0 38.03 0 24.5A24.404 24.404 0 0 1 6.077 8.35a.613.613 0 0 1 .92.808A23.18 23.18 0 0 0 1.226 24.5c0 12.854 10.42 23.275 23.275 23.275 12.855 0 23.275-10.42 23.275-23.275 0-12.855-10.42-23.275-23.275-23.275a23.165 23.165 0 0 0-13.457 4.287l13.415 18.681h6.49c.329 0 .596.275.596.613a.605.605 0 0 1-.596.613h-6.791a.591.591 0 0 1-.48-.25L9.782 5.82c-.013-.019-.016-.04-.026-.06-.012-.013-.028-.02-.039-.034a.613.613 0 0 1 .124-.857A24.387 24.387 0 0 1 24.5 0C38.03 0 49 10.969 49 24.5"/>
</svg>
