<svg xmlns="http://www.w3.org/2000/svg" width="82" height="82" viewBox="0 0 82 82">
    <path fill="#30354A" fill-rule="evenodd" d="M21.828 57.924l16.534-14.128c.789.557 1.68.852 2.574.852.895 0 1.78-.296 2.554-.85l16.546 14.126H21.828zm-1.74-1.123V28.305l16.71 14.217L20.089 56.8zm39.979-29.648L42.89 41.756l-.333.275c-.984.853-2.27.85-3.281-.014L21.8 27.153h38.267zm1.71 1.15v28.499l-16.73-14.283 16.73-14.215zm11.719-12.172C66.865 7.43 57.244 1.838 46.404.376 35.56-1.09 24.804 1.762 16.106 8.393-1.85 22.082-5.32 47.827 8.369 65.783 16.41 76.33 28.613 81.88 40.963 81.88a40.85 40.85 0 0 0 24.846-8.401c.198-.173 4.869-4.25 6.32-6.033a1 1 0 0 0-.125-1.39l-8.731-7.497a2.96 2.96 0 0 0 .49-1.628V28.146a2.981 2.981 0 0 0-2.978-2.978H21.08a2.981 2.981 0 0 0-2.978 2.978V56.93a2.981 2.981 0 0 0 2.978 2.978h39.705c.292 0 .568-.055.835-.133l8.308 7.134c-1.8 1.89-5.385 5.02-5.382 5.02-17.077 13.02-41.567 9.72-54.587-7.36-13.02-17.08-9.72-41.566 7.36-54.586 8.273-6.308 18.51-9.016 28.818-7.626 10.31 1.39 19.462 6.712 25.769 14.985 8.074 10.59 10.179 24.396 5.632 36.933a1 1 0 1 0 1.88.682c4.78-13.18 2.567-27.694-5.922-38.827z"/>
</svg>
