<svg xmlns="http://www.w3.org/2000/svg" width="82" height="82" viewBox="0 0 82 82">
    <g fill="#202539" fill-rule="evenodd">
        <path d="M40.943 81.89c-2.462 0-8.197-.83-8.448-.867-10.763-2.29-19.932-8.6-25.885-17.775C.657 54.073-1.367 43.128.913 32.43 3.192 21.733 9.5 12.563 18.676 6.61 27.85.657 38.796-1.366 49.494.912c22.084 4.707 36.222 26.5 31.517 48.582-2.917 13.695-12.487 24.83-25.6 29.788a.999.999 0 1 1-.707-1.871c12.473-4.716 21.577-15.308 24.35-28.333 2.168-10.174.244-20.584-5.418-29.313-5.662-8.728-14.383-14.728-24.558-16.896-10.18-2.17-20.586-.244-29.314 5.419C11.037 13.95 5.037 22.672 2.87 32.847.702 43.022 2.626 53.432 8.288 62.16c5.662 8.727 14.384 14.727 24.558 16.894.013 0 4.713.68 7.316.813v-11.97a1 1 0 1 1 2 0v12.989a1 1 0 0 1-.973 1c-.078.002-.16.003-.246.003"/>
        <path d="M46.94 47.757a1 1 0 0 1-.993-.89c-.169-1.521.02-2.93.564-4.187a14.865 14.865 0 0 1 1.974-3.303 29.78 29.78 0 0 1 2.603-2.877 26.437 26.437 0 0 0 2.462-2.75 16.362 16.362 0 0 0 1.875-3.08c.486-1.036.732-2.245.732-3.594 0-2.194-.361-4.088-1.072-5.626-.707-1.525-1.682-2.778-2.899-3.724-1.242-.966-2.719-1.692-4.386-2.155-1.709-.474-3.565-.714-5.516-.714-2.829 0-5.468.62-7.842 1.84a21.431 21.431 0 0 0-5.614 4.16l5.659 5.178a24.537 24.537 0 0 1 2.285-1.743c1.064-.71 2.361-1.07 3.859-1.07 1.355 0 2.545.35 3.538 1.044 1.108.772 1.669 2.02 1.669 3.713 0 1-.323 1.985-.961 2.925a25.075 25.075 0 0 1-1.995 2.543c-.754.857-1.573 1.764-2.454 2.72a18.207 18.207 0 0 0-2.207 2.954 13.104 13.104 0 0 0-1.429 3.455c-.253.977-.331 2.043-.233 3.18h3.688a1 1 0 1 1 0 2h-4.573a1 1 0 0 1-.988-.844c-.271-1.73-.215-3.356.17-4.838a15.1 15.1 0 0 1 1.65-3.982 20.206 20.206 0 0 1 2.452-3.28 170.42 170.42 0 0 0 2.425-2.688 23.284 23.284 0 0 0 1.838-2.341c.415-.613.617-1.203.617-1.804 0-1.506-.611-1.933-.812-2.073-.66-.46-1.443-.683-2.395-.683-1.111 0-2.01.24-2.75.733-.859.573-1.781 1.3-2.74 2.164a.999.999 0 0 1-1.344-.006l-7.06-6.46a.998.998 0 0 1-.075-1.398 23.316 23.316 0 0 1 6.864-5.335c2.66-1.37 5.606-2.064 8.758-2.064 2.132 0 4.168.264 6.052.787 1.919.534 3.628 1.376 5.079 2.504 1.47 1.143 2.643 2.644 3.485 4.463.834 1.803 1.257 3.979 1.257 6.465 0 1.644-.31 3.139-.921 4.444a18.396 18.396 0 0 1-2.105 3.456 28.583 28.583 0 0 1-2.648 2.958 28.019 28.019 0 0 0-2.429 2.682 12.883 12.883 0 0 0-1.707 2.857c-.409.947-.545 1.985-.412 3.174a1 1 0 0 1-.995 1.11m-5.708 21.229a1 1 0 1 1 0-2c1.932 0 3.462-.633 4.679-1.936 1.233-1.322 1.833-2.917 1.833-4.875 0-1.96-.6-3.554-1.834-4.876-1.216-1.303-2.746-1.937-4.678-1.937-1.933 0-3.462.633-4.677 1.936-1.234 1.322-1.834 2.917-1.834 4.877 0 1.959.6 3.554 1.833 4.875a1 1 0 1 1-1.461 1.365c-1.574-1.685-2.372-3.785-2.372-6.24 0-2.456.798-4.556 2.372-6.241 1.591-1.706 3.657-2.572 6.139-2.572 2.481 0 4.547.866 6.14 2.572 1.574 1.686 2.372 3.786 2.372 6.24 0 2.455-.798 4.555-2.371 6.24-1.594 1.707-3.66 2.572-6.141 2.572"/>
    </g>
</svg>
