<svg xmlns="http://www.w3.org/2000/svg" width="54" height="54" viewBox="0 0 54 54">
    <g fill="#30354A" fill-rule="evenodd">
        <path d="M0 26.935C0 32.7 1.794 38.196 5.189 42.832a.656.656 0 1 0 1.059-.776 25.435 25.435 0 0 1-4.934-15.12c0-14.129 11.494-25.622 25.622-25.622 14.127 0 25.622 11.493 25.622 25.621 0 14.128-11.495 25.623-25.622 25.623-5.456 0-10.627-1.697-15.015-4.88l3.183-3.183h9.058c1.89 0 3.43-1.54 3.43-3.43V36.97a.656.656 0 1 0-1.313 0v4.093c0 1.169-.95 2.117-2.117 2.117h-9.33a.657.657 0 0 0-.465.193l-3.614 3.614a.644.644 0 0 0-.164.32c-.046.032-.093.065-.13.112-.22.288-.166.7.122.921 4.73 3.618 10.386 5.53 16.355 5.53 14.853 0 26.936-12.083 26.936-26.936a26.776 26.776 0 0 0-4.235-14.484C44.847 4.97 36.461 0 26.936 0 12.083 0 0 12.083 0 26.935z"/>
        <path d="M15.372 19.884c0-1.859 1.496-3.37 3.335-3.37h14.982c1.839 0 3.335 1.511 3.335 3.37v17.574l-4.416-4.464a.658.658 0 0 0-.468-.197H18.707c-1.839 0-3.335-1.512-3.335-3.371v-9.542zM9.486 34.672v6.773c0 .37.296.668.66.668.367 0 .662-.299.662-.668v-6.773c0-1.187.957-2.154 2.132-2.154h2.284c.854.982 2.09 1.615 3.483 1.615h13.16l5.35 5.41a.657.657 0 0 0 .72.145.667.667 0 0 0 .409-.617V19.884c0-2.595-2.09-4.706-4.657-4.706H18.707c-2.567 0-4.657 2.11-4.657 4.706v9.542c0 .62.127 1.212.344 1.756H12.94c-1.905 0-3.454 1.566-3.454 3.49z"/>
    </g>
</svg>
