<svg xmlns="http://www.w3.org/2000/svg" width="54" height="54" viewBox="0 0 54 54">
    <g fill-rule="evenodd">
        <path d="M26.99 54c-1.622 0-5.403-.547-5.569-.572-7.095-1.51-13.14-5.67-17.064-11.72C.433 35.656-.9 28.438.602 21.385 2.104 14.33 6.263 8.284 12.312 4.359 18.36.433 25.576-.901 32.628.6c14.558 3.104 23.878 17.475 20.776 32.036-1.923 9.031-8.231 16.374-16.875 19.643a.659.659 0 1 1-.466-1.234c8.222-3.11 14.223-10.094 16.051-18.683 1.43-6.709.161-13.573-3.571-19.33-3.733-5.755-9.482-9.712-16.19-11.141C25.643.46 18.783 1.73 13.03 5.465 7.276 9.2 3.32 14.95 1.892 21.66c-1.43 6.71-.16 13.574 3.572 19.33 3.732 5.755 9.482 9.712 16.189 11.14.008 0 3.107.449 4.823.537v-7.894a.659.659 0 1 1 1.318 0v8.566a.66.66 0 0 1-.641.659 6.335 6.335 0 0 1-.162.002"/>
        <path d="M30.937 31.455a.656.656 0 0 1-.654-.58c-.112-.991.013-1.91.371-2.729a9.668 9.668 0 0 1 1.3-2.153 19.48 19.48 0 0 1 1.714-1.875 17.29 17.29 0 0 0 1.621-1.792c.478-.61.894-1.286 1.235-2.007.32-.675.482-1.463.482-2.342 0-1.43-.238-2.665-.706-3.667-.466-.994-1.108-1.81-1.91-2.427-.817-.63-1.79-1.103-2.887-1.405a13.736 13.736 0 0 0-3.632-.465c-1.863 0-3.6.404-5.164 1.2-1.39.709-2.631 1.62-3.697 2.71l3.727 3.375c.52-.438 1.023-.82 1.504-1.136.7-.463 1.555-.697 2.541-.697.892 0 1.676.229 2.33.68.73.503 1.099 1.317 1.099 2.42 0 .652-.213 1.294-.633 1.906-.361.53-.804 1.087-1.314 1.658A104.48 104.48 0 0 1 26.65 23.9a11.876 11.876 0 0 0-1.454 1.926 8.492 8.492 0 0 0-.94 2.251 6.085 6.085 0 0 0-.154 2.073h2.428c.364 0 .659.292.659.652 0 .36-.295.652-.659.652h-3.01a.657.657 0 0 1-.651-.55c-.179-1.128-.142-2.188.112-3.154a9.786 9.786 0 0 1 1.086-2.595 13.18 13.18 0 0 1 1.615-2.138c.572-.616 1.105-1.199 1.596-1.752.473-.529.88-1.042 1.21-1.525.274-.4.407-.784.407-1.176 0-.981-.402-1.26-.535-1.351-.434-.3-.95-.445-1.577-.445-.731 0-1.323.156-1.81.478-.566.373-1.173.848-1.805 1.41a.663.663 0 0 1-.885-.004l-4.649-4.21a.646.646 0 0 1-.049-.911 15.333 15.333 0 0 1 4.52-3.477c1.751-.893 3.691-1.345 5.767-1.345 1.404 0 2.744.172 3.985.513 1.263.348 2.389.896 3.344 1.632.968.744 1.74 1.723 2.295 2.908.549 1.175.828 2.593.828 4.214 0 1.071-.205 2.045-.607 2.896a11.967 11.967 0 0 1-1.386 2.252 18.694 18.694 0 0 1-1.744 1.928c-.582.56-1.12 1.148-1.599 1.748a8.378 8.378 0 0 0-1.124 1.862c-.27.617-.359 1.294-.271 2.068a.654.654 0 0 1-.655.724M27.178 45.29a.655.655 0 0 1-.659-.651c0-.36.295-.652.659-.652 1.272 0 2.28-.413 3.08-1.262.813-.861 1.208-1.9 1.208-3.177 0-1.277-.395-2.316-1.208-3.178-.8-.849-1.808-1.262-3.08-1.262-1.273 0-2.28.412-3.08 1.262-.812.861-1.207 1.9-1.207 3.178 0 1.277.395 2.316 1.207 3.177a.646.646 0 0 1-.032.921.662.662 0 0 1-.93-.031c-1.037-1.098-1.562-2.467-1.562-4.067s.525-2.97 1.562-4.067c1.047-1.112 2.408-1.677 4.042-1.677s2.994.565 4.043 1.677c1.036 1.098 1.562 2.467 1.562 4.067s-.526 2.968-1.561 4.067c-1.05 1.112-2.41 1.675-4.044 1.675"/>
    </g>
</svg>
