<svg xmlns="http://www.w3.org/2000/svg" width="128" height="128" viewBox="0 0 128 128">
    <defs>
        <linearGradient id="a" x1="85.077%" x2="14.731%" y1="14.854%" y2="85.123%">
            <stop offset="0%" stop-color="#F76100"/>
            <stop offset="40.928%" stop-color="#DE3200"/>
            <stop offset="100%" stop-color="#E13000"/>
        </linearGradient>
    </defs>
    <g fill="none" fill-rule="evenodd">
        <g stroke="#E4E4E4">
            <path stroke-width="4" d="M115.881 63.559c0 28.895-23.426 52.322-52.322 52.322-28.898 0-52.323-23.427-52.323-52.322 0-28.897 23.425-52.322 52.323-52.322 28.896 0 52.322 23.425 52.322 52.322z"/>
            <path stroke-width="2" d="M126.118 63.559c0 34.55-28.01 62.559-62.56 62.559S1.002 98.108 1.002 63.558 29.009 1 63.559 1s62.559 28.01 62.559 62.56z"/>
        </g>
        <g fill-rule="nonzero">
            <path fill="#DF3200" d="M58.53 44.572a1.026 1.026 0 0 1 1.367.966v11.283c0 .566-.459 1.025-1.025 1.025H48.615c-.696 0-1.19-.68-.975-1.342 1.859-5.724 5.776-10.123 10.89-11.932zm-8.451 11.223h7.767v-8.72c-3.436 1.66-6.165 4.754-7.767 8.72z"/>
            <path fill="url(#a)" d="M7.265 60.511A38.79 38.79 0 0 1 2.05 41.026C2.051 19.5 19.501 2.05 41.026 2.05 62.55 2.051 80 19.501 80 41.026 80 62.55 62.55 80 41.026 80a38.789 38.789 0 0 1-18.752-4.8 1.026 1.026 0 1 0-.989 1.798 40.84 40.84 0 0 0 19.74 5.053c22.658 0 41.026-18.368 41.026-41.025C82.051 18.368 63.683 0 41.026 0 18.367 0 0 18.367 0 41.026a40.836 40.836 0 0 0 6.18 21.662c.452.577 1.156.62 1.59.197l17.86-17.437c.273-.267.376-.664.266-1.03-.3-.998-.404-1.734-.431-3.126h17.72c3.542 0 6.542-3.82 6.542-7.644V25.66c3.955 3.12 6.775 8.668 6.775 13.804 0 8.643-6.773 15.221-15.523 15.221h-5.366c-3.964 0-7.765 1.59-10.565 4.417L7.42 77.259a1.026 1.026 0 0 0 1.472 1.43l17.62-18.15a12.81 12.81 0 0 1 9.1-3.802h5.367c9.87 0 17.574-7.482 17.574-17.272 0-6.507-3.958-13.489-9.334-16.632a1.026 1.026 0 0 0-1.543.886v9.929c0 2.784-2.205 5.593-4.49 5.593H24.43c-.567 0-1.026.46-1.026 1.026 0 1.962.065 2.97.358 4.136L7.265 60.511z" transform="translate(22.974 22.974)"/>
            <path fill="#DF3200" d="M56.929 66.618l-3.077 6.154a1.026 1.026 0 0 0 1.835.917l3.077-6.153a1.026 1.026 0 0 0-1.835-.918zM62.057 66.618l-3.077 6.154a1.026 1.026 0 0 0 1.835.917l3.077-6.153a1.026 1.026 0 0 0-1.835-.918zM68.21 66.618l-3.076 6.154a1.026 1.026 0 1 0 1.835.917l3.077-6.153a1.026 1.026 0 1 0-1.835-.918z"/>
        </g>
    </g>
</svg>
