<svg xmlns="http://www.w3.org/2000/svg" width="32" height="32" viewBox="0 0 32 32">
    <path fill="#040404" fill-rule="evenodd" d="M11.113 30.609h9.775v-8.953c0-.425.343-.769.769-.769h8.952v-9.774h-8.952a.769.769 0 0 1-.77-.769V1.391h-9.774v8.953a.769.769 0 0 1-.769.769H1.391v9.774h8.953c.425 0 .769.344.769.769v8.953zM21.605 32h-11.21a.761.761 0 0 1-.761-.762v-8.872H.762A.762.762 0 0 1 0 21.605v-11.21c0-.42.341-.761.762-.761h8.872V.762c0-.421.34-.762.761-.762h11.21c.422 0 .762.34.762.762v8.872h8.871c.421 0 .762.34.762.761v11.21c0 .42-.34.761-.762.761h-8.87v8.872c0 .421-.341.762-.763.762z"/>
</svg>
