<svg viewBox="0 0 12 13.64"><path d="M.59 13.64a.5.5 0 0 1-.35-.85l1.45-1.45a.5.5 0 0 1 .31-.15h3.8a.62.62 0 0 0 .62-.62V7.46a.5.5 0 0 1 1 0v3.11a1.62 1.62 0 0 1-1.62 1.62H2.25l-1.3 1.3a.5.5 0 0 1-.36.15z"/><path d="M11.5 10.18a.5.5 0 0 1-.35-.15L9.08 8H3.92a2.1 2.1 0 0 1-2.1-2.1V2.1A2.1 2.1 0 0 1 3.92 0h6A2.1 2.1 0 0 1 12 2.1v7.58a.5.5 0 0 1-.31.46.49.49 0 0 1-.19.04zM3.92 1a1.1 1.1 0 0 0-1.1 1.1v3.77A1.1 1.1 0 0 0 3.92 7h5.36a.5.5 0 0 1 .35.15L11 8.47V2.1A1.1 1.1 0 0 0 9.9 1z"/><path d="M.5 13.64a.5.5 0 0 1-.5-.5v-5.2a1.62 1.62 0 0 1 1.61-1.62h1a.5.5 0 1 1 0 1h-1a.62.62 0 0 0-.61.62v5.2a.5.5 0 0 1-.5.5z"/></svg>