<svg viewBox="0 0 14 9.44"><path d="M6 3.86H2.49a.5.5 0 0 1 0-1H6a.5.5 0 0 1 0 1zM12.26 8.44h-.76a.5.5 0 0 1 0-1h.76a.72.72 0 0 0 .74-.7V5.65a.5.5 0 1 1 1 0v1.09a1.72 1.72 0 0 1-1.74 1.7z"/><path d="M.5 7a.5.5 0 0 1-.5-.5V1.71A1.73 1.73 0 0 1 1.75 0h7.62a1.77 1.77 0 0 1 1.23.49l2.84 3.15c.09.06.56.56.56 2a.5.5 0 0 1-1 0 2.11 2.11 0 0 0-.27-1.31L9.88 1.19A.76.76 0 0 0 9.37 1H1.75a.73.73 0 0 0-.75.71v4.82A.5.5 0 0 1 .5 7zM8.73 8.44H4.47a.5.5 0 0 1 0-1h4.26a.5.5 0 1 1 0 1z"/><path d="M13.07 4.47H7.94a.5.5 0 0 1-.5-.5V.68a.5.5 0 0 1 1 0v2.8h4.63a.5.5 0 0 1 0 1zM10.25 9.44A1.75 1.75 0 1 1 12 7.68a1.75 1.75 0 0 1-1.75 1.76zm0-2.5a.75.75 0 1 0 .75.75.75.75 0 0 0-.75-.76zM3.22 9.43A1.74 1.74 0 1 1 5 7.68a1.74 1.74 0 0 1-1.78 1.75zm0-2.48a.74.74 0 1 0 .78.73.74.74 0 0 0-.78-.74z"/><path d="M1.71 8.34A1.73 1.73 0 0 1 0 6.58a.5.5 0 0 1 1 0 .73.73 0 0 0 .71.75.5.5 0 0 1 0 1z"/></svg>