<?xml version="1.0" encoding="utf-8"?>
<!-- Generator: Adobe Illustrator 21.0.2, SVG Export Plug-In . SVG Version: 6.00 Build 0)  -->
<svg version="1.1" id="Layer_1" xmlns="http://www.w3.org/2000/svg" xmlns:xlink="http://www.w3.org/1999/xlink" x="0px" y="0px"
	 viewBox="0 0 128 128" style="enable-background:new 0 0 128 128;" xml:space="preserve">
<g>
	<path d="M106.7,35.2h-30c-3.5,0-6.4,2.9-6.4,6.4v18.5c0,3.5,2.9,6.4,6.4,6.4h2.6v7.4c0,0.6,0.3,1,1,1.3c0.2,0,0.3,0.2,0.5,0.2
		c0.3,0,0.9-0.2,1-0.5l8.8-8.5H107c3.5,0,6.4-2.9,6.4-6.4V41.6C113.1,38.1,110.2,35.2,106.7,35.2z M110.5,60.1
		c0,1.9-1.6,3.5-3.5,3.5H89.8c-0.3,0-0.9,0.2-1,0.5l-6.7,6.5v-5.4c0-0.6-0.5-1.5-1.5-1.5h-4c-1.9,0-3.5-1.6-3.5-3.5V41.6
		c0-1.9,1.6-3.5,3.5-3.5h30.3c1.9,0,3.5,1.6,3.5,3.5v18.4H110.5z"/>
	<path d="M102.3,45.9H81.1c-0.9,0-1.5,0.6-1.5,1.5c0,0.6,0.5,1.5,1.5,1.5h21.3c0.9,0,1.5-0.6,1.5-1.5
		C103.7,46.6,103.1,45.9,102.3,45.9z"/>
	<path d="M102.3,53.6H81.1c-0.9,0-1.5,0.6-1.5,1.5c0,0.6,0.6,1.5,1.5,1.5h21.3c0.9,0,1.5-0.6,1.5-1.5
		C103.7,54.2,103.1,53.6,102.3,53.6z"/>
	<path d="M51.8,76c1-1.2,1.5-2.6,1.5-3.8c0-0.6-0.5-1.5-1.5-1.5c-0.6,0-1.5,0.5-1.5,1.5c0,0.9-0.3,1.6-1,2.1
		c-0.2,0.2-0.2,0.2-0.3,0.2l0,0l0,0c-0.5,0.3-1.2,0.5-1.6,0.5c-1.6,0-3.1-1.5-3.1-3.1c0-0.6-0.6-1.5-1.5-1.5c-0.6,0-1.5,0.5-1.5,1.5
		c0,1.5,0.3,2.6,1.2,3.5l0.2,0.3l-1.3,30.9c0,0.9,0.3,1.2,0.5,1.2l4.2,3.8c0.3,0.2,0.6,0.3,1,0.3c0.5,0,0.9-0.2,1-0.3l4.4-4
		c0.3-0.2,0.5-0.5,0.5-0.9l-1.3-30.6L51.8,76z M47.1,108.9L47.1,108.9l-2.9-2.6l1.3-28.4h3.2l1.3,28.4L47.1,108.9z"/>
	<path d="M78.3,80.1c-7.9-6.4-16-10.8-18.2-11.8l-0.5-0.3l0,0v-2.8c0-0.9-0.5-1.3-1.3-1.5c-0.9-0.2-1.3,0.5-1.5,1.3v0.2v3.2
		c0,0.9,0.5,1.5,1.2,1.8c0.2,0,9.6,4.5,18.8,12c1.2,1,1.8,2.5,1.8,3.8v9.2c0,0.6,0.5,1.5,1.5,1.5c0.6,0,1.5-0.5,1.5-1.5v-9.2
		C81.2,83.9,80.1,81.7,78.3,80.1z"/>
	<path d="M47.1,27.3c-10.2,0-18.8,8.3-18.8,18.8c0,10.2,8.3,18.8,18.8,18.8c10.2,0,18.8-8.3,18.8-18.8
		C65.6,35.6,57.3,27.3,47.1,27.3z M47.1,61.6c-8.6,0-15.6-7-15.6-15.6c0-8.6,7-15.6,15.6-15.6c8.6,0,15.6,7,15.6,15.6
		C62.6,54.5,55.6,61.6,47.1,61.6z"/>
	<path d="M120.4,33.6c-7.6-14-20.3-24.8-35.2-30S53.5-1.2,39,5.1S12.4,23.2,5.8,37.6c-3.2,7.2-5.1,14.9-5.6,22.9l-0.1,2.8
		c0,1,0,1.9,0.2,3.1l0.1,3c0,0.5,0,1,0.2,1.6l0.3,1.5c0.3,1.9,0.6,3.8,1.2,5.8C2.6,80.1,3,82,3.6,83.9c0.3,0.9,1.2,1.3,1.9,1
		c0.9-0.3,1.3-1.2,1-1.9v-0.2C5.3,79.3,4.7,75.4,4,71.7l-0.3-1.5c-0.2-0.3,0-1-0.2-1.3l-0.2-2.8c0-1-0.2-1.9-0.2-2.8l0.2-2.8
		C3.8,53,5.5,45.7,8.6,38.9c6.3-13.7,17.6-24.9,31.5-30.7c13.7-6,29.7-6.4,44-1.5c14.3,5,26.4,15.3,33.5,28.7
		c7.2,13.3,8.9,29.1,5.3,43.7c-3.7,14.6-13,27.5-25.6,35.8c-12.5,8.3-28.1,11.5-43,9.3c-14.6-2.5-28.1-10.4-37.6-22.1l-0.3-8.2V86
		c0-1.6,0.6-3.1,1.8-4c9.2-7.4,18.5-11.8,18.5-11.8c0.9-0.5,1.2-1.2,1.2-1.8v-3.2c0-0.9-0.6-1.3-1.3-1.3c-0.9,0-1.3,0.6-1.3,1.3v2.8
		l-0.5,0.4c-2.5,1.2-10.5,5.4-18.2,11.8c-1.9,1.6-2.9,3.8-2.9,6.1v2.6l0,0l-0.2,14l0,0c0,0.3,0.2,0.6,0.3,1
		c9.8,12.5,24.3,21,39.8,23.3c15.6,2.6,32.2-1,45.3-9.8c13.3-8.6,23-22.4,26.8-37.6C129.6,64.4,127.8,47.6,120.4,33.6z"/>
</g>
</svg>
