<?xml version="1.0" encoding="UTF-8"?>
<svg width="19px" height="21px" viewBox="0 0 19 21" version="1.1" xmlns="http://www.w3.org/2000/svg" xmlns:xlink="http://www.w3.org/1999/xlink">
    <!-- Generator: Sketch 48.2 (47327) - http://www.bohemiancoding.com/sketch -->
    <title>ico_calendar</title>
    <desc>Created with Sketch.</desc>
    <defs></defs>
    <g id="FM010–Date-Picker-01D" stroke="none" stroke-width="1" fill="none" fill-rule="evenodd" transform="translate(-497.000000, -1063.000000)">
        <g id="Date-picker-selected-and-open" transform="translate(0.000000, 923.000000)">
            <g id="ico_calendar" transform="translate(497.000000, 140.000000)">
                <path d="M17.8,20.3 L1.2,20.3 C0.9,20.3 0.6,20 0.6,19.7 L0.6,3.1 C0.6,2.8 0.9,2.5 1.2,2.5 L17.8,2.5 C18.1,2.5 18.4,2.8 18.4,3.1 L18.4,19.7 C18.3,20 18.1,20.3 17.8,20.3 Z" id="Shape" stroke="#000000"></path>
                <path d="M18.5,7.5 L0.8,7.5" id="Shape" stroke="#000000"></path>
                <g id="Group" transform="translate(3.000000, 10.000000)" fill="#000000" fill-rule="nonzero">
                    <rect id="Rectangle-path" x="0.6" y="0.6" width="2.4" height="2.4"></rect>
                    <rect id="Rectangle-path" x="5.3" y="0.6" width="2.4" height="2.4"></rect>
                    <rect id="Rectangle-path" x="10" y="0.6" width="2.4" height="2.4"></rect>
                    <rect id="Rectangle-path" x="0.6" y="5.1" width="2.4" height="2.4"></rect>
                    <rect id="Rectangle-path" x="5.3" y="5.1" width="2.4" height="2.4"></rect>
                    <rect id="Rectangle-path" x="10" y="5.1" width="2.4" height="2.4"></rect>
                </g>
                <path d="M11.1,0.7 L12.6,0.7 C12.8,0.7 13,0.9 13,1.1 L13,4.8 C13,5 12.8,5.2 12.6,5.2 L11.1,5.2 C10.9,5.2 10.7,5 10.7,4.8 L10.7,1.2 C10.7,0.9 10.9,0.7 11.1,0.7 Z" id="Shape" stroke="#000000" fill="#FFFFFF" fill-rule="nonzero"></path>
                <path d="M6.3,0.7 L7.8,0.7 C8,0.7 8.2,0.9 8.2,1.1 L8.2,4.8 C8.2,5 8,5.2 7.8,5.2 L6.3,5.2 C6.1,5.2 5.9,5 5.9,4.8 L5.9,1.2 C5.9,0.9 6.1,0.7 6.3,0.7 Z" id="Shape" stroke="#000000" fill="#FFFFFF" fill-rule="nonzero"></path>
            </g>
        </g>
    </g>
</svg>