<svg xmlns="http://www.w3.org/2000/svg" viewBox="0 0 450 450">
    <path d="M377.4 58.6C285.6-25 142.6-18.4 58.9 73.3c-40.6 44.4-61.4 102-58.6 162 2.8 60 28.8 115.4 73.3 155.9C115.4 429.4 169 450 225.3 450c3.5 0 7.1-.1 10.6-.2 60.2-2.8 115.7-28.8 156.2-73.2 15.7-17.2 28.6-36.6 38.3-57.6 1-2.1.5-4.4-1.1-6-1-1.4-2.5-2.4-4.4-2.4H157.3c5.9-6.2 9.5-14.5 9.5-23.6V141.9c0-1.5 1.2-2.6 2.6-2.6h159.5c1.5 0 2.6 1.2 2.6 2.6v114.6c0 3 2.4 5.4 5.4 5.4 3 0 5.4-2.4 5.4-5.4V141.9c0-7.4-6-13.3-13.4-13.3H169.5c-7.4 0-13.4 6-13.4 13.3v60.3h-42c-8.9 0-16.1 7.2-16.1 16.1V287c0 18.9 15.4 34.4 34.4 34.4h284.8c-8.8 17.3-19.8 33.5-33 48.1-38.7 42.3-91.5 67.1-148.8 69.7-57.4 2.6-112.2-17.2-154.6-55.7C38.4 344.7 13.6 292 11 234.8c-2.6-57.2 17.2-112 55.8-154.3 79.8-87.3 215.9-93.6 303.4-14 51.3 46.7 76.5 117.4 67.1 189.1-.4 2.9 1.7 5.6 4.6 6 2.9.3 5.6-1.7 6-4.6 9.9-75.1-16.5-149.3-70.5-198.4zM156.1 222v64.9c0 13-10.6 23.6-23.7 23.6s-23.7-10.6-23.7-23.6v-68.7c0-3 2.4-5.4 5.4-5.4h42v9.2z"/><path d="M203.6 229.8h90.2c3 0 5.4-2.4 5.4-5.4s-2.4-5.4-5.4-5.4h-90.2c-3 0-5.4 2.4-5.4 5.4s2.4 5.4 5.4 5.4zM204.1 192.8h90.2c3 0 5.4-2.4 5.4-5.4s-2.4-5.4-5.4-5.4h-90.2c-3 0-5.4 2.4-5.4 5.4s2.4 5.4 5.4 5.4zM204.1 267.1h90.2c3 0 5.4-2.4 5.4-5.4s-2.4-5.4-5.4-5.4h-90.2c-3 0-5.4 2.4-5.4 5.4s2.4 5.4 5.4 5.4z"/>
</svg>
