<?xml version="1.0" encoding="UTF-8"?>
<svg width="29px" height="29px" viewBox="0 0 29 29" version="1.1" xmlns="http://www.w3.org/2000/svg" xmlns:xlink="http://www.w3.org/1999/xlink">
    <!-- Generator: Sketch 48.2 (47327) - http://www.bohemiancoding.com/sketch -->
    <title>Shape</title>
    <desc>Created with Sketch.</desc>
    <defs></defs>
    <g id="Page-1" stroke="none" stroke-width="1" fill="none" fill-rule="evenodd">
        <g id="ico_expand" fill="#FFFFFF" fill-rule="nonzero">
            <path d="M14.5,29 C6.5,29 0,22.5 0,14.5 C0,6.5 6.5,0 14.5,0 C22.5,0 29,6.5 29,14.5 C29,22.5 22.5,29 14.5,29 Z M14.5,1 C7.1,1 1,7.1 1,14.5 C1,21.9 7.1,28 14.5,28 C21.9,28 28,21.9 28,14.5 C28,7.1 21.9,1 14.5,1 Z M14.5,22.6 C14.2,22.6 14,22.4 14,22.1 L14,15 L6.9,15 C6.6,15 6.4,14.8 6.4,14.5 C6.4,14.2 6.6,14 6.9,14 L14,14 L14,6.9 C14,6.6 14.2,6.4 14.5,6.4 C14.8,6.4 15,6.6 15,6.9 L15,14 L22.1,14 C22.4,14 22.6,14.2 22.6,14.5 C22.6,14.8 22.4,15 22.1,15 L15,15 L15,22.1 C15,22.4 14.8,22.6 14.5,22.6 Z" id="Shape"></path>
        </g>
    </g>
</svg>