<?xml version="1.0" encoding="utf-8"?>
<!-- Generator: Adobe Illustrator 21.0.2, SVG Export Plug-In . SVG Version: 6.00 Build 0)  -->
<svg version="1.1" id="Layer_1" xmlns="http://www.w3.org/2000/svg" xmlns:xlink="http://www.w3.org/1999/xlink" x="0px" y="0px"
	 viewBox="0 0 29 29" style="enable-background:new 0 0 29 29;" xml:space="preserve">
<style type="text/css">
	.st0{fill:#373D52;}
</style>
<g>
	<g>
		<path class="st0" d="M14.5,29C6.5,29,0,22.5,0,14.5S6.5,0,14.5,0S29,6.5,29,14.5S22.5,29,14.5,29z M14.5,1C7.1,1,1,7.1,1,14.5
			C1,21.9,7.1,28,14.5,28C21.9,28,28,21.9,28,14.5C28,7.1,21.9,1,14.5,1z M22.1,15H6.9c-0.3,0-0.5-0.2-0.5-0.5S6.6,14,6.9,14h15.3
			c0.3,0,0.5,0.2,0.5,0.5S22.4,15,22.1,15z"/>
	</g>
</g>
</svg>
