<?xml version="1.0" encoding="utf-8"?>
<!-- Generator: Adobe Illustrator 21.0.2, SVG Export Plug-In . SVG Version: 6.00 Build 0)  -->
<svg version="1.1" id="Layer_1" xmlns="http://www.w3.org/2000/svg" xmlns:xlink="http://www.w3.org/1999/xlink" x="0px" y="0px"
	 viewBox="0 0 21 21" style="enable-background:new 0 0 21 21;" xml:space="preserve">
<style type="text/css">
	.st0{fill:#30354A;}
</style>
<g>
	<g>
		<path d="M1,19.9L19.9,1 M19.9,19.9L1,1"/>
		<path class="st0" d="M19.9,20.9c-0.3,0-0.5-0.1-0.7-0.3l-8.8-8.8l-8.8,8.8c-0.4,0.4-1,0.4-1.4,0s-0.4-1,0-1.4l8.8-8.8L0.3,1.7
			c-0.4-0.4-0.4-1,0-1.4s1-0.4,1.4,0l8.8,8.8l8.8-8.8c0.4-0.4,1-0.4,1.4,0s0.4,1,0,1.4l-8.8,8.8l8.8,8.8c0.4,0.4,0.4,1,0,1.4
			C20.5,20.8,20.2,20.9,19.9,20.9z"/>
	</g>
</g>
</svg>
