<svg xmlns="http://www.w3.org/2000/svg" xmlns:xlink="http://www.w3.org/1999/xlink"
	 viewBox="0 0 82 82">
<path fill="#1E1F1D" d="M24.1,27.6v32.7c0,0.6,0.4,1,1,1h32.7c0.6,0,1-0.4,1-1V27.6c0-0.6-0.4-1-1-1H47.8c-1.4,0-1.4,2.1,0,2.1h9.1
	v30.7H26.2V28.6h9.5c1.2,0,1.2-2.1,0-2.1H25.1C24.5,26.5,24.1,26.9,24.1,27.6"/>
<path mask="url(#b)" fill="#1E1F1D" d="M41.2,0L41.2,0c-0.6,0-1,0.4-1,1c0,0.1,0,0.2,0,0.3v46.9L33,40.5c-0.4-0.4-1-0.4-1.3,0
	c-0.4,0.4-0.4,1,0,1.4l9.6,10.2l9.6-10.2c0.6-0.4,0.6-1,0.2-1.4c-0.4-0.4-1-0.4-1.3,0l-7.5,7.8V2c17.2,0.4,31.9,12.1,36.4,29
	c5.6,20.6-6.8,42-27.6,47.6C30.4,84,9,71.8,3.4,51C-2.2,30.2,10.2,8.8,31,3.4c0.4-0.2,0.8-0.8,0.6-1.2c-0.2-0.6-0.6-1-1.2-0.8
	c-6.8,1.8-13,5.4-18,10.2C4.5,19.3,0,29.9,0,41c0,22.6,18.4,41,41,41c22.6,0,41-18.4,41-41C82.2,18.4,63.8,0,41.2,0"/>
</svg>
