<?xml version="1.0" encoding="utf-8"?>
<!-- Generator: Adobe Illustrator 21.0.2, SVG Export Plug-In . SVG Version: 6.00 Build 0)  -->
<svg version="1.1" id="Layer_1" xmlns="http://www.w3.org/2000/svg" xmlns:xlink="http://www.w3.org/1999/xlink" x="0px" y="0px"
	 viewBox="0 0 34 24" style="enable-background:new 0 0 34 24;" xml:space="preserve">
<style type="text/css">
	.st0{fill:#FAFAFA;}
</style>
<g id="Page-1">
	<g id="_x33_.5-Someone-has-reported-a-power-cut-on-twitter" transform="translate(-238.000000, -134.000000)">
		<g id="Group" transform="translate(220.000000, 110.000000)">
			<g id="Shape">
				<path class="st0" d="M31.2,48c-3.1,0-6.1-0.9-8.7-2.5l-1.8-1.2l0.3-0.9l2.2,0.3c1.7,0.2,3.6-0.1,5.2-0.8
					c-1.6-0.7-2.8-2.1-3.3-3.8l-0.5-1.6l0,0c-0.9-1.1-1.4-2.5-1.4-4l0-1.7l0.5,0.2c-0.3-0.7-0.4-1.5-0.4-2.3c0-1.1,0.3-2.2,0.9-3.2
					l0.7-1.2l0.9,1.1c2.3,2.8,5.5,4.6,9.1,5.1c0,0,0-0.1,0-0.1c0-3.5,2.8-6.3,6.3-6.3c1.6,0,3,0.6,4.2,1.6c0.9-0.2,1.8-0.6,2.6-1.1
					l2.3-1.3l-0.8,2.5c-0.1,0.2-0.2,0.5-0.3,0.7l2.8-1.2L49.8,29c-0.7,1-1.5,1.9-2.5,2.7c0,0.1,0,0.1,0,0.2
					C47.4,40.9,40.2,48,31.2,48z M23,44.6L23,44.6c2.4,1.6,5.3,2.4,8.2,2.4c8.5,0,15.2-6.6,15.2-15.1c0-0.1,0-0.3,0-0.4l0-0.3
					l0.2-0.2c1-0.7,1.8-1.6,2.5-2.6c-0.4,0.2-0.7,0.3-1.1,0.4l-1.6,0.5l1.1-1.3c0.4-0.5,0.7-1.1,0.9-1.7c-1,0.6-2,1-3.1,1.2
					l-0.3,0.1l-0.2-0.2c-1-1-2.3-1.5-3.7-1.5c-2.9,0-5.3,2.4-5.3,5.3c0,0.2,0,0.4,0,0.6l0.1,0.6l-0.6-0.1c-4.1-0.4-7.8-2.3-10.3-5.5
					l0,0c-0.5,0.8-0.7,1.7-0.7,2.7c0,1.2,0.4,2.3,1.1,3.3l1.2,1.5l-1.7-0.7c-0.2-0.1-0.4-0.2-0.6-0.3v0c0,1.8,0.9,3.5,2.4,4.5
					L26,38.8l-0.1,0c0.6,1.7,2,3.1,3.8,3.5l1.2,0.3l-1,0.6c-1.7,1-3.6,1.5-5.5,1.5C23.8,44.7,23.4,44.7,23,44.6L23,44.6z"/>
			</g>
		</g>
	</g>
</g>
</svg>
