<?xml version="1.0" encoding="utf-8"?>
<!-- Generator: Adobe Illustrator 21.0.2, SVG Export Plug-In . SVG Version: 6.00 Build 0)  -->
<svg version="1.1" id="Layer_1" xmlns="http://www.w3.org/2000/svg" xmlns:xlink="http://www.w3.org/1999/xlink" x="0px" y="0px"
	 viewBox="0 0 23 19" style="enable-background:new 0 0 23 19;" xml:space="preserve">
<style type="text/css">
	.st0{fill:#1D1D1B;}
</style>
<g>
	<g>
		<path class="st0" d="M21.6,18.5h-20c-0.8,0-1.5-0.7-1.5-1.5V2.5C0.1,1.7,0.8,1,1.6,1h20c0.8,0,1.5,0.7,1.5,1.5V17
			C23.1,17.8,22.5,18.5,21.6,18.5z M1.6,2C1.4,2,1.1,2.2,1.1,2.5V17c0,0.3,0.2,0.5,0.5,0.5h20c0.3,0,0.5-0.2,0.5-0.5V2.5
			c0-0.3-0.2-0.5-0.5-0.5H1.6z"/>
	</g>
	<g>
		<path class="st0" d="M1.2,18.2l-0.6-0.8l9-7.7l-9-7.6l0.6-0.8l9.6,8.1c0.5,0.4,1.2,0.4,1.7,0l0.2-0.1l9.4-8l0.6,0.8l-9,7.6l9,7.7
			l-0.6,0.8l-9.1-7.8c-0.8,0.6-1.8,0.6-2.6,0L1.2,18.2z"/>
	</g>
</g>
</svg>
