<svg viewBox="0 0 41 21.21"><path d="M22.44 7.58h-8.32a.5.5 0 0 1 0-1h8.32a.5.5 0 0 1 0 1zM22.44 10.51h-8.32a.5.5 0 1 1 0-1h8.32a.5.5 0 1 1 0 1zM5.65 10.51H.5a.5.5 0 1 1 0-1h5.15a.5.5 0 1 1 0 1zM5.65 7.11h-3a.5.5 0 0 1 0-1h3a.5.5 0 0 1 0 1zM37.53 18.83h-1.82a.5.5 0 0 1 0-1h1.82A2.43 2.43 0 0 0 40 15.44v-2.61a.5.5 0 0 1 1 0v2.61a3.43 3.43 0 0 1-3.47 3.39z"/><path d="M9.36 15.43a.5.5 0 0 1-.5-.5V3.39A3.45 3.45 0 0 1 12.36 0H30.6a3.54 3.54 0 0 1 2.47 1l6.78 7.5c.07 0 1.16 1 1.16 4.34a.5.5 0 1 1-1 0c0-2.81-.85-3.62-.85-3.63l-6.8-7.52A2.53 2.53 0 0 0 30.6 1H12.36a2.45 2.45 0 0 0-2.5 2.39v11.54a.5.5 0 0 1-.5.5zM29.07 18.83h-10.2a.5.5 0 0 1 0-1h10.2a.5.5 0 0 1 0 1z"/><path d="M39.47 9.32H27.19a.5.5 0 0 1-.5-.5V.92a.5.5 0 0 1 1 0v7.4h11.78a.5.5 0 0 1 0 1zM32.71 21.21a3.5 3.5 0 1 1 3.5-3.5 3.5 3.5 0 0 1-3.5 3.5zm0-6a2.5 2.5 0 1 0 2.5 2.5 2.5 2.5 0 0 0-2.5-2.5zM15.87 21.18a3.47 3.47 0 1 1 3.47-3.47 3.48 3.48 0 0 1-3.47 3.47zm0-5.94a2.47 2.47 0 1 0 2.47 2.47 2.47 2.47 0 0 0-2.47-2.47z"/><path d="M12.25 18.57a3.45 3.45 0 0 1-3.39-3.5.5.5 0 0 1 1 0 2.45 2.45 0 0 0 2.39 2.5.5.5 0 0 1 0 1z"/></svg>