<svg xmlns="http://www.w3.org/2000/svg" width="205" height="205" viewBox="0 0 205 205">
    <g fill-rule="evenodd">
        <path d="M194.507 57.944c-11.942-24.597-32.755-43.07-58.592-52.017-25.837-8.945-53.62-7.293-78.212 4.655C33.105 22.524 14.635 43.334 5.687 69.174c-8.945 25.838-7.295 53.615 4.65 78.21C28.01 183.78 64.538 205 102.566 205c15.028 0 30.3-3.317 44.725-10.325.57-.322 14.032-8.002 18.47-11.66a2.497 2.497 0 0 0 .34-3.517 2.502 2.502 0 0 0-3.52-.34c-4.108 3.385-17.628 11.095-17.618 11.097-48.304 23.455-106.674 3.24-130.127-45.052-11.36-23.395-12.933-49.813-4.423-74.393 8.51-24.577 26.08-44.37 49.473-55.73 23.398-11.362 49.818-12.935 74.393-4.425 24.577 8.508 44.37 26.08 55.732 49.473 14.343 29.532 12.915 63.85-3.757 92.095H61.367a2.498 2.498 0 0 0-2.5 2.5c0 1.382 1.117 2.5 2.5 2.5H187.67c.87 0 1.68-.455 2.133-1.2 18.237-29.925 19.995-66.59 4.704-98.078"/>
        <path d="M111.53 42.61l8.424 6.183-32.989 43.963a2.266 2.266 0 0 0-.432 1.705c.093.612.417 1.147.912 1.512.405.296.882.452 1.382.452.75 0 1.43-.338 1.875-.932l32.984-43.955 8.584 6.305-32.988 43.963a2.286 2.286 0 0 0 .482 3.217c.405.295.882.45 1.382.45a2.31 2.31 0 0 0 1.87-.93l32.99-43.96 8.42 6.19-43.91 58.512-28.888 11.023c-1.02-3.97-4.744-5.054-6.853-5.4l2.83-29.759L111.53 42.61zM61.106 144.993l.214.007c.289 0 .568-.052.84-.154l40.66-15.514a2.312 2.312 0 0 0 1.025-.775l45.702-60.889c.764-1.02.548-2.461-.545-3.264l-36.565-28.949a2.312 2.312 0 0 0-1.382-.455c-.744 0-1.427.338-1.852.907l-45.715 63.01c-.271.363-.427.788-.457 1.322l-4.02 42.257c-.059.612.13 1.209.53 1.681.397.47.952.758 1.565.816z"/>
    </g>
</svg>
