<svg xmlns="http://www.w3.org/2000/svg" width="26" height="34" viewBox="0 0 26 34">
    <g fill="#1D1D1B" fill-rule="evenodd">
        <path d="M21.57 16v5.63h-5.369v5.56h-5.167v5.698H6V34h6.107v-5.699h5.168v-5.56h5.37v-5.629H26V16z"/>
        <path d="M10.217 22.27h.632v-2.2h-.632v2.2zm-4.59-4.828v-.4c0-.677.577-1.229 1.285-1.229h7.592c.707 0 1.284.552 1.284 1.23v.399c0 .678-.577 1.229-1.284 1.229H6.912c-.708 0-1.284-.551-1.284-1.23zm-4.514-6.634c0-.693.59-1.258 1.313-1.258.725 0 1.314.565 1.314 1.258 0 .693-.59 1.257-1.314 1.257-.723 0-1.313-.564-1.313-1.257zm5.812-.839c-.476-.535-.384-1.347-.384-1.347.007-.045.683-4.568.972-6.195.2-1.133 1.018-1.332 1.184-1.36h3.815c.181.031.987.236 1.186 1.36.285 1.6.943 6.004.971 6.19.005.042.083.823-.378 1.348-.28.318-.728.492-1.331.517-.393.018-.722.028-.998.036v-.005H10.63l-.023-.002-.024.002H9.106a62.386 62.386 0 0 1-.855-.03c-.6-.026-1.046-.198-1.326-.514zm3.293 1.624a7.85 7.85 0 0 0 .388-.012c.068.005.152.008.243.01v2.977h-.631v-2.975zm7.042-.786c0-.693.589-1.258 1.313-1.258s1.314.565 1.314 1.258c0 .693-.59 1.257-1.314 1.257-.724 0-1.313-.564-1.313-1.257zM9.109 27.934H5.98c.057-.685.31-1.932 1.174-2.87.813-.881 2.008-1.328 3.553-1.328h2.647v1.132h1.114V22.67h-2.506v-2.932h2.542c1.322 0 2.397-1.03 2.397-2.295v-.4c0-.16-.018-.318-.051-.47 1.697-.448 2.24-2.442 2.408-3.547C20.26 12.74 21 11.859 21 10.807c0-1.281-1.089-2.324-2.427-2.324s-2.427 1.043-2.427 2.324c0 1.133.852 2.076 1.974 2.28-.168.937-.618 2.343-1.781 2.496a2.422 2.422 0 0 0-1.835-.836h-2.542v-3.163c.309-.008.655-.02 1.047-.036.926-.039 1.645-.34 2.133-.897.791-.899.638-2.12.631-2.172v-.008c-.008-.045-.685-4.582-.976-6.222C14.509.628 13.246.07 12.617.003L8.658 0l-.063.003c-.628.068-1.892.625-2.18 2.245-.29 1.641-.968 6.177-.976 6.231-.007.051-.16 1.273.63 2.172.49.557 1.208.858 2.134.897.333.014.63.024.903.032v3.167H6.912c-.751 0-1.413.338-1.853.857-1.328-.01-1.81-1.58-1.984-2.568 1.022-.273 1.779-1.163 1.779-2.228 0-1.281-1.09-2.324-2.428-2.324C1.088 8.484 0 9.527 0 10.808c0 1.127.843 2.068 1.956 2.278.185 1.162.771 3.214 2.603 3.54a2.185 2.185 0 0 0-.045.417v.399c0 1.265 1.076 2.295 2.398 2.295h2.193v3.097c-1.132.24-2.068.746-2.786 1.525-1.451 1.575-1.514 3.693-1.45 4.174l.06.467h4.18v-1.066z"/>
    </g>
</svg>
