<svg xmlns="http://www.w3.org/2000/svg" xmlns:xlink="http://www.w3.org/1999/xlink" viewBox="0 0 82 82"><defs><mask id="a" x="0" y="0" width="82" height="82" maskUnits="userSpaceOnUse"><g transform="translate(0)"><path d="M82,82H0V0H82Z" style="fill:#fff"/></g></mask></defs><title>ico_upload_alt</title><path d="M57.88,54.44V21.71a1,1,0,0,0-1-1H24.12a1,1,0,0,0-1,1V54.44a1,1,0,0,0,1,1H34.21a1,1,0,1,0,0-2.06H25.15V22.74H55.82V53.41H46.35a1,1,0,0,0,0,2.06h10.5a1,1,0,0,0,1-1" transform="translate(0)" style="fill:#1e1f1d"/><g style="mask:url(#a)"><path d="M40.79,82h0a.94.94,0,0,0,1-1,1.14,1.14,0,0,0,0-.29V33.83L49,41.46a.9.9,0,0,0,1.34,0,1,1,0,0,0,0-1.4L40.79,29.82,31.23,40.05a.88.88,0,0,0-.19,1.4.89.89,0,0,0,1.34,0l7.46-7.83V80A38.95,38.95,0,0,1,31,3.4,38.91,38.91,0,0,1,51,78.6c-.4.2-.8.8-.6,1.2.2.6.6,1,1.2.8A40.91,40.91,0,0,0,82,41,41,41,0,1,0,40.79,82" transform="translate(0)" style="fill:#1e1f1d"/></g></svg>