<svg xmlns="http://www.w3.org/2000/svg" viewBox="0 0 128 128">
  <path d="M122.2,37.5C115.1,21.9,102.3,10.1,86,4.1C69.8-1.9,52.3-1.3,36.8,6C5.2,20.7-8.7,58.6,5.6,90.3 c10.7,23.6,34,37.5,58.3,37.5c9.1,0,18.1-2,26.4-5.7c0,0,1.2-0.6,2.9-1.6c5.7-3.2,8-10.2,5.2-16.1L81.9,68.9l-5.3-11.7h16.1v5.2 c0,0.8,0.6,1.4,1.4,1.4c0.8,0,1.4-0.6,1.4-1.4v-5.2h4.2c0.8,0,1.4-0.6,1.4-1.4s-0.6-1.4-1.4-1.4H76.4V34.2h16.3v5.2 c0,0.8,0.6,1.4,1.4,1.4v0c0.8,0,1.4-0.6,1.4-1.4c0,0,0,0,0,0v-5.2h4.2c0.8,0,1.4-0.6,1.4-1.4c0-0.8-0.6-1.4-1.4-1.4l-24,0l-9.3-17.2 v0l0,0l0-0.1l-0.1-0.2l-0.2-0.2L66,13.5l-0.1,0l0,0l-0.2-0.1l-0.2,0l-0.2,0h-0.3l-0.2,0l-0.1,0l-0.2,0.1l0,0l-0.1,0l-0.2,0.1 l-0.1,0.1l-0.1,0.1L64,14.1v0l-9.2,17.2H30.7c-0.8,0-1.4,0.6-1.4,1.4c0,0.8,0.6,1.4,1.4,1.4h4.2v5.2c0,0.8,0.6,1.4,1.4,1.4 c0.8,0,1.4-0.6,1.4-1.4v-5.2h16.4l0,20.2H30.7c-0.8,0-1.4,0.6-1.4,1.4c0,0.8,0.6,1.4,1.4,1.4h4.2v5.2c0,0.8,0.6,1.4,1.4,1.4 c0.8,0,1.4-0.6,1.4-1.4v-5.2h15.5l0,0l-4.6,11.3c-4.5,9.9-11.3,25-11.7,25.7c-0.7,1.2-1.2,4.6,2.1,7c2.9,2.2,6.5,0,8-1.5l18.4-15.5 l17.4,14.9c0.5,0.5,2.9,2.6,6.6,1.8c0.8-0.2,1.4-1,1.2-1.9c-0.2-0.8-1-1.4-1.9-1.2c-2.3,0.5-3.6-0.9-3.7-0.9c0,0-0.1-0.1-0.1-0.1 L67.8,82.3L80,72.1l15.7,33.7c2.1,4.4,0.3,9.7-3.9,12.1c-1.6,0.9-2.7,1.5-2.7,1.5C58.5,133.2,22.3,119.6,8.5,89 C-5.2,58.8,8.1,22.8,38.1,8.8C52.9,1.9,69.5,1.3,85,7c15.5,5.7,27.7,17,34.4,31.8c8.6,18.9,7,40.7-4.4,58.2 c-0.5,0.7-0.3,1.7,0.4,2.2c0.7,0.5,1.7,0.3,2.2-0.4c0,0,0,0,0,0C129.5,80.3,131.2,57.4,122.2,37.5z M65.2,17.8l7.3,13.5H58 L65.2,17.8z M57,34.2h16.5v20.2H57V34.2z M44.9,97.5c0,0-2.5,2.4-4,1.3c-1.8-1.4-1.2-2.9-1.2-2.9v0c0.3-0.5,6.7-14.5,11-24.1 L63,82.3L44.9,97.5z M65.4,80.2L52,68.8l4.5-11h16.9l5.1,11.4L65.4,80.2z"/>
</svg>
