<svg viewBox="0 0 21.83 24.94"><path d="M.68 24.94a.5.5 0 0 1-.35-.85l2.75-2.75a.5.5 0 0 1 .35-.15h7.1a1.61 1.61 0 0 0 1.61-1.61v-5.89a.5.5 0 0 1 1 0v5.89a2.62 2.62 0 0 1-2.61 2.61H3.64L1 24.79a.5.5 0 0 1-.32.15z"/><path d="M21.33 18.38a.5.5 0 0 1-.35-.15l-4-4H7a3.53 3.53 0 0 1-3.52-3.52V3.52A3.53 3.53 0 0 1 7 0h11.31a3.53 3.53 0 0 1 3.52 3.52v14.36a.5.5 0 0 1-.31.46.49.49 0 0 1-.19.04zM7 1a2.53 2.53 0 0 0-2.55 2.52v7.14A2.53 2.53 0 0 0 7 13.19h10.14a.5.5 0 0 1 .35.15l3.34 3.34V3.52A2.53 2.53 0 0 0 18.31 1z"/><path d="M.5 24.94a.5.5 0 0 1-.5-.5v-9.85A2.62 2.62 0 0 1 2.61 12h2a.5.5 0 0 1 0 1h-2A1.61 1.61 0 0 0 1 14.59v9.85a.5.5 0 0 1-.5.5z"/></svg>