<svg xmlns="http://www.w3.org/2000/svg" viewBox="0 0 32 32">
	<path d="M16,12.5c-1.9,0-3.5,1.6-3.5,3.5c0,1.9,1.6,3.5,3.5,3.5c1.9,0,3.5-1.6,3.5-3.5C19.5,14.1,17.9,12.5,16,12.5 M16,21 c-2.8,0-5-2.3-5-5c0-2.8,2.3-5,5-5c2.8,0,5,2.3,5,5C21,18.8,18.8,21,16,21 M21.5,10.8C21.5,10.8,21.5,10.8,21.5,10.8L21.5,10.8 C21.5,10.9,21.5,10.9,21.5,10.8C21.5,10.8,21.5,10.8,21.5,10.8L21.5,10.8 M21.5,12.2c-0.7,0-1.3-0.6-1.3-1.3c0-0.7,0.6-1.3,1.3-1.3 c0.7,0,1.3,0.6,1.3,1.3C22.8,11.6,22.2,12.2,21.5,12.2"/>
	<path d="M11.1,7.6c-1.9,0-3.5,1.6-3.5,3.5v9.9c0,1.9,1.6,3.5,3.5,3.5h9.9c1.9,0,3.5-1.6,3.5-3.5v-9.9c0-1.9-1.6-3.5-3.5-3.5 C20.9,7.6,11.1,7.6,11.1,7.6z M20.9,26h-9.9C8.3,26,6,23.7,6,20.9v-9.9C6,8.3,8.3,6,11.1,6h9.9c2.8,0,5.1,2.3,5.1,5.1v9.9 C26,23.7,23.7,26,20.9,26z"/>
</svg>
