<svg xmlns="http://www.w3.org/2000/svg" width="32" height="32" viewBox="0 0 32 32">
    <circle cx="16" cy="16" r="16" />
    <path fill="#F2F2F2" d="M16 12.53A3.473 3.473 0 0 0 12.53 16 3.473 3.473 0 0 0 16 19.47 3.473 3.473 0 0 0 19.47 16 3.473 3.473 0 0 0 16 12.53m0 8.513A5.048 5.048 0 0 1 10.957 16 5.048 5.048 0 0 1 16 10.957 5.048 5.048 0 0 1 21.043 16 5.048 5.048 0 0 1 16 21.043M21.506 10.84a.02.02 0 0 0-.02.02c0 .023.04.023.04 0a.02.02 0 0 0-.02-.02m0 1.349a1.33 1.33 0 0 1-1.328-1.328 1.33 1.33 0 0 1 1.328-1.328 1.33 1.33 0 0 1 1.328 1.328 1.33 1.33 0 0 1-1.328 1.328"/>
    <path fill="#F2F2F2" d="M11.056 7.573a3.487 3.487 0 0 0-3.483 3.483v9.888a3.487 3.487 0 0 0 3.483 3.483h9.888a3.487 3.487 0 0 0 3.483-3.483v-9.888a3.487 3.487 0 0 0-3.483-3.483h-9.888zM20.944 26h-9.888A5.062 5.062 0 0 1 6 20.944v-9.888A5.062 5.062 0 0 1 11.056 6h9.888A5.062 5.062 0 0 1 26 11.056v9.888A5.062 5.062 0 0 1 20.944 26z"/>
</svg>
