<svg xmlns="http://www.w3.org/2000/svg" title="icon broken fence" viewBox="0 0 80 80">
    <path d="M26.865 32.181h5.048a.983.983 0 0 1-.256-.647c0-.44.291-.801.689-.936a.992.992 0 0 1-.689-.936c0-.44.292-.802.692-.936a.99.99 0 0 1-.692-.936c0-.545.442-.983.99-.995v-.135c0-.553.453-1 1.013-1 .56 0 1.013.447 1.013 1v.135c.548.013.99.45.99.995a.991.991 0 0 1-.693.936c.4.134.692.496.692.936 0 .44-.291.801-.69.936.399.135.69.496.69.936 0 .25-.103.471-.256.647h1.562a.978.978 0 0 1-.255-.647c0-.44.29-.801.687-.936a.99.99 0 0 1-.687-.936c0-.44.291-.802.69-.936a.99.99 0 0 1-.69-.936c0-.545.44-.983.989-.995v-.135c0-.553.453-1 1.013-1 .56 0 1.012.447 1.012 1v.135c.548.012.99.45.99.995a.99.99 0 0 1-.692.936.99.99 0 0 1 .693.936c0 .44-.291.801-.69.936.399.135.69.496.69.936 0 .25-.104.471-.257.647h1.561a.978.978 0 0 1-.255-.647c0-.44.29-.801.688-.936a.99.99 0 0 1-.688-.936c0-.44.291-.802.69-.936a.99.99 0 0 1-.69-.936c0-.545.44-.983.99-.995v-.135c0-.553.453-1 1.012-1 .56 0 1.012.447 1.012 1v.135c.548.012.99.45.99.995a.99.99 0 0 1-.69.936c.4.134.69.496.69.936 0 .44-.29.801-.689.936.4.135.69.496.69.936a.98.98 0 0 1-.256.647h5.4c.56 0 1.012.447 1.012 1v19.557c0 .552-.453 1-1.013 1h-4.294c-.012 0-.022-.007-.033-.007-.012 0-.022.007-.034.007a1.007 1.007 0 0 1-1.013-1V42.69h-3.989v10.048c0 .552-.453 1-1.013 1-.56 0-1.012-.448-1.012-1V41.69c0-.553.452-1 1.012-1h6.015c.56 0 1.012.447 1.012 1v10.048h2.336V34.181H27.877v18.557c0 .552-.452 1-1.012 1s-1.013-.448-1.013-1V33.181c0-.553.453-1 1.013-1zm3.07 44.76a38.962 38.962 0 0 1-8.445-3.067l7.665-7.568 11.766 11.619a38.796 38.796 0 0 1-10.986-.984zM2.832 53.248l6.55-6.467 18.341 18.111-8.09 7.989a37.995 37.995 0 0 1-16.8-19.633zm67.3-27.407l3.06-3.022a37.785 37.785 0 0 1 3.35 9.352l-6.41-6.33zM50.36 6.315l1.957-1.932a38.283 38.283 0 0 1 19.867 16.604l-3.483 3.44L50.36 6.315zm-1.432-1.414l-2.122-2.096c.342.071.686.14 1.029.221a38.77 38.77 0 0 1 2.344.639l-1.25 1.236zm-.622-3.821C31.025-3 12.744 4.737 3.84 19.891a.993.993 0 0 0 .367 1.367 1.021 1.021 0 0 0 1.385-.363 37.552 37.552 0 0 1 7.72-9.285l9.875 9.752a1.016 1.016 0 0 0 1.432 0 .99.99 0 0 0 0-1.414l-9.746-9.625C22.818 4.104 33.11 1.077 43.38 2.251l4.114 4.064-4.123 4.073a.99.99 0 0 0 0 1.414c.197.195.457.293.716.293.259 0 .518-.098.716-.293l4.123-4.073 18.34 18.112-13.803 13.632a.99.99 0 0 0 0 1.414 1.02 1.02 0 0 0 1.432 0L68.7 27.255l8.413 8.308a37.376 37.376 0 0 1-.794 13.26 37.586 37.586 0 0 1-7.382 14.89l-4.979-4.918a1.022 1.022 0 0 0-1.432 0 .99.99 0 0 0 0 1.414l5.101 5.037c-6.224 6.88-14.855 11.376-24.232 12.478a.976.976 0 0 0-.239-.42L30.587 64.892l9.06-8.946a.99.99 0 0 0 0-1.414 1.02 1.02 0 0 0-1.433 0l-9.059 8.946-18.341-18.111 3.919-3.87a.992.992 0 0 0 0-1.414 1.024 1.024 0 0 0-1.433 0l-3.918 3.869-7.653-7.557a1.02 1.02 0 0 0-1.432 0 .99.99 0 0 0 0 1.414l7.653 7.558-6.583 6.501c0 .001 0 .003.002.005-.04.009-.08.003-.118.017a.995.995 0 0 0-.62 1.273c4.582 12.926 15.362 22.542 28.833 25.723a40.978 40.978 0 0 0 9.424 1.102c18.312 0 34.96-12.365 39.4-30.701C83.482 27.836 70.032 6.21 48.305 1.08z"/>
</svg>
