<svg xmlns="http://www.w3.org/2000/svg" xmlns:xlink="http://www.w3.org/1999/xlink" width="81" height="81" viewBox="0 0 81 81">
    <path d="M40.734 80.19c10.709-.17 20.71-4.501 28.163-12.195 15.382-15.881 14.976-41.317-.904-56.7C60.3 3.845 50.185-.153 39.455.004 28.745.175 18.744 4.506 11.294 12.2-1.298 25.198-3.622 45.116 5.644 60.635A.999.999 0 1 0 7.36 59.61C-1.442 44.866.766 25.942 12.73 13.59 19.809 6.282 29.312 2.167 39.487 2.004c10.189-.143 19.805 3.648 27.115 10.728 15.088 14.616 15.473 38.782.859 53.872-7.081 7.31-16.583 11.425-26.76 11.587-10.201.124-19.804-3.647-27.113-10.729a1 1 0 0 0-1.392 1.438c7.536 7.299 17.414 11.296 27.88 11.296.22 0 .439-.002.658-.006m9.02-21.59a1 1 0 0 1-1-1V21.392h-8.582c-2.564 2.86-8.313 5.74-13.492 6.78l1.473 8.123c2.573-.321 6.517-1.437 8.44-2.432a.993.993 0 0 1 .98.033c.298.182.48.506.48.855V57.6a1 1 0 1 1-2 0V36.292c-2.612 1.031-6.377 1.961-8.67 2.082a.994.994 0 0 1-1.035-.821l-1.814-10.009a.998.998 0 0 1 .83-1.167c5.663-.881 11.586-4.128 13.564-6.609.19-.237.477-.376.782-.376h10.044a1 1 0 0 1 1 1V57.6a1 1 0 0 1-1 1" />
</svg>
