<svg xmlns="http://www.w3.org/2000/svg" viewBox="0 0 80 80">
    <path d="M58.455 59.526c5.933-5.242 9.459-12.865 9.459-20.935a.977.977 0 0 0-.977-.977H13.063a.977.977 0 0 0-.977.977c0 8.084 3.434 15.637 9.462 20.938-4.37.957-8.319 2.265-11.568 3.823A38.123 38.123 0 0 1 1.954 40C1.954 19.022 19.02 1.954 40 1.954S78.046 19.022 78.046 40c0 8.443-2.85 16.701-8.026 23.353-3.25-1.56-7.194-2.87-11.565-3.827zm-9.89 9.518h-17.13v-3.887a27.908 27.908 0 0 0 8.58 1.357c2.895 0 5.775-.462 8.55-1.36v3.89zM40 0C17.944 0 0 17.944 0 40a40.085 40.085 0 0 0 8.934 25.19c.006.007.015.01.02.017.077.088.165.16.263.216.02.011.044.017.066.027a.95.95 0 0 0 .258.08c.03.004.057.01.089.012.021 0 .042.009.063.009a.985.985 0 0 0 .253-.037c.017-.005.033-.013.05-.019.047-.016.094-.027.139-.05 3.615-1.837 8.273-3.342 13.467-4.35a.976.976 0 0 0 .773-1.145.952.952 0 0 0-.2-.412.97.97 0 0 0-.362-.651 25.871 25.871 0 0 1-8.021-10.899h35.992a.977.977 0 1 0 0-1.954H15.127a25.99 25.99 0 0 1-1.068-6.466H65.94c-.337 8.87-5.237 17.045-12.96 21.504a25.87 25.87 0 0 1-22.155 1.804.976.976 0 0 0-1.26.569v.007a.965.965 0 0 0-.084.39v6.179c0 .539.437.976.977.976H49.54c.54 0 .977-.437.977-.976v-5.576a28.097 28.097 0 0 0 3.44-1.681 27.883 27.883 0 0 0 2.506-1.651c4.654.908 8.869 2.208 12.29 3.792C61.509 73.273 51.099 78.046 40 78.046c-8.982 0-17.427-2.966-23.783-8.354a.977.977 0 1 0-1.263 1.491C21.661 76.868 30.555 80 40 80c12.102 0 23.425-5.398 31.066-14.81A40.085 40.085 0 0 0 80 40C80 17.944 62.056 0 40 0z"/>
    <path d="M31.877 24.892c-1.046-.63-1.722-1.602-1.854-2.666-.124-1.002.234-1.984 1.011-2.767l.746-.757a1 1 0 1 0-1.424-1.404l-.744.755c-1.199 1.208-1.772 2.82-1.574 4.42.208 1.676 1.232 3.183 2.806 4.132.984.593 1.631 1.468 1.82 2.463.172.902-.059 1.824-.647 2.594l-1.76 2.282a1 1 0 0 0 1.583 1.222l1.764-2.286c.94-1.232 1.304-2.718 1.025-4.186-.298-1.56-1.274-2.91-2.752-3.802M41.877 24.892c-1.046-.63-1.722-1.602-1.854-2.665-.124-1.002.235-1.985 1.014-2.77l.743-.756a1 1 0 0 0-1.427-1.402l-.74.753c-1.2 1.208-1.773 2.82-1.574 4.421.207 1.676 1.23 3.183 2.806 4.132.983.593 1.63 1.467 1.819 2.463.172.901-.058 1.824-.646 2.594l-1.761 2.282a1 1 0 0 0 1.584 1.222l1.764-2.287c.94-1.232 1.303-2.718 1.024-4.186-.298-1.56-1.275-2.91-2.752-3.8M50.878 24.892c-1.046-.63-1.723-1.602-1.854-2.666-.125-1.002.233-1.984 1.01-2.767l.746-.757a1 1 0 1 0-1.423-1.404l-.745.755c-1.2 1.208-1.772 2.82-1.573 4.42.208 1.677 1.232 3.183 2.808 4.132.983.593 1.63 1.467 1.819 2.463.172.901-.06 1.824-.646 2.594l-1.761 2.282a1 1 0 0 0 1.584 1.222l1.764-2.287c.94-1.232 1.303-2.718 1.024-4.186-.298-1.56-1.275-2.91-2.753-3.8"/>
</svg>
