<svg xmlns="http://www.w3.org/2000/svg" title="icon service head" viewBox="0 0 80 80">
    <path d="M27.135 54.828h26.063V25.491H27.135v29.337zM40 0h-.011C17.933.006-.006 17.954 0 40.01c.003 10.685 4.166 20.729 11.724 28.282C19.278 75.843 29.319 80 40 80h.011a1 1 0 0 0 1-1V57.073c0-.087-.029-.165-.049-.246h13.236a1 1 0 0 0 1-1V24.491a1 1 0 0 0-1-1H26.135a1 1 0 0 0-1 1v31.336a1 1 0 0 0 1 1H39.06c-.021.081-.049.159-.049.246v20.915C18.518 77.46 2.006 60.628 2 40.01 1.994 19.057 19.036 2.006 39.989 2H40c10.146 0 19.686 3.951 26.862 11.123C74.042 20.298 77.997 29.84 78 39.99c.004 12.994-6.526 24.953-17.469 31.992a1 1 0 1 0 1.082 1.681C73.13 66.255 80.004 53.666 80 39.99 79.994 17.936 62.053 0 40 0zm-.506 47.937l1.124-4.65a1 1 0 0 0-.972-1.235H33.79l7.087-9.595-1.175 5.302c-.065.296.007.606.196.842.191.236.478.374.781.374h5.823l-7.008 8.962zm8.219-10.962h-5.788l1.506-6.8a1.402 1.402 0 0 0-.191-1.065 1.41 1.41 0 0 0-2.321-.076l-9.431 12.769a1.403 1.403 0 0 0 .288 1.968c.241.181.541.281.845.281h5.755l-1.469 6.07a1.416 1.416 0 0 0 1.369 1.735c.429 0 .844-.197 1.115-.541l9.434-12.065a1.417 1.417 0 0 0 .155-1.483 1.416 1.416 0 0 0-1.267-.793z"/>
</svg>