<svg xmlns="http://www.w3.org/2000/svg" viewBox="0 0 19 21">
    <path d="M17.7 1.8c.576 0 1.1.524 1.1 1.1l-.026 16.758c-.197.59-.598.942-1.074.942H1.1c-.576 0-1.1-.524-1.1-1.1V2.9c0-.576.524-1.1 1.1-1.1h4.2V1c0-.551.404-1 .9-1h1.5c.48 0 .9.42.9.9v.9h1.5V1c0-.551.404-1 .9-1h1.5c.48 0 .9.42.9.9v.9h4.3zm.1 5V2.9c-.006-.031-.069-.094-.104-.1H13.4v1.8c0 .479-.42.9-.9.9H11c-.48 0-.9-.421-.9-.9V2.8H8.6v1.8c0 .479-.42.9-.9.9H6.2c-.48 0-.9-.421-.9-.9V2.8H1.1c-.03.006-.094.069-.1.104V6.8h16.8zm0 12.61V7.8H1v11.7c.006.03.07.094.104.1h16.578a.525.525 0 0 0 .118-.19zM6.307 1L6.3 4.5h1.3V1H6.307zm4.8 0L11.1 4.5h1.3V1h-1.293z"/>
    <path d="M12.9 12.8h2.4v-2.4h-2.4zM8.2 12.8h2.4v-2.4H8.2zM3.5 12.8h2.4v-2.4H3.5zM12.9 17.238h2.4v-2.4h-2.4zM8.2 17.238h2.4v-2.4H8.2zM3.5 17.238h2.4v-2.4H3.5z"/>
</svg>
