<svg xmlns="http://www.w3.org/2000/svg" viewBox="0 0 80 80">
    <path d="M40.043 80c-14.597 0-28.667-8-35.71-21.865-9.988-19.663-2.12-43.787 17.54-53.776 9.524-4.84 20.36-5.68 30.517-2.367C62.545 5.305 70.803 12.376 75.641 21.9c6.194 12.192 5.765 26.528-1.15 38.346a.979.979 0 0 1-1.335.351.978.978 0 0 1-.35-1.336c6.576-11.243 6.985-24.879 1.094-36.476C69.298 13.726 61.444 7 51.784 3.85 42.127.698 31.816 1.497 22.759 6.1 4.058 15.602-3.426 38.547 6.075 57.25c9.5 18.7 32.444 26.186 51.142 16.685-.003 0 5.225-3.107 6.805-4.458a.977.977 0 1 1 1.269 1.486c-1.707 1.458-6.913 4.553-7.133 4.682A39.886 39.886 0 0 1 40.043 80"/>
    <path d="M15.422 44.038c2.593 3.958 4.197 4.916 4.197 4.916-.5 1.541 0 2.625 0 2.625-2.375-1.584-5.623-6.196-5.623-6.196l1.345-1.27c-.536.502-1.041.981-1.345 1.27A17.599 17.599 0 0 1 11 35.554c0-4.672 1.83-9.092 5.177-12.438C19.523 19.831 23.943 18 28.614 18c4.105 0 7.957 1.389 11.114 3.915C42.886 19.389 46.738 18 50.842 18c4.672 0 9.091 1.831 12.438 5.116l-.001-.001c3.347 3.344 5.177 7.764 5.052 12.246 0 4.671-1.769 9.091-5.115 12.438L42.76 68.194a4.663 4.663 0 0 1-3.158 1.263c-1.136 0-2.274-.38-3.157-1.263-.886-.883-1.327-1.959-1.327-3.157 0-.126.065-.316.065-.506-.126.064-.316.064-.506.064-1.073 0-2.21-.38-3.093-1.262-.886-.819-1.327-1.895-1.327-3.093 0-.126.064-.316.064-.506-.126.064-.315.064-.506.064a4.4 4.4 0 0 1-3.092-1.263c-1.011-1.011-1.389-2.335-1.263-3.662-.126.064-.316.064-.506.064-1.137 0-2.273-.38-3.156-1.263l-.065-.064-.319-.319c-1.196-1.377-.753-3.469-.753-3.469.126-.822.567-1.705 1.199-2.336l6.25-6.25c-.821-.316-1.514-.757-2.02-1.263-1.389-1.389-1.514-3.095-.316-4.294 1.707-1.704 11.745-11.745 12.567-12.502-2.781-2.148-6.125-3.347-9.661-3.347a15.678 15.678 0 0 0-11.115 4.61c-2.966 2.97-4.609 6.884-4.609 11.114 0 3.057.869 5.976 2.466 8.484zm46.532 2.691c2.967-2.967 4.609-6.945 4.548-11.111 0-4.169-1.643-8.147-4.61-11.114-2.97-2.967-6.883-4.61-11.114-4.61a15.675 15.675 0 0 0-11.113 4.61L27.101 37.067c-.505.506-.126 1.138.254 1.579a4.332 4.332 0 0 0 2.461 1.199h.252c1.263.125 2.59-.19 3.788-1.389l5.432-5.431c.315-.38.946-.38 1.326 0 1.769 1.766 3.663 2.841 5.367 3.093 1.769.252 3.347-.38 4.736-1.768a.915.915 0 0 1 1.327 0c.38.379.38.946 0 1.326-1.83 1.769-3.979 2.59-6.315 2.274-1.893-.251-3.852-1.263-5.746-2.967l-4.8 4.8c-1.516 1.517-3.283 2.022-4.925 1.958l-6.948 7.128c-1.011 1.011-1.011 2.526-.064 3.537l.064.064h-.064a2.514 2.514 0 0 0 3.599 0l10.102-10.102a.914.914 0 0 1 1.326 0c.38.38.38.947 0 1.327L28.172 53.797a2.513 2.513 0 0 0 0 3.599c.441.505 1.072.757 1.767.757.632 0 1.264-.252 1.769-.757L41.81 47.293a.918.918 0 0 1 1.328 0 .917.917 0 0 1 0 1.327L33.035 58.723c-.506.441-.757 1.072-.757 1.768 0 .631.251 1.262.757 1.768a2.513 2.513 0 0 0 3.599 0l10.102-10.102a.915.915 0 0 1 1.327 0 .917.917 0 0 1 0 1.327L37.961 63.586c-.506.442-.758 1.073-.758 1.768 0 .696.252 1.328.696 1.831a2.513 2.513 0 0 0 3.598 0l20.456-20.456h.001z"/>
</svg>
