<svg xmlns="http://www.w3.org/2000/svg" viewBox="0 0 80 80">
    <path d="M39.899 79.797c-2.334 0-4.667-.202-6.936-.6a.975.975 0 0 1-.804-1.025l.039-.57a.98.98 0 0 1 .223-.555l18.19-21.944a.974.974 0 0 1 1.499 1.243L34.587 77.482c1.749.245 3.53.369 5.31.369 20.927 0 37.953-17.027 37.953-37.952 0-20.927-17.026-37.953-37.952-37.953-20.927 0-37.953 17.026-37.953 37.953 0 15.435 9.218 29.21 23.485 35.098a.974.974 0 0 1-.743 1.8C9.69 70.606 0 56.123 0 39.898 0 17.899 17.898 0 39.899 0c22 0 39.898 17.899 39.898 39.899 0 21.999-17.898 39.898-39.898 39.898"/>
    <path d="M37.403 60.665l3.422-14.154a.973.973 0 0 0-.946-1.2H23.901l18.512-25.07-3.485 15.728a.972.972 0 0 0 .951 1.183h15.909L37.403 60.665zm21.255-24.912a.975.975 0 0 0-.874-.547H41.092l4.214-19.022a.974.974 0 0 0-1.734-.789l-22.381 30.31a.971.971 0 0 0 .783 1.55h16.67L34.455 64.58a.973.973 0 0 0 1.712.826l22.383-28.628a.973.973 0 0 0 .107-1.024z"/>
</svg>
