<svg xmlns="http://www.w3.org/2000/svg" title="icon leaning pole" viewBox="0 0 80 80">
    <path d="M77.974 41.074c-.584 20.582-17.597 36.927-38.162 36.927-.361 0-.727-.005-1.092-.016-12.45-.349-23.784-6.613-30.67-16.855h54.785c.555 0 1.005-.448 1.005-1 0-.553-.45-1-1.005-1H40.62l-9.779-26.74c6.32 4.723 13.868 7.092 21.417 7.092 8.77 0 17.535-3.196 24.378-9.57a38.003 38.003 0 0 1 1.338 11.162M2.103 33.871C5.153 15.127 21.688 1.46 40.876 2.017c10.198.286 19.672 4.507 26.68 11.884a37.858 37.858 0 0 1 8.417 13.88c-12.802 12.63-33.328 12.923-46.494.886l-.03-.08 4.093-1.484a.997.997 0 0 0 .601-1.28 1.006 1.006 0 0 0-1.287-.599l-4.094 1.483-.686-1.879a1.006 1.006 0 0 0-1.287-.598.997.997 0 0 0-.601 1.281l.686 1.88-3.461 1.254a.998.998 0 0 0-.6 1.282 1.004 1.004 0 0 0 1.287.597l.163-.059c-6.114 4.366-13.963 5.612-22.16 3.406m66.913-21.344C61.64 4.762 51.666.32 40.934.017 20.528-.572 2.916 14.163.01 34.257c-.034.24.02.484.152.687l.162.248c.131.2.33.348.561.415 10.178 2.963 19.942.95 26.986-5.493L38.482 59.13H6.221c-.363 0-.698.194-.875.508a.997.997 0 0 0 .014 1.008C12.474 72.37 24.924 79.6 38.663 79.986c.386.01.769.015 1.15.015 21.645 0 39.556-17.206 40.17-38.87.304-10.68-3.592-20.838-10.967-28.604"/>
</svg>