<svg xmlns="http://www.w3.org/2000/svg" viewBox="0 0 32 32">
	<path d="M26,9.9c-0.7,0.3-1.5,0.5-2.4,0.6c0.9-0.5,1.5-1.3,1.8-2.3c-0.8,0.5-1.7,0.8-2.6,1c-1.5-1.7-4.1-1.7-5.8-0.2 c-1.1,1-1.5,2.5-1.2,3.9c-3.3-0.2-6.4-1.7-8.5-4.3C7,9.4,6.8,10.1,6.8,10.8c0,1.4,0.7,2.7,1.8,3.4c-0.7,0-1.3-0.2-1.9-0.5v0.1 c0,2,1.4,3.6,3.3,4c-0.4,0.1-0.7,0.1-1.1,0.1c-0.3,0-0.5,0-0.8-0.1c0.5,1.7,2.1,2.8,3.8,2.8c-1.5,1.1-3.2,1.8-5.1,1.8 c-0.3,0-0.7,0-1-0.1c1.9,1.2,4.1,1.8,6.3,1.8C19.8,24.3,24,18,24,12.6c0-0.2,0-0.4,0-0.5C24.8,11.5,25.4,10.7,26,9.9"/>
</svg>
