<svg xmlns="http://www.w3.org/2000/svg" width="31" height="31" viewBox="0 0 31 31">
    <g fill-rule="evenodd">
        <path d="M9.01 13.889a.396.396 0 0 0-.282.115L7.23 15.502a3.792 3.792 0 0 0-1.057 3.232c.225 1.503-.25 3.01-1.27 4.03l-.899.898a.41.41 0 0 0 .009.579l1.746 1.746c.079.079.183.123.293.124h.003c.107 0 .207-.041.282-.116l.899-.899c1.02-1.02 2.527-1.494 4.03-1.27a3.794 3.794 0 0 0 3.232-1.056l1.498-1.498a.41.41 0 0 0-.009-.578l-6.681-6.682a.419.419 0 0 0-.296-.123M6.055 27h-.008a1.305 1.305 0 0 1-.917-.384l-1.746-1.747a1.3 1.3 0 0 1-.008-1.835l.899-.9c.82-.82 1.202-2.043 1.018-3.269a4.684 4.684 0 0 1 1.308-3.991l1.498-1.498a1.3 1.3 0 0 1 1.835.008l6.682 6.68c.509.509.512 1.332.009 1.836l-1.499 1.498a4.68 4.68 0 0 1-3.992 1.308c-1.227-.183-2.449.198-3.27 1.019l-.899.899a1.277 1.277 0 0 1-.91.376"/>
        <path d="M11.42 15a.42.42 0 0 1-.297-.718l2.16-2.159a.42.42 0 1 1 .594.595l-2.16 2.159a.42.42 0 0 1-.296.123M15.42 19a.42.42 0 0 1-.297-.718l2.16-2.159a.42.42 0 1 1 .594.595l-2.16 2.159a.42.42 0 0 1-.296.123M13.462 17a.46.46 0 0 1-.327-.788l3.076-3.077a.462.462 0 0 1 .654.653l-3.076 3.077a.46.46 0 0 1-.327.135M10 18.966a1.035 1.035 0 0 0 0 2.067c.276 0 .535-.107.73-.302.196-.195.303-.455.303-.731 0-.276-.107-.536-.303-.731a1.026 1.026 0 0 0-.73-.303M10 22a1.988 1.988 0 0 1-1.415-.586A2.002 2.002 0 0 1 10 18c.534 0 1.037.208 1.414.586.378.378.586.88.586 1.414 0 .534-.208 1.036-.586 1.414-.378.378-.88.586-1.414.586M.455 30.766a.453.453 0 0 1-.322-.776l3.857-3.857a.454.454 0 1 1 .643.643L.776 30.633a.453.453 0 0 1-.321.133M21.694 15.988a.41.41 0 0 0 .578.008l1.498-1.498a3.79 3.79 0 0 0 1.056-3.232c-.224-1.503.25-3.01 1.27-4.03l.9-.898a.396.396 0 0 0 .115-.285.417.417 0 0 0-.124-.293L25.24 4.013a.42.42 0 0 0-.294-.124h-.002a.394.394 0 0 0-.282.116l-.899.899c-1.02 1.02-2.525 1.494-4.03 1.27a3.788 3.788 0 0 0-3.231 1.056l-1.498 1.498a.396.396 0 0 0-.116.284c0 .11.045.215.124.294l6.68 6.682zM21.99 17c-.334 0-.67-.128-.925-.384l-6.68-6.68a1.301 1.301 0 0 1-.009-1.836l1.498-1.498a4.683 4.683 0 0 1 3.992-1.308c1.225.183 2.448-.198 3.27-1.019l.898-.899A1.28 1.28 0 0 1 24.953 3c.345.002.671.14.917.385l1.745 1.746a1.301 1.301 0 0 1 .009 1.835l-.9.899c-.82.822-1.201 2.044-1.018 3.27a4.683 4.683 0 0 1-1.307 3.991L22.9 16.625c-.251.25-.58.375-.91.375z"/>
        <path d="M26.417 4.369a.416.416 0 0 1-.295-.711L29.657.122a.416.416 0 1 1 .59.59L26.71 4.246a.416.416 0 0 1-.294.122M21.55 14a.45.45 0 0 1-.32-.132l-5.098-5.099a.451.451 0 0 1 .638-.637l5.098 5.099a.45.45 0 0 1-.319.769"/>
    </g>
</svg>
