<svg xmlns="http://www.w3.org/2000/svg" title="icon fascia" viewBox="0 0 80 80">
    <path d="M25.278 25.992a1 1 0 0 0 .016-2c-4.457-.068-9.586-3.01-12.196-6.995a1.001 1.001 0 0 0-1.674 1.096c2.947 4.5 8.767 7.821 13.838 7.9h.016zm20.64 32.153h7.336V54.04h-7.337v4.104zm0-12.21h7.336v-4.103h-7.337v4.104zm0 6.106h7.336v-4.105h-7.337v4.105zm7.336 9.764v-1.661h-7.337v1.661a1 1 0 1 1-2 0V37.921a1 1 0 1 1 2 0v1.912h7.337v-1.912a1 1 0 1 1 2 0v23.884a1 1 0 1 1-2 0zm19.086-45.33C66.056 7.839 56.784 2.164 46.232.499c-10.554-1.666-21.12.878-29.76 7.162C7.832 13.942 2.158 23.213.492 33.765c-3.438 21.782 11.487 42.3 33.27 45.737 2.12.334 4.236.498 6.337.498 11.314 0 22.127-4.762 29.816-13.351.191-.185.311-.445.311-.73a1.002 1.002 0 0 0-1.139-.99H27.021c-3.255 0-3.632-1.795-3.632-3.145v-18.87a1 1 0 1 0-2 0v18.87c0 3.27 2.053 5.144 5.632 5.144h39.874c-8.604 8.564-20.706 12.507-32.82 10.6C13.38 74.258-.799 54.767 2.466 34.077 4.05 24.052 9.44 15.244 17.647 9.275 25.857 3.306 35.9.894 45.92 2.473c10.024 1.582 18.833 6.973 24.802 15.18 5.97 8.206 8.387 18.246 6.805 28.27a.999.999 0 1 0 1.975.312c1.666-10.553-.878-21.12-7.162-29.76zM61.544 40.663l-10.259-9.991a1 1 0 0 1-.303-.716V22.04H47.87v3.182a1 1 0 0 1-1.69.725l-7.237-6.884L17.064 38.53l3.113.027 18.13-15.945c.392-.345.984-.33 1.357.033l11.385 11.08a1 1 0 1 1-1.394 1.433L38.932 24.725 21.211 40.313c-.185.162-.428.241-.67.248l-6.088-.052a1.003 1.003 0 0 1-.928-.649 1.003 1.003 0 0 1 .272-1.099l24.502-21.803c.39-.345.977-.335 1.355.023l6.215 5.911v-1.85a1 1 0 0 1 1-1h5.113a1 1 0 0 1 1 1v8.49l9.956 9.697a1 1 0 1 1-1.394 1.433z"/>
</svg>