<svg xmlns="http://www.w3.org/2000/svg" viewBox="0 0 80 80">
    <path d="M39.993 80.002a40.063 40.063 0 0 1-19.824-5.254A40.24 40.24 0 0 1 5.676 60.551a39.888 39.888 0 0 1-5.67-21.219C.184 28.65 4.512 18.676 12.192 11.247 19.873 3.82 29.98-.182 40.668.007 62.262.367 79.906 18.224 80 39.81a.977.977 0 0 1-.972.98c-.574.026-.977-.432-.98-.97C77.96 19.286 61.178 2.301 40.637 1.957c-10.154-.164-19.78 3.627-27.087 10.692C6.244 19.716 2.127 29.203 1.957 39.364a37.94 37.94 0 0 0 5.392 20.183 38.274 38.274 0 0 0 13.788 13.506 38.095 38.095 0 0 0 18.226 4.993C56.01 78.334 71 67.6 76.16 51.875c-1.35-.683-4.57-2.059-7.79-1.549-4.51.712-8.703 4.699-8.745 4.739l-9.607 7.784-4.886 4.291c-3.358 2.894-16.34-2.54-24.013-11.444-3.14-3.647-6.037-8.951-7.748-14.19-1.074-3.284-2.502-9.11-.022-11.247l5.61-4.833c.343-.296.764-.43 1.187-.378.425.053.805.29 1.07.668l6.295 8.98c.575.823.428 2.02-.327 2.67l-3.545 3.053c-1.177 1.014-1.575 2.896-.906 4.285.112.268.38.879.937 1.853a27.43 27.43 0 0 0 3.06 4.305 27.529 27.529 0 0 0 3.808 3.667c.883.698 1.453 1.057 1.658 1.179 1.322.879 3.241.76 4.404-.243l3.545-3.054c.758-.65 1.962-.617 2.688.073l4.92 4.676a.975.975 0 1 1-1.345 1.414l-4.92-4.677c-.008 0-.067-.003-.091.008l-3.523 3.038c-1.822 1.572-4.711 1.75-6.719.415-.255-.152-.888-.556-1.825-1.298a29.448 29.448 0 0 1-4.078-3.925 29.46 29.46 0 0 1-3.277-4.61c-.59-1.034-.895-1.714-1.025-2.028-1.024-2.128-.426-4.969 1.416-6.556l3.544-3.055c-.003-.003.003-.061-.006-.085l-6.024-8.592-5.258 4.53c-.928.798-1.102 3.942.603 9.16 1.635 5.007 4.391 10.063 7.372 13.523C29.323 62.23 41.6 67.606 43.852 65.668l4.909-4.31 9.574-7.754c.125-.125 4.606-4.397 9.73-5.205 4.936-.776 9.586 2.054 9.78 2.175l.64.395-.22.72C73.158 68.438 57.478 80 39.993 80.001"/>
    <path d="M30.132 44.484v-1.62a344.525 344.525 0 0 0 4.231-4.297c1.235-1.277 2.27-2.462 3.107-3.553.837-1.09 1.476-2.093 1.918-3.008.44-.913.66-1.8.66-2.66 0-1.212-.33-2.203-.991-2.975-.661-.771-1.664-1.157-3.008-1.157-.881 0-1.696.248-2.445.743a10.194 10.194 0 0 0-2.05 1.803L30 26.205c.881-.968 1.818-1.746 2.81-2.33.991-.583 2.18-.875 3.57-.875 1.96 0 3.503.567 4.626 1.701 1.125 1.136 1.686 2.64 1.686 4.512 0 .992-.214 1.99-.644 2.992-.429 1.003-1.025 2.039-1.785 3.107a37.035 37.035 0 0 1-2.71 3.338 152.828 152.828 0 0 1-3.454 3.686c.573-.044 1.168-.088 1.785-.132.617-.045 1.2-.067 1.752-.067h6.114v2.347H30.132zM47.875 36.09h6.61v-6.115c0-.573.018-1.251.05-2.034.034-.781.071-1.459.116-2.032h-.132a32.13 32.13 0 0 1-.827 1.487c-.286.485-.584.981-.892 1.488l-4.925 7.205zm6.61 7.998V38.27H45v-1.785L54.023 23h3.04v13.09h2.876v2.181h-2.875v5.817h-2.578zM62 44.089V38h1.373v2.344h2.101V38h1.382v6.089h-1.382v-2.54h-2.1v2.54zM69.373 40.801h.71c.36 0 .636-.076.827-.229.19-.152.285-.377.285-.677 0-.298-.095-.507-.285-.625-.19-.119-.466-.177-.827-.177h-.71V40.8zM68 44.09V38h2.196c.323 0 .626.03.91.093.283.062.53.167.742.313.212.146.38.34.505.584.124.242.186.545.186.905 0 .449-.099.817-.294 1.107-.196.29-.46.506-.79.649l1.383 2.438h-1.54l-1.168-2.196h-.757v2.196H68z"/>
</svg>
