<svg xmlns="http://www.w3.org/2000/svg" viewBox="0 0 80 80">
    <path d="M57.19 55.986a.976.976 0 0 1-1.952 0V37.166a.975.975 0 1 1 1.952 0v18.82zm-3.442-40.974c.493 0 .892.4.892.896v8.858L65.1 34.94a.9.9 0 0 1 .03 1.267.889.889 0 0 1-1.262.029l-10.734-10.44a.892.892 0 0 1-.277-.648v-8.345h-3.565v3.215a.89.89 0 1 1-1.507.648l-7.406-7.105-23.635 22.675a.892.892 0 0 1-1.261-.029.9.9 0 0 1 .031-1.266l24.25-23.265a.887.887 0 0 1 1.23-.001l6.516 6.249v-2.017c0-.495.397-.896.89-.896h5.348zM0 40C0 17.943 17.944 0 40 0s40 17.943 40 40c0 8.346-2.544 16.342-7.359 23.125a1.847 1.847 0 0 1-.202.189c-.205.13-.258.147-.315.164-.23.044-.252.057-.277.057H27.532a4.884 4.884 0 0 1-4.878-4.878l-.001-13.301v-8.324a.975.975 0 0 1 1.952 0v21.625a2.93 2.93 0 0 0 2.927 2.926H71.33c4.394-6.362 6.719-13.81 6.719-21.583C78.049 19.02 60.98 1.951 40 1.951S1.951 19.02 1.951 40C1.951 60.981 19.02 78.049 40 78.049a37.978 37.978 0 0 0 25.317-9.646.977.977 0 0 1 1.377.078.974.974 0 0 1-.078 1.378A39.936 39.936 0 0 1 40 80C17.944 80 0 62.056 0 40z"/>
</svg>
