<svg xmlns="http://www.w3.org/2000/svg" viewBox="0 0 80 80">
    <path d="M63.627 15.42a.938.938 0 0 0-1.352-.225L58.4 18.158c-.434.33-.53.968-.214 1.422.189.275.484.42.783.42a.931.931 0 0 0 .57-.195l3.874-2.963c.434-.33.53-.968.214-1.422M66.93 38.056a.889.889 0 0 0 .192-.022l4.505-1.029c.504-.114.826-.653.72-1.2-.106-.55-.599-.897-1.102-.784L66.74 36.05c-.503.116-.825.653-.72 1.2.092.48.48.807.91.807M62.968 28.889a.924.924 0 0 0 .366-.074l4.43-1.88c.496-.21.733-.796.53-1.309-.202-.515-.772-.762-1.262-.55l-4.43 1.879c-.495.21-.732.796-.53 1.31.153.389.515.624.896.624"/>
    <path d="M40.248 67.065l-8.395-11.109 4.52-2.026 7.205 10.787c.33.519.417 1.147.278 1.684-.14.54-.59 1.028-1.144 1.277-.874.391-1.835.155-2.464-.613zm-10.807-11.83l-.036-.081-.073-.165v.001l-8.91-19.931 6.824-3.057 9.017 20.176-6.822 3.057zm-2.182.017c-5.156 2.31-11.242-.014-13.55-5.177-2.27-5.081.053-11.175 5.209-13.485l.316-.14 8.341 18.661-.316.141zm20.39-36.586l12.107 27.082C51.38 45.115 43.973 47.291 37.1 49.8l-7.563-16.919c6.447-3.463 13.002-7.542 18.112-14.215zm2.112-2.949c.255-.494.696-.788 1.001-.736.388.018.798.5 1.081 1.136L64.481 44.39c.32.714.375 1.263.127 1.563-.169.266-.678.401-1.217.259a7.63 7.63 0 0 0-1.626-.225L48.845 17.08c.29-.416.58-.832.916-1.363zm20.61-1.413C63.552 6.133 53.963 1.11 43.369.16 21.493-1.797 2.12 14.422.162 36.314-.785 46.92 2.448 57.26 9.268 65.43c6.82 8.17 16.41 13.192 26.975 14.14.071.008.61.069 1.4.069 1.932 0 5.359-.364 7.102-2.743 1.446-1.973 1.375-4.81-.183-8.421a3.92 3.92 0 0 0 1.02-1.612c.28-1.078.172-2.172-.449-3.135l-7.012-10.582c.167-.264.3-.61.158-.926l-.392-.875c6.956-2.544 14.554-4.712 23.071-3.762.117.043.229.086.386.016.62.102 1.201.13 1.82.235.732.148 1.475.103 2.029-.145.397-.178.677-.4.925-.702.66-.87.709-2.034.106-3.383l-12.636-28.27c-.569-1.27-1.506-2.088-2.59-2.175-.97-.042-1.968.501-2.636 1.56-.335.53-.667 1.062-1.037 1.515-.08.035-.122.151-.168.265-4.966 6.991-11.643 11.223-18.173 14.72l-.39-.876c-.214-.478-.672-.653-1.149-.44l-8.562 3.84c-.397.179-.653.673-.475 1.07l-.315.143c-5.916 2.747-8.633 9.872-5.934 15.908 2.697 6.034 9.78 8.676 15.808 5.975l.316-.141c.178.397.716.535 1.113.358l.95-.426 8.615 11.39c.96 1.226 2.478 1.767 3.9 1.423 1.185 2.828 1.303 4.951.319 6.298-1.784 2.44-6.659 1.9-6.736 1.891-10.075-.902-19.197-5.68-25.684-13.451C4.273 56.41 1.197 46.575 2.1 36.487 3.962 15.663 22.407.232 43.195 2.1c10.077.903 19.198 5.68 25.684 13.452 6.488 7.772 9.563 17.607 8.662 27.695C76.247 57.723 67.03 69.983 53.485 75.24a.975.975 0 0 0 .703 1.817c14.239-5.528 23.93-18.415 25.29-33.635.947-10.606-2.286-20.947-9.106-29.117z"/>
</svg>
