<svg xmlns="http://www.w3.org/2000/svg" viewBox="0 0 80 80" title="icon scaffolding">
	<path d="M74.3,29.5c-2.4-0.1-4.8-0.7-7-1.7c-2.2-1-4.2-2.4-6-4.1c-0.4-0.4-1-0.4-1.4,0s-0.4,1,0,1.4c3.8,3.8,8.9,6.1,14.3,6.4h0.1 c0.5,0,1-0.4,1-0.9C75.3,30,74.9,29.5,74.3,29.5z M69.1,12.5C61.7,4.8,51.8,0.3,41.1,0C19-0.6,0.6,16.8,0,38.9c0,0.5,0.4,1,1,1 c0.6,0,1-0.4,1-1C2.6,18.3,19.5,2,40,2c0.4,0,0.7,0,1.1,0c10.1,0.3,19.6,4.5,26.5,11.9c7,7.4,10.7,17,10.4,27.2 C77.4,62,59.9,78.6,38.9,78c-12.4-0.3-23.7-6.6-30.5-16.8h54.5c0.5,0,1-0.5,1-1s-0.5-1-1-1H58V22.8c0-0.5-0.5-1-1-1 c-0.6,0-1,0.5-1,1v36.3h-8c0,0,0,0,0,0v-8.5h2.6c0.5,0,1-0.4,1-1c0-0.5-0.5-1-1-1H48v-8h2.6c0.5,0,1-0.4,1-1c0-0.6-0.5-1-1-1H48v-8 h2.6c0.5,0,1-0.5,1-1c0-0.6-0.5-1-1-1H48v-1.8c0-0.6-0.5-1-1-1c-0.6,0-1,0.4-1,1v1.8h-3.8v-1.8c0-0.6-0.5-1-1-1c-0.6,0-1,0.4-1,1 v1.8H21.3v-1.8c0-0.6-0.5-1-1-1s-1,0.4-1,1v1.8h-3.8v-1.8c0-0.6-0.5-1-1-1s-1,0.4-1,1v1.8h-1.8c-0.6,0-1,0.4-1,1c0,0.5,0.4,1,1,1 h1.8v8h-1.8c-0.6,0-1,0.4-1,1c0,0.6,0.4,1,1,1h1.8v8h-1.8c-0.6,0-1,0.5-1,1c0,0.6,0.4,1,1,1h1.8v8.5c0,0,0,0,0,0H6.6 c-0.6,0-1,0.5-1,1c0,0.2,0,0.4,0.1,0.5C12.8,72.4,25.2,79.6,38.9,80c0.4,0,0.8,0,1.2,0c21.5,0,39.4-17.2,40-38.9 C80.3,30.5,76.4,20.3,69.1,12.5z M42.2,30.6H46v8h-3.8V30.6z M42.2,40.6H46v1.3h-3.8V40.6z M42.2,43.9H46v1.3h-3.8V43.9z M42.2,47.3 H46v1.3h-3.8V47.3z M42.2,59.1v-8.5H46v8.5L42.2,59.1C42.2,59.1,42.2,59.1,42.2,59.1z M40.2,59.1H22.7l17.5-7.8V59.1z M40.2,48.2 l-15.5-7.6h15.5V48.2z M40.2,38.6H24.1L40.2,31V38.6z M21.3,30.6h15.1l-15.1,7.1V30.6z M21.3,41.1l15.2,7.5H21.3V41.1z M21.3,50.6 h15.6l-15.6,6.9V50.6z M15.5,30.6h3.8v1.3h-3.8V30.6z M15.5,33.9h3.8v1.3h-3.8V33.9z M15.5,37.2h3.8v1.3h-3.8V37.2z M15.5,40.6h3.8 v8h-3.8V40.6z M15.5,50.6h3.8V52h-3.8V50.6z M15.5,54h3.8v1.3h-3.8V54z M15.5,57.3h3.8v1.8c0,0,0,0,0,0h-3.9V57.3z"/>
</svg>