<svg xmlns="http://www.w3.org/2000/svg" viewBox="0 0 80 80">
    <path d="M40 0C17.943 0 0 17.944 0 39.999c0 8.56 2.663 16.722 7.705 23.606a.974.974 0 1 0 1.573-1.15c-4.792-6.55-7.327-14.313-7.327-22.456 0-20.98 17.07-38.048 38.049-38.048C60.98 1.951 78.049 19.02 78.049 40S60.979 78.049 40 78.049c-8.101 0-15.781-2.52-22.297-7.247l4.726-4.726h13.452a5.102 5.102 0 0 0 5.095-5.095v-6.078a.975.975 0 1 0-1.952 0v6.078a3.147 3.147 0 0 1-3.143 3.143H22.025a.976.976 0 0 0-.69.287l-5.366 5.366a.956.956 0 0 0-.244.474c-.068.05-.139.098-.193.168a.976.976 0 0 0 .181 1.368C22.736 77.16 31.136 80 40 80c22.057 0 40-17.944 40-40.001C80 17.944 62.057 0 40 0"/>
    <path d="M23.73 29.927c0-2.735 2.22-4.96 4.947-4.96H50.9c2.727 0 4.946 2.225 4.946 4.96v25.87l-6.55-6.572a.98.98 0 0 0-.694-.29H28.677c-2.727 0-4.947-2.226-4.947-4.962V29.927zM15 51.695v9.97a.981.981 0 0 0 1.96 0v-9.97c0-1.746 1.42-3.17 3.163-3.17h3.388c1.266 1.445 3.101 2.378 5.166 2.378h19.52l7.936 7.964a.978.978 0 0 0 1.068.212.981.981 0 0 0 .606-.909V29.927c0-3.82-3.1-6.927-6.907-6.927H28.677c-3.808 0-6.907 3.108-6.907 6.927v14.046c0 .913.188 1.784.51 2.585h-2.157c-2.825 0-5.123 2.305-5.123 5.137z"/>
</svg>
