<svg xmlns="http://www.w3.org/2000/svg" viewBox="0 0 80 80" title="icon covered cables">
	<path d="M32.4,0.8C21.5,3,12.2,9.3,6.3,18.6c-5.9,9.2-7.7,20-5.2,30.6C5.4,67.4,22,80,40.4,80c2.1,0,4.2-0.2,6.4-0.5 c14.1-2.3,26.1-11.8,31.3-25c0.2-0.5,0-1.1-0.5-1.3c0,0,0,0,0,0c-0.5-0.2-1.1,0.1-1.3,0.6c-4.9,12.5-16.3,21.7-29.7,23.8 C26.7,80.7,7.6,68,3,48.7v0h5.6V52c0,0,0,0.1,0,0.1c0,0.1,0,0.1,0,0.2v2.3c0,1.5,1.2,2.7,2.7,2.7h3.8c1.6,0,2.9-1.3,2.9-2.8v-6.8 c0-0.6-0.4-1-1-1h-2.7v-2.6c1.2,0.4,3.9,1.1,7.6,1.8L21.7,47c-0.1,0.5,0.2,1.1,0.8,1.2c0,0,0,0,0,0l0.8,0.2c7,1.4,14,2,21.1,2 c8.6,0,17.1-1,25.4-3l1.2-0.3c0.5-0.1,0.9-0.7,0.7-1.2c0,0,0-0.1,0-0.1l-1.2-3.7c-0.2-0.5-0.7-0.8-1.2-0.7 c-14.8,3.7-30.6,4.1-45.6,1c-0.5-0.1-1.1,0.2-1.2,0.8L22.4,44c-4.6-0.9-7.5-1.8-8-2v-5.3c2.2,0.7,4.5,1.2,6.9,1.7l-0.1,0.7 c-0.1,0.5,0.2,1.1,0.8,1.2l0.8,0.2c7,1.5,14.1,2.3,21.3,2.3c8.5,0,17.1-1.1,25.3-3.3l1.2-0.3c0.3-0.1,0.5-0.2,0.6-0.5 c0.1-0.2,0.2-0.5,0.1-0.8l-0.3-0.8c4.2-1.3,8.4-3.5,8.6-3.6l0.1,0c0,0,0.1-0.1,0.1-0.1c0-0.1,0.1-0.1,0.1-0.1c0-0.1,0.1-0.1,0.1-0.2 c0-0.1,0.1-0.1,0.1-0.2c0-0.1,0-0.1,0-0.2c0-0.1,0-0.1,0-0.2c0,0,0,0,0-0.1C75.5,10.6,54.2-3.6,32.4,0.8z M24.3,44.7 c14.7,2.9,30.1,2.6,44.6-1l0.6,1.8l-0.1,0c-14.8,3.5-30.5,3.9-45.5,1L24.3,44.7z M2.6,46.7c-0.9-4.8-0.8-9.6,0.2-14.3h9.6v14.3H2.6z M16.1,54.5c0,0.5-0.4,0.8-0.9,0.8h-3.8c-0.4,0-0.7-0.3-0.7-0.7c0,0,0,0,0,0V53h5.4V54.5z M16.1,48.7V51h-5.4v-2.3H16.1z M10.7,30.4 v-2.3h5.4v2.3H10.7z M10.7,26.1v-1.6c0-0.4,0.3-0.7,0.7-0.7h3.8c0.5,0,0.9,0.4,0.9,0.8v1.4H10.7z M68.7,37.6c-0.1,0-0.3,0.1-0.4,0.1 h0c-13.4,3.5-27.4,4-41,1.6c-1.3-0.2-2.7-0.5-4-0.8l0.4-1.8v0l0.1,0c14.7,3.2,30,2.9,44.5-1l0.6,1.7C68.9,37.5,68.7,37.6,68.7,37.6z M70.2,35.2l-0.3-0.9c-0.2-0.5-0.7-0.8-1.2-0.7c-14.8,4.1-30.6,4.5-45.6,1c-0.3-0.1-0.5,0-0.8,0.1c-0.2,0.1-0.4,0.4-0.4,0.6 l-0.2,1.1c-2.6-0.5-5-1.1-7.3-1.8v-2.2h2.7c0.6,0,1-0.5,1-1v-6.8c0-1.6-1.3-2.8-2.9-2.8h-3.8c-1.5,0-2.7,1.2-2.7,2.7v2.3 c0,0,0,0.1,0,0.1c0,0.1,0,0.1,0,0.2v3.3H3.2c1-3.8,2.6-7.4,4.7-10.7c5.7-8.8,14.5-14.8,24.8-16.9c20.5-4.1,40.5,9,45.1,29.3 C76.5,32.7,73.3,34.2,70.2,35.2z"/>
</svg>
