<svg xmlns="http://www.w3.org/2000/svg" viewBox="0 0 80 80">
    <g fill-rule="evenodd">
        <path d="M47.967 39.74c-1.216 0-2.243-1.028-2.243-2.243v-11.53c0-1.214 1.027-2.242 2.243-2.242l18.918.003c1.215 0 2.242 1.027 2.242 2.243V37.5c0 1.214-1.027 2.242-2.242 2.242h-10.7a.829.829 0 0 0-.63.253l-4.238 4.058v-3.447c0-.418-.347-.864-.864-.864l-2.486-.002zm2.122 7.173a.756.756 0 0 0 .294.077.829.829 0 0 0 .629-.251l5.486-5.272 10.319.002c2.189 0 3.97-1.781 3.97-3.97V25.972c0-2.19-1.781-3.971-3.97-3.971H47.97A3.975 3.975 0 0 0 44 25.97v11.596c0 2.19 1.78 3.972 3.97 3.972h1.552v4.59c0 .367.182.637.567.785z"/>
        <path d="M50.863 30.727h13.254c.517 0 .864-.446.864-.864 0-.436-.428-.863-.864-.863l-13.254.002c-.516 0-.863.447-.863.864 0 .416.347.86.863.86M64.117 35.728c.517 0 .864-.446.864-.864 0-.436-.428-.864-.864-.864l-13.254.003c-.516 0-.863.447-.863.864 0 .435.427.864.863.864l13.254-.003z"/>
        <path d="M29.481 68.805l-1.772-1.564.798-17.755h1.95l.8 17.755-1.776 1.564zm3.772-22.874c0-.418-.347-.864-.864-.864-.416 0-.863.347-.863.864 0 .538-.234 1.04-.626 1.348a.935.935 0 0 1-.2.134l-.011.01-.05.033a1.754 1.754 0 0 1-1.015.305 1.9 1.9 0 0 1-1.897-1.899c0-.435-.427-.862-.864-.862-.416 0-.863.346-.863.862 0 .86.242 1.618.699 2.189l.138.17L26 67.54c0 .506.197.663.293.741l2.58 2.38c.191.144.414.226.612.226.333 0 .464-.088.567-.19l2.724-2.514a.77.77 0 0 0 .27-.55l-.837-19.138.14-.174c.583-.715.904-1.564.904-2.39zM36.66 42.499V40.83a.83.83 0 1 0-1.659 0l-.001 2c0 .47.289.942.697 1.123.06.028 6.003 2.822 11.667 7.476a3.282 3.282 0 0 1 1.098 2.443v5.73c0 .418.348.864.864.864.417 0 .863-.346.863-.863v-5.73a5.033 5.033 0 0 0-1.786-3.827c-4.856-3.987-9.968-6.66-11.418-7.386l-.325-.161zM29.677 38.402c-5.363 0-9.726-4.363-9.726-9.726 0-5.362 4.363-9.725 9.726-9.725 5.362 0 9.725 4.363 9.725 9.725 0 5.363-4.363 9.726-9.725 9.726m0-21.402C23.238 17 18 22.239 18 28.676c0 6.44 5.238 11.677 11.677 11.677 6.438 0 11.676-5.238 11.676-11.677C41.353 22.24 36.115 17 29.677 17"/>
        <path d="M75.156 21.044C70.498 12.334 62.503 5.496 53.185 2.25c-9.307-3.292-19.808-2.953-28.905.895-9.1 3.859-16.606 11.236-20.669 20.227a39.75 39.75 0 0 0-3.51 14.277l-.095 1.847c-.027.615.043 1.24.06 1.858l.093 1.862c.027.31.006.612.081.954l.156.895c.21 1.193.435 2.381.679 3.572.258 1.201.49 2.364.902 3.627a.975.975 0 1 0 1.859-.59l-.017-.054c-.654-2.125-1.072-4.568-1.502-6.895l-.153-.882c-.06-.248-.042-.553-.065-.84l-.084-1.744c-.015-.583-.085-1.161-.058-1.746l.092-1.757a37.788 37.788 0 0 1 3.337-13.574c3.863-8.553 11.01-15.573 19.66-19.241C33.691 1.283 43.693.96 52.534 4.09c8.862 3.086 16.472 9.596 20.901 17.875 4.486 8.261 5.602 18.228 3.296 27.303-2.283 9.1-8.101 17.25-15.954 22.394-7.817 5.213-17.638 7.247-26.9 5.762-9.175-1.447-17.715-6.444-23.528-13.686l-.149-5.059v-4.855c0-1.011.41-1.908 1.113-2.455 5.65-4.644 11.593-7.437 11.616-7.446.452-.253.733-.69.733-1.143v-1.996a.83.83 0 0 0-1.66 0v1.665l-.325.162c-1.458.73-6.59 3.422-11.402 7.372-1.161 1.034-1.802 2.397-1.802 3.84v1.617c-.001.007-.004.013-.004.019l-.06 8.654v.011a.892.892 0 0 0 .21.584C14.736 72.46 23.808 77.81 33.568 79.35c9.74 1.563 20.057-.575 28.281-6.057 8.258-5.409 14.373-13.97 16.775-23.544 2.425-9.549 1.25-20.012-3.467-28.705"/>
    </g>
</svg>
