<svg xmlns="http://www.w3.org/2000/svg" viewBox="0 0 80 80">
    <path d="M44.938 36.39h-.009l-11.852-.106a.988.988 0 0 1 .009-1.975h.009l11.852.106a.988.988 0 0 1-.01 1.975M47.9 42.339h-.008l-14.815-.13a.987.987 0 0 1 .009-1.975h.009l14.815.13a.987.987 0 0 1-.01 1.975"/>
    <g>
        <path d="M39.924 80c-6.744 0-13.411-1.724-19.46-5.104a.977.977 0 0 1 .954-1.705c8.87 4.96 19.137 6.168 28.915 3.405 9.779-2.765 17.895-9.172 22.854-18.04 4.96-8.868 6.169-19.138 3.405-28.916-2.764-9.779-9.17-17.895-18.04-22.854C40.246-3.45 17.02 3.113 6.783 21.42c-8.38 14.985-5.66 33.814 6.614 45.789a.975.975 0 1 1-1.363 1.396C-.871 56.017-3.73 36.22 5.079 20.467 15.842 1.221 40.259-5.68 59.506 5.083c9.323 5.215 16.057 13.747 18.964 24.026 2.905 10.28 1.635 21.075-3.58 30.4-5.213 9.323-13.746 16.058-24.026 18.965A40.234 40.234 0 0 1 39.924 80"/>
        <path d="M68.71 23.496a.973.973 0 0 1-.84-.478 32.873 32.873 0 0 0-6.908-8.226.977.977 0 0 1 1.269-1.483 34.765 34.765 0 0 1 7.317 8.713.975.975 0 0 1-.838 1.474M16.353 64.611a.975.975 0 0 1-.688-.285 34.81 34.81 0 0 1-6.472-8.914.975.975 0 1 1 1.74-.882 32.902 32.902 0 0 0 6.11 8.415.975.975 0 0 1-.69 1.666M51.565 62.534h-.005l-23.157-.133a.976.976 0 0 1-.969-.98l.046-8.013 25.107.219-.045 7.938a.977.977 0 0 1-.977.97zM28.649 19h.005l23.157.133a.965.965 0 0 1 .686.292c.184.185.285.43.283.69l-.025 4.246-25.106-.22.023-4.172a.978.978 0 0 1 .977-.97zm-1.012 7.092l25.107.22-.146 25.365-25.106-.219.145-25.366zm26.247-8.04a2.906 2.906 0 0 0-2.062-.87l-23.158-.133h-.015a2.932 2.932 0 0 0-2.928 2.909l-.238 41.453a2.93 2.93 0 0 0 2.91 2.942l23.155.134h.017a2.931 2.931 0 0 0 2.928-2.91l.238-41.451a2.905 2.905 0 0 0-.847-2.074zM63.755 25.249a.976.976 0 0 1-.835-.47 23.132 23.132 0 0 0-4.936-5.746.976.976 0 0 1 1.255-1.496 25.144 25.144 0 0 1 5.35 6.23.974.974 0 0 1-.834 1.482M19.739 60.65a.974.974 0 0 1-.676-.27 24.878 24.878 0 0 1-4.75-6.294.975.975 0 0 1 1.723-.914 22.93 22.93 0 0 0 4.378 5.799.975.975 0 0 1-.675 1.68"/>
    </g>
</svg>
