<svg xmlns="http://www.w3.org/2000/svg" viewBox="0 0 81 81">
    <path d="M56.446 47.013c0-4.002-1.883-7.141-5.471-9.164 2.652-1.961 4.4-5.028 4.4-7.933 0-4.245-1.924-11.366-14.806-11.366-4.63 0-9.782.857-13.444 2.235a.997.997 0 0 0-.583 1.291l3.094 8.142a1 1 0 0 0 1.333.562c2.272-.987 5.266-1.6 7.814-1.6 2.101 0 3.166.613 3.166 1.822 0 1.718-2.813 2.979-7.34 3.29a1 1 0 0 0-.932.998v7.544a1 1 0 0 0 1 1c4.924 0 8.105 1.185 8.105 3.017 0 1.868-3.214 2.147-5.129 2.147-2.246 0-5.012-.506-7.402-1.353a1 1 0 0 0-.669 1.885c2.593.92 5.61 1.468 8.071 1.468 5.892 0 7.129-2.256 7.129-4.147 0-3.02-3.302-4.818-9.105-5.001v-5.641c7.443-.747 8.272-3.862 8.272-5.207 0-.896-.373-3.822-5.166-3.822-2.455 0-5.289.519-7.638 1.378l-2.369-6.233c3.364-1.104 7.776-1.775 11.793-1.775 8.377 0 12.806 3.239 12.806 9.366 0 2.662-2.026 5.645-4.816 7.09a1 1 0 0 0-.54.889v.108c0 .402.24.765.611.92 3.859 1.634 5.816 4.356 5.816 8.09 0 6.58-6.031 10.832-15.365 10.832-4.297 0-9.013-.806-12.309-2.102a1.001 1.001 0 0 0-.733 1.862c3.568 1.402 8.443 2.24 13.042 2.24 10.549 0 17.365-5.037 17.365-12.832M40.077 80.197c-10.467 0-20.345-3.997-27.881-11.296a1 1 0 0 1 1.391-1.438c7.31 7.08 16.914 10.853 27.115 10.729 10.175-.162 19.678-4.278 26.758-11.587 14.614-15.09 14.229-39.256-.859-53.872-7.31-7.08-16.94-10.866-27.114-10.728-10.176.162-19.678 4.278-26.757 11.586C.766 25.943-1.442 44.867 7.36 59.61a1 1 0 0 1-1.717 1.025c-9.265-15.52-6.942-35.437 5.65-48.436C18.744 4.507 28.745.176 39.455.005c.219-.003.437-.005.656-.005 10.466 0 20.345 3.997 27.882 11.296 15.88 15.383 16.286 40.819.904 56.699C61.445 75.69 51.443 80.02 40.734 80.19c-.22.004-.439.006-.657.006"/>
</svg>
