<svg xmlns="http://www.w3.org/2000/svg" viewBox="0 0 80 80">
    <path d="M36.386 50.316v-2.788c0-3.166-1.6-6.238-4.283-8.222-2.112-1.563-3.373-4.05-3.373-6.651v-4.65c0-.486.407-.883.909-.883H50.37c.501 0 .909.397.909.883v4.65c0 2.601-1.262 5.088-3.374 6.651-2.682 1.984-4.283 5.056-4.283 8.222v2.788a.897.897 0 0 1-.909.884h-5.418a.897.897 0 0 1-.91-.884M40.005 0C17.946 0 0 17.943 0 40c0 7.49 2.084 14.794 6.026 21.121a40.25 40.25 0 0 0 14.73 13.953A40.061 40.061 0 0 0 40.005 80c17.756 0 33.571-11.907 38.46-28.955a.991.991 0 0 0-.107-.752l-.008-.015c-.354-.889-2.03-4.057-8-4.057-5.426 0-8.456 4.648-11.129 8.749-2.45 3.761-4.766 7.314-8.505 7.314-7.391 0-9.453-6.23-9.705-9.133h1.703c1.578 0 2.86-1.271 2.86-2.835v-2.788c0-2.55 1.306-5.037 3.492-6.654 2.608-1.928 4.165-5.001 4.165-8.22v-4.649c0-1.563-1.284-2.834-2.86-2.834h-3.266v-6.11a.975.975 0 1 0-1.951 0v6.11H40.98v-8.212a.975.975 0 1 0-1.95 0v8.212h-4.174v-6.11a.976.976 0 0 0-1.952 0v6.11H29.64c-1.577 0-2.86 1.27-2.86 2.834v4.65c0 3.217 1.557 6.29 4.164 8.219 2.187 1.617 3.492 4.105 3.492 6.654v2.788c0 1.564 1.283 2.835 2.86 2.835h1.759c.257 3.432 2.688 11.084 11.662 11.084 4.797 0 7.514-4.168 10.14-8.2 2.636-4.043 5.125-7.863 9.494-7.863 4.558 0 5.854 2.085 6.134 2.695-4.767 16.024-19.713 27.182-36.48 27.182a38.096 38.096 0 0 1-18.308-4.685A38.306 38.306 0 0 1 7.682 60.09 37.95 37.95 0 0 1 1.952 40c0-20.98 17.07-38.049 38.053-38.049 20.545 0 37.611 16.701 38.044 37.23a.976.976 0 0 0 .975.956h.022A.975.975 0 0 0 80 39.14C79.545 17.559 61.604 0 40.005 0"/>
    <path d="M40.094 39.21a2.118 2.118 0 0 1-2.116-2.116c0-1.166.949-2.116 2.116-2.116 1.167 0 2.117.95 2.117 2.116a2.12 2.12 0 0 1-2.117 2.117m4.095-2.117A4.1 4.1 0 0 0 40.094 33 4.099 4.099 0 0 0 36 37.094a4.1 4.1 0 0 0 4.094 4.095 4.1 4.1 0 0 0 4.095-4.095"/>
</svg>
