<svg xmlns="http://www.w3.org/2000/svg" viewBox="0 0 80 80" title="icon earth loop">
	<path d="M35.6,39c-0.6,0-1,0.5-1,1v2.4H32V40c0-0.5-0.4-1-1-1c-0.5,0-1,0.5-1,1v3.4c0,0.5,0.5,1,1,1h4.6c0.5,0,1-0.5,1-1V40 C36.6,39.5,36.1,39,35.6,39z M50.5,39c-0.6,0-1,0.5-1,1v3.4c0,0.5,0.4,1,1,1c0.6,0,1-0.5,1-1V40C51.5,39.5,51,39,50.5,39z M50.5,31.6c-0.6,0-1,0.5-1,1v3.4c0,0.5,0.4,1,1,1c0.6,0,1-0.5,1-1v-3.4C51.5,32.1,51,31.6,50.5,31.6z M44.7,39.2c-0.5,0-1,0.5-1,1 v3.3c0,0.5,0.5,1,1,1c0.6,0,1-0.5,1-1v-3.3C45.7,39.6,45.3,39.2,44.7,39.2z M44.7,31.6c-0.5,0-1,0.5-1,1v3.6h-2.6v-3.6 c0-0.5-0.4-1-1-1c-0.5,0-1,0.5-1,1v4.6c0,0.5,0.5,1,1,1h4.6c0.6,0,1-0.5,1-1v-4.6C45.7,32.1,45.3,31.6,44.7,31.6z M35.6,31.6H31 c-0.6,0-1,0.5-1,1v3.4c0,0.5,0.5,1,1,1c0.6,0,1-0.5,1-1v-2.4h2.6v2.4c0,0.5,0.4,1,1,1c0.5,0,1-0.5,1-1v-3.4 C36.6,32.1,36.1,31.6,35.6,31.6z M60.4,5.6c-19-11.2-43.6-5-54.8,14c-5.5,9.2-7,20-4.3,30.3C3.9,60.2,10.4,69,19.6,74.4 C25.8,78.1,32.8,80,40,80c13.7,0,27-7,34.5-19.6c0.3-0.5,0.1-1.1-0.3-1.3c-0.3-0.2-7.7-4.9-17.4,1.6c-3.1,2.1-7.3,2.2-10.7,0.4 c-2.2-1.2-3.6-3-4-5h0.8c0.5,0,1-0.5,1-1v-4.8h9.7c0.6,0,1-0.5,1-1s-0.5-1-1-1H28.3c-0.5,0-1,0.5-1,1s0.5,1,1,1h2V55 c0,0.5,0.5,1,1,1h3.9c0.5,0,1-0.5,1-1v-4.8H38V55c0,0.5,0.5,1,1,1h1c0.4,2.8,2.2,5.2,5,6.8c4,2.2,9,2,12.7-0.5 c6.8-4.5,12.3-2.9,14.3-2C61.2,77.6,38.3,83.2,20.6,72.7C11.9,67.5,5.7,59.2,3.2,49.4c-2.5-9.8-1-20.1,4.1-28.8 c10.7-18,34-24,52.1-13.3C70.6,14,77.5,25.7,78,38.7c0,0.6,0.5,1,1.1,0.9c0.5,0,1-0.5,0.9-1C79.5,24.9,72.2,12.6,60.4,5.6z M34.2,54 h-1.9v-3.8h1.9V54z M41.9,54H40v-3.8h1.9V54z M56.6,20.9H25.3c-5.8,0-6.6,3.5-6.6,5.6V45c0,3.8,1.9,6.4,5.3,7.1 c0.5,0.1,1.1-0.2,1.2-0.8c0-0.1,0-0.2,0-0.2V28.2c0-0.4,0.3-0.7,0.7-0.7h30c0.4,0,0.7,0.3,0.7,0.7v22.9c0,0.3,0.1,0.6,0.4,0.8 c0.2,0.2,0.6,0.3,0.8,0.2c3.4-0.8,5.3-3.4,5.3-7.1V26.5C63.3,24.4,62.4,20.9,56.6,20.9z M61.3,45c0,1.7-0.5,3.7-2.6,4.8V28.2 c0-1.5-1.2-2.7-2.7-2.7H26c-1.5,0-2.7,1.2-2.7,2.7v21.5c-2.1-1-2.6-3.1-2.6-4.8V26.5c0-1.7,0.5-3.6,4.6-3.6h31.3 c4.1,0,4.6,1.9,4.6,3.6V45z"/>
</svg>