<svg xmlns="http://www.w3.org/2000/svg" viewBox="0 0 40 40">
<g>
    <path d="M39.536 19.61c.28.01.464.202.464.491C39.997 31.124 31.022 40.097 20 40 8.976 40 0 31.023 0 20S8.976 0 20 0c5.4.004 10.57 2.184 14.342 6.048 2.341 2.439 4.098 5.463 4.976 8.78.097.293-.098.488-.391.586-.195.097-.488-.098-.586-.293C35.707 4.975 25.268-1.074 15.122 1.658 4.976 4.39-.976 14.828 1.659 24.877c2.731 10.147 13.17 16.195 23.219 13.464C33.07 36.15 38.737 29.026 39.001 20.7H28.575l.005 8.28a2 2 0 0 1-2 2L13 30.977a2 2 0 0 1-2-2V11a2 2 0 0 1 2-2h9.232a2 2 0 0 1 1.407.579l4.34 4.297a2 2 0 0 1 .594 1.42V17.5a.5.5 0 0 1-1 0V15.38h-4.466a1.283 1.283 0 0 1-1.29-1.279l.018-4.1H13a1 1 0 0 0-1 1v17.978a1 1 0 0 0 1 1l13.58.001a1 1 0 0 0 1-1l-.005-8.731a.546.546 0 0 1 .538-.64h11.423v.002zm-12.452-5.214l-4.149-4.107a1 1 0 0 0-.108-.092l-.016 3.907c0 .16.131.292.295.292h3.978zM13.25 23.47v-5.143h1.762c.308 0 .595.026.86.079.265.052.495.141.689.267.193.126.345.29.453.492.108.201.162.452.162.75 0 .284-.054.53-.162.74-.108.21-.258.384-.45.523a1.946 1.946 0 0 1-.675.306c-.26.066-.54.099-.843.099h-.804v1.887h-.992zm.992-2.619h.727c.822 0 1.232-.312 1.232-.935 0-.326-.107-.55-.32-.673-.214-.123-.53-.185-.946-.185h-.693v1.793zm3.987 2.619v-5.143h1.497c.855 0 1.522.212 2.001.637.48.425.719 1.062.719 1.91 0 .426-.062.8-.184 1.125-.123.325-.3.597-.53.814-.231.218-.51.382-.839.492-.328.11-.7.165-1.116.165h-1.548zm.992-.74h.436c.57 0 1.008-.15 1.313-.451.305-.302.458-.77.458-1.404 0-.63-.154-1.088-.462-1.376-.308-.289-.744-.433-1.309-.433h-.436v3.665zm4.354.74v-5.143h3.379v.77h-2.387v1.455h2.036v.771h-2.036v2.147h-.992z"></path>
</g>
</svg>
