<svg xmlns="http://www.w3.org/2000/svg" viewBox="0 0 80 80" title="icon uncovered cable">
	<path d="M80,32.4c-4.5-21.8-25.8-36-47.6-31.6C21.5,3,12.2,9.3,6.3,18.6c-5.9,9.2-7.7,20-5.2,30.6C5.4,67.4,22,80,40.4,80 c2.1,0,4.2-0.2,6.4-0.5c14.1-2.2,26.1-11.8,31.3-25c0.2-0.5-0.1-1.1-0.6-1.3c-0.5-0.2-1.1,0.1-1.3,0.6 c-4.9,12.5-16.3,21.6-29.7,23.8C26.7,80.7,7.6,68,3,48.7l0-0.1h5.6V52c0,0.1,0,0.1,0,0.2c0,0.1,0,0.1,0,0.2v2.3 c0,1.5,1.2,2.7,2.7,2.7h3.8c1.6,0,2.8-1.3,2.9-2.8v-6.8c0-0.5-0.4-1-1-1h-2.7v-2.5c9,3.1,19.4,4.4,29.5,4.4c9.7,0,19.1-1.2,26.7-3 c0.5-0.1,0.9-0.7,0.7-1.2c-0.1-0.5-0.7-0.9-1.2-0.7c-15.3,3.7-38.4,4.7-55.7-1.5v-5.3c8.4,2.5,18.2,3.8,28,3.8c12.6,0,25.2-2,34.8-6 c1-0.4,2.2-1,2.2-1l0,0C79.8,33.3,80.1,32.9,80,32.4z M2.6,46.7C1.7,41.9,1.8,37,2.8,32.4h9.6v14.3H2.6z M16.1,54.4 c0,0.5-0.4,0.9-0.9,0.8h-3.8c-0.4,0-0.7-0.3-0.7-0.7V53h5.4V54.4z M16.1,48.7V51h-5.4v-2.3H16.1z M10.7,30.4v-2.3h5.4v2.3H10.7z M10.7,26.1v-1.6c0-0.4,0.3-0.7,0.7-0.7h3.8c0.5,0,0.9,0.4,0.9,0.8v1.5H10.7z M76.4,32.6c-16.8,7-43.3,7.8-62,2v-2.3h2.7 c0.6,0,1-0.5,1-1v-6.8c0-1.6-1.3-2.8-2.9-2.8h-3.8c-1.5,0-2.7,1.2-2.7,2.7v2.3c0,0,0,0.1,0,0.2c0,0,0,0.1,0,0.2v3.3H3.2 c1-3.8,2.6-7.4,4.7-10.7c5.6-8.8,14.5-14.8,24.8-16.9c20.4-4.1,40.5,9,45.1,29.3C77.4,32.2,76.9,32.4,76.4,32.6z"/>
</svg>