<svg xmlns="http://www.w3.org/2000/svg" title="icon pme" viewBox="0 0 80 80">
    <path d="M61.371 18.21c-.556-.299-.989-1.234-.689-1.82.054-.106.157-.254.423-.32.082-.02.17-.03.26-.03.277 0 .578.093.809.256.519.368.959.992 1.118 1.59.06.23.1.465.12.703-.726.046-1.498-.088-2.04-.38zm-4.48 5.74a4.437 4.437 0 0 1-.431-.094c-.68-.183-1.606-.996-1.783-1.77-.059-.257-.07-.602.377-.988a.627.627 0 0 1 .428-.149c.417 0 .899.296 1.126.5.582.52.606 1.574.282 2.501zm21.677 5.12a1 1 0 0 0-1.93.526c2.727 10.015 1.328 20.513-3.942 29.558-5.18 8.896-13.417 15.168-23.19 17.659C29.163 81.997 8.39 69.693 3.2 49.381c-2.516-9.839-1.042-20.067 4.148-28.8 5.188-8.735 13.474-14.93 23.33-17.44 12.426-3.168 26.066.375 35.61 9.242 1.057 1.007 1.48 2.028 1.26 3.037-.213.973-1.052 1.926-2.196 2.557a6.212 6.212 0 0 0-.127-.606c-.28-1.054-.989-2.065-1.894-2.708-.773-.549-1.81-.754-2.7-.536a2.602 2.602 0 0 0-1.727 1.35c-.846 1.652.107 3.737 1.525 4.497.771.413 1.74.627 2.704.627h.006c-.371 1.049-1.077 2.012-2.019 2.641-.54.362-1.321.612-2.15.725.332-1.46.08-3.023-1.03-4.012-1.098-.977-2.878-1.51-4.194-.37-.91.787-1.271 1.834-1.017 2.948.342 1.497 1.736 2.747 2.976 3.182-.909 1.004-2.176 1.973-5.41 1.973a1 1 0 1 0 0 2c4.688 0 6.295-1.908 7.358-3.17l.152-.18c.082-.096.161-.196.236-.3 1.438-.008 3.01-.345 4.189-1.132 1.633-1.09 2.737-2.852 3.082-4.709 2.159-.83 3.787-2.51 4.189-4.35.262-1.198.154-3.023-1.843-4.922-.001 0-.003 0-.004-.002l-.004-.006C57.612 1.591 43.254-2.133 30.183 1.201 19.81 3.846 11.09 10.364 5.627 19.558.164 28.752-1.386 39.519 1.261 49.877 5.88 67.95 22.216 80 40.091 80c3.271 0 6.597-.405 9.91-1.25 10.295-2.623 18.97-9.225 24.424-18.59 5.54-9.511 7.012-20.553 4.143-31.09zM10.814 56.944h59.578a1 1 0 1 1 0 2H10.814a1 1 0 1 1 0-2zm28.928 5.71v5.77l1.612 2.087 1.61-2.088v-5.768a1 1 0 1 1 2 0v6.11a.994.994 0 0 1-.21.61l-2.14 2.775c-.303.393-.762.62-1.258.62h-.002c-.498 0-.957-.225-1.262-.619l-2.142-2.775a1 1 0 0 1-.208-.612v-6.11a1 1 0 1 1 2 0zm-1-28.344h-1.906V21.195h9.034V34.31h-7.128zm5.222 19.924a1 1 0 0 0 1-1V36.309h1.906a1 1 0 0 0 1-1V20.195a1 1 0 0 0-1-1H35.836a1 1 0 0 0-1 1V35.31a1 1 0 0 0 1 1h1.906v16.924a1 1 0 0 0 2 0V36.309h3.222v16.924a1 1 0 0 0 1 1z"/>
</svg>