<svg xmlns="http://www.w3.org/2000/svg" title="icon substation" viewBox="0 0 80 80">
    <path d="M60.899 74.09C54.483 78.016 47.26 80 40.009 80a40.097 40.097 0 0 1-17.44-4.005 1 1 0 1 1 .87-1.8c11.72 5.651 25.332 4.975 36.414-1.81C77.725 61.442 83.36 38.01 72.413 20.152c-5.304-8.65-13.66-14.719-23.533-17.087-9.872-2.37-20.075-.753-28.733 4.547C2.357 18.505-3.302 41.77 7.444 59.596H19.97V29.267a1 1 0 0 1 1-.999h9.756v-.64h-.566a1 1 0 1 1 0-1.999h.566v-1h-.566a1 1 0 1 1 0-1.998h.566v-1h-.566a1 1 0 1 1 0-1.999h.566v-.812a.999.999 0 1 1 2 0v.812h.566a.999.999 0 1 1 0 2h-.566v.999h.566a.999.999 0 1 1 0 1.999h-.566v1h.566a.999.999 0 1 1 0 1.998h-.566v.64h6v-.64h-.566a1 1 0 1 1 0-1.999h.566v-1h-.566a1 1 0 1 1 0-1.998h.566v-1h-.566a1 1 0 1 1 0-1.999h.566v-.812a.999.999 0 1 1 2 0v.812h.567a.999.999 0 1 1 0 2h-.566v.999h.566a.999.999 0 1 1 0 1.999h-.566v1h.566a.999.999 0 1 1 0 1.998h-.566v.64h6v-.64h-.566a1 1 0 1 1 0-1.999h.566v-1h-.566a1 1 0 1 1 0-1.998h.566v-1h-.566a1 1 0 1 1 0-1.999h.566v-.812a.999.999 0 1 1 2 0v.812h.566a.999.999 0 1 1 0 2h-.566v.999h.566a.999.999 0 1 1 0 1.999h-.566v1h.566a.999.999 0 1 1 0 1.998h-.566v.64h10.311a1 1 0 0 1 1 1v31.328a1 1 0 0 1-1 1h-6.797c-.02 0-.034-.01-.053-.012-.02.001-.034.011-.053.011a1 1 0 0 1-1-1V43.897h-7.52v16.7a.999.999 0 1 1-2 0v-17.7c0-.552.447-.999 1-.999h9.52c.553 0 1 .447 1 1v16.7h4.903v-29.33H21.97v30.329c0 .553-.447 1-1 1H6.983a.986.986 0 0 1-.774-.391.976.976 0 0 1-.327-.316C-5.64 42.09.29 17.427 19.102 5.909 28.214.327 38.956-1.374 49.346 1.12c10.392 2.492 19.19 8.881 24.77 17.987C85.642 37.906 79.712 62.57 60.9 74.089"/>
</svg>