<svg xmlns="http://www.w3.org/2000/svg" viewBox="0 0 80 80">
    <path d="M16.354 64.611a.972.972 0 0 1-.688-.285 34.786 34.786 0 0 1-6.473-8.914.975.975 0 1 1 1.74-.882 32.958 32.958 0 0 0 6.108 8.415.974.974 0 0 1-.688 1.666M42.48 58.097a1.733 1.733 0 1 1-1.734-1.733c.957 0 1.733.776 1.733 1.733M48.063 36.235H35.748a1 1 0 1 1 0-2h12.313a1 1 0 1 1 0 2M48.063 42.745h-5.584a1 1 0 1 1 0-2h5.584a1 1 0 1 1 0 2M19.738 60.65a.979.979 0 0 1-.675-.27 24.881 24.881 0 0 1-4.75-6.294.976.976 0 0 1 1.723-.915 22.87 22.87 0 0 0 4.378 5.8.977.977 0 0 1-.676 1.68M68.424 23.68a.975.975 0 0 1-.813-.522 32.896 32.896 0 0 0-6.455-8.586.977.977 0 0 1 1.347-1.413 34.724 34.724 0 0 1 6.837 9.095.976.976 0 0 1-.916 1.426"/>
    <path d="M63.755 25.25a.976.976 0 0 1-.835-.47 23.16 23.16 0 0 0-4.936-5.747.976.976 0 0 1 1.254-1.496 25.132 25.132 0 0 1 5.35 6.23.973.973 0 0 1-.328 1.34.958.958 0 0 1-.505.142"/>
    <path d="M27.483 20.176c0-.604.492-1.097 1.097-1.097h23.005c.604 0 1.096.493 1.096 1.097v4.136H27.483v-4.136zm42.745-6.387C55.783-2.872 30.474-4.677 13.811 9.767 5.741 16.765.877 26.487.116 37.14-.643 47.797 2.791 58.11 9.79 66.18c6.997 8.073 16.718 12.936 27.374 13.698a40.22 40.22 0 0 0 11.021-.725c6.605-1.37 12.783-4.41 18.02-8.947.07-.06.113-.135.162-.21.022-.02.051-.03.072-.052a1.001 1.001 0 0 0-.024-1.415L54.547 57.055a.99.99 0 0 0-.439-.425L27.483 30.882v-4.57h25.198V50.11a1 1 0 0 0 2 0V20.176a3.1 3.1 0 0 0-3.096-3.097H28.58a3.101 3.101 0 0 0-3.097 3.097v8.77L13.038 16.912a1.002 1.002 0 0 0-1.39 1.44l41.033 39.68v3.327c0 .604-.492 1.096-1.096 1.096H28.58a1.098 1.098 0 0 1-1.097-1.096v-7.372h15.6a1 1 0 0 0 0-2h-15.6V37.61a1 1 0 1 0-2 0v23.747a3.1 3.1 0 0 0 3.097 3.096h23.005a3.1 3.1 0 0 0 3.096-3.096v-1.391l9.607 9.29c-7.58 6.295-17.126 9.377-26.987 8.675-10.135-.724-19.382-5.351-26.038-13.028-6.656-7.678-9.923-17.49-9.2-27.624.723-10.136 5.35-19.383 13.027-26.04C30.94-2.496 55.014-.78 68.754 15.07 80 28.04 81.155 47.029 71.567 61.246a.975.975 0 1 0 1.617 1.09C83.265 47.394 82.05 27.43 70.228 13.79z"/>
</svg>
