<svg xmlns="http://www.w3.org/2000/svg" viewBox="0 0 82 82">
    <g>
        <path d="M57.882 54.441V21.712c0-.618-.412-1.03-1.029-1.03H24.124c-.618 0-1.03.412-1.03 1.03v32.729c0 .617.412 1.03 1.03 1.03H34.21c1.441 0 1.441-2.059 0-2.059h-9.057V22.741h30.671v30.671h-9.469c-1.235 0-1.235 2.058 0 2.058h10.498c.617 0 1.03-.412 1.03-1.029"/>
        <g transform="rotate(180 41 41)">
            <path d="M41.21 0h-.01c-.6 0-1 .4-1 1 0 .107.027.199.05.29v46.878l-7.27-7.625c-.383-.402-.957-.402-1.34 0a1.003 1.003 0 0 0 0 1.404l9.567 10.236 9.567-10.236c.574-.402.574-1.004.19-1.404-.381-.402-.955-.402-1.338 0l-7.462 7.826V2.04C59.35 2.466 74.084 14.118 78.599 31c5.6 20.6-6.8 42-27.6 47.6C30.4 84 9.002 71.8 3.4 51-2.2 30.2 10.2 8.8 31 3.4c.4-.2.8-.8.6-1.2-.2-.6-.6-1.001-1.2-.801-6.8 1.8-13 5.4-18 10.2A41.134 41.134 0 0 0 .002 41C0 63.6 18.4 82 41 82c22.599 0 40.999-18.4 40.999-41 .2-22.596-18.194-40.994-40.79-41"/>
        </g>
    </g>
</svg>
