<svg xmlns="http://www.w3.org/2000/svg" title="icon roof" viewBox="0 0 80 80">
    <path d="M11.435 51.194a.978.978 0 0 0 1.39.136l24.98-20.833 7.743 6.656a.978.978 0 0 0 1.053.145c.35-.164.574-.518.574-.908v-3.805h4.698V40.7c0 .276.114.54.313.728l10.364 9.858a.978.978 0 0 0 1.396-.044 1.008 1.008 0 0 0-.044-1.413L53.85 40.268v-8.683c0-.553-.442-1-.988-1h-6.673a.993.993 0 0 0-.988 1v2.644l-6.746-5.8a.978.978 0 0 0-1.267-.007L11.569 49.787c-.421.35-.482.98-.134 1.407zM33.12 19.868l3.38 1.753.537-1.001a.744.744 0 0 0 .107-.321A1.006 1.006 0 0 1 36.839 19c.759-1.418 2.322-2.117 3.784-1.81l1.344-2.506-1.786-1.931a1.013 1.013 0 0 1-.25-.866c.17-.93 1.338-1.866 2.694-2.661-4.658.263-7.806 3.675-7.966 3.85l-.421.517c.312.389.587.87.79 1.404.438 1.147.434 2.234-.01 3.06a.985.985 0 0 1-1.109.493 1.25 1.25 0 0 0-.266.343l-.523.975zm21.016 2.839l-10.985-6.04-.616 1.149 10.985 6.039.616-1.148zm-20.76-6.115a2.718 2.718 0 0 0-.192-.875c-.239-.627-.598-1.048-.778-1.147a1.003 1.003 0 0 1-.498-.69c-.055-.292.02-.595.208-.826l1.052-1.288c.256-.288 5.657-6.188 13.243-4.121a.996.996 0 0 1 .729.902c.027.427-.218.825-.61.989-1.853.773-3.664 1.79-4.376 2.423l1.742 1.884c.266.288.326.7.183 1.058l11.511 6.328c.677.373.917 1.25.537 1.957l-1.126 2.099c-.184.345-.5.606-.868.716a1.355 1.355 0 0 1-1.045-.11l-11.836-6.505a.972.972 0 0 1-.634-.09c-.54-.298-1.195-.205-1.66.184.03.068.055.14.076.213.168.573.088 1.23-.22 1.804l-.834 1.555c-.26.483-.75.757-1.255.757-.226 0-.454-.055-.667-.172l-4.358-2.26a1.45 1.45 0 0 1-.585-1.962l.793-1.477c.374-.698.909-1.167 1.469-1.346zm43.321 36.872c2.877-8.09 3.101-16.862.561-25.226-3.1-10.212-9.944-18.591-19.268-23.592C38.74-5.675 14.785 1.78 4.59 21.27-5.606 40.758 1.758 65.013 21.007 75.338a.95.95 0 0 0 .627.085c.052.008.098.03.15.03a.994.994 0 0 0 .988-1V49.278c0-.553-.441-1-.987-1a.994.994 0 0 0-.988 1v23.646C3.365 62.785-3.147 40.33 6.336 22.206 16.02 3.69 38.777-3.395 57.066 6.414c8.858 4.75 15.359 12.71 18.304 22.412 2.398 7.897 2.205 16.18-.48 23.825-3.994 3.958-9.256 6.144-14.853 6.144-5.676 0-11.011-2.24-15.025-6.302a.978.978 0 0 0-1.396 0 1.008 1.008 0 0 0 0 1.414c4.386 4.44 10.218 6.888 16.421 6.888 4.782 0 9.34-1.46 13.189-4.16-.185.382-.367.765-.564 1.143a37.393 37.393 0 0 1-17.58 16.707V62.63c0-.553-.441-1-.987-1a.994.994 0 0 0-.988 1v12.693A37.884 37.884 0 0 1 42.525 77.8a.997.997 0 0 0-.9 1.08.993.993 0 0 0 1.066.913c13.563-1.161 25.419-9.04 31.717-21.08a40.936 40.936 0 0 0 2.219-5.063.929.929 0 0 0 .07-.187zm-22.602-5.187c.546 0 .987.447.987 1v5.916c0 .553-.441 1-.987 1a.994.994 0 0 1-.988-1v-5.916c0-.553.443-1 .988-1z"/>
</svg>