<svg xmlns="http://www.w3.org/2000/svg" viewBox="0 0 80 80">
    <path d="M39.53 0C17.733 0 0 17.733 0 39.53s17.733 39.53 39.53 39.53a.987.987 0 1 0 0-1.975c-20.708 0-37.555-16.847-37.555-37.555 0-20.707 16.847-37.555 37.555-37.555S77.084 18.823 77.084 39.53c0 14.05-7.956 26.97-20.379 33.38V61.356c0-10.065-7.705-18.255-17.176-18.255-9.47 0-17.173 8.19-17.173 18.255a.987.987 0 1 0 1.975 0c0-8.977 6.818-16.28 15.198-16.28 8.381 0 15.2 7.303 15.2 16.28v13.152c0 .012.007.021.007.032 0 .043.02.083.025.126.015.086.025.17.059.247.004.006.002.013.006.02.027.06.074.101.111.151.033.045.057.094.096.132a.963.963 0 0 0 .263.178c.016.006.027.018.043.025a.971.971 0 0 0 .797-.006C70.062 68.957 79.06 54.873 79.06 39.53 79.06 17.733 61.326 0 39.53 0"/>
    <path d="M30.975 27.2c0-4.536 3.69-8.225 8.225-8.225 4.534 0 8.224 3.69 8.224 8.225 0 4.533-3.69 8.22-8.224 8.22-4.536 0-8.225-3.687-8.225-8.22m18.424 0c0-5.624-4.576-10.2-10.2-10.2S29 21.576 29 27.2c0 5.621 4.575 10.196 10.2 10.196 5.623 0 10.199-4.575 10.199-10.196"/>
</svg>
