<svg xmlns="http://www.w3.org/2000/svg" viewBox="0 0 82 82">
    <path d="M2.228 36.58l-.006.044c.002-.014.005-.028.006-.043m38.688 45.147c-9.2 0-18.448-3.074-26.072-9.383C4.228 63.559-1.234 50.124.235 36.407c.016-.594.554-1.303 1.508-1.303h26.462c.689 0 1.36.283 1.84.775l10.49 10.743c.49.5.75 1.164.73 1.866a2.544 2.544 0 0 1-.83 1.823c-1.057.973-2.61.953-3.589 0l-4.108-3.995a.574.574 0 0 0-.801.006.567.567 0 0 0-.002.807l4.533 4.537c.084.084.194.14.31.16l13.673 2.299a2.549 2.549 0 0 1 1.7 1.089c.398.585.536 1.288.39 1.98a2.588 2.588 0 0 1-2.52 2.055H34.816a2.586 2.586 0 0 1-1.828-.761L22.077 47.48a.577.577 0 0 0-.407-.17h-8.26a1 1 0 1 1 0-2h8.26c.682 0 1.348.279 1.828.763l10.91 11.006a.575.575 0 0 0 .407.169h15.208c.267 0 .502-.19.558-.453a.581.581 0 0 0-.083-.456.563.563 0 0 0-.377-.242l-13.674-2.3a2.555 2.555 0 0 1-1.393-.718l-4.532-4.536a2.555 2.555 0 0 1-.752-1.818c0-.687.268-1.334.753-1.82a2.58 2.58 0 0 1 3.61-.023l4.11 3.996c.215.21.56.216.785.01.21-.193.236-.365.24-.455a.572.572 0 0 0-.163-.415l-10.49-10.743a.572.572 0 0 0-.409-.172H2.175c-1.208 12.904 3.982 25.455 13.944 33.7 16.547 13.69 41.147 11.369 54.838-5.175a38.776 38.776 0 0 0 6.854-12.215 1 1 0 0 1 1.893.648 40.849 40.849 0 0 1-7.206 12.843c-8.086 9.77-19.793 14.823-31.583 14.823"/>
    <g transform="translate(2 -.272)">
        <path d="M51.852 47.03a2.59 2.59 0 0 1-1.84-.776l-10.49-10.743a2.559 2.559 0 0 1-.731-1.866 2.55 2.55 0 0 1 .83-1.823c1.058-.972 2.61-.952 3.588-.002l4.11 3.997a.57.57 0 1 0 .802-.813l-4.533-4.537a.574.574 0 0 0-.31-.16l-13.673-2.299a2.549 2.549 0 0 1-1.7-1.089 2.552 2.552 0 0 1-.39-1.98 2.591 2.591 0 0 1 2.52-2.056h15.209a2.59 2.59 0 0 1 1.827.762l10.91 11.007a.569.569 0 0 0 .406.17h8.262a1 1 0 1 1 0 2h-8.262a2.555 2.555 0 0 1-1.827-.763L45.65 25.053a.577.577 0 0 0-.406-.17H30.036a.575.575 0 0 0-.56.454.582.582 0 0 0 .083.457.571.571 0 0 0 .378.241l13.674 2.3a2.556 2.556 0 0 1 1.392.718l4.533 4.536c.485.485.753 1.131.753 1.818s-.268 1.334-.755 1.82a2.58 2.58 0 0 1-3.61.023l-4.108-3.996a.572.572 0 0 0-.785-.01c-.21.193-.238.365-.241.455a.57.57 0 0 0 .163.414l10.49 10.744a.575.575 0 0 0 .409.172h25.863c1.272-12.936-3.897-25.528-13.932-33.832-8.015-6.633-18.127-9.747-28.491-8.77-10.357.977-19.713 5.93-26.346 13.944a38.774 38.774 0 0 0-6.854 12.215A1 1 0 1 1 .2 27.94c1.6-4.679 4.024-9 7.205-12.844C21.799-2.299 47.663-4.739 65.058 9.656c10.787 8.926 16.225 22.564 14.548 36.482a1 1 0 0 1-.96.88l-.297.011H51.852z"/>
    </g> 
</svg>
