<svg xmlns="http://www.w3.org/2000/svg" title="icon tree bush powerline" viewBox="0 0 80 80">
    <path d="M77.984 41.072c-.592 20.944-18.099 37.527-39.065 36.911-12.39-.349-23.67-6.613-30.523-16.855H62.918a1 1 0 0 0 0-2h-6.157c-.647-3.932-.81-8.138-.512-13.191.543.839 1.331 1.788 2.63 2.17 1.991.584 3.84.18 5.351-1.166 1.491-1.331 1.966-3.12 1.372-5.173-.063-.217-.053-.305-.056-.306.01-.012.074-.086.316-.203.623-.303 1.424-.725 2.098-1.305 2.08-1.792 3.258-4.364 3.238-7.058-.022-2.71-1.254-5.283-3.382-7.06-.392-.327-.398-.434-.26-.833.484-1.405.37-2.925-.32-4.285a5.79 5.79 0 0 0-3.437-2.896c-.506-.155-.714-.344-.927-.837-1.815-4.215-6.425-6.67-10.977-5.829-3.944.727-6.62 2.945-7.956 6.595a2.407 2.407 0 0 1-.157.369s-.038.015-.14.019c-1.985.063-3.71 1.013-4.73 2.606-1.04 1.622-1.184 3.632-.392 5.514.131.31.122.368-.097.616a9.13 9.13 0 0 0-2.226 4.964 26.123 26.123 0 0 1-12.469-6.102H26.5a1 1 0 1 0 0-2h-4.333v-2a1 1 0 1 0-2 0v2H16.5a1 1 0 1 0 0 2h2.732C14.65 29.783 8.877 32.098 2.78 32.308 6.36 14.95 21.762 2 39.977 2c.361 0 .725.005 1.088.015 10.148.286 19.577 4.506 26.551 11.884 6.972 7.377 10.655 17.027 10.368 27.173zM42.398 59.128a1.675 1.675 0 0 0-.589-.353c-.805-.294-1.238-.821-1.4-1.709-.173-.932.346-1.915 1.21-2.286.53-.229.87-.608 1.037-1.156a.62.62 0 0 1 .316-.375.563.563 0 0 1 .424-.037c.671.233 1.291.053 1.754-.499a1.826 1.826 0 0 1 1.4-.677c.536-.034 1.03.225 1.391.643.097.113.19.289.255.426.345.718 1 1.014 1.757.796.264-.077.326-.005.397.074.03.033.067.046.098.074-.05 1.692-.102 3.384-.143 5.079h-7.907zm-20.23-.376V27.014a28.085 28.085 0 0 0 14.01 6.854c.034.322.078.645.147.969.605 2.872 2.493 5.233 5.18 6.479a1 1 0 0 0 .841-1.814c-2.109-.978-3.59-2.829-4.064-5.078a7.302 7.302 0 0 1-.138-1.151c.008-.031.026-.056.03-.089a.994.994 0 0 0-.046-.449 7.134 7.134 0 0 1 1.797-4.54c.73-.829.87-1.69.44-2.712-.534-1.265-.45-2.599.23-3.658.66-1.03 1.793-1.646 3.11-1.688 1.508-.046 1.931-1.205 2.113-1.699 1.09-2.979 3.195-4.718 6.44-5.315 3.627-.667 7.328 1.288 8.778 4.653.442 1.027 1.113 1.631 2.176 1.958a3.777 3.777 0 0 1 2.241 1.891c.442.871.517 1.839.212 2.725-.419 1.215-.144 2.174.87 3.021 1.676 1.4 2.646 3.42 2.663 5.541.016 2.104-.91 4.119-2.545 5.526-.495.428-1.12.756-1.665 1.022-1.243.602-1.683 1.566-1.308 2.865.381 1.315.133 2.308-.78 3.124-.996.887-2.124 1.129-3.459.738-.594-.174-1.059-.602-1.605-1.481-.275-.441-.684-.701-1.013-.91-.1-.064-.202-.127-.293-.197a.996.996 0 0 0-1.486.324c-.058.106-.13.212-.203.317-.24.357-.54.802-.575 1.372-.316 5.172-.168 9.481.468 13.513-.834.006-1.635.006-2.428-.017.066-2.726.15-5.452.231-8.179l.112-3.755c.01-.311.003-.72-.115-1.133-.187-.647-.619-1.121-1.187-1.303-.618-.195-1.3-.034-1.924.459a1 1 0 1 0 1.22 1.585c.011.115.01.238.006.334l-.11 3.754c-.012.346-.02.691-.03 1.037a2.381 2.381 0 0 0-.693-.016 3.348 3.348 0 0 0-.359-.517 3.791 3.791 0 0 0-2.923-1.338 3.837 3.837 0 0 0-2.753 1.209 2.524 2.524 0 0 0-1.714.221 2.654 2.654 0 0 0-1.302 1.504c-1.686.76-2.662 2.623-2.324 4.457.12.654.37 1.212.705 1.701h-9.19c-.259-.463-.65-.668-.838-.764-1.417-.724-2.25-2.181-2.55-4.454-.337-2.544.627-5.194 2.241-6.166.636-.384 1.001-.929 1.185-1.765.193-.879.646-1.379 1.006-1.553a.692.692 0 0 1 .641-.011c.425.205 1.497.534 2.292-.797.644-1.075 1.528-1.696 2.427-1.702h.015c.89 0 1.733.574 2.38 1.62.21.343.381.803.507 1.166.134.385.377.925.94 1.179.262.119.691.215 1.256-.014.315-.128.57-.177.932.392.442.692.56 1.492.36 2.447a.998.998 0 0 0 .772 1.183 1.002 1.002 0 0 0 1.184-.773c.308-1.471.096-2.794-.63-3.934-.735-1.149-1.8-1.614-2.982-1.297-.154-.432-.36-.949-.638-1.4-1.009-1.634-2.495-2.569-4.08-2.569h-.03c-1.588.01-3.07.955-4.08 2.593a2.687 2.687 0 0 0-2.14.118c-1.026.498-1.786 1.563-2.085 2.923-.082.371-.162.419-.264.481-2.29 1.378-3.634 4.802-3.192 8.141.283 2.149 1.015 3.801 2.213 4.956H22.09a.994.994 0 0 0 .077-.376zm46.901-46.227C61.73 4.759 51.803.317 41.122.015 40.738.005 40.357 0 39.976 0 18.436 0 .612 17.206 0 38.87a1 1 0 0 0 .971 1.028h.03c.54 0 .983-.43 1-.972.043-1.572.194-3.116.423-4.633.047.007.09.027.138.027h.026c6.488-.164 12.646-2.546 17.58-6.747v31.179c0 .132.027.259.074.376H6.576a1 1 0 0 0-.857 1.516c7.08 11.724 19.47 18.953 33.143 19.339.384.011.765.016 1.145.016 21.541-.001 39.365-17.206 39.977-38.87.302-10.68-3.575-20.839-10.915-28.604z"/>
</svg>