<svg xmlns="http://www.w3.org/2000/svg" viewBox="0 0 307 268">
	<path d="M133.7,38.8L119.3,8.5c-3.4-7.1-11.7-10.3-18.9-7.4c-22,9-40.8,20.8-55.7,35.2c-17.1,16.5-29,35.5-35.4,56.3 C3.2,113.2,0,141.6,0,176.9v76c0,8.1,6.6,14.8,14.8,14.8h99.7l0,0c8.1,0,14.8-6.6,14.8-14.8v-99.7c0-8.1-6.6-14.8-14.8-14.8H78.1 c-2,0-3.8-0.8-5.1-2.3c-1.3-1.5-2-3.4-1.8-5.4c1.8-17.6,6.9-32.3,15.2-43.6c8.4-11.5,21.8-21.1,39.7-28.4c3.7-1.5,6.6-4.5,8.1-8.2 C135.6,46.7,135.5,42.5,133.7,38.8z M126.9,47.7c-0.7,1.8-2,3.1-3.7,3.8C103.8,59.4,89.3,69.9,80,82.6C71,95,65.4,110.9,63.4,130 c-0.4,4.2,0.9,8.3,3.7,11.4c2.8,3.1,6.8,4.9,11,4.9h36.4c3.8,0,6.9,3.1,6.9,6.9v99.7c0,3.8-3.1,6.9-6.9,6.9H14.8 c-3.8,0-6.9-3.1-6.9-6.9v-76c0-34.6,3.1-62.2,9.1-82c6-19.6,17.2-37.4,33.3-53c14.2-13.7,32.1-25,53.2-33.6c0.8-0.3,1.7-0.5,2.5-0.5 c2.7,0,5.1,1.6,6.3,4l14.4,30.4C127.5,43.9,127.6,45.9,126.9,47.7z"/>
	<path d="M304.6,38.8L290.3,8.5c-3.4-7.1-11.6-10.3-18.9-7.4c-21.8,9-40.4,20.8-55.4,35.1 c-17.3,16.5-29.2,35.4-35.6,56.1c-6.3,20.4-9.5,48.9-9.5,84.5v76c0,8.1,6.6,14.8,14.8,14.8h99.7c8.1,0,14.8-6.6,14.8-14.8v-99.7 c0-8.1-6.6-14.8-14.8-14.8H249c-2,0-3.8-0.8-5.1-2.3c-1.3-1.5-2-3.4-1.8-5.4c1.8-17.6,6.9-32.3,15.2-43.5 c8.4-11.5,21.8-21.1,39.7-28.4c3.7-1.5,6.6-4.5,8.1-8.2C306.5,46.7,306.4,42.5,304.6,38.8z M297.8,47.7c-0.7,1.7-2,3.1-3.7,3.8 c-19.3,7.9-33.8,18.4-43.1,31.1c-9.1,12.4-14.7,28.4-16.6,47.4c-0.4,4.2,0.9,8.3,3.7,11.4c2.8,3.1,6.8,4.9,11,4.9h36.4 c3.8,0,6.9,3.1,6.9,6.9v99.7c0,3.8-3.1,6.9-6.9,6.9h-99.7c-3.8,0-6.9-3.1-6.9-6.9v-76c0-34.9,3.1-62.6,9.1-82.2 c6-19.4,17.2-37.2,33.5-52.8c14.3-13.7,32.1-25,53-33.6c0.8-0.3,1.7-0.5,2.6-0.5l0,0l0,0h0h0c2.7,0,5.1,1.6,6.3,4l14.4,30.3 C298.4,43.9,298.5,45.9,297.8,47.7z"/>
</svg>
