<svg xmlns="http://www.w3.org/2000/svg" viewBox="0 0 82 83">
    <path d="M57.837 52.067a1.002 1.002 0 0 0 1.389-.27c5.797-8.585 4.679-20.143-2.657-27.481-7.503-7.503-19.612-8.438-28.16-2.177a1.001 1.001 0 0 0 1.182 1.614c7.761-5.683 18.752-4.834 25.564 1.977 6.661 6.662 7.675 17.154 2.412 24.948a1.002 1.002 0 0 0 .27 1.389"/>
    <path d="M51.152 46.838a.999.999 0 0 0 1.374-.335 13.478 13.478 0 0 0 1.958-7.007C54.484 32.055 48.43 26 40.987 26c-2.704 0-5.314.798-7.547 2.306a1 1 0 1 0 1.12 1.658A11.437 11.437 0 0 1 40.986 28c6.34 0 11.497 5.157 11.497 11.496 0 2.112-.576 4.175-1.667 5.968a1 1 0 0 0 .335 1.374"/>
    <path d="M23.964 26.009c-6.808 8.553-6.18 21.037 1.624 28.844L40.938 70.2l13.609-13.608 13.335 13.335c-1.938 1.749-5.75 4.599-5.747 4.599C44.117 86.215 19.95 81.064 8.263 63.048-1.795 47.545.615 27.488 12.96 14.746a.998.998 0 0 0 .279.539l10.724 10.724zm7.052 7.052l15.72 15.72a11.393 11.393 0 0 1-5.798 1.576c-6.34 0-11.498-5.16-11.498-11.498 0-2.045.554-4.05 1.576-5.798zm-3.576 5.798c0 7.442 6.055 13.498 13.498 13.498a13.4 13.4 0 0 0 7.254-2.12l4.94 4.94L40.94 67.373 27.002 53.439c-7.03-7.033-7.645-18.25-1.615-26.007l4.179 4.179a13.51 13.51 0 0 0-2.126 7.248zm47.849-19.293C69.337 10.389 60.167 4.08 49.469 1.802c-10.696-2.28-21.641-.257-30.817 5.696C-.291 19.787-5.704 45.195 6.585 64.136c7.827 12.065 20.976 18.642 34.4 18.642a40.831 40.831 0 0 0 22.292-6.612c.21-.157 5.177-3.868 6.758-5.538a.999.999 0 0 0-.018-1.394L14.654 13.87a.999.999 0 0 0-.528-.277 39.03 39.03 0 0 1 5.613-4.418c8.729-5.662 19.139-7.587 29.314-5.418 10.175 2.167 18.896 8.168 24.558 16.896 7.249 11.17 8.3 25.097 2.817 37.252a.999.999 0 0 0 .5 1.323.994.994 0 0 0 1.322-.5c5.767-12.778 4.659-27.418-2.961-39.163z"/>
</svg>
