<svg xmlns="http://www.w3.org/2000/svg" viewBox="0 0 80 81">
    <g>
        <path d="M31.308 34.992h18.339c.585 0 .976-.39.976-.976 0-.585-.39-.975-.976-.975h-18.34c-.587 0-.975.39-.975.975 0 .586.388.976.976.976M31.308 40.65h18.339c.585 0 .976-.389.976-.976 0-.586-.39-.976-.976-.976h-18.34c-.587 0-.975.39-.975.976 0 .587.388.975.976.975M31.308 46.308h18.339c.585 0 .976-.39.976-.975s-.39-.976-.976-.976h-18.34c-.587 0-.975.39-.975.976 0 .585.388.975.976.975"/>
        <path d="M64.936 60.815a.979.979 0 0 0-1.007-.942l-3.561.11c10.271-10.725 10.657-27.763.519-38.916a28.502 28.502 0 0 0-32.73-6.89.976.976 0 1 0 .794 1.783 26.549 26.549 0 0 1 30.492 6.42c9.457 10.404 9.085 26.31-.527 36.3l-.117-3.623a.975.975 0 1 0-1.951.062l.19 5.948c.007.24.102.458.255.624a.968.968 0 0 0 .753.318l5.947-.187a.976.976 0 0 0 .943-1.007M15.052 21.145a.981.981 0 0 0 1.007.942l3.56-.113C9.348 32.7 8.963 49.74 19.102 60.891a28.496 28.496 0 0 0 32.73 6.89.976.976 0 1 0-.795-1.782 26.555 26.555 0 0 1-30.491-6.42c-9.46-10.405-9.085-26.311.526-36.302l.117 3.624a.978.978 0 0 0 1.005.946.98.98 0 0 0 .945-1.009l-.19-5.947a.973.973 0 0 0-1.007-.942l-5.947.187a.978.978 0 0 0-.942 1.009"/>
        <g transform="translate(0 -.945)">
            <path d="M61.212 73.465c-14.074 9.282-32.002 8.348-45.032-2.052C-.198 58.26-2.413 34.464 10.74 18.088 23.891 1.71 47.907-.884 64.077 12.45c16.17 13.336 18.763 37.352 5.428 53.522-.232.571-.258.96.11 1.373.376.223.96.258 1.375-.107a40.08 40.08 0 0 0 8.382-18.242c1.842-10.636-.599-21.543-6.876-30.54C59.542.632 34.385-3.493 16.561 9.46-1.266 22.416-5.391 47.57 7.565 65.395 20.52 83.221 45.48 87.333 63.501 74.392c.414-.365.644-.936.28-1.352-.182-.205-.377-.219-.56-.425"/>
        </g>
        <path d="M63.619 71.823l-19.106-20.61a.959.959 0 0 0-.326-.229c-.26-.199-.517-.345-.783-.345h-15.22a3.083 3.083 0 0 1-3.121-3.122V32.883c0-2.149 1.756-4.1 4.097-4.1h22.83a3.915 3.915 0 0 1 3.902 3.902v15.027c0 1.559-1.366 2.927-2.927 2.927H51.21c-.585 0-.975.39-.975.975v.193l.39 3.124c0 .586.39.976.975.976.586 0 .976-.39.976-.976l-.39-2.341h.78c2.732 0 4.878-2.146 4.878-4.878V32.685c0-3.12-2.536-5.853-5.853-5.853H29.16c-3.317 0-6.048 2.733-6.048 6.05v14.635c0 2.927 2.341 5.073 5.073 5.073h14.944l19.062 20.56c.189.207.452.312.714.312a.975.975 0 0 0 .714-1.639"/>
    </g>
</svg>
