<svg xmlns="http://www.w3.org/2000/svg" viewBox="0 0 82 82">
    <path d="M25 31.8c0 .6.4 1 1 1h37v14.8c0 .6.4 1 1 1s1-.4 1-1V31.8c0-.6-.4-1-1-1H26c-.6 0-1 .4-1 1"/>
    <path d="M69.4 42.8c.6 0 1-.4 1-1V26c0-.6-.4-1-1-1h-38c-.6 0-1 .4-1 1s.4 1 1 1h37v15c0 .4.6.8 1 .8"/>
    <path d="M23 38.8l-3.6 3.6v-3.6H23zm34.2 4L53.4 39h3.8v3.8zm-4 14.202l4-4v4h-4zM19.6 53.4l3.6 3.602h-3.6V53.4zm31-14.6l6.6 6.6v4.8l-6.6 6.6v.202H26V56.8l-6.4-6.4v-5.398l6.2-6.202h24.8zm-33-1v20c0 .6.4 1 1 1h39.6c.6 0 1-.4 1-1v-20c0-.6-.4-1-1-1H18.6c-.6.2-1 .6-1 1z"/>
    <path d="M36.6 48.8v.6c0 .602-.2 1.2-.4 1.8-.2.6-.6 1.2-1.2 1.802h7v-2h-3.8c.2-.202.2-.402.4-.802s.2-.6.2-1v-1h1.8v-1.4h-2c-.2-.4-.2-.798-.2-1 0-.6.2-1 .4-1.2.2-.4.6-.4 1.2-.4.4 0 .6 0 .8.2.2 0 .4.2.6.2l.6-1.4c-.2-.2-.6-.4-1-.4-.4-.2-1-.2-1.6-.2-1 0-1.8.2-2.4.8-.6.602-.8 1.2-.8 2v.8c0 .2.2.6.2.802h-1.2V48.4h1.4v.4z"/>
    <g>
        <path d="M41 0C18.4 0 0 18.4 0 41c0 6 1.2 11.8 3.8 17.4.2.4.4.6.8.6H14c.6 0 1-.4 1-1s-.4-1-1-1H5.4C3 52 2 46.6 2 41 2 19.4 19.4 2 41 2s39 17.4 39 39-17.4 39-39 39c-11.8 0-22.8-5.2-30.2-14.2-.4-.4-1-.4-1.4-.2-.4.2-.4 1-.2 1.4 7.8 9.6 19.4 15 31.6 15C63.6 82 82 63.6 82 41S63.6 0 41 0" />
    </g>
</svg>
