<svg xmlns="http://www.w3.org/2000/svg" title="icon map reading" viewBox="0 0 80 80">
    <path d="M34.936 62.52c-.303-.414-.605-.827-.921-1.224a1 1 0 1 0-1.566 1.243c.299.377.587.77.875 1.163l.303.413a1 1 0 1 0 1.608-1.19l-.3-.406zm8.729 1.726c-.444.493-.868.867-1.295 1.143a.998.998 0 0 0 .543 1.84.996.996 0 0 0 .54-.16c.58-.373 1.134-.86 1.699-1.486a1 1 0 1 0-1.487-1.337zm-13.13-5.763a6.46 6.46 0 0 0-2.307-.409 1 1 0 1 0 0 2c.582 0 1.104.091 1.597.278a1 1 0 0 0 .711-1.869zm17.08 1.06c-.508.414-.996.915-1.534 1.578a1 1 0 1 0 1.552 1.261c.449-.553.845-.963 1.244-1.288a.998.998 0 0 0 .145-1.406.998.998 0 0 0-1.406-.145zm7.07-7.323a1 1 0 0 0-1.414 0l-1.335 1.335L50.6 52.22a1 1 0 0 0-1.414 1.414l1.335 1.335-1.335 1.335a.999.999 0 1 0 1.414 1.414l1.335-1.335 1.335 1.335a.993.993 0 0 0 .707.293.999.999 0 0 0 .707-1.707L53.35 54.97l1.335-1.335a.999.999 0 0 0 0-1.414zm4.323 16.172v-5.259c-1.723-.792-2.947-3.229-2.947-6.195 0-2.965 1.224-5.403 2.947-6.195v-4.332c-2.06-.266-8.274-.632-17.258 2.53v21.883c8.73-2.958 14.813-2.727 17.258-2.432zm-19.355 2.44v-3.01a.99.99 0 0 1-.712.175 6.18 6.18 0 0 1-2.225-.795 1 1 0 0 1 1.02-1.72c.472.28.965.455 1.506.538.155.023.29.088.41.172V48.945c-8.96-3.159-15.168-2.804-17.258-2.537v4.314c1.75.766 3 3.221 3 6.216s-1.25 5.45-3 6.216v5.235c2.463-.294 8.544-.515 17.259 2.443zM19.06 56.938c0 2.558 1.145 4.47 2.167 4.47 1.022 0 2.166-1.912 2.166-4.47 0-2.37-.982-4.166-1.941-4.418-.021.001-.038.012-.06.012-.082 0-.156-.029-.233-.047-1.004.081-2.1 1.952-2.1 4.453zm43.333 0c0-2.523-1.112-4.407-2.123-4.459-.086.023-.17.053-.263.053-.01 0-.02-.006-.03-.006-.95.276-1.917 2.061-1.917 4.412 0 2.558 1.145 4.47 2.167 4.47 1.022 0 2.166-1.912 2.166-4.47zm-1.386 11.878c0 .15-.037.288-.095.416a.977.977 0 0 1 .046.553.995.995 0 0 1-1.2.747c-.073-.019-7.155-1.547-18.55 2.594a.987.987 0 0 1-.481.135c-.013 0-.025-.006-.037-.007-.013.001-.026.007-.038.007-.171 0-.334-.053-.482-.134-11.4-4.144-18.482-2.612-18.552-2.595a1.006 1.006 0 0 1-1.2-.75.982.982 0 0 1 .057-.572.996.996 0 0 1-.082-.394v-5.534c-1.924-.585-3.333-3.16-3.333-6.344 0-3.182 1.409-5.759 3.333-6.343v-5.038a1 1 0 0 1 .772-.974c.304-.07 7.406-1.629 19.007 2.428a.986.986 0 0 1 .48-.138c.017 0 .032.008.049.01.017-.002.03-.01.048-.01.174 0 .33.056.472.133 11.594-4.05 18.688-2.493 18.99-2.423.024.005.039.021.06.028.1.027.188.068.272.124l.047.031a.985.985 0 0 1 .417.791v5.025c1.95.553 3.386 3.145 3.386 6.356 0 3.212-1.436 5.803-3.386 6.355v5.523zM55.884 24.56c0-1.715-.758-2.703-1.258-3.265a37.902 37.902 0 0 0-.2-3.107c-.442-4.642-4.31-9.766-10.896-10.974a2.17 2.17 0 0 0-1.496-1.61 2.137 2.137 0 0 0-1.646.171A8.58 8.58 0 0 0 38.6 7.087c-5.278.722-11.073 4.786-11.68 11.096l-.047.465c-.068.661-.133 1.29-.145 2.43-.467.5-1.395 1.522-1.395 3.482a1 1 0 1 0 2 0c0-1.2.487-1.722.876-2.14.237-.248.355-.39.435-.576a.986.986 0 0 0 .082-.396c0-1.278.066-1.916.138-2.598l.047-.47c.387-4.033 4.114-8.678 10.256-9.347.23-.026.444-.129.606-.294a6.675 6.675 0 0 1 1.573-1.208.147.147 0 0 1 .114-.012c.032.01.074.031.102.085a.18.18 0 0 1 .008.144 1 1 0 0 0 .823 1.314c6.017.753 9.665 5.361 10.05 9.392.072.748.18 1.878.187 3.234a1 1 0 0 0 .227.63c.04.05.095.11.185.21.375.407.842.916.842 2.032 0 .098-.074.178-.166.178h-24.22a1 1 0 1 0 0 2h24.22a2.174 2.174 0 0 0 2.166-2.178zm-3.044 5.864a2.179 2.179 0 0 0-2.022-2.31c-.56-.015-1.028.383-1.064.932a1 1 0 0 0 .933 1.064c.093.006.163.092.157.19-.057.915-.827 3.074-1.774 3.746a1.437 1.437 0 0 1-.171.103.997.997 0 0 0-.527.716c-.48 2.743-1.444 4.162-1.975 4.763a.999.999 0 0 0-.251.673l.036 3.444a1 1 0 0 0 1 .99h.01a1 1 0 0 0 .99-1.012l-.032-3.077c.653-.835 1.587-2.406 2.108-4.99 1.573-1.143 2.503-3.962 2.582-5.232zm-19.38 14.31h.01a1 1 0 0 0 1-.989l.037-3.444a1.001 1.001 0 0 0-.251-.674c-.531-.599-1.494-2.016-1.974-4.762a.999.999 0 0 0-.528-.716 1.585 1.585 0 0 1-.173-.104c-.947-.672-1.715-2.83-1.772-3.746-.006-.098.065-.183.157-.189a1 1 0 0 0 .933-1.064c-.037-.549-.492-.944-1.064-.932a2.178 2.178 0 0 0-2.022 2.31c.078 1.268 1.006 4.085 2.582 5.232.52 2.587 1.455 4.156 2.108 4.991l-.032 3.076a1 1 0 0 0 .989 1.011zm44.24 8.94a1 1 0 1 1-1.891-.654c4.293-12.414 2.079-26.002-5.922-36.349C63.627 8.578 54.54 3.461 44.3 2.265 34.093 1.07 24.113 3.94 16.199 10.34.029 23.413-2.75 47.466 10.006 63.96c5.908 7.637 14.67 12.52 24.674 13.748 10.644 1.31 21.538-1.716 29.877-8.295a.994.994 0 0 1 .333-.177h.002a.996.996 0 0 1 1.03.282c.129.141.21.31.244.484v.007a.978.978 0 0 1 .018.21v.003a.997.997 0 0 1-.3.684l-.003.003-.002.002-.002.002-.001.001-.001.001-.001.001-.002.001c0 .001-.002 0-.002.003-.002 0-.003.001-.004.003l-.383.357c-.103.095-.22.166-.344.21-7.306 5.526-16.372 8.515-25.567 8.516-1.711 0-3.426-.103-5.135-.313-10.538-1.294-19.776-6.447-26.013-14.51C-4.991 47.834-2.067 22.536 14.94 8.784 23.278 2.043 33.788-.979 44.534.28 55.31 1.54 64.877 6.925 71.469 15.45c8.415 10.882 10.744 25.171 6.23 38.224z"/>
</svg>