<svg xmlns="http://www.w3.org/2000/svg" viewBox="0 0 80 80" title="icon boiler">
    <path d="M69.1,12.5C61.7,4.8,51.8,0.3,41.1,0C19.1-0.6,0.6,16.8,0,38.9c0,0.5,0.4,1,1,1c0.6,0,1-0.4,1-1C2.6,18.3,19.5,2,40,2 c0.4,0,0.7,0,1.1,0c10.1,0.3,19.6,4.5,26.5,11.9c7,7.4,10.7,17,10.4,27.2C77.4,62,59.9,78.6,38.9,78c-12.5-0.3-23.8-6.7-30.6-17 h41.2c0.5,0,1-0.5,1-1v-6.8c2,0,3.5-1.6,3.5-3.5V32.4c0-0.5-0.5-1-1-1c-0.6,0-1,0.5-1,1v17.2c0,0.8-0.7,1.5-1.5,1.5H31.5 c-0.8,0-1.5-0.7-1.5-1.5V21c0-0.6,0.5-1,1-1h8c0.5,0,1-0.5,1-1c0-0.5-0.4-0.9-1-1h-8c-1.7,0-3,1.4-3,3v28.6c0,1.9,1.6,3.5,3.5,3.5 h2.3v5.8h-27c-0.2,0-0.4,0.1-0.6,0.2L6,59.3c-0.4,0.3-0.5,0.9-0.2,1.3C12.8,72.4,25.2,79.6,38.9,80c0.4,0,0.8,0,1.2,0 c21.5,0,39.4-17.2,40-38.9C80.3,30.5,76.4,20.3,69.1,12.5z M45.6,53.1h2.9v5.8h-2.9V53.1z M40.5,53.1h3.1v5.8h-3.1V53.1z M35.9,53.1 h2.7v5.8h-2.7V53.1z M50.3,8.1c-0.4-0.5-1.2-0.5-1.6,0c-0.7,0.8-6.6,8.4-6.6,12c-0.1,3.9,2.7,7.2,6.5,7.8c0,0,0,0,0,0 c0.2,0,0.4,0,0.5,0.1c0.1,0,0.2,0,0.3,0h0c4.2-0.1,7.5-3.7,7.3-7.8C56.9,16.5,50.9,8.9,50.3,8.1z M49.5,25.9c-0.1,0-0.2,0-0.4,0 c-0.3-0.1-0.7-0.2-1-0.5c-0.3-0.4-0.5-1-0.4-1.8c0.2-1.6,0.6-2.2,1.5-3.6c0.1-0.1,0.1-0.2,0.2-0.3l0.2,0.4c0.9,1.4,1.5,2.2,1.5,3.5 C51.2,24.9,50.5,25.9,49.5,25.9z M53.2,24.4c0-0.3,0.1-0.5,0.1-0.8c0-1.9-0.8-3.1-1.8-4.6c-0.4-0.5-0.7-1.1-1-1.6 C50,16.8,49.4,16.7,49,17c-0.1,0.1-0.2,0.2-0.3,0.3c-0.3,0.5-0.7,1-1,1.6c-0.9,1.4-1.6,2.5-1.8,4.5c0,0.3,0,0.6,0,0.9 c-1.1-1.1-1.7-2.6-1.6-4.1c0-2,3-6.7,5.4-9.8c2.3,3.1,5.4,7.8,5.4,9.8C54.9,21.7,54.3,23.3,53.2,24.4z M33.2,45.8 c-0.6,0-1.1,0.5-1.1,1.2c0,0.6,0.5,1.2,1.1,1.2h0c0.6,0,1.2-0.5,1.2-1.2C34.3,46.3,33.8,45.8,33.2,45.8z M37.2,45.8 c-0.6,0-1.2,0.5-1.2,1.2c0,0.6,0.5,1.2,1.2,1.2s1.2-0.5,1.1-1.2C38.3,46.3,37.8,45.8,37.2,45.8z M49.5,41.4H32.3c-0.5,0-1,0.4-1,1 c0,0.5,0.5,1,1,1h17.2c0.5,0,1-0.5,1-1C50.5,41.8,50,41.4,49.5,41.4z"/>
</svg>
