<svg xmlns="http://www.w3.org/2000/svg" title="icon electrician" viewBox="0 0 80 80">
    <path d="M43.011 17.51a.409.409 0 0 0-.356-.603h-2.158a.403.403 0 0 0-.355.215l-2.95 5.55a.408.408 0 0 0 .356.603h1.723c.264 0 .458.253.39.512l-.798 3.072c-.11.426.435.703.708.359l4.463-5.608a.41.41 0 0 0-.315-.665h-1.862a.408.408 0 0 1-.357-.602l1.511-2.834zm-7.494 14.226h18.228a2.176 2.176 0 0 0 2.167-2.178c0-1.72-.763-2.707-1.259-3.263-.024-1.283-.129-2.371-.2-3.11-.443-4.64-4.313-9.764-10.902-10.972a2.153 2.153 0 0 0-1.497-1.612 2.143 2.143 0 0 0-1.646.172 8.534 8.534 0 0 0-1.79 1.313c-5.28.721-11.078 4.786-11.685 11.096l-.047.463a22.569 22.569 0 0 0-.146 2.43c-.466.5-1.394 1.524-1.394 3.483a1 1 0 1 0 2 0c0-1.2.487-1.721.882-2.143.211-.225.344-.374.431-.576a1 1 0 0 0 .08-.393c0-1.278.067-1.917.138-2.598l.047-.47c.389-4.032 4.117-8.678 10.263-9.347a.995.995 0 0 0 .605-.293 6.661 6.661 0 0 1 1.574-1.208.147.147 0 0 1 .116-.012c.03.01.072.031.1.083.03.055.02.11.008.145a1.002 1.002 0 0 0 .823 1.314c6.02.753 9.67 5.362 10.055 9.39.072.75.182 1.88.188 3.237.001.229.081.452.226.63.041.049.098.112.186.209.376.408.843.917.843 2.032 0 .098-.075.179-.166.179H35.517a1 1 0 1 0 0 2zm-6.838 20.252c2.883-1.217 4.45-1.957 5.258-2.365a.996.996 0 0 0 .55-.882l.037-3.442a.997.997 0 0 0-.25-.673c-.533-.601-1.497-2.018-1.977-4.764a1.002 1.002 0 0 0-.534-.72 1.419 1.419 0 0 1-.167-.1c-.947-.67-1.716-2.83-1.773-3.745-.006-.099.064-.184.157-.189.55-.036.968-.512.933-1.063a.997.997 0 0 0-1.062-.933 2.176 2.176 0 0 0-2.025 2.31c.078 1.267 1.006 4.086 2.583 5.231.522 2.587 1.456 4.157 2.11 4.99l-.026 2.462c-.82.395-2.259 1.056-4.603 2.046-4.835 2.021-8.655 3.617-10.492 6.512-1.588 2.49-1.524 5.843-1.501 7.106a1 1 0 0 0 1 .98h.02a1 1 0 0 0 .981-1.02c-.021-1.096-.076-4.011 1.189-5.993 1.501-2.366 5.063-3.855 9.592-5.748zm49.059 1.682a1 1 0 1 1-1.892-.654c4.295-12.412 2.08-26-5.925-36.346C63.659 8.577 54.567 3.46 44.324 2.264c-10.22-1.194-20.2 1.676-28.118 8.076C.03 23.412-2.75 47.463 10.011 63.954c5.91 7.637 14.678 12.52 24.686 13.748 10.639 1.305 21.525-1.71 29.865-8.275-.193-1.95-1.739-9.783-2.954-11.689-1.504-2.368-5.067-3.857-9.577-5.742-2.9-1.225-4.467-1.965-5.276-2.373a.999.999 0 0 1-.55-.881l-.037-3.443a.999.999 0 0 1 .251-.673c.532-.601 1.496-2.02 1.976-4.764.055-.311.253-.578.534-.72.056-.028.111-.06.164-.099.949-.67 1.718-2.83 1.776-3.746.005-.098-.065-.184-.157-.189a1.001 1.001 0 0 1 .13-1.996 2.178 2.178 0 0 1 2.024 2.31c-.079 1.27-1.01 4.089-2.583 5.231-.522 2.584-1.457 4.156-2.11 4.99l.026 2.462c.82.394 2.257 1.055 4.593 2.042 4.846 2.025 8.666 3.621 10.504 6.52 1.55 2.43 3.316 11.778 3.29 13.142a.986.986 0 0 1-.473.809c-.048.099-.11.196-.191.278l-.002.001-.001.003h-.001l-.002.003h-.002l-.002.003h-.001l-.002.002-.002.002-.001.002-.002.002c-.002 0-.002 0-.003.002H65.9l-.002.003-.383.356a.994.994 0 0 1-.343.21C57.862 77.01 48.792 80 39.592 80c-1.712 0-3.428-.103-5.138-.312C23.91 78.394 14.667 73.24 8.428 65.177-4.993 47.833-2.069 22.535 14.948 8.784c8.34-6.74 18.856-9.76 29.607-8.506C55.34 1.537 64.91 6.925 71.505 15.446c8.419 10.883 10.749 25.171 6.233 38.224z"/>
</svg>