<svg xmlns="http://www.w3.org/2000/svg" viewBox="0 0 80 80">
    <path d="M29.383 27.744v8.344l-6.21-3.299a78.466 78.466 0 0 1 6.21-5.045zm10.285-6.986c1.164 0 5.434 2.911 10.091 6.598H29.772c4.657-3.687 8.731-6.598 9.896-6.598zm10.479 6.792l6.403 5.24-6.403 3.298V27.55zm-1.941 9.508L44.52 39l-.971.582-3.687 1.941-8.732-4.657v-7.568h17.076v7.761zm26.198-17.076C63.536.965 39.086-5.633 20.069 5.234 1.052 16.101-5.74 40.552 5.321 59.57c11.061 19.017 35.124 25.615 54.334 14.554 8.344-4.852 14.749-12.614 18.047-22.122.128-.383-.011-.674-.277-.889-.102-.287-.306-.47-.693-.47H22.398V34.536L49.177 48.12c.388.195.97 0 1.164-.388.193-.387 0-.97-.389-1.164l-7.956-4.075 15.33-7.762v11.643c0 .582.389.971.971.971s.97-.389.97-.97V32.595l-.388-.195c-2.522-2.134-15.718-13.389-19.211-13.389-3.299 0-16.301 11.061-18.823 13.39l-.388.194v19.987H75.462c-5.875 16.234-22.1 26.557-39.287 24.84C15.217 75.674.276 57.045 2.022 36.087 3.769 15.131 22.203.19 43.161 1.935c20.957 1.747 36.093 20.57 34.153 41.333-.194.582.388.971.97 1.164.582.195.97-.387 1.164-.97.971-8.15-.969-16.3-5.044-23.48z"/>
    <path d="M34.622 32.984h10.48c.582 0 .97-.388.97-.97 0-.583-.388-.97-.97-.97h-10.48c-.582 0-.97.387-.97.97 0 .582.388.97.97.97M34.622 36.477h10.48c.582 0 .97-.388.97-.97s-.388-.97-.97-.97h-10.48c-.582 0-.97.388-.97.97s.388.97.97.97"/>
</svg>
