<svg xmlns="http://www.w3.org/2000/svg" viewBox="0 0 80 80">
    <path d="M72.641 63.125c-.017.021-.04.033-.058.054a.907.907 0 0 1-.144.135.974.974 0 0 1-.152.104.96.96 0 0 1-.163.06.921.921 0 0 1-.205.042c-.025.002-.047.015-.072.015H25.532a4.884 4.884 0 0 1-4.878-4.878V19.529a4.884 4.884 0 0 1 4.878-4.878h28.934c2.69 0 4.878 2.189 4.878 4.878v36.324a.975.975 0 1 1-1.95 0V19.529a2.93 2.93 0 0 0-2.928-2.927H25.532a2.93 2.93 0 0 0-2.927 2.927v39.128a2.93 2.93 0 0 0 2.927 2.926H71.33c4.394-6.362 6.719-13.81 6.719-21.583C78.049 19.02 60.98 1.951 40 1.951S1.951 19.02 1.951 40 19.02 78.049 40 78.049a37.983 37.983 0 0 0 25.317-9.646.975.975 0 1 1 1.3 1.456A39.937 39.937 0 0 1 40 80C17.944 80 0 62.056 0 40 0 17.943 17.944 0 40 0s40 17.943 40 40c0 8.346-2.544 16.342-7.359 23.125zm-19.422-40.49v10.98a1.954 1.954 0 0 1-1.952 1.95H28.732a1.954 1.954 0 0 1-1.952-1.95v-10.98c0-1.076.877-1.952 1.952-1.952h22.535c1.075 0 1.952.876 1.952 1.951zm-24.487 10.98h22.537l-.002-10.98H28.732v10.98zm23.505 15.572c.54 0 .976.436.976.976v5.69c0 .54-.436.976-.976.976h-5.69a.975.975 0 0 1-.976-.975v-5.691c0-.54.436-.976.975-.976h5.691zm-4.715 5.691h3.74v-3.74h-3.74v3.74zm-4.677-5.69c.54 0 .975.435.975.975v5.69c0 .54-.436.976-.975.976h-5.69a.975.975 0 0 1-.976-.975v-5.691c0-.54.436-.976.975-.976h5.69zm-4.715 5.69h3.74v-3.74h-3.74v3.74zm-4.683-5.69c.54 0 .975.435.975.975v5.69c0 .54-.436.976-.975.976h-5.69a.975.975 0 0 1-.977-.975v-5.691c0-.54.437-.976.976-.976h5.69zm-4.715 5.69h3.74v-3.74h-3.74v3.74zm24.48-14.715v5.69c0 .54-.435.976-.975.976h-5.69a.975.975 0 0 1-.976-.975v-5.691c0-.54.436-.976.975-.976h5.691c.54 0 .976.436.976.976zm-5.69 4.715h3.74v-3.74h-3.74v3.74zm-3.702-4.715v5.69c0 .54-.436.976-.975.976h-5.69a.975.975 0 0 1-.976-.975v-5.691c0-.54.436-.976.975-.976h5.69c.54 0 .976.436.976.976zm-5.69 4.715h3.74v-3.74h-3.74v3.74zm-3.708-4.715v5.69c0 .54-.436.976-.975.976h-5.69a.975.975 0 0 1-.977-.975v-5.691c0-.54.437-.976.976-.976h5.69c.54 0 .976.436.976.976zm-5.69 4.715h3.74v-3.74h-3.74v3.74z" />
</svg>
