<svg xmlns="http://www.w3.org/2000/svg" viewBox="0 0 80 80" title="icon digger">
	<path d="M19.7,50.5c-0.7,0-1.3,0.6-1.3,1.3c0,0.7,0.6,1.3,1.3,1.3c0.7,0,1.3-0.6,1.3-1.3C21,51.1,20.4,50.5,19.7,50.5z M28.4,50.5 c-0.7,0-1.3,0.6-1.3,1.3c0,0.7,0.6,1.3,1.3,1.3c0.7,0,1.3-0.6,1.3-1.3C29.8,51.1,29.2,50.5,28.4,50.5z M37.2,50.5 c-0.7,0-1.3,0.6-1.3,1.3c0,0.7,0.6,1.3,1.3,1.3c0.7,0,1.3-0.6,1.3-1.3C38.5,51.1,37.9,50.5,37.2,50.5z M37.2,50.5 c-0.7,0-1.3,0.6-1.3,1.3c0,0.7,0.6,1.3,1.3,1.3c0.7,0,1.3-0.6,1.3-1.3C38.5,51.1,37.9,50.5,37.2,50.5z M28.4,50.5 c-0.7,0-1.3,0.6-1.3,1.3c0,0.7,0.6,1.3,1.3,1.3c0.7,0,1.3-0.6,1.3-1.3C29.8,51.1,29.2,50.5,28.4,50.5z M19.7,50.5 c-0.7,0-1.3,0.6-1.3,1.3c0,0.7,0.6,1.3,1.3,1.3c0.7,0,1.3-0.6,1.3-1.3C21,51.1,20.4,50.5,19.7,50.5z M72.6,16.9L72.6,16.9 C66.4,8.2,57.1,2.4,46.5,0.6C24.7-3.1,3.8,11.5,0,33.2c-0.1,0.5,0.3,1.1,0.8,1.2h0c0.5,0.1,1.1-0.3,1.2-0.8C5.2,15.1,21.4,2,39.7,2 c2.1,0,4.3,0.2,6.5,0.6C56.3,4.3,65.1,9.8,71,18.1c5.9,8.3,8.2,18.4,6.5,28.4C73.8,67.1,54,81,33.2,77.5 C20.8,75.3,10.4,67.4,5.1,56.1h45.5c0.5,0,1-0.4,1-1c0-0.5-0.5-1-1-1h-8.5c0.5-0.7,0.7-1.5,0.7-2.4c0-2.4-2-4.4-4.4-4.4h-0.2v-3.7 h2.3c0.6,0,1-0.5,1-1c0-0.1,0-0.3-0.1-0.4c-0.1-1.4-0.6-2.8-1.5-3.9l5.2-5.1l8.1,0.1l6.1,9.8l-0.2,0.1c-0.3,0.2-0.5,0.5-0.4,0.9 l0.4,11.3c0,0.5,0.5,1,1,1c0.2,0,0.4-0.1,0.6-0.2l5.2-3.5c2-1.4,2.4-3.1,1-5.1l-3.9-5.7c-0.3-0.5-0.9-0.6-1.4-0.3L61.1,42l-6.3-10.2 c-0.2-0.3-0.5-0.5-0.8-0.5l-9.1-0.1c-0.3,0-0.5,0.1-0.7,0.3L38.6,37c-0.9-0.6-1.8-1-2.9-1.1v-2.4c0-0.2,0-0.3-0.1-0.4l-5.6-12 c-0.2-0.3-0.5-0.6-0.9-0.6H14.7c-0.3,0-0.5,0.1-0.7,0.3c-0.2,0.2-0.3,0.4-0.3,0.7c0,0.2,0.2,17.2,0.2,18.7c0,2.4,1.3,3.5,4.4,3.5 h0.5v3.7h-0.2c-2.4,0-4.4,2-4.4,4.4c0,0.9,0.3,1.7,0.7,2.4H3.5c-0.4,0-0.8,0.3-0.9,0.7c0,0.1,0,0.1,0,0.2c0,0,0,0.1,0,0.1 c0,0.2,0,0.3,0.1,0.5C8,68.2,19.3,77.1,32.9,79.4c2.3,0.4,4.6,0.6,6.8,0.6C59,80,76,66.2,79.4,46.8C81.2,36.3,78.8,25.7,72.6,16.9z M62,43.8l3.3,4.8c0.7,1,0.8,1.5-0.4,2.4l-3.7,2.5l-0.3-8.9L62,43.8z M35.7,38c1.9,0.4,3.3,1.9,3.7,3.7h-3.7V38z M36.2,43.7v3.7 H20.7v-3.7H36.2z M29.7,25.2l3.6,7.8h-7.2v-7.8H29.7z M18.2,41.7c-2.3,0-2.3-0.6-2.3-1.5c0-1.3-0.1-14-0.2-17.7h12.8l0.3,0.7h-3.7 c-0.6,0-1,0.5-1,1V34c0,0.5,0.4,1,1,1h8.6v1.9c0,0,0,0,0,0c0,0,0,0,0,0v4.8H18.2z M18.5,49.4h19.9c1.3,0,2.4,1.1,2.4,2.4 c0,1.3-1.1,2.4-2.4,2.4H18.5c-1.3,0-2.4-1.1-2.4-2.4C16.1,50.5,17.2,49.4,18.5,49.4z M37.2,53.1c0.7,0,1.3-0.6,1.3-1.3 c0-0.7-0.6-1.3-1.3-1.3c-0.7,0-1.3,0.6-1.3,1.3C35.9,52.5,36.5,53.1,37.2,53.1z M28.4,53.1c0.7,0,1.3-0.6,1.3-1.3 c0-0.7-0.6-1.3-1.3-1.3c-0.7,0-1.3,0.6-1.3,1.3C27.1,52.5,27.7,53.1,28.4,53.1z M19.7,53.1c0.7,0,1.3-0.6,1.3-1.3 c0-0.7-0.6-1.3-1.3-1.3s-1.3,0.6-1.3,1.3C18.4,52.5,19,53.1,19.7,53.1z M19.7,50.5c-0.7,0-1.3,0.6-1.3,1.3c0,0.7,0.6,1.3,1.3,1.3 c0.7,0,1.3-0.6,1.3-1.3C21,51.1,20.4,50.5,19.7,50.5z M28.4,50.5c-0.7,0-1.3,0.6-1.3,1.3c0,0.7,0.6,1.3,1.3,1.3 c0.7,0,1.3-0.6,1.3-1.3C29.8,51.1,29.2,50.5,28.4,50.5z M37.2,50.5c-0.7,0-1.3,0.6-1.3,1.3c0,0.7,0.6,1.3,1.3,1.3 c0.7,0,1.3-0.6,1.3-1.3C38.5,51.1,37.9,50.5,37.2,50.5z M37.2,50.5c-0.7,0-1.3,0.6-1.3,1.3c0,0.7,0.6,1.3,1.3,1.3 c0.7,0,1.3-0.6,1.3-1.3C38.5,51.1,37.9,50.5,37.2,50.5z M28.4,50.5c-0.7,0-1.3,0.6-1.3,1.3c0,0.7,0.6,1.3,1.3,1.3 c0.7,0,1.3-0.6,1.3-1.3C29.8,51.1,29.2,50.5,28.4,50.5z M19.7,50.5c-0.7,0-1.3,0.6-1.3,1.3c0,0.7,0.6,1.3,1.3,1.3 c0.7,0,1.3-0.6,1.3-1.3C21,51.1,20.4,50.5,19.7,50.5z M37.2,50.5c-0.7,0-1.3,0.6-1.3,1.3c0,0.7,0.6,1.3,1.3,1.3 c0.7,0,1.3-0.6,1.3-1.3C38.5,51.1,37.9,50.5,37.2,50.5z M28.4,50.5c-0.7,0-1.3,0.6-1.3,1.3c0,0.7,0.6,1.3,1.3,1.3 c0.7,0,1.3-0.6,1.3-1.3C29.8,51.1,29.2,50.5,28.4,50.5z M19.7,50.5c-0.7,0-1.3,0.6-1.3,1.3c0,0.7,0.6,1.3,1.3,1.3 c0.7,0,1.3-0.6,1.3-1.3C21,51.1,20.4,50.5,19.7,50.5z M19.7,50.5c-0.7,0-1.3,0.6-1.3,1.3c0,0.7,0.6,1.3,1.3,1.3 c0.7,0,1.3-0.6,1.3-1.3C21,51.1,20.4,50.5,19.7,50.5z M28.4,50.5c-0.7,0-1.3,0.6-1.3,1.3c0,0.7,0.6,1.3,1.3,1.3 c0.7,0,1.3-0.6,1.3-1.3C29.8,51.1,29.2,50.5,28.4,50.5z M37.2,50.5c-0.7,0-1.3,0.6-1.3,1.3c0,0.7,0.6,1.3,1.3,1.3 c0.7,0,1.3-0.6,1.3-1.3C38.5,51.1,37.9,50.5,37.2,50.5z"/>
</svg>