<svg xmlns="http://www.w3.org/2000/svg" viewBox="0 0 80 80">
    <path d="M61.582 41.796l-42.15.132v-3.8c0-.892.712-1.599 1.663-1.599 14.133.019 26.34 0 38.825 0 .95 0 1.662.707 1.662 1.598v3.67zm0 6.845h-42.15v-4.608l42.15-.132v4.74zM35.634 28.087c.072 0 .18.032.346.264.164.233.312.645.312 1.12v3.554c0 .475-.148.887-.312 1.12-.163.232-.274.263-.346.263h-5.006c-.072 0-.181-.03-.345-.263-.165-.235-.313-.647-.313-1.122V29.47c0-.475.148-.887.313-1.12.162-.232.273-.264.345-.264v.002h5.006zm14.752 0c.072 0 .182.032.346.264.165.233.313.645.313 1.12v3.554c0 .475-.148.887-.313 1.12-.162.232-.274.263-.346.263h-5.005c-.072 0-.182-.03-.346-.263-.164-.235-.312-.647-.312-1.122V29.47c0-.475.148-.887.312-1.12.163-.232.274-.264.346-.264v.002h5.005zM24.174 23.43c0-.947.71-1.646 1.613-1.646h29.44c.903 0 1.614.697 1.614 1.646v10.994h-3.919a4.47 4.47 0 0 0 .23-1.399V29.47c0-.872-.236-1.673-.69-2.321-.456-.646-1.198-1.169-2.076-1.169h-5.005c-.876 0-1.62.52-2.075 1.169-.455.646-.691 1.447-.691 2.321v3.555c0 .488.087.965.23 1.4H38.17c.144-.433.231-.912.231-1.4V29.47c0-.872-.237-1.673-.691-2.321-.455-.646-1.199-1.169-2.075-1.169h-5.006c-.877 0-1.62.52-2.074 1.169-.455.646-.692 1.447-.692 2.321v3.555c0 .488.086.965.23 1.4h-3.918V23.43zM40 0C17.944 0 0 17.944 0 40s17.944 40 40 40c15.333 0 29.08-8.543 35.88-22.297a.977.977 0 0 0-1.752-.866C67.661 69.92 54.584 78.047 40 78.047 19.021 78.046 1.954 60.978 1.954 40 1.954 19.021 19.02 1.954 40 1.954 60.98 1.954 78.046 19.02 78.046 40c0 2.09-.169 4.18-.506 6.224H63.69v-8.1c0-2.047-1.712-3.702-3.77-3.702h-.971V23.428c0-2.06-1.668-3.752-3.722-3.752h-29.44c-2.053 0-3.72 1.694-3.72 3.752v10.994h-.972c-2.059 0-3.77 1.655-3.77 3.702v8.361H6.055a.977.977 0 1 0 0 1.954h11.27v5.996c-.008.556.495 1.069 1.053 1.069.558 0 1.062-.513 1.055-1.07V50.75h42.15v3.686c-.009.556.496 1.069 1.053 1.069.558 0 1.062-.513 1.054-1.07v-6.257h14.67c.47 0 .874-.336.961-.798.45-2.413.679-4.896.679-7.379C80 17.944 62.056 0 40 0z"/>
</svg>
