<svg xmlns="http://www.w3.org/2000/svg" title="icon extension" viewBox="0 0 80 80">
    <path d="M57.624 58.33V22.242a.981.981 0 0 0-.988-.975.981.981 0 0 0-.987.975V58.33c0 .539.441.975.987.975a.98.98 0 0 0 .988-.975M19.059 24.863h-4.997a.98.98 0 0 0-.987.975v8.064L7.55 39.109a.967.967 0 0 0-.033 1.379.991.991 0 0 0 1.396.032l5.83-5.495a.976.976 0 0 0 .307-.706v-7.506h3.021v2.798c0 .39.236.743.6.896a.999.999 0 0 0 1.07-.19l6.815-6.42 9.918 9.345c-4.478 1.297-8.779.91-12.088-2.356a.995.995 0 0 0-1.396 0 .965.965 0 0 0 0 1.379c2.588 2.555 5.648 3.624 8.906 3.624 2.008 0 4.092-.418 6.183-1.134l6.119 5.765a.995.995 0 0 0 1.396-.032.966.966 0 0 0-.032-1.379l-5.452-5.137c4.826-2.09 9.591-5.654 13.494-9.507a.967.967 0 0 0 0-1.379.995.995 0 0 0-1.397 0c-3.954 3.902-8.827 7.521-13.639 9.434l-11.33-10.677a.996.996 0 0 0-1.364 0l-5.828 5.49v-1.495a.98.98 0 0 0-.987-.975m59.925 15.24C78.379 61.225 60.779 77.999 39.507 78c-.376 0-.751-.005-1.13-.016-13.503-.377-25.738-7.426-32.728-18.856a.968.968 0 0 1 .246-1.278l.253-.191a1 1 0 0 1 .6-.2h31.597V40.127a.98.98 0 0 1 .988-.975c.545 0 .987.436.987.975v17.803c0 .15-.04.288-.102.414.003.03.02.057.02.088 0 .54-.443.975-.988.975H8.164c6.752 10.099 17.956 16.283 30.268 16.626 20.717.606 37.993-15.567 38.577-35.987.283-9.891-3.354-19.3-10.238-26.494C59.884 6.361 50.573 2.246 40.552 1.966c-.358-.01-.719-.014-1.074-.014-20.21 0-36.928 15.936-37.503 36.003-.014.537-.482.94-1.015.946A.981.981 0 0 1 0 37.9C.617 16.403 18.81-.604 40.608.016c10.548.295 20.35 4.628 27.597 12.198 7.249 7.571 11.077 17.476 10.779 27.889zm-5.3-9.41c-.02 0-.037 0-.057-.002a21.733 21.733 0 0 1-14.1-6.227.965.965 0 0 1 0-1.378.997.997 0 0 1 1.396 0 19.759 19.759 0 0 0 12.815 5.658c.543.03.96.49.93 1.028a.981.981 0 0 1-.984.92z"/>
</svg>