<svg xmlns="http://www.w3.org/2000/svg" title="icon water" viewBox="0 0 80 80">
    <path d="M21.624 40.16c1.757-6.59 5.249-12.304 8.947-18.353.411-.672.824-1.347 1.236-2.027 4.27 6.677 8.214 13.085 10.31 20.4a10.631 10.631 0 0 1-4.155 11.67c-3.481 2.413-8.745 2.41-12.245-.006a10.405 10.405 0 0 1-1.934-1.73c-2.305-2.654-3.112-6.376-2.159-9.954m.649 11.266c.677.78 1.454 1.474 2.308 2.064 2.076 1.433 4.676 2.149 7.273 2.149 2.594 0 5.185-.715 7.248-2.145a12.63 12.63 0 0 0 4.937-13.865c-2.317-8.09-6.736-14.984-11.416-22.283-.186-.291-.532-.491-.857-.46a1 1 0 0 0-.843.486 410.363 410.363 0 0 1-2.059 3.392c-3.775 6.177-7.341 12.01-9.172 18.88-1.125 4.22-.16 8.624 2.581 11.782m33.056 22.68a39.782 39.782 0 0 1-15.256 3.045c-15.705 0-30.633-9.304-37.007-24.692-4.088-9.871-4.088-20.744 0-30.615C7.155 11.973 14.843 4.284 24.714.196a1 1 0 0 1 .765 1.848C16.102 5.928 8.798 13.23 4.914 22.609c-3.885 9.377-3.885 19.706 0 29.084 3.884 9.378 11.188 16.68 20.565 20.566 9.377 3.884 19.707 3.884 29.084 0 19.359-8.02 28.584-30.292 20.566-49.65C71.201 13.126 63.798 5.78 54.282 1.928a1 1 0 0 1 .75-1.854c10.017 4.056 17.81 11.787 21.945 21.77 8.44 20.377-1.271 43.82-21.648 52.262M30.451 48.135a1 1 0 0 1 1-1 4.536 4.536 0 0 0 4.53-4.531 1 1 0 0 1 2 0 6.538 6.538 0 0 1-6.53 6.53 1 1 0 0 1-1-1m20.196-15.14c.811-3.036 2.44-5.704 4.165-8.527l.15-.245c1.819 2.868 3.46 5.662 4.357 8.792a4.499 4.499 0 0 1-1.758 4.939c-1.45 1.003-3.728 1.004-5.189-.005-1.561-1.078-2.239-3.022-1.725-4.953m.589 6.6c1.085.748 2.412 1.123 3.739 1.123 1.324 0 2.648-.374 3.726-1.122a6.497 6.497 0 0 0 2.54-7.133c-1.117-3.902-3.226-7.192-5.46-10.674-.186-.291-.528-.44-.857-.46a1.001 1.001 0 0 0-.843.486c-.324.543-.651 1.077-.976 1.609-1.802 2.95-3.505 5.738-4.389 9.055-.736 2.759.254 5.552 2.52 7.116"/>
</svg>