
<svg xmlns="http://www.w3.org/2000/svg" viewBox="0 0 12 14">
    <path d="M9.8,0.3H4v0c-1.1,0-2.1,0.9-2.1,2.1v3.7c0,0.2,0,0.3,0.1,0.4H1.7c-0.9,0-1.6,0.7-1.6,1.6v5.1 c0,0.3,0.2,0.5,0.5,0.5c0,0,0,0,0,0c0,0,0,0,0,0c0.1,0,0.3,0,0.3-0.1l1.3-1.3h3.5c0.9,0,1.6-0.7,1.6-1.6V8.1H9l2,2 c0.1,0.1,0.2,0.1,0.3,0.1c0.1,0,0.1,0,0.2,0c0.2-0.1,0.3-0.3,0.3-0.5V2.4C11.9,1.2,11,0.3,9.8,0.3z M6.4,10.7c0,0.3-0.3,0.6-0.6,0.6 H2.1c-0.1,0-0.3,0.1-0.3,0.1l-0.7,0.7v-4c0-0.3,0.3-0.6,0.6-0.6h0.8C2.9,7.9,3.4,8.1,4,8.1h2.4V10.7z M10.9,8.6L9.6,7.3 C9.5,7.2,9.4,7.1,9.2,7.1H6.9c0,0,0,0,0,0s0,0,0,0H4c-0.6,0-1.1-0.5-1.1-1.1V2.4c0-0.6,0.5-1.1,1.1-1.1h5.9c0.6,0,1.1,0.5,1.1,1.1 V8.6z"/>
</svg>
