<svg xmlns="http://www.w3.org/2000/svg" viewBox="0 0 40 40"><path fill="#30354A" fill-rule="nonzero" d="M28.352 38.174l-.474.237-2.265-3.774a.404.404 0 0 1 .138-.554.406.406 0 0 1 .557.138l1.81 2.999.572-.332C34.975 33.645 39 27.108 39 20 39 9.523 30.477 1 20 1S1 9.522 1 20s8.523 19 19 19a.5.5 0 1 1 0 1C8.972 40 0 31.028 0 20S8.972 0 20 0s20 8.972 20 20c0 7.763-4.552 14.888-11.598 18.155a.492.492 0 0 1-.05.02zM22.931 7.581v1.762c.92.241 1.787.607 2.582 1.072l1.23-1.24c.28-.22.45-.194.692 0l3.028 3.018a.51.51 0 0 1 0 .704l-1.245 1.241c.47.814.822 1.707 1.06 2.635h1.753a.51.51 0 0 1 .492.49v4.29a.51.51 0 0 1-.492.49h-1.753c-.24.937-.595 1.812-1.06 2.62l1.245 1.241c.18.182.18.508 0 .69l-3.028 3.033a.51.51 0 0 1-.692 0l-1.245-1.256a9.86 9.86 0 0 1-2.567 1.088v1.777a.51.51 0 0 1-.492.49H18.18a.51.51 0 0 1-.477-.49v-1.762a9.83 9.83 0 0 1-2.582-1.088l-1.23 1.241a.514.514 0 0 1-.707 0l-3.013-3.033a.506.506 0 0 1 0-.69l1.23-1.256a10.555 10.555 0 0 1-1.06-2.604H8.589a.51.51 0 0 1-.492-.49v-4.29a.51.51 0 0 1 .492-.49h1.753c.23-.918.61-1.8 1.076-2.62l-1.246-1.272a.506.506 0 0 1 0-.69l3.013-3.018c.304-.25.49-.216.707 0l1.215 1.241a10.007 10.007 0 0 1 2.598-1.087V7.58a.51.51 0 0 1 .476-.49h4.35c.229 0 .404.262.4.49zm-.984.49h-3.274v1.64c-.015.383-.288.444-.507.505a9.11 9.11 0 0 0-2.69 1.134c-.287.176-.538.253-.784.03l-1.153-1.164-2.337 2.329 1.076 1.103c.279.333.263.483.092.797a9.58 9.58 0 0 0-1.137 2.803c-.08.328-.24.502-.523.506H9.081v3.31h1.63c.363.01.432.198.507.49a9.642 9.642 0 0 0 1.168 2.834c.167.327.142.532-.062.735l-1.106 1.134 2.32 2.329 1.061-1.058c.275-.277.421-.32.8-.107a8.866 8.866 0 0 0 2.751 1.165c.367.097.513.289.523.505v1.655h3.274v-1.563c-.006-.349.13-.51.492-.597a8.83 8.83 0 0 0 2.859-1.226c.252-.163.438-.094.661.092l1.137 1.134 2.322-2.33-1.184-1.164c-.221-.254-.138-.461-.015-.689a9.33 9.33 0 0 0 1.183-2.85c.08-.36.177-.478.492-.49h1.645v-3.31h-1.66a.513.513 0 0 1-.492-.566 9.573 9.573 0 0 0-1.153-2.773c-.154-.27-.19-.515 0-.705l1.184-1.164-2.322-2.329-1.03 1.027c-.345.325-.49.323-.83.138a9.284 9.284 0 0 0-2.89-1.165c-.318-.076-.388-.218-.4-.505l.001-1.64zm4.75 11.328c0 3.543-2.856 6.452-6.395 6.452-3.52 0-6.376-2.91-6.376-6.452 0-3.543 2.858-6.43 6.376-6.43 3.535 0 6.394 2.89 6.394 6.43zm-6.395-5.45c-2.98 0-5.392 2.43-5.392 5.45s2.414 5.47 5.392 5.47c3 0 5.41-2.452 5.41-5.47 0-3.02-2.409-5.45-5.41-5.45z" /></svg>