<svg xmlns="http://www.w3.org/2000/svg" title="icon connected power" viewBox="0 0 80 80">
    <path d="M77.48 46.24H58.5v7.177a1 1 0 0 1-1 1H24.954a1 1 0 0 1-1-1V46.24h-3.37v7.176a1 1 0 0 1-1 1H4.833C10.644 68.573 24.617 78 40 78c18.828 0 34.493-13.767 37.48-31.76zm-58.897-2v-1.573a1 1 0 1 1 2 0v1.572h3.371v-1.572a1 1 0 1 1 2 0v1.572h5.472V33.711a1 1 0 1 1 2 0V45.24a1 1 0 0 1-1 1l-6.472.001v6.177H56.5V46.24H46.426a1 1 0 0 1-1-1V33.711a1 1 0 1 1 2 0V44.24H56.5v-1.57a1 1 0 1 1 2 0v1.57h19.257C77.913 42.846 78 41.433 78 40 78 19.047 60.953 2 40 2 19.046 2 2 19.047 2 40c0 1.418.078 2.841.233 4.24h16.35zM80 40c0 22.055-17.945 40-40 40C23.363 80 8.291 69.527 2.495 53.94a.987.987 0 0 1 .434-1.19.99.99 0 0 1 .735-.334h14.92V46.24l-17.052.002a1.004 1.004 0 0 1-1.172-.85A40.448 40.448 0 0 1 0 40C0 17.944 17.944 0 40 0c22.055 0 40 17.944 40 40zm-23.292-6.193l.706-3.185a.163.163 0 0 0-.29-.132l-3.749 5.076a.163.163 0 0 0 .131.26h2.792l-.702 2.901a.162.162 0 1 0 .287.138l3.748-4.794a.163.163 0 0 0-.128-.264h-2.795zm9.718-1.096a1 1 0 0 0-1 1v8.528a1 1 0 1 0 2 0v-8.528a1 1 0 0 0-1-1zM42.68 34.473a.998.998 0 0 0 .691-.276l13.056-12.462 4.934 4.708a.999.999 0 0 0 1.69-.724v-1.867h1.75v5.446c0 .273.113.534.31.723l4.374 4.176a1 1 0 1 0 1.381-1.447L66.8 28.87v-6.018a1 1 0 0 0-1-1h-3.75a1 1 0 0 0-1 1v.532l-3.933-3.754a.998.998 0 0 0-1.38 0L41.988 32.75a1 1 0 0 0 .69 1.723zm-19.72-.666l.705-3.185a.163.163 0 0 0-.29-.132l-3.749 5.076a.163.163 0 0 0 .131.26h2.792l-.702 2.901a.162.162 0 1 0 .287.138l3.748-4.794a.163.163 0 0 0-.128-.264h-2.795zm-10.533-1.096a1 1 0 0 0-1 1v8.528a1 1 0 1 0 2 0v-8.528a1 1 0 0 0-1-1zm10-10.976L9.37 34.197a.998.998 0 0 1-1.414-.033 1 1 0 0 1 .033-1.414l13.747-13.12a.998.998 0 0 1 1.381 0l3.933 3.754v-.532a1 1 0 0 1 1-1h3.75a1 1 0 0 1 1 1v6.018l4.065 3.88a1.001 1.001 0 0 1-1.38 1.447l-4.375-4.176a1.003 1.003 0 0 1-.31-.723v-5.446h-1.75v1.867a1 1 0 1 1-1.69.724l-4.934-4.708z"/>
</svg>