<svg xmlns="http://www.w3.org/2000/svg" viewBox="0 0 25 22">
    <path d="M19.635 9.15l-.302 1.114-1.756-1.77.844-1.46 1.214 2.117zm-.426 10.217a5.433 5.433 0 0 1-7.717 0l-4.208-4.242 7.926-7.567 3.999 4.03c2.127 2.144 2.127 5.635 0 7.78zM2.612 2.637A5.4 5.4 0 0 1 6.47 1.025c1.458 0 2.828.573 3.859 1.612l4.162 4.196L6.565 14.4l-3.953-3.984C.485 8.27.485 4.78 2.612 2.636zm15.021 3.966l-.695 1.246-1.236-1.246h1.931zm6.908-.893h-1.69l.968-.975a.464.464 0 0 0 0-.63.454.454 0 0 0-.624 0L21.604 5.71h-2.428l1.213-2.117 2.167-.58c.229-.065.377-.313.31-.528a.44.44 0 0 0-.54-.314l-1.313.347.854-1.49a.459.459 0 0 0-.165-.61.428.428 0 0 0-.59.164l-.853 1.489-.361-1.323a.44.44 0 0 0-.542-.314.427.427 0 0 0-.312.53l.575 2.182-1.198 2.134-1.214-2.118.574-2.182c.065-.232-.082-.497-.311-.53a.435.435 0 0 0-.542.314l-.36 1.323-.854-1.489a.433.433 0 0 0-.59-.165c-.214.116-.28.397-.165.612l.853 1.489-1.33-.348a.448.448 0 0 0-.54.314.435.435 0 0 0 .31.53l2.2.563 1.214 2.117h-2.428l-1.576-1.605a.439.439 0 0 0-.506-.069l-2.108-2.124A6.404 6.404 0 0 0 6.47 0C4.741 0 3.116.68 1.893 1.912c-2.524 2.544-2.524 6.684 0 9.229l8.88 8.951A6.427 6.427 0 0 0 15.35 22a6.426 6.426 0 0 0 4.578-1.908c2.48-2.5 2.517-6.537.123-9.092l.207-.758.852 1.488a.432.432 0 0 0 .591.166.44.44 0 0 0 .165-.596l-.853-1.488 1.33.363a.45.45 0 0 0 .541-.314.453.453 0 0 0-.312-.546l-2.183-.595-1.213-2.117h2.428l1.576 1.604c.164.165.46.165.607 0a.431.431 0 0 0 0-.628l-.936-.976h1.707A.442.442 0 0 0 25 6.156a.467.467 0 0 0-.46-.446z"/>
</svg>
