<svg xmlns="http://www.w3.org/2000/svg" viewBox="0 0 80 80">
    <path d="M75.905 22.518C71.245 12.92 63.123 5.71 53.04 2.218 42.957-1.271 32.115-.626 22.518 4.036c-9.6 4.66-16.807 12.782-20.299 22.866-3.49 10.083-2.847 20.923 1.815 30.52 6.896 14.204 21.151 22.485 35.991 22.485a39.858 39.858 0 0 0 17.454-4.03c.222-.126 5.476-3.123 7.208-4.55a.974.974 0 1 0-1.241-1.505c-1.603 1.32-6.88 4.33-6.876 4.33C37.72 83.305 14.941 75.416 5.79 56.57 1.356 47.44.742 37.131 4.063 27.539 7.384 17.948 14.241 10.224 23.37 5.79 32.5 1.356 42.81.743 52.401 4.064 61.99 7.384 69.716 14.24 74.15 23.37c5.597 11.525 5.04 24.917-1.466 35.94H23.948a.975.975 0 1 0 0 1.95h49.289c.34 0 .655-.177.832-.468 7.117-11.678 7.803-25.986 1.836-38.274"/>
    <path d="M43.5 16.97l3.287 2.413-12.874 17.156a.895.895 0 0 0 .187 1.255.908.908 0 0 0 .54.177.903.903 0 0 0 .732-.364l12.871-17.153 3.35 2.46L38.72 40.07a.892.892 0 0 0 .188 1.256.907.907 0 0 0 .54.176.901.901 0 0 0 .729-.363L53.05 23.983l3.286 2.416L39.2 49.233l-11.273 4.302c-.398-1.55-1.851-1.972-2.674-2.107l1.104-11.614L43.5 16.97zM23.822 56.924l.083.003c.113 0 .222-.02.328-.06L40.1 50.813a.902.902 0 0 0 .4-.303l17.835-23.761c.299-.398.214-.961-.212-1.274l-14.27-11.297a.902.902 0 0 0-.539-.178.897.897 0 0 0-.723.354l-17.84 24.59a.916.916 0 0 0-.178.515l-1.569 16.49a.88.88 0 0 0 .207.657.904.904 0 0 0 .61.318z"/>
</svg>
