<svg xmlns="http://www.w3.org/2000/svg" viewBox="0 0 81 80" title="icon fire drill">
    <path d="M38.69 40.17c0-.828.673-1.5 1.5-1.5s1.5.672 1.5 1.5c0 .826-.673 1.5-1.5 1.5s-1.5-.674-1.5-1.5m5 0c0-1.93-1.57-3.5-3.5-3.5s-3.5 1.57-3.5 3.5 1.57 3.5 3.5 3.5 3.5-1.57 3.5-3.5m7.534-26.64a1 1 0 0 1 .765-1.847c7.844 3.25 13.86 9.396 16.937 17.31a1 1 0 0 1-1.863.725c-2.879-7.4-8.504-13.15-15.839-16.188m-1.21 2.926c6.482 2.686 11.472 7.761 14.05 14.29a.999.999 0 0 1-.93 1.367.997.997 0 0 1-.93-.632c-2.377-6.02-6.978-10.7-12.957-13.177a1 1 0 0 1 .766-1.848m-9.018 3.396a20.194 20.194 0 0 1 14.13 6.52 20.197 20.197 0 0 1 5.382 14.602 20.201 20.201 0 0 1-6.52 14.131 20.19 20.19 0 0 1-14.6 5.381.999.999 0 0 1-.96-1.038.99.99 0 0 1 1.038-.96c4.902.198 9.57-1.529 13.166-4.853a18.214 18.214 0 0 0 5.878-12.74c.4-10.102-7.492-18.645-17.593-19.045-4.899-.189-9.57 1.53-13.166 4.852a18.213 18.213 0 0 0-5.879 12.742c-.022.551-.474 1.022-1.039.96a.998.998 0 0 1-.959-1.04 20.2 20.2 0 0 1 6.52-14.13 20.194 20.194 0 0 1 14.602-5.382M12.646 66.033c-2.013-2.972-2.598-6.356-1.74-10.096.734-3.198 2.613-5.934 5.743-8.366 1.804-1.4 3.67-2.849 5.418-4.409 2.464-2.195 4.227-4.993 5.248-8.328 4.483 5.2 5.77 10.93 3.936 17.467a.999.999 0 0 0 1.29 1.216c1.18-.408 2.134-1.058 2.857-1.944.081.358.157.716.221 1.071.683 3.76.571 7.114-.342 10.256-.92 3.165-3.432 5.968-6.46 7.508a8.98 8.98 0 0 0 .78-1.29c1.213-2.449 1.36-5.063.435-7.77-.329-.968-.717-1.917-1.092-2.835l-.292-.714c-.895-2.219-1.106-4.313-.645-6.403.023-.105.038-.212.053-.36l.022-.19a.997.997 0 0 0-.992-1.125c-.13 0-.26.025-.384.076-2.419 1.006-4.334 2.65-5.856 5.03-.927 1.448-1.593 3.02-2.036 4.831-.22-.816-.155-1.745.178-2.86a1 1 0 0 0-1.583-1.066c-2.599 2.08-5.09 6.166-4.759 10.301m67.168-30.112c-1.09-10.63-6.254-20.197-14.54-26.94C56.985 2.233 46.568-.877 35.938.212 25.31 1.305 15.741 6.471 8.995 14.76.36 25.37-2.253 39.473 2.005 52.488a1 1 0 1 0 1.9-.621C-.14 39.501 2.343 26.101 10.546 16.022c6.41-7.874 15.5-12.782 25.598-13.819 10.1-1.034 19.995 1.921 27.867 8.327 7.872 6.408 12.777 15.497 13.812 25.595 1.035 10.098-1.924 19.995-8.332 27.87-13.229 16.253-37.214 18.718-53.465 5.491l-.006-.004c-2.464-3.334-1.329-7.366.69-10.128.137 1.197.664 2.472 1.95 3.68a.998.998 0 1 0 1.677-.604c.33-2.629 1.027-4.702 2.194-6.526.92-1.438 2.002-2.557 3.28-3.388-.177 1.98.15 3.966.983 6.032l.294.722c.364.89.741 1.812 1.052 2.723.756 2.215.646 4.255-.336 6.236-.777 1.566-2.004 2.68-3.75 3.405a1 1 0 0 0 .166 1.9 2.9 2.9 0 0 0 .628.073c.09 0 .18-.005.27-.015 5.374-.58 10.567-4.937 12.08-10.133 1.001-3.447 1.13-7.102.39-11.173a41.918 41.918 0 0 0-.533-2.394c-.085-.352-.17-.703-.252-1.056a1 1 0 0 0-.767-.754l-.193-.04a1 1 0 0 0-1.16.674c-.223.7-.538 1.274-.956 1.74 1.221-6.816-.797-12.812-6.128-18.268a1.005 1.005 0 0 0-.862-.29.996.996 0 0 0-.74.526l-.063.117a1.487 1.487 0 0 0-.135.304c-.059.2-.116.4-.169.6-.868 3.338-2.515 6.105-4.894 8.225-1.698 1.514-3.536 2.941-5.313 4.321-3.51 2.727-5.625 5.833-6.466 9.498-1.282 5.586.224 10.475 4.478 14.53.3.285.614.516.92.74l.362.27c.034.026.073.036.11.056 7.391 5.993 16.294 8.911 25.146 8.911 11.631 0 23.172-5.035 31.07-14.739 6.745-8.288 9.86-18.707 8.771-29.336"/>
</svg>