<svg xmlns="http://www.w3.org/2000/svg" title="icon pole to pole" viewBox="0 0 80 80">
    <path d="M77.974 41.073c-.595 20.945-18.238 37.51-39.258 36.91-12.451-.348-23.787-6.612-30.674-16.854h54.791c.555 0 1.005-.448 1.005-1 0-.553-.45-1-1.005-1h-1.927V28.646c3.104 2.596 6.25 3.886 9.964 4.09a1.003 1.003 0 0 0 1.058-.943 1 1 0 0 0-.947-1.053c-3.438-.19-6.246-1.38-9.146-3.917h3.425c.555 0 1.005-.448 1.005-1 0-.553-.45-1-1.005-1h-4.354v-2c0-.553-.45-1-1.005-1-.556 0-1.005.447-1.005 1v2h-3.685c-.556 0-1.005.447-1.005 1 0 .552.45 1 1.005 1h2.125c-4.848 4.258-11.01 6.59-17.534 6.59-6.525 0-12.686-2.332-17.535-6.59h2.796c.555 0 1.005-.448 1.005-1 0-.553-.45-1-1.005-1h-4.354v-2c0-.553-.45-1-1.005-1-.556 0-1.005.447-1.005 1v2h-3.685c-.555 0-1.005.447-1.005 1 0 .552.45 1 1.005 1h2.745c-4.362 3.83-9.796 6.114-15.566 6.522C5.466 14.872 21.874 1.447 40.872 2.017 51.07 2.303 60.546 6.524 67.554 13.9c7.007 7.377 10.708 17.027 10.42 27.172zm-57.265-12.95c5.25 4.712 11.971 7.29 19.093 7.29 7.121 0 13.843-2.578 19.094-7.29V59.13H20.709V28.124zm48.306-15.596C61.638 4.762 51.663.319 40.929.017 20.475-.568 2.909 14.162.002 34.256c-.007.046.008.089.008.135-.001.014-.007.025-.007.039 0 .018.01.034.012.052a.984.984 0 0 0 .063.282c.014.037.032.069.051.104.04.072.084.138.14.199.035.04.076.073.118.107a.949.949 0 0 0 .373.182c.033.008.059.028.093.033.02.003.038-.005.058-.003.033.003.062.019.096.019h.026a28.357 28.357 0 0 0 17.666-6.747v30.47H6.212c-.362 0-.696.195-.875.509a.997.997 0 0 0 .015 1.008c7.115 11.724 19.566 18.953 33.307 19.339.386.01.767.016 1.15.016 21.648-.001 39.56-17.206 40.175-38.87.303-10.68-3.593-20.838-10.97-28.603z"/>
</svg>