<svg xmlns="http://www.w3.org/2000/svg" viewBox="0 0 40 40"><path  d="M29.67 29.78c-.132.038-.27.058-.414.058H10.828c-.227 0-.441-.05-.634-.14l-.048.04-.094-.115a1.501 1.501 0 0 1-.726-1.287V15.121a.5.5 0 0 1 .94-.238l.617.5v-4.488c0-.983.831-1.78 1.857-1.78h13.93c1.026 0 1.857.797 1.857 1.78v5.018l1.265-.977a.5.5 0 0 1 .965.185v13.215c0 .347-.117.666-.314.92l4.287 3.535c.195.18.211.481.037.681-.738.846-3.088 2.756-3.187 2.838a19.949 19.949 0 0 1-12.27 3.677c-6.029-.21-11.89-3.128-15.635-8.414-6.376-8.999-4.243-21.508 4.754-27.885A19.854 19.854 0 0 1 23.354.291 19.863 19.863 0 0 1 36.31 8.443c3.954 5.58 4.787 12.703 2.229 19.056a.488.488 0 1 1-.906-.365c2.433-6.043 1.641-12.819-2.12-18.126A18.897 18.897 0 0 0 23.19 1.253 18.895 18.895 0 0 0 8.994 4.485C.436 10.55-1.593 22.448 4.471 31.008c6.064 8.56 17.961 10.588 26.519 4.523-.002 0 1.879-1.49 2.79-2.381l-4.11-3.37zm.086-13.723l-8.439 6.52-.138.107a2.072 2.072 0 0 1-2.678.007l-.152-.12-8.022-6.524v12.29c0 .042.005.083.015.122l8.006-6.559.548.67-7.65 6.267h17.19l-7.658-6.266.548-.67 8.29 6.783a.5.5 0 0 0 .14-.348v-12.28zm-17.872.141l7.006 5.697.153.121a1.214 1.214 0 0 0 1.594-.007l.142-.11 6.797-5.251-.05-.001v-5.752c0-.42-.374-.779-.856-.779H12.74c-.482 0-.856.358-.856.779v5.303zm7.925 3.663a4.422 4.422 0 1 1 0-8.845 4.422 4.422 0 0 1 0 8.845zm0-.835a3.588 3.588 0 1 0 0-7.176 3.588 3.588 0 0 0 0 7.176zm-.258-2.65l2.218-2.564a.37.37 0 1 1 .561.486l-2.762 3.193-1.796-1.957a.37.37 0 0 1 .546-.502l1.233 1.344z" /></svg>