<svg xmlns="http://www.w3.org/2000/svg" viewBox="0 0 80 80" title="icon tall building">
	<path d="M79.8,35.9C78.7,25.3,73.5,15.7,65.2,9C48.2-5,22.9-2.4,9,14.7C0.4,25.3-2.2,39.5,2,52.5c0.2,0.5,0.7,0.8,1.3,0.7v0 c0.5-0.2,0.8-0.7,0.6-1.2v0c-4-12.4-1.6-25.8,6.6-35.9C23.8-0.2,47.7-2.7,64,10.5c7.9,6.4,12.8,15.5,13.8,25.6 c1,10.1-1.9,20-8.3,27.9C56.7,79.7,34,82.5,17.8,70.8h29.1c0.6,0,1-0.5,1-1c0-0.6-0.4-1-1-1H36.2v-54h14v55c0,0.6,0.4,1,1,1 c0.5,0,1-0.4,1-1V13.8c0-0.5-0.4-1-1-1h-3V9.6c0-0.6-0.4-1-1-1h-8c-0.6,0-1,0.4-1,1v3.2h-3c-0.5,0-1,0.5-1,1v19h-3v-5.8 c0-0.5-0.4-1-1-1c-0.6,0-1,0.4-1,1v5.8h-4c-0.5,0-1,0.5-1,1v35h-9c-0.6,0-1,0.4-1,1c0,0.2,0.1,0.4,0.2,0.6c0,0.2,0.2,0.4,0.3,0.6 c7.4,6,16.3,9,25.2,9c11.6,0,23.2-5,31.1-14.7C77.8,57,80.9,46.5,79.8,35.9z M40.2,10.6h6v2h-6V10.6z M26.2,34.8h8v34h-8V34.8z M32.2,38.1h-4c-0.5,0-1,0.4-1,1c0,0.5,0.5,1,1,1h4c0.5,0,1-0.5,1-1C33.2,38.5,32.7,38.1,32.2,38.1z M32.2,42.1h-4c-0.5,0-1,0.4-1,1 c0,0.5,0.5,1,1,1h4c0.5,0,1-0.5,1-1C33.2,42.5,32.7,42.1,32.2,42.1z M32.2,46.1h-4c-0.5,0-1,0.5-1,1s0.5,1,1,1h4c0.5,0,1-0.5,1-1 S32.7,46.1,32.2,46.1z M32.2,50.1h-4c-0.5,0-1,0.5-1,1s0.5,1,1,1h4c0.5,0,1-0.5,1-1S32.7,50.1,32.2,50.1z M32.2,54.1h-4 c-0.5,0-1,0.5-1,1s0.5,1,1,1h4c0.5,0,1-0.5,1-1S32.7,54.1,32.2,54.1z M32.2,58.1h-4c-0.5,0-1,0.5-1,1c0,0.6,0.5,1,1,1h4 c0.5,0,1-0.4,1-1C33.2,58.5,32.7,58.1,32.2,58.1z M32.2,62.1h-4c-0.5,0-1,0.5-1,1c0,0.6,0.5,1,1,1h4c0.5,0,1-0.4,1-1 C33.2,62.5,32.7,62.1,32.2,62.1z M28.2,40.1h4c0.5,0,1-0.5,1-1c0-0.6-0.5-1-1-1h-4c-0.5,0-1,0.4-1,1C27.2,39.6,27.6,40.1,28.2,40.1z M32.2,42.1h-4c-0.5,0-1,0.4-1,1c0,0.5,0.5,1,1,1h4c0.5,0,1-0.5,1-1C33.2,42.5,32.7,42.1,32.2,42.1z M32.2,46.1h-4c-0.5,0-1,0.5-1,1 s0.5,1,1,1h4c0.5,0,1-0.5,1-1S32.7,46.1,32.2,46.1z M32.2,50.1h-4c-0.5,0-1,0.5-1,1s0.5,1,1,1h4c0.5,0,1-0.5,1-1 S32.7,50.1,32.2,50.1z M32.2,54.1h-4c-0.5,0-1,0.5-1,1s0.5,1,1,1h4c0.5,0,1-0.5,1-1S32.7,54.1,32.2,54.1z M32.2,58.1h-4 c-0.5,0-1,0.5-1,1c0,0.6,0.5,1,1,1h4c0.5,0,1-0.4,1-1C33.2,58.5,32.7,58.1,32.2,58.1z M32.2,62.1h-4c-0.5,0-1,0.5-1,1 c0,0.6,0.5,1,1,1h4c0.5,0,1-0.4,1-1C33.2,62.5,32.7,62.1,32.2,62.1z M47.2,17.3h-8c-0.6,0-1,0.5-1,1s0.4,1,1,1h8c0.6,0,1-0.5,1-1 S47.7,17.3,47.2,17.3z M47.2,21.3h-8c-0.6,0-1,0.5-1,1s0.4,1,1,1h8c0.6,0,1-0.5,1-1S47.7,21.3,47.2,21.3z M47.2,25.3h-8 c-0.6,0-1,0.5-1,1s0.4,1,1,1h8c0.6,0,1-0.5,1-1S47.7,25.3,47.2,25.3z M47.2,29.3h-8c-0.6,0-1,0.5-1,1c0,0.6,0.4,1,1,1h8 c0.6,0,1-0.4,1-1C48.2,29.8,47.7,29.3,47.2,29.3z M47.2,33.3h-8c-0.6,0-1,0.5-1,1c0,0.6,0.4,1,1,1h8c0.6,0,1-0.4,1-1 C48.2,33.8,47.7,33.3,47.2,33.3z M47.2,37.3h-8c-0.6,0-1,0.4-1,1c0,0.5,0.4,1,1,1h8c0.6,0,1-0.5,1-1C48.2,37.8,47.7,37.3,47.2,37.3z M47.2,41.3h-8c-0.6,0-1,0.4-1,1c0,0.5,0.4,1,1,1h8c0.6,0,1-0.5,1-1C48.2,41.8,47.7,41.3,47.2,41.3z M47.2,45.3h-8c-0.6,0-1,0.4-1,1 c0,0.5,0.4,1,1,1h8c0.6,0,1-0.5,1-1C48.2,45.8,47.7,45.3,47.2,45.3z M47.2,49.3h-8c-0.6,0-1,0.5-1,1s0.4,1,1,1h8c0.6,0,1-0.5,1-1 S47.7,49.3,47.2,49.3z M47.2,53.3h-8c-0.6,0-1,0.5-1,1s0.4,1,1,1h8c0.6,0,1-0.5,1-1S47.7,53.3,47.2,53.3z M32.2,38.1h-4 c-0.5,0-1,0.4-1,1c0,0.5,0.5,1,1,1h4c0.5,0,1-0.5,1-1C33.2,38.5,32.7,38.1,32.2,38.1z M32.2,42.1h-4c-0.5,0-1,0.4-1,1 c0,0.5,0.5,1,1,1h4c0.5,0,1-0.5,1-1C33.2,42.5,32.7,42.1,32.2,42.1z M32.2,46.1h-4c-0.5,0-1,0.5-1,1s0.5,1,1,1h4c0.5,0,1-0.5,1-1 S32.7,46.1,32.2,46.1z M32.2,50.1h-4c-0.5,0-1,0.5-1,1s0.5,1,1,1h4c0.5,0,1-0.5,1-1S32.7,50.1,32.2,50.1z M32.2,54.1h-4 c-0.5,0-1,0.5-1,1s0.5,1,1,1h4c0.5,0,1-0.5,1-1S32.7,54.1,32.2,54.1z M32.2,58.1h-4c-0.5,0-1,0.5-1,1c0,0.6,0.5,1,1,1h4 c0.5,0,1-0.4,1-1C33.2,58.5,32.7,58.1,32.2,58.1z M32.2,62.1h-4c-0.5,0-1,0.5-1,1c0,0.6,0.5,1,1,1h4c0.5,0,1-0.4,1-1 C33.2,62.5,32.7,62.1,32.2,62.1z M46,61h-2.8l0.7-3.2c0-0.1,0-0.1-0.1-0.2c-0.1,0-0.2,0-0.2,0l-3.7,5.1c0,0,0,0.1,0,0.1 c0,0.1,0.1,0.2,0.2,0.2h2.8l-0.7,2.9c0,0.1,0,0.2,0.1,0.2c0.1,0,0.1,0,0.2-0.1l3.8-4.8c0,0,0-0.1,0-0.1C46.2,61,46.1,61,46,61z"/>
</svg>