<svg xmlns="http://www.w3.org/2000/svg" viewBox="0 0 490 294">
  <path d="M414.2,114.5c9-8.8,14.6-21,14.6-34.5c0-26.6-21.6-48.2-48.2-48.2c-20.7,0-38.4,13.2-45.2,31.5 c-1.7-0.3-3.5-0.6-5.2-0.8c-0.1-33.8-27.6-61.3-61.4-61.3c-33.9,0-61.4,27.6-61.4,61.4c0,21.4,11,40.3,27.7,51.3 c-19.4,4.9-34.1,21.5-36.2,41.8c-7.8-5-16.9-8.4-26.6-9.4c0-0.5,0-0.9,0-1.4c13.6-8.5,22.6-23.6,22.6-40.8 c0-26.6-21.6-48.2-48.2-48.2c-20,0-37.2,12.3-44.5,29.7c-29.8,4.2-52.8,29.9-52.8,60.8c0,21.4,11,40.3,27.7,51.3 c-20.9,5.3-36.4,24.2-36.4,46.7c0,26.6,21.6,48.2,48.2,48.2c21,0,39-13.6,45.5-32.4c9.2,5.4,19.9,8.6,31.3,8.6 c33.9,0,61.4-27.6,61.4-61.4c0-1,0-1.9-0.1-2.8c6,2.7,12.7,4.2,19.7,4.2c21,0,39-13.6,45.5-32.4c9.2,5.4,19.9,8.6,31.3,8.6 c1.5,0,3-0.1,4.5-0.2c6.7,26.7,30.9,46.5,59.6,46.5c33.9,0,61.4-27.6,61.4-61.4C449.1,145.5,434.8,124.4,414.2,114.5z M380.7,32.8 c26,0,47.2,21.2,47.2,47.2c0,13.4-5.6,25.5-14.6,34.1c-7.8-3.6-16.4-5.6-25.5-5.6c-1.5,0-3,0.1-4.5,0.2 c-5.7-22.6-23.9-40.2-46.8-45.1C343.1,45.6,360.4,32.8,380.7,32.8z M380.7,127.1c-9.6,0-18.5-2.9-25.9-7.8 c8.1-5.3,17.5-8.7,27.7-9.6c1.1,4.5,1.6,9.1,1.6,13.9c0,1.1,0,2.2-0.1,3.4C382.9,127.1,381.8,127.1,380.7,127.1z M383.9,128 c-2.1,29.5-25.6,53.2-55,55.8c-1.1-4.5-1.6-9.1-1.6-13.9c0-20.8,10.5-39.1,26.5-50c7.7,5.2,16.9,8.2,26.8,8.2 C381.7,128.1,382.8,128.1,383.9,128z M353.8,118.7c-12.3-8.5-20.3-22.7-20.3-38.8c0-5.4,0.9-10.6,2.6-15.5 c22.5,4.8,40.4,22.1,46.1,44.3C371.8,109.7,362.1,113.2,353.8,118.7z M383.4,109.7c1.4-0.1,2.8-0.2,4.3-0.2c8.8,0,17.2,1.9,24.7,5.3 c-7.4,6.7-16.9,11.2-27.4,12.1c0.1-1.1,0.1-2.2,0.1-3.3C385.1,118.8,384.5,114.2,383.4,109.7z M237.7,114.5c3-0.6,6-0.9,9.2-0.9 c5.5,0,10.9,1,15.8,2.7c-0.3,2.1-0.4,4.3-0.4,6.5C253.3,121.8,245,118.9,237.7,114.5z M268.8,123.1c-1.9,0-3.7-0.1-5.6-0.3 c0-2.1,0.2-4.2,0.4-6.2c4,1.5,7.8,3.6,11.3,6.2C272.9,123,270.9,123.1,268.8,123.1z M276,123.7c11,8.6,18,22,18,37 c0,5-0.8,9.7-2.2,14.2c-17.1-10.6-28.5-29.6-28.6-51.1c1.8,0.2,3.7,0.3,5.6,0.3C271.2,124.1,273.6,124,276,123.7z M263.8,115.6 c3.9-29.6,29.3-52.4,59.9-52.4c1.9,0,3.7,0.1,5.6,0.3c-0.4,30.4-23.4,55.5-52.9,59.2C272.5,119.7,268.3,117.3,263.8,115.6z M208.4,62.7c0-33.3,27.1-60.4,60.4-60.4c33.2,0,60.3,27,60.4,60.2c-1.8-0.2-3.7-0.3-5.6-0.3c-31,0-56.8,23.1-60.8,53.1 c-5-1.8-10.3-2.7-15.9-2.7c-3.6,0-7,0.4-10.4,1.1C219.6,103,208.4,84.1,208.4,62.7z M146.8,57.1c26,0,47.2,21.2,47.2,47.2 c0,16.6-8.6,31.2-21.6,39.6c-1.4-32.6-28.4-58.7-61.4-58.7c-2.5,0-5,0.2-7.5,0.5C110.7,68.8,127.4,57.1,146.8,57.1z M111,207 c-1.9,0-3.7-0.1-5.6-0.3c0-2.1,0.2-4.2,0.4-6.2c4,1.5,7.8,3.6,11.3,6.2C115,206.9,113,207,111,207z M118.2,207.5c11,8.6,18,22,18,37 c0,5-0.8,9.7-2.2,14.2c-17.1-10.6-28.5-29.6-28.6-51.1c1.8,0.2,3.7,0.3,5.6,0.3C113.4,208,115.8,207.8,118.2,207.5z M105.9,199.5 c2.8-21.3,16.7-39.1,35.7-47.4c1.7,0.2,3.4,0.3,5.2,0.3c7.9,0,15.3-1.9,21.9-5.3c0.9,0,1.8,0.1,2.7,0.2 c-0.4,30.4-23.4,55.5-52.9,59.2C114.7,203.6,110.5,201.2,105.9,199.5z M143.6,151.3c6.9-2.7,14.3-4.2,22.2-4.2c0.2,0,0.5,0,0.7,0 c-6,2.8-12.7,4.3-19.7,4.3C145.7,151.4,144.7,151.3,143.6,151.3z M170.3,146.2c0.3-0.2,0.7-0.4,1-0.6c0,0.2,0,0.5,0,0.7 C171,146.3,170.7,146.3,170.3,146.2z M103.1,86.7c2.6-0.3,5.2-0.5,7.9-0.5c32.6,0,59.3,26,60.4,58.4c-0.9,0.6-1.9,1.1-2.9,1.6 c-0.9,0-1.8-0.1-2.6-0.1c-8.6,0-16.9,1.8-24.3,5c-23.5-2.7-41.8-22.6-41.8-46.8C99.6,98,100.9,92.1,103.1,86.7z M50.5,146.5 c0-30.2,22.3-55.4,51.4-59.7c-2.1,5.4-3.3,11.3-3.3,17.4c0,24.1,17.9,44.2,41.1,47.6c-18.5,8.7-31.9,26.3-34.8,47.3 c-5-1.8-10.3-2.7-15.9-2.7c-3.6,0-7.1,0.4-10.4,1.1C61.7,186.8,50.5,168,50.5,146.5z M104.8,200.1c-0.3,2.1-0.4,4.3-0.4,6.5 c-8.9-1-17.2-3.9-24.5-8.3c3-0.6,6-0.9,9.2-0.9C94.6,197.4,99.9,198.4,104.8,200.1z M89,291.7c-26,0-47.2-21.2-47.2-47.2 c0-22.4,15.7-41.1,36.6-45.9c7.7,4.8,16.5,8,25.9,9c0.1,22,11.8,41.4,29.3,52.2C127.3,278.3,109.7,291.7,89,291.7z M226.2,207.5 c0,33.3-27.1,60.4-60.4,60.4c-11.3,0-21.9-3.1-30.9-8.5c1.5-4.7,2.3-9.6,2.3-14.8h0c0-15-6.9-28.4-17.6-37.2 c29.5-4.2,52.4-29.4,52.8-59.9c9.7,1.1,18.7,4.4,26.5,9.5c-0.1,1.2-0.2,2.5-0.2,3.8c0,19.1,11.2,35.7,27.4,43.4 C226.2,205.3,226.2,206.4,226.2,207.5z M199.8,157.6c14.8,10.1,24.8,26.6,26.2,45.4c-15.6-7.7-26.3-23.8-26.3-42.3 C199.7,159.7,199.8,158.6,199.8,157.6z M246.9,207.9c-7.1,0-13.8-1.6-19.8-4.4c-1.3-19.6-11.7-36.7-27.1-47 c1.8-20.5,16.8-37.2,36.4-41.7c7.7,4.8,16.5,8,25.9,9c0.1,22,11.8,41.4,29.3,52.2C285.1,194.5,267.5,207.9,246.9,207.9z M323.6,184 c-11.3,0-21.9-3.1-30.9-8.5c1.5-4.7,2.3-9.6,2.3-14.8c0-15-6.9-28.4-17.6-37.2c29.5-4.2,52.4-29.4,52.8-59.9 c1.7,0.2,3.3,0.4,4.9,0.7c-1.7,4.9-2.6,10.2-2.6,15.7c0,16.2,8.1,30.6,20.5,39.4c-16.1,11.1-26.7,29.6-26.7,50.6 c0,4.8,0.6,9.5,1.6,14C326.5,184,325.1,184,323.6,184z M387.7,230.4c-28.2,0-51.9-19.4-58.6-45.6c29.9-2.7,53.7-26.8,55.8-56.9 c11-1,20.9-5.6,28.5-12.7c20.5,9.7,34.7,30.5,34.7,54.7C448.1,203.2,421,230.4,387.7,230.4z"/>
</svg>