<svg xmlns="http://www.w3.org/2000/svg" title="icon house underground cable" viewBox="0 0 80 80">
    <path d="M68.276 11.711C60.72 4.158 50.68.001 40 .001h-.011c-10.685.001-20.73 4.165-28.281 11.724C4.155 19.283-.002 29.332 0 40.018.004 50.703 4.167 60.75 11.723 68.303 19.278 75.856 29.319 80.014 40 80.014a.983.983 0 0 0 1.01-1V57.047h14.74l.005-.002.004.002a1 1 0 0 0 1-1v-15.13a1 1 0 1 0-2 0v14.13h-13.75v-2.965a1 1 0 1 0-2 0v2.965H25.76v-14.13a1 1 0 1 0-2 0v15.13a1 1 0 0 0 1 1h14.25v20.955c-9.774-.248-18.928-4.172-25.872-11.113C5.959 59.713 2.004 50.17 2 40.02c-.003-10.154 3.946-19.7 11.122-26.88C20.297 5.96 29.839 2.002 39.989 2h.01c10.147 0 19.686 3.951 26.863 11.125C74.042 20.301 77.997 29.846 78 39.996c.004 12.996-6.527 24.957-17.468 31.998a1 1 0 1 0 1.082 1.682c11.516-7.41 18.39-20 18.386-33.68-.003-10.685-4.166-20.732-11.724-28.285M38.713 48.725a.266.266 0 0 0 .27-.095l6.128-7.837a.267.267 0 0 0-.21-.43h-4.57l1.154-5.207a.266.266 0 0 0-.203-.317.265.265 0 0 0-.272.101l-6.126 8.297a.266.266 0 0 0 .214.424h4.564l-1.147 4.743a.267.267 0 0 0 .198.321M53.43 34.121V25.2h-3.772v3.414a1 1 0 0 1-1.691.725L40 21.734 19.525 41.275a.998.998 0 0 1-1.414-.033 1 1 0 0 1 .033-1.414L39.309 19.63a1 1 0 0 1 1.38 0l6.969 6.648V24.2a1 1 0 0 1 1-1h5.772a1 1 0 0 1 1 1v9.494l6.425 6.133a1 1 0 0 1-1.381 1.447l-6.734-6.427a1.008 1.008 0 0 1-.31-.725"/>
</svg>