<svg xmlns="http://www.w3.org/2000/svg" viewBox="0 0 80 80">
    <path d="M59.829 55.973a.995.995 0 0 1-.024.022l-4.916 4.316c-.617.531-1.559.782-2.731.782-5.217 0-15.019-4.956-21.282-12.226-3.14-3.647-6.037-8.952-7.749-14.19-1.073-3.285-2.502-9.112-.021-11.247l5.61-4.834c.343-.294.764-.43 1.186-.376.426.051.805.288 1.07.665l6.296 8.981c.576.823.427 2.021-.328 2.67l-3.544 3.053c-1.177 1.014-1.575 2.896-.908 4.284.114.27.382.882.938 1.854a27.517 27.517 0 0 0 3.06 4.306 27.504 27.504 0 0 0 3.808 3.666c.884.697 1.454 1.056 1.659 1.178 1.323.88 3.239.761 4.404-.243l3.545-3.051c.756-.652 1.963-.619 2.688.072l4.919 4.676c.391.37.407.988.035 1.378a.974.974 0 0 1-1.38.036l-4.92-4.677c-.006.001-.065-.003-.09.008l-3.524 3.037c-1.822 1.571-4.711 1.749-6.718.415-.255-.151-.888-.556-1.825-1.297a29.46 29.46 0 0 1-4.08-3.925 29.59 29.59 0 0 1-3.276-4.61c-.59-1.032-.894-1.713-1.024-2.028-1.025-2.128-.426-4.97 1.415-6.558l3.545-3.053c-.004-.004.003-.062-.007-.086l-6.023-8.591-5.258 4.528c-.929.8-1.102 3.943.603 9.162 1.635 5.007 4.391 10.062 7.372 13.523C39.08 55.4 51.357 60.777 53.608 58.838l4.91-4.31a.997.997 0 0 1 .034-.029c.468-.4 5.578-4.663 10.539-5.445 4.93-.78 8.597 1.425 8.75 1.519.38.232.554.69.424 1.116C73.158 68.439 57.478 80 39.993 80.002a40.033 40.033 0 0 1-19.824-5.255A40.215 40.215 0 0 1 5.676 60.551a39.889 39.889 0 0 1-5.67-21.22C.184 28.65 4.512 18.677 12.192 11.249 19.873 3.819 29.976-.187 40.668.007 62.262.369 79.906 18.225 80 39.813a.977.977 0 0 1-.972.98h-.004a.976.976 0 0 1-.975-.974C77.96 19.288 61.177 2.301 40.636 1.958c-10.15-.176-19.78 3.627-27.087 10.693C6.244 19.716 2.127 29.203 1.957 39.365a37.937 37.937 0 0 0 5.392 20.181 38.254 38.254 0 0 0 13.788 13.508 38.077 38.077 0 0 0 18.856 4.997c16.362 0 31.058-10.638 36.16-26.151-1.156-.519-3.69-1.402-6.758-.92-4.36.688-9.124 4.622-9.566 4.993z"/>
</svg>
