<svg xmlns="http://www.w3.org/2000/svg" viewBox="0 0 80 80">
    <path d="M25.387 36.906a.977.977 0 1 1-1.953 0 .977.977 0 0 1 1.953 0m-3.905 0a2.932 2.932 0 0 0 2.929 2.928 2.932 2.932 0 0 0 2.929-2.928 2.932 2.932 0 0 0-2.929-2.929 2.932 2.932 0 0 0-2.929 2.929M46.669 40.42c2.12 1.957 4.002 4.155 6.374 5.86-4.695 2.429-10.714 3.274-15.665 2.868 2.376-4.286 2.305-9.584.708-14.178 3.222 1.17 5.973 3.168 8.583 5.45m-11.96 9.778c.002.365.193.691.636.766 6.638.976 14.253 0 20.11-3.71.585-.39.585-1.367 0-1.757-4.102-2.148-6.638-6.443-10.35-9.176-2.538-1.953-5.467-3.32-8.395-4.1-.78-.196-1.365.78-1.17 1.366 2.343 4.881 2.734 11.129-.783 15.62-.158.372-.15.708-.048.991"/>
    <path d="M31.09 27.182c1.713-2.642 4.919-4.15 8.001-4.603-.411 1.645-.77 3.241-1.235 4.936-.021.07-.011.127-.02.192a24.2 24.2 0 0 0-6.746-.525M40.588.005C18.54-.383.398 17.37.006 39.417c-.39 22.049 17.364 40.194 39.413 40.584h.584c17.305 0 32.695-11.195 37.993-27.393.62-.388.745-1.578-.14-1.873-7.612-2.148-14.83-4.684-20.684-10.145-1.407-1.286-2.757-2.603-4.119-3.893.008-.004.016-.004.024-.01 3.182-2.427 6.368-4.953 9.552-7.431-.722 2.006-1.366 4.087-1.748 6.259-.392 3.124 1.169 5.463 3.12 7.609.782.976 2.34-.39 1.365-1.366-.975-.975-1.95-1.95-2.34-3.317-.78-1.754-.194-3.511.39-5.072.585-2.342 1.367-4.486 2.343-6.634.39-.975-.976-1.366-1.561-.975-4.1 3.123-8.195 6.438-12.294 9.56-.08.047-.119.1-.178.148-2.579-2.353-5.287-4.515-8.602-6.001a26.739 26.739 0 0 0-3.379-1.259c.018-.039.049-.062.062-.107.588-2.144.976-4.095 1.563-6.244.193-.585-.197-1.17-.975-1.17-4.49.195-9.367 2.146-11.318 6.438a.645.645 0 0 0-.12.287c-6.877 1.048-13.226 4.983-18.025 10.834a.945.945 0 0 0 0 1.368c4.877 6.243 12.291 11.121 20.29 11.51.342-.067.557-.356.65-.693 3.081-3.319 3.81-8.21 2.863-12.38-.194-1.364-2.145-.975-1.951.39.745 3.536.224 7.59-2.193 10.497-5.479-.316-10.4-2.983-14.391-6.594-.976-.976-1.952-2.147-2.927-2.927a2.036 2.036 0 0 1-.42-.562c6.289-6.374 13.188-11.484 22.664-9.779 8.78 1.561 14.24 7.414 20.486 13.072 5.703 5.155 12.63 8.04 19.948 10.154-5.192 15.386-19.7 25.748-35.948 25.748h-.584C18.736 77.853 1.957 60.879 1.957 40.197c-.195-21.07 16.779-38.24 37.85-38.24 21.074-.196 38.241 16.779 38.241 37.85 0 .586.392.976.976.976.585 0 .975-.39.975-.976C80 18.152 62.44.396 40.588.005"/>
</svg>
