<svg xmlns="http://www.w3.org/2000/svg" viewBox="0 0 81 81">
    <path d="M40.734 80.19c10.709-.17 20.711-4.5 28.163-12.195 15.381-15.88 14.976-41.317-.904-56.7C60.457 3.997 50.578 0 40.111 0c-.218 0-.437.002-.656.004C28.746.175 18.744 4.506 11.294 12.2-1.299 25.198-3.622 45.116 5.644 60.635A.999.999 0 1 0 7.36 59.61C-1.442 44.866.766 25.942 12.73 13.59 19.809 6.282 29.312 2.167 39.487 2.004c10.134-.167 19.804 3.648 27.115 10.728 15.088 14.615 15.472 38.782.858 53.872-7.08 7.31-16.583 11.425-26.758 11.587-10.191.122-19.805-3.647-27.115-10.729a1 1 0 0 0-1.392 1.438c7.537 7.3 17.415 11.296 27.882 11.296.219 0 .438-.002.657-.006m15.32-21.59H25.128a1 1 0 0 1-.807-1.59l14.773-20.158c.862-1.175 1.463-2.464 1.463-3.137 0-1.012-.31-2.175-2.727-2.175-2.45 0-5.872 1.015-7.848 1.971a1.002 1.002 0 0 1-1.385-.584l-3.451-10.354a1 1 0 0 1 .539-1.229c3.737-1.677 9.753-2.849 14.63-2.849 10.243 0 16.118 4.818 16.118 13.218 0 2.897-1.403 6.04-4.169 9.341l-3.925 4.64h7.715a1 1 0 1 1 0 2h-9.871a1 1 0 0 1-.763-1.647l5.314-6.28c2.453-2.93 3.699-5.64 3.699-8.054 0-7.339-4.882-11.218-14.118-11.218-4.203 0-9.477.96-12.978 2.326l2.81 8.431c2.233-.91 5.301-1.712 7.683-1.712 3.004 0 4.727 1.522 4.727 4.175 0 1.667-1.416 3.728-1.85 4.32L27.1 56.6h28.954a1 1 0 1 1 0 2" />
</svg>
