<svg xmlns="http://www.w3.org/2000/svg" title="icon sockets" viewBox="0 0 80 80">
    <path d="M43.128 36.792l5.525-.016a.664.664 0 0 1 .666.662l.008 2.77a.664.664 0 0 1-.662.665l-5.525.016a.664.664 0 0 1-.666-.662l-.008-2.769a.664.664 0 0 1 .662-.666zm-1.88-10.43l.015 5.463-2.46.007-.015-5.463 2.46-.007zm-3.952 6.989c.314.312.73.483 1.17.483h.008l3.131-.01a1.652 1.652 0 0 0 1.175-.49c.313-.314.485-.734.484-1.179l-.018-6.135a1.665 1.665 0 0 0-1.664-1.66h-.005l-3.131.01a1.666 1.666 0 0 0-1.659 1.669l.018 6.135c.001.445.176.863.491 1.177zm.058 7.555l-5.635.017a.665.665 0 0 1-.666-.663l-.008-2.834a.664.664 0 0 1 .662-.666l5.635-.017a.665.665 0 0 1 .666.663l.008 2.833a.664.664 0 0 1-.662.667zm42.645-2.302a1 1 0 0 1-1.997.072c-.47-13.005-7.42-24.73-18.596-31.362C41.383-3.381 18.024 2.581 7.334 20.603 2.154 29.334.687 39.56 3.197 49.398 5.71 59.234 11.9 67.504 20.63 72.686c17.732 10.523 40.628 4.922 51.544-12.423-1.888-.89-7.037-2.318-14.427 3.368-4.174 3.21-8.714 4.132-12.458 2.527a1 1 0 0 1 .789-1.838c3.058 1.31 6.866.482 10.45-2.276 10.509-8.083 17.348-3.15 17.633-2.937a1 1 0 0 1 .262 1.312C66.957 73 53.624 79.999 39.957 80a39.742 39.742 0 0 1-20.347-5.592C10.42 68.953 3.904 60.247 1.26 49.892-1.383 39.537.164 28.773 5.614 19.582 16.868.612 41.455-5.664 60.426 5.594c11.763 6.982 19.08 19.322 19.573 33.01zm-52.897 7.923H52.85v-25.75H27.102v25.75zM42.1 53.169h-1.94c-.01 0-.02-.01-.04-.01-.01 0-.03.01-.04.01h-1.83v-4.642h3.85v4.642zM53.85 18.776H26.102c-.55 0-1 .45-1 1v27.75c0 .551.45 1.001 1 1.001H36.25v5.642c0 .55.45 1 1 1h1.84c-.016 0 .064 1.165.076 1.28.037.357.09.713.162 1.066.19.921.553 1.77.924 2.63.169.392.496.677.938.677.628 0 1.112-.616.986-1.229-.06-.293-.242-.575-.362-.848a9.635 9.635 0 0 1-.32-.815 7.947 7.947 0 0 1-.372-1.963 15.175 15.175 0 0 1-.032-.797h2.01c.56 0 1-.45 1-1v-5.643h9.749c.549 0 1-.45 1-1v-27.75c0-.55-.451-1-1-1zm-11.73 40.635c0 .01.011.02.011.031h.01c0-.01-.01-.02-.02-.03z"/>
</svg>