<svg xmlns="http://www.w3.org/2000/svg" viewBox="0 0 80 80">
    <path d="M34.731 45.074c.195 2.341-1.56 4.292-3.902 4.292s-4.293-1.951-4.293-4.292c0-.976.195-1.757.78-2.537l3.318-4.488 3.317 4.488c.585.78.78 1.561.78 2.537zm-3.902-9.366c-.195 0-.585.195-.585.39l-4.098 5.463c-.78.976-1.17 2.147-1.17 3.513 0 3.317 2.73 5.853 5.853 5.853 3.317 0 5.854-2.731 5.854-5.853 0-1.173-.39-2.537-1.171-3.513l-4.098-5.463c-.195-.195-.39-.39-.585-.39zm-1.366-19.512h4.098c.585 0 .975-.39.975-.976 0-.585-.39-.976-.975-.976h-3.513v-2.341h19.708v2.341H38.244c-1.171 0-1.171.976-1.171.976 0 .585.39.976.975.976h11.317l-7.804 8.78-19.708-.195 7.61-8.585zM56 24.976H44.292l6.246-7.024L56 24.976zm1.17 5.073l-14.437-.195v-3.122H57.17v3.317zM40 0C17.95 0 0 17.952 0 40c0 22.05 17.95 39.998 40 39.998 9.756 0 19.319-3.705 26.731-10.34a.942.942 0 0 0 0-1.367.946.946 0 0 0-1.366 0C52.097 79.998 32.39 81.171 17.951 70.83.78 58.732-3.122 34.927 8.975 17.756 21.073.586 44.878-3.317 62.048 8.781c16.976 12.097 21.074 35.512 9.171 52.68H23.414c-1.56 0-2.927-1.363-2.927-2.926v-1.754h16.39c.586 0 .976-.39.976-.976 0-.585-.39-.975-.975-.975H20.487l.196-23.025h16.195c.585 0 .975-.39.975-.975 0-.586-.39-.976-.975-.976H20.683v-3.317l20.097.195-.195 29.852s0 .975.976.975c.585 0 .975-.388.975-.975l.197-24.974 14.437.195v3.122c0 .39.39.78.976.78.39 0 .78-.39.78-.975V25.561a.42.42 0 0 0-.39-.39l-6.83-8.78v-5.464c0-.585-.39-.975-.975-.975H29.073c-.586 0-.976.39-.976.975v3.903l-8.975 10.146c-.196.195-.39.39-.39.78l-.196 32.779v.197c.195 2.537 2.147 4.681 4.878 4.681h48.588c.388 0 .583-.193.778-.583C77.463 56.196 80 48.196 80 40 80 17.952 62.048 0 40 0zm32.78 36.683c0 .78-.195 1.561-.585 1.756-.39.196-1.169 0-2.342-.39-1.754-.78-3.705.195-4.488.78 0-1.17.196-1.755 0-2.34l2.537-1.757a1.48 1.48 0 0 0 .39-.976s-.39-1.95.976-2.536c.782-.195 1.56 0 1.758.585.388.586 0 1.171-.392 1.366-.39.585-.39.976-.39 1.366.195.585.782.585 1.17.585.588 0 1.366 0 1.366 1.561zm-8.39 4.683c-1.366 1.171-2.145 4.293-2.732 7.61-.388 1.951-.975 4.098-1.364 5.073-1.172 2.147-8.78 2.732-11.707 1.366-.392-.195-.783-.585-.783-.976-.39-1.365.783-3.512 1.171-4.097l1.563-1.951c.193-.195.193-.39.193-.588 0-.193-.193-.388-.39-.583-.195-.195-.39-.195-.585-.195-.193 0-.39.195-.586.39l-.583.585c-.197-1.365-.197-3.317.976-4.878 1.559-1.95 8.193-4.097 11.9-4.878 0 0 .195 0 .195-.195.195-.195.976-.585 1.951-.975 0 .585-.195 1.17-.195 1.95 0 .391.195.781.586.976.39.196.78.586.78.78 0 .196 0 .391-.39.586zm8-10.341c-.78-1.366-2.537-1.756-3.903-1.366-1.756.585-2.146 2.341-2.146 3.902l-1.951 1.561c-.193 0-.586 0-.78.195-.976.39-2.147 1.171-2.537 1.366-1.171.39-10.535 2.537-12.878 5.464-2.147 2.73-1.56 6.439-1.171 7.608-.585.782-1.756 3.319-1.17 5.27.194.975.782 1.559 1.757 1.951 1.17.583 3.12.78 5.267.78 3.317 0 7.416-.78 8.78-2.926.587-1.173 1.17-3.317 1.563-5.659.583-2.536 1.364-5.854 2.144-6.634.783-.78 1.171-1.561.976-2.341 0-.196 0-.39-.193-.586.778-.39 1.951-.975 2.73-.585 1.756.78 2.926.975 3.902.39s1.366-1.561 1.366-3.122c.39-1.756-.585-2.537-1.561-2.732.392-.78.392-1.756-.195-2.536z"/>
</svg>
