<svg xmlns="http://www.w3.org/2000/svg" title="icon application" viewBox="0 0 80 80">
    <path d="M54 19.32a1.15 1.15 0 0 1 1.157-1.142c.64 0 1.157.512 1.157 1.142a1.15 1.15 0 0 1-1.157 1.143A1.15 1.15 0 0 1 54 19.32m-4.627 0a1.15 1.15 0 0 1 1.156-1.142c.64 0 1.158.512 1.158 1.142a1.15 1.15 0 0 1-1.158 1.143 1.15 1.15 0 0 1-1.156-1.143m-4.626 0a1.15 1.15 0 0 1 1.156-1.142 1.15 1.15 0 0 1 1.157 1.142 1.15 1.15 0 0 1-1.157 1.143 1.15 1.15 0 0 1-1.156-1.143M52.1 44.83c0 6.594-5.433 11.958-12.109 11.958S27.883 51.424 27.883 44.83c0-6.593 5.433-11.958 12.109-11.958s12.109 5.365 12.109 11.958m-26.218 0c0 7.684 6.33 13.933 14.109 13.933 7.78 0 14.109-6.25 14.109-13.933 0-7.682-6.329-13.933-14.109-13.933s-14.109 6.25-14.109 13.933m20.05 0c0 3.235-2.665 5.867-5.941 5.867-3.275 0-5.94-2.632-5.94-5.867 0-3.234 2.665-5.865 5.94-5.865 3.276 0 5.94 2.631 5.94 5.865m-13.88 0c0 4.324 3.562 7.842 7.94 7.842s7.94-3.518 7.94-7.842c0-4.323-3.562-7.84-7.94-7.84s-7.94 3.517-7.94 7.84m-9.41-29.472h34.7c.724 0 1.314.583 1.314 1.297v7.39H21.328v-7.39c0-.714.59-1.297 1.314-1.297m49.698.913C66.058 7.74 56.786 2.137 46.235.491c-10.553-1.644-21.12.869-29.758 7.073C7.837 13.769 2.163 22.924.498 33.345c-1.666 10.42.878 20.856 7.16 29.387 6.284 8.53 15.556 14.134 26.107 15.778 2.105.329 4.211.49 6.299.49 11.31 0 22.13-4.726 29.819-13.247.27-.299.33-.728.153-1.089l-.23-.467a1.003 1.003 0 0 0-.9-.556H22.642a1.306 1.306 0 0 1-1.314-1.296V26.019h37.328v32.097c0 .546.447.988 1 .988.552 0 1-.442 1-.988v-41.46c0-1.805-1.488-3.273-3.314-3.273h-34.7c-1.826 0-3.313 1.468-3.313 3.272v45.69c0 1.804 1.487 3.271 3.313 3.271h44.64c-8.62 8.781-20.91 12.863-33.205 10.944-10.024-1.563-18.832-6.886-24.802-14.99C3.308 53.467.891 43.551 2.473 33.652c1.583-9.898 6.972-18.596 15.179-24.491S35.903.883 45.922 2.443c10.024 1.562 18.832 6.885 24.802 14.99 5.968 8.104 8.385 18.018 6.803 27.918a.988.988 0 0 0 .831 1.128.994.994 0 0 0 1.144-.821c1.666-10.42-.878-20.856-7.162-29.387"/>
</svg>