<svg xmlns="http://www.w3.org/2000/svg" width="32" height="32" viewBox="0 0 32 32">
    <circle cx="16" cy="16" r="16" />
    <path fill="#F2F2F2" d="M26 9.924a8.182 8.182 0 0 1-2.356.646 4.112 4.112 0 0 0 1.804-2.27 8.203 8.203 0 0 1-2.606.995 4.103 4.103 0 0 0-6.992 3.742A11.648 11.648 0 0 1 7.392 8.75a4.094 4.094 0 0 0-.555 2.064 4.1 4.1 0 0 0 1.825 3.415 4.088 4.088 0 0 1-1.858-.513v.051a4.104 4.104 0 0 0 3.291 4.024 4.007 4.007 0 0 1-1.081.144 4.03 4.03 0 0 1-.772-.073 4.103 4.103 0 0 0 3.833 2.849 8.231 8.231 0 0 1-5.096 1.756c-.332 0-.659-.018-.979-.056a11.625 11.625 0 0 0 6.29 1.842c7.548 0 11.674-6.252 11.674-11.674 0-.179-.004-.356-.011-.53A8.313 8.313 0 0 0 26 9.923"/>
</svg>
