<svg xmlns="http://www.w3.org/2000/svg" viewBox="0 0 80 80" title="icon meterboard 2">
	<path d="M40,0L40,0C17.9,0,0,18,0,40c0,10.7,4.2,20.7,11.7,28.3C19.3,75.8,29.3,80,40,80h0c0.5,0,1-0.5,1-1V64.2h20.3 c0.5,0,1-0.5,1-1V30.5h14.5c0.8,3.1,1.2,6.3,1.2,9.5c0,13-6.5,25-17.5,32c-0.5,0.3-0.6,0.9-0.3,1.4c0.3,0.5,0.9,0.6,1.4,0.3 C73.1,66.2,80,53.7,80,40C80,17.9,62,0,40,0z M34.5,57.2V44.7h10.9v12.5H34.5z M39,33.1h2v9.6h-2V33.1z M28.5,31.1v-7.6h23v7.6H28.5 z M60.3,62.2H41v-3h5.5c0.6,0,1-0.5,1-1V43.7c0-0.5-0.4-1-1-1H43v-9.6h9.5c0.5,0,1-0.4,1-1v-1.7c0.1,0.1,0.3,0.1,0.4,0.1h6.4V62.2z M60.3,28.5h-6.4c-0.1,0-0.3,0-0.4,0.1v-1.9h6.8V28.5z M60.3,24.7h-6.8v-2.3c0-0.6-0.5-1-1-1h-25c-0.5,0-1,0.4-1,1v9.6 c0,0.6,0.5,1,1,1H37v9.6h-3.5c-0.6,0-1,0.5-1,1v14.5c0,0.5,0.4,1,1,1H39v3H19.7V17.8h40.7V24.7z M61.3,15.8H18.7c-0.5,0-1,0.5-1,1 v46.4c0,0.5,0.5,1,1,1H39V78C18.5,77.5,2,60.6,2,40c0-21,17-38,38-38h0c10.2,0,19.7,4,26.9,11.1c3.4,3.3,6,7.3,8,11.6H62.3v-7.9 C62.3,16.3,61.9,15.8,61.3,15.8z M62.3,28.5v-1.8h13.3c0.2,0.6,0.4,1.2,0.6,1.8H62.3z M42.3,50.3h-1.4c0,0-0.1,0-0.1,0 c-0.2-0.1-0.2-0.3-0.1-0.4l1.1-2.1c0.1-0.2,0-0.5-0.3-0.5h-1.6c-0.1,0-0.2,0.1-0.3,0.2l-2.2,4.2c0,0,0,0.1,0,0.1 c0,0.2,0.1,0.3,0.3,0.3H39c0,0,0.1,0,0.1,0c0.2,0,0.3,0.2,0.2,0.4l-0.6,2.3C38.6,55,39,55.3,39.2,55l3.4-4.2 C42.7,50.6,42.6,50.3,42.3,50.3z M42.3,50.3h-1.4c0,0-0.1,0-0.1,0c-0.2-0.1-0.2-0.3-0.1-0.4l1.1-2.1c0.1-0.2,0-0.5-0.3-0.5h-1.6 c-0.1,0-0.2,0.1-0.3,0.2l-2.2,4.2c0,0,0,0.1,0,0.1c0,0.2,0.1,0.3,0.3,0.3H39c0,0,0.1,0,0.1,0c0.2,0,0.3,0.2,0.2,0.4l-0.6,2.3 C38.6,55,39,55.3,39.2,55l3.4-4.2C42.7,50.6,42.6,50.3,42.3,50.3z M42.3,50.3h-1.4c0,0-0.1,0-0.1,0c-0.2-0.1-0.2-0.3-0.1-0.4 l1.1-2.1c0.1-0.2,0-0.5-0.3-0.5h-1.6c-0.1,0-0.2,0.1-0.3,0.2l-2.2,4.2c0,0,0,0.1,0,0.1c0,0.2,0.1,0.3,0.3,0.3H39c0,0,0.1,0,0.1,0 c0.2,0,0.3,0.2,0.2,0.4l-0.6,2.3C38.6,55,39,55.3,39.2,55l3.4-4.2C42.7,50.6,42.6,50.3,42.3,50.3z"/>
</svg>