<svg xmlns="http://www.w3.org/2000/svg" viewBox="0 0 82 82">
    <path d="M46.8 49.497V46.7h-7.22c.604-1 1.205-2.401 1.205-3.798v-1.4h3.807v-2.199h-4.01c-.198-.6-.198-1.199-.198-1.999 0-1.399 1.002-2.199 2.805-2.199 1.205 0 2.004.4 2.608.6L47 33.105c-.804-.6-2.205-.8-4.01-.8-3.608 0-5.814 2-5.814 5.198 0 .8.4 1.4.602 2.2h-2.005V41.9h2.606v1.4c0 2.398-1.403 4.597-3.207 6.396 0 0 11.627 0 11.627-.2m-.519-34.275a1.087 1.087 0 0 0-.902-1.245 28.05 28.05 0 0 0-4.393-.348c-.601 0-1.088.486-1.088 1.085 0 .598.487 1.086 1.088 1.086 1.354 0 2.717.108 4.048.322a1.087 1.087 0 0 0 1.247-.9m-16.792 3.342c1.2-.617 2.462-1.139 3.745-1.553a1.085 1.085 0 1 0-.67-2.065 27.241 27.241 0 0 0-4.071 1.687 1.085 1.085 0 1 0 .996 1.931m28.165 2.07a1.08 1.08 0 0 0-.214-1.52 27.466 27.466 0 0 0-3.723-2.357 1.09 1.09 0 0 0-1.47.454 1.085 1.085 0 0 0 .455 1.467 25.234 25.234 0 0 1 3.429 2.17c.196.147.425.217.653.217.331 0 .658-.148.87-.432m-37.269 5.838a25.363 25.363 0 0 1 2.594-3.113 1.08 1.08 0 0 0-.018-1.533 1.087 1.087 0 0 0-1.537.018 27.081 27.081 0 0 0-2.82 3.378 1.082 1.082 0 0 0 .264 1.512 1.09 1.09 0 0 0 1.518-.262M65.2 30.695c.542-.256.774-.902.52-1.444a27.321 27.321 0 0 0-2.202-3.81 1.09 1.09 0 0 0-1.794 1.233 24.934 24.934 0 0 1 2.025 3.503 1.087 1.087 0 0 0 1.451.518m-49.185 6.988c.17-1.337.453-2.669.836-3.958a1.084 1.084 0 0 0-.732-1.35 1.09 1.09 0 0 0-1.355.732 27.272 27.272 0 0 0-.91 4.302 1.087 1.087 0 0 0 1.08 1.222c.541 0 1.009-.4 1.08-.948m52.294 4.382a26.92 26.92 0 0 0-.162-4.39 1.093 1.093 0 0 0-1.208-.951c-.597.07-1.024.61-.954 1.203.116.992.175 1.991.173 2.975 0 .358-.008.717-.02 1.071-.026.6.439 1.106 1.04 1.132h.046c.582 0 1.063-.456 1.085-1.04M16.737 51.04c.564-.21.85-.834.642-1.398a24.956 24.956 0 0 1-1.1-3.892 1.088 1.088 0 0 0-2.136.418c.28 1.436.684 2.86 1.195 4.232a1.088 1.088 0 0 0 1.4.64M64.63 54.62c.74-1.265 1.381-2.6 1.907-3.97a1.083 1.083 0 0 0-.628-1.401 1.09 1.09 0 0 0-1.405.623 25.088 25.088 0 0 1-1.755 3.655 1.084 1.084 0 0 0 .939 1.63c.375 0 .74-.193.942-.537M24.26 61.12a1.08 1.08 0 0 0-.083-1.531 24.978 24.978 0 0 1-2.792-2.937 1.095 1.095 0 0 0-1.532-.164 1.086 1.086 0 0 0-.164 1.527 27.663 27.663 0 0 0 3.033 3.189 1.092 1.092 0 0 0 1.537-.084m31.251 2.895a27.06 27.06 0 0 0 3.533-2.631 1.079 1.079 0 0 0 .098-1.53 1.088 1.088 0 0 0-1.534-.097 25.454 25.454 0 0 1-3.252 2.418 1.083 1.083 0 0 0 .58 2.006c.194 0 .395-.054.575-.166m-19.891 2.55a1.085 1.085 0 0 0-.79-1.317 25.606 25.606 0 0 1-3.845-1.301 1.085 1.085 0 1 0-.863 1.99 27.376 27.376 0 0 0 4.176 1.416 1.088 1.088 0 0 0 1.321-.788m7.436 1.532a27.118 27.118 0 0 0 4.357-.68c.585-.138.942-.726.802-1.307a1.082 1.082 0 0 0-1.311-.802c-1.314.314-2.66.526-4.008.626a1.085 1.085 0 0 0 .078 2.167c.026 0 .054-.002.082-.004m17.693-27.195c0 10.864-8.866 19.704-19.762 19.704s-19.76-8.84-19.76-19.704c0-10.865 8.864-19.705 19.76-19.705s19.762 8.84 19.762 19.705m2.177 0c0-12.062-9.842-21.876-21.939-21.876-12.096 0-21.938 9.814-21.938 21.876 0 12.06 9.842 21.875 21.938 21.875 12.097 0 21.939-9.815 21.939-21.875M.288 35.904C3.095 13.314 23.542-2.478 45.998.321 68.45 3.12 84.488 23.71 81.68 46.1c-2.805 22.39-23.456 38.382-45.908 35.583-8.42-1-16.44-4.598-22.654-10.397-.2-.398-.604-1.197 0-1.397.399-.2 1.203-.602 1.401 0C30.56 84.48 55.42 83.48 69.854 67.287c14.433-16.19 13.633-40.778-2.608-55.172-16.237-14.393-40.697-13.593-55.13 2.6C-.113 28.107-1.518 48.097 8.708 63.09c.602.6.602 1.197 0 1.4-.4.2-1.205.4-1.403-.203C1.69 55.895-.915 45.7.288 35.904"/>
</svg>
