<svg xmlns="http://www.w3.org/2000/svg" viewBox="0 0 80 80">
    <g>
        <path d="M27.796 45.589a3.454 3.454 0 0 1 3.45 3.45 3.456 3.456 0 0 1-3.45 3.454 3.457 3.457 0 0 1-3.454-3.454c0-1.903 1.55-3.45 3.454-3.45m25.161-.039a3.493 3.493 0 0 1 3.49 3.49 3.495 3.495 0 0 1-3.49 3.492 3.497 3.497 0 0 1-3.494-3.493 3.496 3.496 0 0 1 3.494-3.489m25.464-13.228c-1.949-10.397-7.828-19.414-16.558-25.39-8.73-5.974-19.261-8.19-29.66-6.244-17.568 3.29-30.81 18.018-32.2 35.815a.988.988 0 0 0 .908 1.062.975.975 0 0 0 1.061-.908C3.292 19.75 15.875 5.755 32.568 2.63c9.88-1.847 19.885.257 28.179 5.933 8.294 5.677 13.881 14.245 15.732 24.124 3.818 20.392-9.665 40.09-30.057 43.911-9.879 1.85-19.888-.257-28.182-5.933-8.043-5.507-13.54-13.73-15.553-23.233 1.514-.378 4.743-1.016 7.123-.315.722.214 1.523.619 2.45 1.088 2.291 1.161 5.43 2.751 10.246 2.751.072 0 .134-.026.202-.04a5.431 5.431 0 0 0 5.088 3.553c2.317 0 4.294-1.464 5.07-3.514h14.652c.107 0 .205-.03.3-.06a5.474 5.474 0 0 0 5.14 3.612 5.473 5.473 0 0 0 5.464-5.468 5.471 5.471 0 0 0-5.465-5.464 5.472 5.472 0 0 0-5.467 5.405H33.22a5.431 5.431 0 0 0-5.423-5.367c-2.972 0-5.391 2.4-5.426 5.362-4.263-.03-7.01-1.414-9.217-2.532-1.014-.513-1.889-.957-2.786-1.22-3.771-1.111-8.91.49-9.127.558a.988.988 0 0 0-.673 1.124c1.948 10.397 7.828 19.414 16.558 25.39 6.665 4.562 14.38 6.934 22.284 6.933 2.45 0 4.918-.228 7.377-.69 21.462-4.02 35.654-24.753 31.635-46.216"/>
        <path d="M37.42 32H24.987a.987.987 0 1 0 0 1.975h12.431a.987.987 0 1 0 0-1.975M37.42 37H24.987a.987.987 0 1 0 0 1.975h12.431a.987.987 0 1 0 0-1.975"/>
        <path d="M52.157 25.913l8.601 9.52H45.615V24.976h4.108c.926 0 1.83.36 2.434.938m-7.53 11.496h17.889c.337.517 1.013 1.938 1.013 5a.987.987 0 1 0 1.976 0c0-4.637-1.432-6.314-1.822-6.683L53.575 24.54A5.592 5.592 0 0 0 49.723 23H22.467C19.452 23 17 25.377 17 28.3v17.257a.988.988 0 0 0 1.975 0V28.301c0-1.833 1.567-3.326 3.492-3.326H43.64v11.446c0 .545.442.988.988.988"/>
    </g>
</svg>
