<svg xmlns="http://www.w3.org/2000/svg" title="icon powerline warning" viewBox="0 0 80 80">
    <path d="M77.974 41.073C77.39 61.655 60.375 78 39.808 78c-.361 0-.727-.005-1.092-.016-12.451-.349-23.787-6.613-30.674-16.855h54.791c.555 0 1.005-.448 1.005-1 0-.553-.45-1-1.005-1h-1.927V28.646c3.104 2.596 6.25 3.886 9.964 4.091l.056.002a1 1 0 0 0 .055-1.999c-3.439-.19-6.246-1.379-9.146-3.917h3.426c.555 0 1.005-.448 1.005-1 0-.553-.45-1-1.005-1h-4.355v-2c0-.553-.45-1-1.005-1-.556 0-1.005.447-1.005 1v2h-3.684c-.556 0-1.005.447-1.005 1 0 .552.45 1 1.005 1h2.124c-4.847 4.258-11.009 6.59-17.534 6.59-6.525 0-12.685-2.332-17.535-6.59h2.797c.555 0 1.005-.448 1.005-1 0-.553-.45-1-1.005-1h-4.355v-2c0-.553-.45-1-1.005-1-.556 0-1.005.447-1.005 1v2h-3.684c-.556 0-1.005.447-1.005 1 0 .552.449 1 1.005 1h2.743c-4.361 3.831-9.795 6.114-15.564 6.522C5.466 14.872 21.854 1.447 40.873 2.017c10.198.286 19.674 4.507 26.681 11.884 7.007 7.377 10.708 17.027 10.42 27.172zm-57.265-12.95c5.248 4.712 11.971 7.29 19.093 7.29s13.843-2.578 19.094-7.289V59.13H20.709V28.123zm48.306-15.596C61.638 4.762 51.665.32 40.93.017 20.526-.573 2.908 14.162.002 34.257c-.007.045.008.088.008.134 0 .014-.007.025-.007.04 0 .017.01.033.012.052a.97.97 0 0 0 .063.28c.015.038.033.071.051.105.04.073.084.138.14.2.036.04.076.071.118.106a.935.935 0 0 0 .373.181c.033.01.06.03.094.034.02.003.038-.005.058-.003.035.003.063.02.096.02h.025a28.353 28.353 0 0 0 17.666-6.748V59.13H6.213c-.362 0-.697.194-.875.508a.997.997 0 0 0 .014 1.008c7.115 11.724 19.566 18.953 33.307 19.34.386.01.768.015 1.15.015 21.648 0 39.56-17.206 40.175-38.87.303-10.68-3.593-20.838-10.97-28.603zM40.27 49.837v.128c0 .552-.45 1-1.005 1a1.003 1.003 0 0 1-1.005-1v-.129c0-.553.45-1 1.005-1 .555 0 1.005.447 1.005 1zm-1.005-5.97c.555 0 1.005.447 1.005 1v2.13c0 .552-.45 1-1.005 1a1.002 1.002 0 0 1-1.005-1v-2.13c0-.553.45-1 1.005-1zm-7.471 8.01l7.45-11.64 7.474 11.64H31.794zm17.606.461l-9.311-14.5a1.007 1.007 0 0 0-.847-.462h-.001c-.344 0-.663.175-.848.463l-9.278 14.5a.995.995 0 0 0-.033 1.018c.175.32.513.52.881.52h18.591c.367 0 .705-.2.882-.52a.995.995 0 0 0-.036-1.019z"/>
</svg>