<svg xmlns="http://www.w3.org/2000/svg" viewBox="0 0 80 79">
    <path d="M24.689 28.205a6.223 6.223 0 0 1-6.216 6.215 6.223 6.223 0 0 1-6.215-6.215 6.223 6.223 0 0 1 6.215-6.216 6.223 6.223 0 0 1 6.216 6.216m1.951 0c0-4.504-3.663-8.167-8.167-8.167-4.503 0-8.166 3.663-8.166 8.167 0 4.503 3.663 8.166 8.166 8.166 4.504 0 8.167-3.663 8.167-8.166m40.977 0A6.222 6.222 0 0 1 61.4 34.42a6.223 6.223 0 0 1-6.215-6.215 6.223 6.223 0 0 1 6.215-6.216 6.222 6.222 0 0 1 6.216 6.216m1.951 0c0-4.504-3.663-8.167-8.167-8.167-4.502 0-8.167 3.663-8.167 8.167 0 4.503 3.665 8.166 8.167 8.166 4.504 0 8.167-3.663 8.167-8.166m-21.907-5.411c0 4.258-3.465 7.724-7.723 7.724-4.259 0-7.724-3.466-7.724-7.724 0-4.259 3.465-7.723 7.724-7.723 4.258 0 7.723 3.464 7.723 7.723m1.95 0c0-5.335-4.339-9.674-9.673-9.674-5.335 0-9.675 4.34-9.675 9.674s4.34 9.675 9.675 9.675c5.334 0 9.674-4.34 9.674-9.675m23.92 39.692l2.23-3.923c3.118-6.313 4.507-13.407 4.014-20.518C78.409 18.315 62.5 2.41 42.769 1.048 31.557.284 20.871 4.052 12.693 11.687 4.627 19.215 0 29.859 0 40.888a40.052 40.052 0 0 0 4.69 18.797l1.66 2.808a.98.98 0 0 0 1.098.445.977.977 0 0 0 .718-.941v-5.774c0-7.975 6.488-14.462 14.462-14.462a.976.976 0 0 0 0-1.952c-9.05 0-16.413 7.362-16.413 16.414v2.169A38.077 38.077 0 0 1 1.95 40.888c0-10.49 4.4-20.613 12.073-27.775 7.78-7.26 17.943-10.86 28.611-10.117C61.4 4.29 76.53 19.416 77.83 38.18c.47 6.766-.85 13.516-3.79 19.468l-.378.665v-2.09c0-9.052-7.363-16.414-16.414-16.414a.975.975 0 1 0 0 1.952c7.975 0 14.462 6.487 14.462 14.462v5.78a.974.974 0 0 0 1.824.483M26.44 78.48a.975.975 0 0 1-.975-.976V48.88c0-7.98 6.492-14.472 14.472-14.472 7.98 0 14.471 6.492 14.471 14.472v28.57a.976.976 0 0 1-1.951 0v-28.57c0-6.905-5.617-12.521-12.52-12.521-6.904 0-12.521 5.616-12.521 12.52v28.626c0 .54-.436.976-.976.976"/>
</svg>
