<svg xmlns="http://www.w3.org/2000/svg" viewBox="0 0 80 80">
    <path d="M22 40.439c0 9.619 7.826 17.443 17.444 17.443 9.62 0 17.446-7.824 17.446-17.443a17.442 17.442 0 0 0-9.087-15.322.952.952 0 1 0-.912 1.672 15.539 15.539 0 0 1 8.095 13.65c0 8.568-6.973 15.539-15.542 15.539-8.569 0-15.54-6.97-15.54-15.54A15.539 15.539 0 0 1 32 26.79a.951.951 0 0 0 .38-1.291.951.951 0 0 0-1.291-.381A17.442 17.442 0 0 0 22 40.439"/>
    <path d="M78.14 29.945C73.748 12.587 58.191.273 40.31 0h-.014a.95.95 0 0 0-.376.079c-.08-.022-.158-.05-.246-.05a.952.952 0 0 0-.952.953v36.72a.953.953 0 0 0 1.905 0V1.917C57.503 2.33 72.14 14 76.293 30.411c2.476 9.782.994 19.941-4.171 28.606-5.166 8.666-13.397 14.801-23.176 17.276-20.192 5.113-40.773-7.16-45.882-27.35-5.108-20.19 7.16-40.772 27.35-45.881a.952.952 0 1 0-.468-1.847C8.74 6.583-4.15 28.203 1.216 49.41c4.545 17.957 20.737 29.948 38.469 29.947a39.67 39.67 0 0 0 9.727-1.217c10.274-2.6 18.92-9.045 24.345-18.147 5.427-9.103 6.982-19.774 4.383-30.048"/>
</svg>
