<svg xmlns="http://www.w3.org/2000/svg" viewBox="0 0 30 27">
    <path d="M28.3,9.3L28.3,9.3c-0.3-0.5-0.7-0.8-1.2-1c1.7-0.6,2.9-2.2,2.9-4C30,1.9,28.1,0,25.8,0c-2.3,0-4.2,1.9-4.2,4.2 c0,1.7,1,3.2,2.5,3.9c-0.3,0.1-0.6,0.3-0.9,0.5c-0.8,0.6-1.1,1.5-1.2,2.1h-5.9c-1,0-1.8,0.3-2.3,0.9c-0.7,0.8-0.7,1.8-0.7,2.1l0,0.1 H0v6C0,23.8,3.2,27,7.1,27h15.8c3.9,0,7.1-3.2,7.1-7.1v-6h-1.1C29.1,12.7,29.2,10.7,28.3,9.3z M22.8,4.2c0-1.7,1.3-3,3-3 c1.7,0,3,1.3,3,3c0,1.7-1.3,3-3,3C24.1,7.2,22.8,5.9,22.8,4.2z M14.3,13.7L14.3,13.7c0,0,0-0.8,0.4-1.2c0.3-0.3,0.8-0.5,1.4-0.5h7 l0-0.6c0,0,0.1-1.1,0.8-1.8c0.5-0.4,1.1-0.5,1.9-0.4c0.6,0.1,1,0.4,1.3,0.8c0.7,1,0.5,2.8,0.4,3.8H14.3L14.3,13.7L14.3,13.7z M28.8,19.9c0,3.2-2.6,5.9-5.8,5.9h0H7.1c-3.2,0-5.8-2.6-5.8-5.9v-1.8h27.5V19.9z M28.8,16.8H1.2v-1.7h11.6h0h15.9V16.8z"/>
    <path d="M5,0C3.9,0,3,0.9,3,2s0.9,2,2,2c1.1,0,2-0.9,2-2S6.1,0,5,0z M5.1,2.6C5,2.6,5,2.6,5.1,2.6C4.7,2.6,4.4,2.3,4.4,2 c0-0.3,0.3-0.6,0.6-0.6c0.3,0,0.6,0.2,0.7,0.6C5.7,2.3,5.4,2.6,5.1,2.6z"/>
    <path d="M8.5,3C7.1,3,6,4.1,6,5.5C6,6.9,7.1,8,8.5,8S11,6.9,11,5.5S9.9,3,8.5,3z M8.4,6.8c-0.7,0-1.3-0.6-1.3-1.3 c0-0.8,0.6-1.4,1.4-1.4s1.4,0.6,1.4,1.4C9.8,6.3,9.2,6.9,8.4,6.8z"/>
    <path d="M6,9c-1.1,0-2,0.9-2,2s0.9,2,2,2c1.1,0,2-0.9,2-2S7.1,9,6,9z M5.9,11.8c-0.4,0-0.7-0.4-0.8-0.8c0-0.5,0.4-0.8,0.9-0.8 c0.4,0,0.7,0.4,0.8,0.8C6.8,11.5,6.4,11.8,5.9,11.8z"/>
</svg>
