<svg xmlns="http://www.w3.org/2000/svg" title="icon vehicle under cable" viewBox="0 0 80 80">
    <path d="M35.447 48.668v-3.666c0-.553.45-1 1.005-1 .556 0 1.005.447 1.005 1v3.666c0 .553-.449 1-1.005 1a1.002 1.002 0 0 1-1.005-1zm-3.014 0v-3.666c0-.553.449-1 1.004-1 .556 0 1.005.447 1.005 1v3.666c0 .553-.449 1-1.005 1a1.002 1.002 0 0 1-1.004-1zm-3.015 0v-3.666c0-.553.449-1 1.005-1 .555 0 1.005.447 1.005 1v3.666c0 .553-.45 1-1.005 1a1.002 1.002 0 0 1-1.005-1zm-3.015 0v-3.666c0-.553.45-1 1.005-1 .556 0 1.005.447 1.005 1v3.666c0 .553-.45 1-1.005 1a1.002 1.002 0 0 1-1.005-1zm51.57-7.594C77.38 62.02 59.81 78.605 38.716 77.985c-12.45-.349-23.787-6.613-30.673-16.855h54.791c.556 0 1.005-.447 1.005-1 0-.553-.45-1-1.005-1h-1.927V28.646c3.105 2.597 6.251 3.886 9.964 4.091l.057.002c.529 0 .972-.412 1.002-.945a1 1 0 0 0-.948-1.053c-3.439-.19-6.246-1.38-9.145-3.918h3.425c.556 0 1.005-.447 1.005-1 0-.553-.45-1-1.005-1h-4.355v-2c0-.553-.45-1-1.005-1-.556 0-1.005.447-1.005 1v2h-3.684c-.556 0-1.005.447-1.005 1 0 .553.449 1 1.005 1h2.124c-4.848 4.26-11.01 6.591-17.534 6.591-6.524 0-12.686-2.332-17.534-6.59h2.795c.556 0 1.005-.448 1.005-1 0-.554-.449-1-1.005-1h-4.355v-2c0-.554-.45-1-1.005-1-.556 0-1.005.446-1.005 1v2h-3.684c-.556 0-1.005.446-1.005 1 0 .552.45 1 1.005 1h2.743c-4.36 3.83-9.795 6.114-15.564 6.522C5.466 14.873 21.887 1.447 40.873 2.017c10.198.286 19.675 4.507 26.681 11.884 7.008 7.377 10.708 17.027 10.42 27.173zm-56.227 16.24h.336c.258 0 .5-.07.73-.17.156.096.33.17.526.17h7.351c.136.68.447 1.292.867 1.816H20.88a4.216 4.216 0 0 0 .867-1.817zm-1.926-.83a2.27 2.27 0 0 1-2.273 2.263 2.27 2.27 0 0 1-2.272-2.263 2.269 2.269 0 0 1 2.272-2.26 2.269 2.269 0 0 1 2.273 2.26zm-7.478-2.17v-3.942c0-.21.027-.449.072-.699h5.048c.555 0 1.005-.447 1.005-1v-5.61h2.85c.556 0 1.006.448 1.006 1v10.25c0 .62-.243.967-.241 1h-.437a4.272 4.272 0 0 0-4.098-3.09 4.272 4.272 0 0 0-4.097 3.09h-.663c-.11 0-.445-.355-.445-1zm3.239-10.045c.196-.269.515-.524.876-.73v4.134h-3.334c.068-.12.137-.233.209-.329l2.249-3.075zm21.58 12.215a2.27 2.27 0 0 1-2.273 2.263 2.27 2.27 0 0 1-2.273-2.263 2.269 2.269 0 0 1 4.528-.185c0 .005-.003.01-.003.014 0 .013.007.026.007.04.003.044.014.086.014.131zm1.783-1.307a4.273 4.273 0 0 0-2.333-2.588l2.333.002v2.586zm-14.611.136V52.55h1.64c.052.008.098.03.152.03l7.045.007a4.272 4.272 0 0 0-2.38 2.727h-6.457zm-3.625-27.189c5.25 4.711 11.972 7.29 19.094 7.29 7.122 0 13.843-2.579 19.094-7.289V59.13H38.219a4.216 4.216 0 0 0 .867-1.817h.851a1.02 1.02 0 0 0 1.016-1.01v-3.709l1.002.001h.001c.407 0 .774-.244.929-.619l2.798-6.748a.998.998 0 0 0-.092-.933l-2.055-3.093a1.007 1.007 0 0 0-.793-.448l-12.842-.572.002-1.833c.001-.552-.448-1-1.004-1l-6.285-.008c-.554 0-1.005.448-1.006 1 0 .551.45 1 1.005 1l5.28.006-.003 1.791c0 .535.423.975.96 1l13.291.593 1.48 2.225-2.337 5.638-1.131-.002c-.073-.016-.14-.043-.216-.043H24.333v-6.486a3.01 3.01 0 0 0-3.015-3h-.61V28.123zm48.307-15.597C61.638 4.762 51.665.32 40.929.017 20.52-.573 2.907 14.163.002 34.257c-.007.046.007.09.007.135-.001.013-.007.025-.007.038 0 .02.01.035.012.053a.979.979 0 0 0 .064.281c.014.037.033.07.05.105a.98.98 0 0 0 .423.413c.066.034.135.055.208.074.034.008.06.028.094.033.021.003.038-.005.06-.003.033.003.06.02.094.02h.026a28.341 28.341 0 0 0 17.665-6.748v12.404h-.736c-1.438 0-3.16.873-4.006 2.03l-2.25 3.074c-.771 1.055-1.374 2.902-1.374 4.206v3.941c0 1.682 1.078 3 2.455 3h.562c.136.681.447 1.293.867 1.817H6.213c-.362 0-.697.194-.876.51a.995.995 0 0 0 .015 1.007C12.467 72.37 24.918 79.6 38.658 79.985c.386.011.769.016 1.152.016 21.647 0 39.558-17.206 40.174-38.87.303-10.68-3.593-20.838-10.97-28.604z"/>
</svg>