<svg xmlns="http://www.w3.org/2000/svg" title="icon window" viewBox="0 0 80 80">
    <path d="M40.597 54.488h8.724V40.886h-8.724v13.602zm-10.724 0h8.725V40.886h-8.725v13.602zm0-15.602h8.724V25.283h-8.725v13.603zm10.724 0h8.724V25.283h-8.724v13.603zM28.873 23.283h21.448a1 1 0 0 1 1 1v31.205a1 1 0 0 1-1 1H28.873a1 1 0 0 1-1-1V24.283a1 1 0 0 1 1-1zm31.553-17.69c11.764 6.982 19.08 19.32 19.573 33.01a.998.998 0 0 1-.963 1.035 1.002 1.002 0 0 1-1.034-.964c-.47-13.004-7.42-24.727-18.596-31.36C41.383-3.38 18.024 2.582 7.333 20.605 2.155 29.333.686 39.56 3.198 49.395c2.51 9.838 8.702 18.109 17.432 23.288C38.313 83.18 61.127 77.628 72.077 60.39H25.95a.977.977 0 0 1-.489-.144.964.964 0 0 1-.487.144 1 1 0 0 1-1-1V20.383a1 1 0 0 1 1-1h29.248a1 1 0 0 1 1 1v35.642a1 1 0 1 1-2 0V21.383H25.973v37.005h46.77c.38 0 .7.22.87.533.157.007.314.04.459.126.475.282.63.895.35 1.371C66.958 73.001 53.626 80 39.958 80a39.758 39.758 0 0 1-20.347-5.594c-9.19-5.454-15.707-14.16-18.35-24.515-2.644-10.354-1.099-21.118 4.353-30.31C16.868.612 41.456-5.664 60.426 5.595z"/>
</svg>