<svg xmlns="http://www.w3.org/2000/svg" title="icon shower" viewBox="0 0 80 80">
    <path d="M46.513 64.147a1 1 0 0 1 1.414-1.415l1.414 1.415a1 1 0 0 1-1.414 1.415l-1.414-1.415zm-7.11-7.114a.999.999 0 1 1 1.415-1.414l2.842 2.846a.999.999 0 1 1-1.414 1.414l-2.842-2.846zm-4.266-7.098l1.414 1.415a1 1 0 0 1-1.414 1.415l-1.414-1.415a1 1 0 0 1 1.414-1.415zm15.518 10.068a.999.999 0 1 1 1.413-1.414l1.414 1.414a1.002 1.002 0 0 1-.707 1.708.993.993 0 0 1-.707-.293l-1.413-1.415zm-4.266-4.268l-2.845-2.845a1.002 1.002 0 0 1 0-1.415.999.999 0 0 1 1.414 0l2.845 2.845a1 1 0 0 1-1.414 1.415zm-6.403-6.821a.997.997 0 0 1-.707-.293l-1.414-1.415a1 1 0 0 1 1.414-1.415l1.414 1.416a1 1 0 0 1-.707 1.707zm24.506.073l-1.414-1.416a1 1 0 0 1 1.414-1.414l1.415 1.415a1.002 1.002 0 0 1-.708 1.708 1 1 0 0 1-.707-.293zm-4.265-7.098a1 1 0 0 1-1.414 1.414l-2.844-2.845a1 1 0 1 1 1.414-1.415l2.844 2.846zm-8.524-5.7l-1.414-1.414a1.002 1.002 0 0 1 0-1.415.999.999 0 0 1 1.414 0l1.413 1.415a.999.999 0 1 1-1.413 1.414zm8.649 14.112l1.414 1.414a1 1 0 0 1-1.414 1.415l-1.414-1.415a.999.999 0 1 1 1.414-1.414zm-7.11-7.114l2.843 2.846a.999.999 0 1 1-1.414 1.414l-2.843-2.845a1.002 1.002 0 0 1 0-1.415.999.999 0 0 1 1.413 0zm-5.68-2.853l-1.414-1.416a1 1 0 1 1 1.414-1.415l1.414 1.416a1 1 0 0 1-1.414 1.415zm8.647 14.11l1.414 1.416a1 1 0 0 1-1.414 1.415l-1.414-1.416a1.002 1.002 0 0 1 0-1.415.999.999 0 0 1 1.414 0zm-5.678-2.853l-2.845-2.845a1 1 0 0 1 1.414-1.415l2.844 2.846a1 1 0 0 1-1.413 1.414zm-7.11-7.113l-1.416-1.415a1 1 0 0 1 1.414-1.416l1.415 1.415a1 1 0 0 1-1.414 1.416zM30.947 21.212a20.37 20.37 0 0 0-5.602 3.955 20.543 20.543 0 0 0-3.96 5.599c-2.095-2.672-1.918-6.559.541-9.019 2.462-2.462 6.352-2.637 9.021-.535zm21.282 4.681L26.072 52.066a18.4 18.4 0 0 1-4.739-12.379c0-4.951 1.928-9.605 5.427-13.105a18.458 18.458 0 0 1 13.099-5.42c4.43 0 8.863 1.577 12.371 4.731zM79.92 37.484c-.672-10.668-5.455-20.435-13.47-27.504C49.906-4.61 24.582-3.016 10 13.539a1 1 0 1 0 1.5 1.323C25.353-.864 49.408-2.381 65.126 11.481c7.614 6.715 12.158 15.995 12.796 26.13.639 10.134-2.706 19.911-9.417 27.529-13.855 15.725-37.914 17.238-53.629 3.38C5.132 59.924.482 47.11 2.425 34.321l.438-1.86c.141-.517 3.548-12.307 16.347-10.449-2.045 3.388-1.616 7.864 1.303 10.785.006.006.014.008.02.014a20.521 20.521 0 0 0-1.2 6.876 20.405 20.405 0 0 0 6.013 14.52.997.997 0 0 0 1.414 0l27.61-27.625a1 1 0 0 0 0-1.415c-5.773-5.776-14.15-7.362-21.379-4.804-.008-.009-.01-.022-.02-.031-3.393-3.397-8.893-3.431-12.339-.108C5.186 17.212.975 31.782.925 31.966l-.462 1.975c-2.06 13.544 2.833 27.032 13.092 36.08 7.59 6.693 17.024 9.98 26.424 9.979 11.092 0 22.135-4.578 30.027-13.538 7.065-8.018 10.585-18.309 9.913-28.978z"/>
</svg>