<svg xmlns="http://www.w3.org/2000/svg"  viewBox="0 0 490 294">
  <g>
    <path d="M471.5,326.5c-77.5,0-140.5-63-140.5-140.5c0-77.5,63-140.5,140.5-140.5C549,45.4,612,108.5,612,186 C612,263.4,549,326.5,471.5,326.5z M471.5,47.4c-76.4,0-138.5,62.1-138.5,138.5c0,76.4,62.1,138.5,138.5,138.5 c76.4,0,138.5-62.1,138.5-138.5C610,109.6,547.9,47.4,471.5,47.4z"/>
    <path d="M455.3,90.1c-60.7,0-110.1-49.4-110.1-110.1s49.4-110.1,110.1-110.1c60.7,0,110.1,49.4,110.1,110.1 S516.1,90.1,455.3,90.1z M455.3-128.2c-59.6,0-108.1,48.5-108.1,108.1S395.7,88.1,455.3,88.1S563.5,39.5,563.5-20.1 S515-128.2,455.3-128.2z"/>
    <path d="M-36.8,412.5c-77.5,0-140.5-63-140.5-140.5s63-140.5,140.5-140.5c77.5,0,140.5,63,140.5,140.5 S40.7,412.5-36.8,412.5z M-36.8,133.4c-76.4,0-138.5,62.1-138.5,138.5c0,76.4,62.1,138.5,138.5,138.5s138.5-62.1,138.5-138.5 C101.8,195.6,39.6,133.4-36.8,133.4z"/>
    <path d="M148.9,275c-60.7,0-110.1-49.4-110.1-110.1S88.2,54.7,148.9,54.7c60.7,0,110.1,49.4,110.1,110.1 S209.7,275,148.9,275z M148.9,56.7c-59.6,0-108.1,48.5-108.1,108.1c0,59.6,48.5,108.1,108.1,108.1c59.6,0,108.1-48.5,108.1-108.1 C257.1,105.3,208.6,56.7,148.9,56.7z"/>
    <path d="M199.2,80.9c-77.5,0-140.5-63-140.5-140.5c0-77.5,63-140.5,140.5-140.5c77.5,0,140.5,63,140.5,140.5 C339.7,17.9,276.6,80.9,199.2,80.9z M199.2-198.1c-76.4,0-138.5,62.1-138.5,138.5S122.8,78.9,199.2,78.9 c76.4,0,138.5-62.1,138.5-138.5S275.5-198.1,199.2-198.1z"/>
    <path d="M324.7,220.4c-77.5,0-140.5-63-140.5-140.5c0-77.5,63-140.5,140.5-140.5s140.5,63,140.5,140.5 C465.3,157.4,402.2,220.4,324.7,220.4z M324.7-58.6c-76.4,0-138.5,62.1-138.5,138.5c0,76.4,62.1,138.5,138.5,138.5 c76.4,0,138.5-62.1,138.5-138.5C463.3,3.5,401.1-58.6,324.7-58.6z"/>
    <path d="M-80.3,145.7c-60.7,0-110.1-49.4-110.1-110.1c0-60.7,49.4-110.1,110.1-110.1c60.7,0,110.1,49.4,110.1,110.1 C29.9,96.2-19.5,145.7-80.3,145.7z M-80.3-72.6c-59.6,0-108.1,48.5-108.1,108.1s48.5,108.1,108.1,108.1 c59.6,0,108.1-48.5,108.1-108.1S-20.6-72.6-80.3-72.6z"/>
  </g>
</svg>
