<svg xmlns="http://www.w3.org/2000/svg" viewBox="0 0 80 80" title="icon meterboard warning">
	<path d="M18.6,43.9c-0.5,0-1,0.5-1,1V47c0,0.6,0.5,1,1,1c0.6,0,1-0.4,1-1v-2.1C19.6,44.3,19.2,43.9,18.6,43.9z M18.6,48.8 c-0.5,0-1,0.5-1,1V50c0,0.6,0.5,1,1,1c0.6,0,1-0.4,1-1v-0.1C19.6,49.3,19.2,48.8,18.6,48.8z M18.6,48.8c-0.5,0-1,0.5-1,1V50 c0,0.6,0.5,1,1,1c0.6,0,1-0.4,1-1v-0.1C19.6,49.3,19.2,48.8,18.6,48.8z M18.6,43.9c-0.5,0-1,0.5-1,1V47c0,0.6,0.5,1,1,1 c0.6,0,1-0.4,1-1v-2.1C19.6,44.3,19.2,43.9,18.6,43.9z M68.3,11.7C60.7,4.2,50.7,0,40,0h0C17.9,0,0,18,0,40c0,22,18,40,40,40 c0.6,0,1-0.4,1-1V64.2h20.3c0.5,0,1-0.5,1-1V30.5h14.5c0.8,3.1,1.2,6.3,1.2,9.5c0,13-6.5,25-17.5,32c-0.5,0.3-0.6,0.9-0.3,1.4 c0.2,0.3,0.5,0.5,0.9,0.5c0.2,0,0.4-0.1,0.5-0.2C73.1,66.3,80,53.7,80,40C80,29.3,75.8,19.3,68.3,11.7z M34.5,57.2V44.7h10.9v12.5 H34.5z M39,33.1h2v9.6h-2V33.1z M28.5,31.1v-7.6h23v7.6H28.5z M60.3,62.2H41v-3h5.5c0.6,0,1-0.5,1-1V43.7c0-0.5-0.4-1-1-1H43v-9.6 h9.5c0.5,0,1-0.4,1-1v-1.7c0.1,0.1,0.3,0.1,0.4,0.1h6.4V62.2z M60.3,28.5h-6.4c-0.1,0-0.3,0-0.4,0.1v-1.9h6.8V28.5z M60.3,24.7h-6.8 v-2.3c0-0.6-0.5-1-1-1h-25c-0.5,0-1,0.4-1,1v9.6c0,0.6,0.5,1,1,1H37v9.6h-3.5c-0.6,0-1,0.5-1,1v14.5c0,0.5,0.4,1,1,1H39v3H19.7v-8.3 h8.2c0.5,0,1-0.4,1-1c0-0.2-0.1-0.4-0.2-0.5l-9.1-14.2V17.8h40.7V24.7z M11.2,51.9l7.3-11.4c0.1,0,0.1,0,0.2,0c0,0,0.1,0,0.1,0 L26,51.9H11.2z M61.3,15.8H18.7c-0.5,0-1,0.4-1,1V38L8.5,52.3c-0.3,0.5-0.2,1.1,0.3,1.4c0.2,0.1,0.3,0.2,0.5,0.2h8.3v9.3 c0,0.5,0.5,1,1,1H39V78C18.5,77.5,2,60.6,2,40c0-21,17-38,38-38h0c10.2,0,19.7,4,26.9,11.1c3.4,3.3,6,7.3,8,11.6H62.3v-7.9 C62.3,16.3,61.9,15.8,61.3,15.8z M62.3,28.5v-1.8h13.3c0.2,0.6,0.4,1.2,0.6,1.8H62.3z M42.3,50.3h-1.4c0,0-0.1,0-0.1,0 c-0.2-0.1-0.2-0.3-0.1-0.4l1.1-2.1c0.1-0.2,0-0.4-0.3-0.4h-1.6c-0.1,0-0.2,0.1-0.3,0.2l-2.2,4.2c0,0,0,0.1,0,0.1 c0,0.2,0.1,0.3,0.3,0.3H39c0,0,0.1,0,0.1,0c0.2,0,0.3,0.2,0.2,0.4l-0.6,2.3c-0.1,0.3,0.3,0.5,0.5,0.3l3.4-4.2 C42.7,50.6,42.6,50.3,42.3,50.3z M18.6,48.8c-0.5,0-1,0.5-1,1V50c0,0.6,0.5,1,1,1c0.6,0,1-0.4,1-1v-0.1 C19.6,49.3,19.2,48.8,18.6,48.8z M18.6,43.9c-0.5,0-1,0.5-1,1V47c0,0.6,0.5,1,1,1c0.6,0,1-0.4,1-1v-2.1 C19.6,44.3,19.2,43.9,18.6,43.9z M18.6,43.9c-0.5,0-1,0.5-1,1V47c0,0.6,0.5,1,1,1c0.6,0,1-0.4,1-1v-2.1 C19.6,44.3,19.2,43.9,18.6,43.9z M18.6,48.8c-0.5,0-1,0.5-1,1V50c0,0.6,0.5,1,1,1c0.6,0,1-0.4,1-1v-0.1 C19.6,49.3,19.2,48.8,18.6,48.8z M18.6,48.8c-0.5,0-1,0.5-1,1V50c0,0.6,0.5,1,1,1c0.6,0,1-0.4,1-1v-0.1 C19.6,49.3,19.2,48.8,18.6,48.8z M18.6,43.9c-0.5,0-1,0.5-1,1V47c0,0.6,0.5,1,1,1c0.6,0,1-0.4,1-1v-2.1 C19.6,44.3,19.2,43.9,18.6,43.9z M42.3,50.3h-1.4c0,0-0.1,0-0.1,0c-0.2-0.1-0.2-0.3-0.1-0.4l1.1-2.1c0.1-0.2,0-0.4-0.3-0.4h-1.6 c-0.1,0-0.2,0.1-0.3,0.2l-2.2,4.2c0,0,0,0.1,0,0.1c0,0.2,0.1,0.3,0.3,0.3H39c0,0,0.1,0,0.1,0c0.2,0,0.3,0.2,0.2,0.4l-0.6,2.3 c-0.1,0.3,0.3,0.5,0.5,0.3l3.4-4.2C42.7,50.6,42.6,50.3,42.3,50.3z M18.6,48.8c-0.5,0-1,0.5-1,1V50c0,0.6,0.5,1,1,1c0.6,0,1-0.4,1-1 v-0.1C19.6,49.3,19.2,48.8,18.6,48.8z M18.6,43.9c-0.5,0-1,0.5-1,1V47c0,0.6,0.5,1,1,1c0.6,0,1-0.4,1-1v-2.1 C19.6,44.3,19.2,43.9,18.6,43.9z M18.6,43.9c-0.5,0-1,0.5-1,1V47c0,0.6,0.5,1,1,1c0.6,0,1-0.4,1-1v-2.1 C19.6,44.3,19.2,43.9,18.6,43.9z M18.6,48.8c-0.5,0-1,0.5-1,1V50c0,0.6,0.5,1,1,1c0.6,0,1-0.4,1-1v-0.1 C19.6,49.3,19.2,48.8,18.6,48.8z M42.3,50.3h-1.4c0,0-0.1,0-0.1,0c-0.2-0.1-0.2-0.3-0.1-0.4l1.1-2.1c0.1-0.2,0-0.4-0.3-0.4h-1.6 c-0.1,0-0.2,0.1-0.3,0.2l-2.2,4.2c0,0,0,0.1,0,0.1c0,0.2,0.1,0.3,0.3,0.3H39c0,0,0.1,0,0.1,0c0.2,0,0.3,0.2,0.2,0.4l-0.6,2.3 c-0.1,0.3,0.3,0.5,0.5,0.3l3.4-4.2C42.7,50.6,42.6,50.3,42.3,50.3z"/>
</svg>