<svg width="60" height="60" fill="none" xmlns="http://www.w3.org/2000/svg">
    <path fill-rule="evenodd" clip-rule="evenodd" d="M17.555 18.405c-4.987 6.267-4.527 15.414 1.19 21.134l11.244 11.245 9.97-9.97 9.768 9.77c-1.42 1.283-4.212 3.37-4.21 3.37-13.199 8.564-30.902 4.79-39.464-8.41C-1.315 34.185.451 19.49 9.495 10.154a.736.736 0 0 0 .204.395l7.856 7.857zm5.166 5.167L34.237 35.09a8.344 8.344 0 0 1-4.248 1.155c-4.644 0-8.423-3.78-8.423-8.424 0-1.499.406-2.967 1.155-4.249zM20.1 27.82c0 5.453 4.436 9.89 9.888 9.89a9.814 9.814 0 0 0 5.314-1.553l3.62 3.62-8.933 8.935-10.21-10.209c-5.15-5.153-5.6-13.37-1.183-19.055l3.062 3.063a9.897 9.897 0 0 0-1.558 5.31zM13.664 4.843C20.386.481 28.403-1.002 36.239.67c7.837 1.67 14.554 6.291 18.914 13.016 5.582 8.605 6.394 19.332 2.169 28.694a.732.732 0 1 1-1.334-.603c4.017-8.906 3.246-19.109-2.064-27.294-4.148-6.395-10.536-10.792-17.99-12.38-7.454-1.589-15.08-.179-21.474 3.97a28.594 28.594 0 0 0-4.112 3.237.732.732 0 0 1 .387.203L51.29 50.076c.28.28.286.734.013 1.022-1.158 1.224-4.796 3.943-4.95 4.058A29.908 29.908 0 0 1 30.024 60c-9.834 0-19.466-4.819-25.2-13.659-9.003-13.877-5.037-32.494 8.84-41.498zM20.81 15.57c6.262-4.587 15.133-3.903 20.629 1.595 5.374 5.376 6.193 13.845 1.946 20.136a.732.732 0 0 1-1.017.198.735.735 0 0 1-.198-1.019c3.855-5.71 3.113-13.398-1.767-18.28-4.99-4.989-13.042-5.611-18.727-1.447a.732.732 0 1 1-.866-1.183zm9.214 2.83c5.452 0 9.888 4.436 9.888 9.888 0 1.815-.496 3.59-1.435 5.134a.731.731 0 0 1-1.006.245.733.733 0 0 1-.246-1.007 8.407 8.407 0 0 0 1.221-4.372c0-4.645-3.777-8.424-8.422-8.424a8.383 8.383 0 0 0-4.709 1.44.733.733 0 0 1-.819-1.215 9.837 9.837 0 0 1 5.528-1.69z" fill="url(#a)"/>
    <defs>
        <linearGradient id="a" x1="60" y1="30" x2="0" y2="30" gradientUnits="userSpaceOnUse">
            <stop stop-color="#FC6100"/>
            <stop offset=".569" stop-color="#DE3200"/>
            <stop offset="1" stop-color="#E13000"/>
        </linearGradient>
    </defs>
</svg>
