<svg xmlns="http://www.w3.org/2000/svg" viewBox="0 0 30 30">
    <g>
        <path d="M15.029 29.99c-6.18 0-11.97-3.838-14.153-9.97a14.893 14.893 0 0 1 .583-11.462A14.893 14.893 0 0 1 9.98.868c7.795-2.772 16.389 1.316 19.162 9.106 1.696 4.768.813 10.237-2.306 14.273a.483.483 0 0 1-.447.184l-.195-.027a.485.485 0 0 1 .039-.962c2.788-3.756 3.555-8.766 1.997-13.142C25.635 3.01 17.595-.812 10.305 1.78a13.93 13.93 0 0 0-7.972 7.193 13.934 13.934 0 0 0-.546 10.722c2.595 7.29 10.636 11.11 17.927 8.521a44.5 44.5 0 0 0 2.164-1.008l-5.79-5.682H10.99c-1.55 0-2.81-1.26-2.81-2.807V10.94a2.812 2.812 0 0 1 2.81-2.807h7.78c1.549 0 2.81 1.26 2.81 2.807v7.778a2.813 2.813 0 0 1-2.81 2.807.484.484 0 0 1 0-.967 1.843 1.843 0 0 0 1.842-1.84V10.94c0-1.014-.827-1.84-1.843-1.84h-7.78a1.843 1.843 0 0 0-1.84 1.84v7.778c0 1.014.826 1.84 1.84 1.84h5.297c.127 0 .249.05.339.138l6.39 6.272a.483.483 0 0 1-.075.75c-.708.462-2.785 1.36-2.872 1.397a15.02 15.02 0 0 1-5.039.873"/>
        <path d="M18.8 13.076h-5.995a.483.483 0 1 1 0-.967H18.8a.484.484 0 0 1 0 .967M18.775 15.255h-5.98a.483.483 0 1 1 0-.968h5.98a.484.484 0 0 1 0 .968M18.775 17.427h-5.98a.483.483 0 1 1 0-.968h5.98a.484.484 0 0 1 0 .968M11.356 12.593a.347.347 0 1 1-.694 0 .347.347 0 0 1 .694 0M11.356 14.77a.348.348 0 1 1-.696 0 .348.348 0 0 1 .696 0M11.356 16.947a.348.348 0 1 1-.696-.001.348.348 0 0 1 .696 0"/>
    </g>
</svg>
