<svg xmlns="http://www.w3.org/2000/svg" width="32" height="32" viewBox="0 0 32 32">
    <circle cx="16" cy="16" r="16" />
    <path fill="#F2F2F2" d="M9.896 11.566h.022c1.195 0 1.94-.793 1.94-1.783C11.836 8.77 11.113 8 9.94 8S8 8.77 8 9.783c0 .99.744 1.783 1.896 1.783zM8.203 23.293h3.43V12.974h-3.43v10.32zm5.327 0s.046-9.35 0-10.319h3.43v1.462a2.628 2.628 0 0 1-.023.035h.023v-.035c.456-.703 1.27-1.704 3.091-1.704 2.257 0 3.949 1.475 3.949 4.645v5.916h-3.43v-5.52c0-1.387-.496-2.333-1.737-2.333-.948 0-1.512.638-1.76 1.254-.09.22-.113.528-.113.837v5.762h-3.43z"/>
</svg>
