<svg xmlns="http://www.w3.org/2000/svg" viewBox="0 0 80 80" title="icon meterboard 1">
	<path d="M68.3,11.7C60.7,4.2,50.7,0,40,0h0C17.9,0,0,18,0,40s18,40,40,40h0c0.5,0,1-0.4,1-1V48.5h20.3c0.5,0,1-0.5,1-1V9.3 c1.6,1.2,3.1,2.5,4.5,3.9C74,20.3,78,29.8,78,40c0,13-6.5,25-17.5,32c-0.5,0.3-0.6,0.9-0.3,1.4s0.9,0.6,1.4,0.3 C73.1,66.3,80,53.7,80,40C80,29.3,75.8,19.3,68.3,11.7z M39,2c0.3,0,0.7,0,1,0h0c0.3,0,0.7,0,1,0v14h-2V2z M39,78 C18.5,77.5,2,60.6,2,40C2,27.4,8.2,16.2,17.7,9.3v38.2c0,0.5,0.5,1,1,1H39V78z M39,46.5H19.7V7.9C24.9,4.6,30.8,2.6,37,2.1V16h-6.5 c-0.5,0-1,0.5-1,1v22c0,0.6,0.5,1,1,1H39V46.5z M31.5,38V18h17.7v20H31.5z M60.3,46.5H41V40h9.2c0.5,0,1-0.4,1-1V17c0-0.5-0.5-1-1-1 H43V2.1c6.2,0.5,12.1,2.5,17.3,5.8V46.5z M43.4,26.9h-2.1c-0.1,0-0.2,0-0.2,0c-0.2-0.1-0.3-0.4-0.2-0.6l1.7-3.2 c0.2-0.3-0.1-0.7-0.4-0.7h-2.5c-0.2,0-0.3,0.1-0.4,0.2l-3.4,6.3c0,0.1-0.1,0.1-0.1,0.2c0,0.2,0.2,0.5,0.5,0.5h2c0,0,0.1,0,0.1,0 c0.2,0.1,0.4,0.3,0.3,0.6l-0.9,3.5c-0.1,0.5,0.5,0.8,0.8,0.4l5.2-6.4C44,27.4,43.8,26.9,43.4,26.9z M43.4,26.9h-2.1 c-0.1,0-0.2,0-0.2,0c-0.2-0.1-0.3-0.4-0.2-0.6l1.7-3.2c0.2-0.3-0.1-0.7-0.4-0.7h-2.5c-0.2,0-0.3,0.1-0.4,0.2l-3.4,6.3 c0,0.1-0.1,0.1-0.1,0.2c0,0.2,0.2,0.5,0.5,0.5h2c0,0,0.1,0,0.1,0c0.2,0.1,0.4,0.3,0.3,0.6l-0.9,3.5c-0.1,0.5,0.5,0.8,0.8,0.4 l5.2-6.4C44,27.4,43.8,26.9,43.4,26.9z M43.4,26.9h-2.1c-0.1,0-0.2,0-0.2,0c-0.2-0.1-0.3-0.4-0.2-0.6l1.7-3.2 c0.2-0.3-0.1-0.7-0.4-0.7h-2.5c-0.2,0-0.3,0.1-0.4,0.2l-3.4,6.3c0,0.1-0.1,0.1-0.1,0.2c0,0.2,0.2,0.5,0.5,0.5h2c0,0,0.1,0,0.1,0 c0.2,0.1,0.4,0.3,0.3,0.6l-0.9,3.5c-0.1,0.5,0.5,0.8,0.8,0.4l5.2-6.4C44,27.4,43.8,26.9,43.4,26.9z"/>
</svg>