<svg xmlns="http://www.w3.org/2000/svg" viewBox="0 0 80 80" title="icon damaged meterbox">
	<path d="M40.5,18.8c-0.6,0-1,0.5-1,1V20c0,0.6,0.4,1,1,1c0.6,0,1-0.4,1-1v-0.1C41.5,19.3,41,18.8,40.5,18.8z M40.5,13.9 c-0.6,0-1,0.4-1,1V17c0,0.6,0.4,1,1,1c0.6,0,1-0.4,1-1v-2.1C41.5,14.3,41,13.9,40.5,13.9z M40.5,13.9c-0.6,0-1,0.4-1,1V17 c0,0.6,0.4,1,1,1c0.6,0,1-0.4,1-1v-2.1C41.5,14.3,41,13.9,40.5,13.9z M40.5,18.8c-0.6,0-1,0.5-1,1V20c0,0.6,0.4,1,1,1 c0.6,0,1-0.4,1-1v-0.1C41.5,19.3,41,18.8,40.5,18.8z M40.5,13.9c-0.6,0-1,0.4-1,1V17c0,0.6,0.4,1,1,1c0.6,0,1-0.4,1-1v-2.1 C41.5,14.3,41,13.9,40.5,13.9z M40.5,18.8c-0.6,0-1,0.5-1,1V20c0,0.6,0.4,1,1,1c0.6,0,1-0.4,1-1v-0.1C41.5,19.3,41,18.8,40.5,18.8z M40.5,18.8c-0.6,0-1,0.5-1,1V20c0,0.6,0.4,1,1,1c0.6,0,1-0.4,1-1v-0.1C41.5,19.3,41,18.8,40.5,18.8z M40.5,13.9c-0.6,0-1,0.4-1,1 V17c0,0.6,0.4,1,1,1c0.6,0,1-0.4,1-1v-2.1C41.5,14.3,41,13.9,40.5,13.9z M40.5,13.9c-0.6,0-1,0.4-1,1V17c0,0.6,0.4,1,1,1 c0.6,0,1-0.4,1-1v-2.1C41.5,14.3,41,13.9,40.5,13.9z M40.5,18.8c-0.6,0-1,0.5-1,1V20c0,0.6,0.4,1,1,1c0.6,0,1-0.4,1-1v-0.1 C41.5,19.3,41,18.8,40.5,18.8z M40.5,18.8c-0.6,0-1,0.5-1,1V20c0,0.6,0.4,1,1,1c0.6,0,1-0.4,1-1v-0.1C41.5,19.3,41,18.8,40.5,18.8z M40.5,13.9c-0.6,0-1,0.4-1,1V17c0,0.6,0.4,1,1,1c0.6,0,1-0.4,1-1v-2.1C41.5,14.3,41,13.9,40.5,13.9z M40.5,13.9c-0.6,0-1,0.4-1,1 V17c0,0.6,0.4,1,1,1c0.6,0,1-0.4,1-1v-2.1C41.5,14.3,41,13.9,40.5,13.9z M40.5,18.8c-0.6,0-1,0.5-1,1V20c0,0.6,0.4,1,1,1 c0.6,0,1-0.4,1-1v-0.1C41.5,19.3,41,18.8,40.5,18.8z M40.5,18.8c-0.6,0-1,0.5-1,1V20c0,0.6,0.4,1,1,1c0.6,0,1-0.4,1-1v-0.1 C41.5,19.3,41,18.8,40.5,18.8z M40.5,13.9c-0.6,0-1,0.4-1,1V17c0,0.6,0.4,1,1,1c0.6,0,1-0.4,1-1v-2.1C41.5,14.3,41,13.9,40.5,13.9z M50.5,22.3L41.3,7.8c-0.2-0.3-0.5-0.5-0.8-0.5s-0.7,0.2-0.8,0.5l-9.2,14.5c-0.3,0.5-0.1,1.1,0.3,1.4c0.2,0.1,0.4,0.2,0.5,0.2h18.5 c0.5,0,1-0.5,1-1C50.7,22.7,50.7,22.5,50.5,22.3z M33,21.9l7.4-11.7l7.4,11.7H33z M40.5,18.8c-0.6,0-1,0.5-1,1V20c0,0.6,0.4,1,1,1 c0.6,0,1-0.4,1-1v-0.1C41.5,19.3,41,18.8,40.5,18.8z M39.5,14.9V17c0,0.6,0.4,1,1,1c0.6,0,1-0.4,1-1v-2.1c0-0.6-0.4-1-1-1 C39.9,13.9,39.5,14.3,39.5,14.9z M40.5,13.9c-0.6,0-1,0.4-1,1V17c0,0.6,0.4,1,1,1c0.6,0,1-0.4,1-1v-2.1C41.5,14.3,41,13.9,40.5,13.9 z M40.5,18.8c-0.6,0-1,0.5-1,1V20c0,0.6,0.4,1,1,1c0.6,0,1-0.4,1-1v-0.1C41.5,19.3,41,18.8,40.5,18.8z M40.5,18.8c-0.6,0-1,0.5-1,1 V20c0,0.6,0.4,1,1,1c0.6,0,1-0.4,1-1v-0.1C41.5,19.3,41,18.8,40.5,18.8z M40.5,13.9c-0.6,0-1,0.4-1,1V17c0,0.6,0.4,1,1,1 c0.6,0,1-0.4,1-1v-2.1C41.5,14.3,41,13.9,40.5,13.9z M40.5,13.9c-0.6,0-1,0.4-1,1V17c0,0.6,0.4,1,1,1c0.6,0,1-0.4,1-1v-2.1 C41.5,14.3,41,13.9,40.5,13.9z M40.5,18.8c-0.6,0-1,0.5-1,1V20c0,0.6,0.4,1,1,1c0.6,0,1-0.4,1-1v-0.1C41.5,19.3,41,18.8,40.5,18.8z M40.5,18.8c-0.6,0-1,0.5-1,1V20c0,0.6,0.4,1,1,1c0.6,0,1-0.4,1-1v-0.1C41.5,19.3,41,18.8,40.5,18.8z M40.5,13.9c-0.6,0-1,0.4-1,1 V17c0,0.6,0.4,1,1,1c0.6,0,1-0.4,1-1v-2.1C41.5,14.3,41,13.9,40.5,13.9z M48.6,43.8c-0.1,0-0.2,0.1-0.2,0.2c0,0.2,0.4,0.2,0.4,0 C48.8,43.9,48.7,43.8,48.6,43.8z M48.6,41.8c-1.2,0-2.2,1-2.2,2.2c0,1.2,1,2.2,2.2,2.2c1.2,0,2.2-1,2.2-2.2S49.8,41.8,48.6,41.8z M48.6,41.8c-1.2,0-2.2,1-2.2,2.2c0,1.2,1,2.2,2.2,2.2c1.2,0,2.2-1,2.2-2.2S49.8,41.8,48.6,41.8z M48.6,41.8c-1.2,0-2.2,1-2.2,2.2 c0,1.2,1,2.2,2.2,2.2c1.2,0,2.2-1,2.2-2.2S49.8,41.8,48.6,41.8z M48.6,41.8c-1.2,0-2.2,1-2.2,2.2c0,1.2,1,2.2,2.2,2.2 c1.2,0,2.2-1,2.2-2.2S49.8,41.8,48.6,41.8z M48.6,41.8c-1.2,0-2.2,1-2.2,2.2c0,1.2,1,2.2,2.2,2.2c1.2,0,2.2-1,2.2-2.2 S49.8,41.8,48.6,41.8z M48.6,41.8c-1.2,0-2.2,1-2.2,2.2c0,1.2,1,2.2,2.2,2.2c1.2,0,2.2-1,2.2-2.2S49.8,41.8,48.6,41.8z M48.6,41.8 c-1.2,0-2.2,1-2.2,2.2c0,1.2,1,2.2,2.2,2.2c1.2,0,2.2-1,2.2-2.2S49.8,41.8,48.6,41.8z M48.6,41.8c-1.2,0-2.2,1-2.2,2.2 c0,1.2,1,2.2,2.2,2.2c1.2,0,2.2-1,2.2-2.2S49.8,41.8,48.6,41.8z M68.3,11.7C60.7,4.2,50.7,0,40,0h0C17.9,0,0,18,0,40s18,40,40,40h0 c0.5,0,1-0.4,1-1V60.2h12c0.5,0,1-0.4,1-1V28.8c0-0.6-0.5-1-1-1H28.8c-0.5,0-1,0.4-1,1V32c-0.5,0.1-0.8,0.5-0.8,1v6.8 c0,0.5,0.3,0.9,0.8,1v6.4c-0.5,0.1-0.8,0.5-0.8,1V55c0,0.5,0.3,0.9,0.8,1v3.2c0,0.6,0.5,1,1,1H39V78C18.5,77.5,2,60.6,2,40 c0-21,17-38,38-38h0c10.2,0,19.7,4,26.9,11.1C74,20.3,78,29.8,78,40c0,13-6.5,25-17.5,32c-0.5,0.3-0.6,0.9-0.3,1.4s0.9,0.6,1.4,0.3 C73.1,66.3,80,53.7,80,40C80,29.3,75.8,19.3,68.3,11.7z M29.8,58.2V29.8H52v28.3H29.8z M48.6,41.8c-1.2,0-2.2,1-2.2,2.2 c0,1.2,1,2.2,2.2,2.2c1.2,0,2.2-1,2.2-2.2S49.8,41.8,48.6,41.8z M48.6,41.8c-1.2,0-2.2,1-2.2,2.2c0,1.2,1,2.2,2.2,2.2 c1.2,0,2.2-1,2.2-2.2S49.8,41.8,48.6,41.8z M48.6,41.8c-1.2,0-2.2,1-2.2,2.2c0,1.2,1,2.2,2.2,2.2c1.2,0,2.2-1,2.2-2.2 S49.8,41.8,48.6,41.8z M48.6,41.8c-1.2,0-2.2,1-2.2,2.2c0,1.2,1,2.2,2.2,2.2c1.2,0,2.2-1,2.2-2.2S49.8,41.8,48.6,41.8z M48.6,41.8 c-1.2,0-2.2,1-2.2,2.2c0,1.2,1,2.2,2.2,2.2c1.2,0,2.2-1,2.2-2.2S49.8,41.8,48.6,41.8z"/>
</svg>