<svg xmlns="http://www.w3.org/2000/svg" viewBox="0 0 80 80">
    <g>
        <path d="M39.944 79.893c-2.402 0-7.997-.81-8.242-.846-10.5-2.234-19.445-8.39-25.253-17.342C.64 52.755-1.334 42.076.89 31.64 3.114 21.203 9.269 12.256 18.22 6.449 27.17.64 37.85-1.333 48.286.889c21.545 4.593 35.338 25.854 30.748 47.398C76.19 61.647 66.853 72.51 54.06 77.348a.975.975 0 1 1-.69-1.825c12.168-4.601 21.05-14.935 23.756-27.642 2.115-9.926.238-20.082-5.286-28.598-5.524-8.515-14.032-14.369-23.96-16.484C37.95.682 27.798 2.56 19.283 8.086 10.768 13.61 4.914 22.119 2.8 32.046c-2.115 9.927-.238 20.083 5.286 28.599 5.524 8.514 14.033 14.368 23.959 16.482.013 0 4.598.663 7.137.793V66.242a.975.975 0 1 1 1.952 0v12.672a.976.976 0 0 1-.95.976 9.38 9.38 0 0 1-.24.003"/>
        <path d="M46.027 47.049a.975.975 0 0 1-.968-.869c-.165-1.483.02-2.858.55-4.084a14.502 14.502 0 0 1 1.926-3.223 29.053 29.053 0 0 1 2.54-2.807 25.792 25.792 0 0 0 2.401-2.683 15.963 15.963 0 0 0 1.83-3.003c.474-1.012.714-2.192.714-3.508 0-2.14-.353-3.988-1.046-5.489-.69-1.487-1.641-2.71-2.829-3.633-1.211-.942-2.652-1.65-4.279-2.102-1.667-.463-3.478-.697-5.381-.697-2.76 0-5.335.605-7.65 1.796a20.908 20.908 0 0 0-5.478 4.058l5.521 5.052a23.938 23.938 0 0 1 2.23-1.7c1.037-.694 2.303-1.044 3.764-1.044 1.322 0 2.483.342 3.452 1.018 1.081.753 1.628 1.971 1.628 3.622 0 .976-.315 1.937-.937 2.854a24.463 24.463 0 0 1-1.947 2.48c-.735.837-1.534 1.722-2.394 2.654a17.763 17.763 0 0 0-2.153 2.882 12.784 12.784 0 0 0-1.394 3.371c-.247.953-.323 1.993-.227 3.104h3.598a.975.975 0 1 1 0 1.95h-4.462a.976.976 0 0 1-.964-.824c-.264-1.686-.21-3.274.166-4.72.363-1.402.905-2.709 1.61-3.884a19.713 19.713 0 0 1 2.392-3.2c.848-.922 1.637-1.796 2.366-2.623.7-.792 1.303-1.56 1.793-2.284.405-.598.602-1.173.602-1.76 0-1.47-.596-1.886-.792-2.022-.644-.449-1.408-.667-2.337-.667-1.084 0-1.96.235-2.683.716-.838.559-1.737 1.269-2.673 2.11a.974.974 0 0 1-1.311-.005l-6.888-6.303a.974.974 0 0 1-.073-1.363 22.748 22.748 0 0 1 6.697-5.205C35.536 13.677 38.41 13 41.485 13c2.08 0 4.066.258 5.904.768 1.873.52 3.54 1.342 4.955 2.443 1.435 1.115 2.579 2.58 3.4 4.354.814 1.759 1.227 3.882 1.227 6.307 0 1.604-.303 3.063-.899 4.336a17.947 17.947 0 0 1-2.053 3.372 27.886 27.886 0 0 1-2.584 2.885 27.335 27.335 0 0 0-2.37 2.617 12.568 12.568 0 0 0-1.665 2.787c-.399.924-.532 1.937-.402 3.097a.976.976 0 0 1-.97 1.083m-5.57 20.711a.975.975 0 1 1 0-1.951c1.885 0 3.378-.618 4.565-1.889 1.203-1.29 1.789-2.846 1.789-4.756 0-1.911-.586-3.467-1.79-4.757-1.186-1.271-2.679-1.89-4.563-1.89-1.886 0-3.378.618-4.563 1.889-1.204 1.29-1.79 2.846-1.79 4.758 0 1.911.586 3.467 1.789 4.756a.975.975 0 1 1-1.426 1.332c-1.535-1.644-2.314-3.693-2.314-6.088 0-2.396.779-4.445 2.314-6.089 1.553-1.664 3.568-2.51 5.99-2.51 2.42 0 4.436.846 5.99 2.51 1.535 1.645 2.314 3.694 2.314 6.089 0 2.394-.779 4.443-2.313 6.088-1.555 1.664-3.57 2.508-5.991 2.508"/>
    </g>
</svg>
