<svg viewBox="0 0 25 25" xmlns="http://www.w3.org/2000/svg">
    <path d="M12.15,24.32 C6.35535945,24.3117525 1.37295864,20.2125722 0.24832175,14.5281093 C-0.876315138,8.84364634 2.16983375,3.15606571 7.52479054,0.941937237 C12.8797473,-1.27219124 19.0530589,0.603394114 22.2712494,5.42222981 C25.4894398,10.2410655 24.8567853,16.6619179 20.76,20.76 C18.4764614,23.0427024 15.3788181,24.3234934 12.15,24.32 Z M12.15,1 C6.83227121,1.00549187 2.25846955,4.76551993 1.22436944,9.98173567 C0.190269335,15.1979514 2.98369464,20.4185115 7.89714082,22.452305 C12.810587,24.4860986 18.4764814,22.7670544 21.4314989,18.3459525 C24.3865163,13.9248507 23.8081788,8.0322283 20.05,4.27 C17.9551806,2.17448281 15.1130148,0.998042066 12.15,1 Z" />
    <path d="M19.14,13.17 L5.14,13.17 C4.58771525,13.17 4.14,12.7222847 4.14,12.17 C4.14,11.6177153 4.58771525,11.17 5.14,11.17 L19.14,11.17 C19.6922847,11.17 20.14,11.6177153 20.14,12.17 C20.14,12.7222847 19.6922847,13.17 19.14,13.17 Z" />
</svg>