<svg xmlns="http://www.w3.org/2000/svg" title="icon tree cutting" viewBox="0 0 80 80">
    <path d="M77.985 41.073C77.404 61.655 60.473 78 40.007 78c-.36 0-.724-.005-1.087-.016-12.391-.35-23.671-6.614-30.523-16.856h54.522a1 1 0 0 0 0-2h-6.132c-.005-.045-.006-.093-.013-.138-.658-3.956-.824-8.185-.524-13.266.543.839 1.332 1.789 2.631 2.17 1.995.586 3.841.18 5.35-1.167 1.491-1.33 1.966-3.12 1.372-5.171-.063-.22-.052-.306-.055-.308.008-.011.073-.085.313-.202.621-.301 1.421-.721 2.1-1.305 2.079-1.792 3.259-4.365 3.238-7.06-.022-2.71-1.254-5.282-3.382-7.058-.392-.327-.398-.434-.261-.833.485-1.404.371-2.926-.319-4.285a5.79 5.79 0 0 0-3.437-2.896c-.506-.156-.714-.344-.927-.838-1.816-4.215-6.434-6.67-10.976-5.828-3.945.727-6.622 2.946-7.957 6.595a2.407 2.407 0 0 1-.157.369c-.001 0-.038.016-.141.02-1.984.062-3.708 1.012-4.729 2.605-1.04 1.622-1.183 3.632-.391 5.513.131.31.121.368-.098.617a9.138 9.138 0 0 0-2.244 5.175 26.113 26.113 0 0 1-12.391-6.044h2.712a1 1 0 0 0 0-2h-4.333v-2.055a1 1 0 1 0-2 0v2.055h-3.667a1 1 0 1 0 0 2h2.67c-4.573 4.01-10.32 6.306-16.391 6.515C6.434 14.606 22.392 1.486 41.066 2.015c10.148.287 19.577 4.507 26.551 11.884 6.972 7.378 10.655 17.028 10.368 27.174zM42.574 56.75h3.571l-.429 2.378h-3.572l.43-2.378zm.722-4h3.571l-.361 2h-3.572l.362-2zm3.932-2h-3.572l.361-2h3.572l-.361 2zm-2.489-6h3.571l-.36 2h-3.572l.361-2zM22.168 58.752V27.016a28.103 28.103 0 0 0 14.044 6.859c.032.25.061.5.114.75.605 2.872 2.494 5.233 5.18 6.478a1 1 0 0 0 .841-1.814c-2.108-.978-3.59-2.828-4.064-5.077a7.179 7.179 0 0 1-.131-.958c.005-.025.02-.044.023-.07a.96.96 0 0 0-.041-.435 7.14 7.14 0 0 1 1.792-4.767c.73-.83.87-1.691.44-2.713-.533-1.265-.449-2.598.23-3.657.66-1.03 1.794-1.645 3.11-1.686 1.508-.048 1.931-1.207 2.113-1.701 1.089-2.978 3.196-4.717 6.441-5.315 3.631-.672 7.327 1.287 8.777 4.652.441 1.028 1.113 1.63 2.176 1.959a3.779 3.779 0 0 1 2.241 1.89c.442.87.517 1.84.212 2.726-.42 1.215-.144 2.175.87 3.02 1.676 1.4 2.646 3.42 2.663 5.54.016 2.106-.911 4.12-2.544 5.528-.503.433-1.154.773-1.667 1.02-1.241.604-1.681 1.568-1.307 2.867.381 1.315.133 2.308-.782 3.123-.993.888-2.125 1.13-3.456.739-.594-.173-1.059-.602-1.606-1.481-.275-.44-.683-.7-1.011-.91-.101-.064-.202-.126-.293-.196a1.008 1.008 0 0 0-.818-.182.996.996 0 0 0-.668.502c-.058.106-.13.212-.202.317-.242.358-.542.803-.578 1.374-.316 5.17-.168 9.479.468 13.514-.836.002-1.635.005-2.427-.017.066-2.725.149-5.451.231-8.176l.112-3.758c.009-.31.003-.717-.116-1.132a.999.999 0 1 0-1.922.553c.049.169.041.435.038.52l-.111 3.757a1385.51 1385.51 0 0 0-.237 8.394c-.001.022.004.05.005.075h-2.559l3.84-21.284a1.001 1.001 0 0 0-1.968-.355l-.952 5.274c-.022-.002-.041-.013-.064-.013H45.1l.885-4.906a1.002 1.002 0 0 0-.807-1.162.999.999 0 0 0-1.162.807l-3.904 21.639H22.091a.987.987 0 0 0 .077-.376zM69.07 12.526C61.73 4.76 51.805.316 41.123.015A43.81 43.81 0 0 0 39.979 0C18.438 0 .613 17.207.001 38.87a1 1 0 0 0 2 .057c.044-1.573.195-3.117.424-4.634.047.007.089.027.138.027h.026c6.489-.164 12.646-2.545 17.579-6.745v31.177c0 .133.028.259.075.376H6.577a1 1 0 0 0-.857 1.516c7.079 11.723 19.469 18.953 33.143 19.34.384.01.765.016 1.145.016 21.541-.001 39.365-17.206 39.977-38.87.302-10.681-3.575-20.84-10.915-28.604z"/>
</svg>