<svg xmlns="http://www.w3.org/2000/svg" viewBox="0 0 80 80">
	<path d="M40,0C17.9,0,0,17.9,0,40c0,8.6,2.7,16.7,7.7,23.6C8,64,8.6,64.1,9.1,63.8s0.5-0.9,0.2-1.4l0,0 C4.5,55.9,2,48.1,2,40C2,19,19,2,40,2C61,2,78,19,78,40S61,78,40,78c-8.1,0-15.8-2.5-22.3-7.2l4.7-4.7h13.5c2.8,0,5.1-2.3,5.1-5.1 v-6.1c0-0.5-0.4-1-1-1c-0.5,0-1,0.4-1,1V61c0,1.7-1.4,3.1-3.1,3.1H22c-0.3,0-0.5,0.1-0.7,0.3L16,69.8c-0.1,0.1-0.2,0.3-0.2,0.5 c-0.1,0.1-0.1,0.1-0.2,0.2c-0.3,0.4-0.2,1,0.2,1.4c7,5.4,15.4,8.2,24.3,8.2c22.1,0,40-17.9,40-40C80,17.9,62.1,0,40,0"/>
	<path d="M23.7,29.9c0-2.7,2.2-5,4.9-5h22.2c2.7,0,4.9,2.2,4.9,5v25.9l-6.5-6.6c-0.2-0.2-0.4-0.3-0.7-0.3H28.7 c-2.7,0-4.9-2.2-4.9-5V29.9z M15,51.7v10c0,0.5,0.5,1,1,0.9c0.5,0,0.9-0.4,0.9-0.9v-10c0-1.7,1.4-3.2,3.2-3.2h3.4 c1.3,1.4,3.1,2.4,5.2,2.4h19.5l7.9,8c0.3,0.3,0.7,0.4,1.1,0.2c0.4-0.2,0.6-0.5,0.6-0.9V29.9c0-3.8-3.1-6.9-6.9-6.9H28.7 c-3.8,0-6.9,3.1-6.9,6.9v14c0,0.9,0.2,1.8,0.5,2.6h-2.2C17.3,46.6,15,48.9,15,51.7z"/>
	<g>
		<path d="M40.5,32c0.8,0,1.5-0.7,1.5-1.5c0-0.8-0.7-1.5-1.5-1.5c-0.8,0-1.5,0.7-1.5,1.5c0,0,0,0,0,0 C39,31.3,39.7,32,40.5,32z"/>
		<path d="M42,41.9h-0.5v-6c0-0.6-0.4-1-1-1H39c-0.6,0-1,0.4-1,1c0,0.6,0.4,1,1,1h0.5v5H39c-0.6,0-1,0.4-1,1 c0,0.6,0.4,1,1,1h0.6h1.7H42c0.6,0,1-0.4,1-1C43,42.4,42.6,41.9,42,41.9z"/>
	</g>
</svg>
