<svg xmlns="http://www.w3.org/2000/svg" viewBox="0 0 80 80">
    <g>
        <polygon points="37.7,34.6 39.3,34.6 39.6,28.2 39.7,26 37.3,26 37.4,28.2"/>
        <path d="M38.5,37c-0.8,0-1.5,0.6-1.5,1.5c0,0.9,0.7,1.5,1.5,1.5c0.8,0,1.5-0.6,1.5-1.5C40,37.6,39.4,37,38.5,37z"/>
    </g>
    <path d="M25.6,27.6c-5.4,0-9.6,4.3-9.6,9.8c0,5.4,4.4,9.8,9.8,9.8h25.6c4.5,0,8-3.6,8-8.2c0-4.6-3.8-8.3-8.4-8.3h-1.2 l0.2-1.1c0.1-0.6,0.1-1.2,0.1-1.7c0-6.6-5.3-11.9-11.9-11.9c-6.1,0-11.2,4.6-11.8,10.7l-0.1,0.9C26.5,27.6,25.6,27.6,25.6,27.6z M51.4,49.3H26c-6.7,0-12-5.3-12-11.8c0-6.3,4.6-11.3,10.7-11.8C25.8,19,31.5,14,38.3,14c7.7,0,13.9,6.2,13.9,13.9 c0,0.3,0,0.6,0,0.9c5.2,0.5,9.3,4.9,9.3,10.2C61.5,44.8,57.1,49.3,51.4,49.3z"/>
    <path d="M62.5,40H60v-2h2.3c2.5,0,4.3-1.9,4.3-4.3c0-2.4-2-4.3-4.4-4.3h-1.2l0.2-1.1c0-0.3,0.1-0.6,0.1-0.9 c0-3.5-2.9-6.4-6.4-6.4c-1.7,0-3.4,0.7-4.5,1.9L49,21.5c1.6-1.6,3.7-2.5,6-2.5c4.6,0,8.4,3.8,8.4,8.4c0,0.1,0,0.1,0,0.2 c3,0.5,5.3,3.1,5.3,6.2C68.6,37.2,65.9,40,62.5,40"/>
    <path d="M40,80c-2.3,0-4.7-0.2-7-0.6c-0.5-0.1-0.8-0.5-0.8-1l0-0.6c0-0.2,0.1-0.4,0.2-0.6l18.2-22 c0.3-0.4,1-0.5,1.4-0.1s0.5,1,0.1,1.4l0,0L34.7,77.7c1.7,0.2,3.5,0.4,5.3,0.4c21,0,38-17.1,38-38C78.1,19,61,2,40,2C19,2,2,19,2,40 c0,15.5,9.2,29.3,23.5,35.2c0.5,0.2,0.7,0.8,0.5,1.3c-0.2,0.5-0.8,0.7-1.3,0.5c0,0,0,0,0,0C9.7,70.8,0,56.3,0,40 C0,17.9,17.9,0,40,0s40,17.9,40,40C80,62.1,62.1,80,40,80"/>
    <path d="M37,65.8c-0.6,0-1-0.4-1-1c0-0.2,0.1-0.5,0.2-0.6l7.3-8.8c0.4-0.4,1-0.5,1.4-0.1c0.4,0.4,0.5,1,0.1,1.4 c0,0,0,0,0,0l-7.3,8.8C37.6,65.7,37.3,65.8,37,65.8 M30,65.8c-0.6,0-1-0.4-1-1c0-0.2,0.1-0.5,0.2-0.6l7.3-8.8 c0.4-0.4,1-0.5,1.4-0.1c0.4,0.4,0.5,1,0.1,1.4c0,0,0,0,0,0l-7.3,8.8C30.6,65.7,30.3,65.8,30,65.8 M23,65.8c-0.6,0-1-0.4-1-1 c0-0.2,0.1-0.5,0.2-0.6l7.3-8.8c0.4-0.4,1-0.5,1.4-0.1c0.4,0.4,0.5,1,0.1,1.4c0,0,0,0,0,0l-7.3,8.8C23.6,65.7,23.3,65.8,23,65.8"/>
</svg>
