<svg xmlns="http://www.w3.org/2000/svg" viewBox="0 0 82 82">
    <path d="M40.498 49.993C34.158 49.993 29 44.836 29 38.496 29 32.157 34.158 27 40.498 27c6.34 0 11.497 5.157 11.497 11.496 0 6.34-5.157 11.497-11.497 11.497m13.497-11.497C53.995 31.055 47.94 25 40.498 25S27 31.055 27 38.496c0 7.442 6.056 13.497 13.498 13.497 7.442 0 13.497-6.055 13.497-13.497"/>
    <path d="M27.027 24.679c3.842-3.841 8.889-5.762 13.936-5.762a19.65 19.65 0 0 1 13.934 5.762c7.682 7.684 7.682 20.187 0 27.87L40.964 66.484 27.027 52.549c-7.682-7.683-7.682-20.186 0-27.87m48.288-6.003C69.362 9.5 60.192 3.192 49.494.912 38.797-1.366 27.852.657 18.676 6.61 9.5 12.563 3.192 21.732.913 32.43-1.367 43.127.657 54.072 6.61 63.247c5.953 9.176 15.122 15.485 25.884 17.775.252.037 5.988.868 8.449.868.086 0 .168-.001.246-.003a1 1 0 0 0 .973-1V68.114L56.31 53.963c8.462-8.464 8.462-22.234 0-30.698-8.463-8.461-22.235-8.46-30.698 0-8.462 8.464-8.462 22.234 0 30.698L40.162 68.51v11.357c-2.603-.132-7.303-.813-7.316-.813-10.174-2.167-18.896-8.167-24.558-16.895C2.626 53.43.702 43.02 2.87 32.846c2.167-10.175 8.167-18.897 16.894-24.56C28.492 2.627 38.9.7 49.078 2.87c10.175 2.167 18.896 8.167 24.558 16.895 5.662 8.728 7.587 19.138 5.419 29.313-2.774 13.025-11.878 23.617-24.35 28.333a1 1 0 0 0 .707 1.872c13.112-4.96 22.682-16.095 25.6-29.79 2.279-10.696.255-21.64-5.697-30.816"/>
</svg>
