<svg xmlns="http://www.w3.org/2000/svg" title="icon electric car" viewBox="0 0 80 80">
    <path d="M61.321 46.715c0 1.505-.849 2.27-2.52 2.27H22.84c-1.216 0-3.274-.373-3.274-1.767v-8.802c0-1.264.94-2.87 2.514-3.37a3.325 3.325 0 0 1 1.013-.156H58.8c2.274 0 2.52 2.29 2.52 3.275v8.55zm-34.866-22.06c.601-1.4 1.262-1.656 2.35-1.656h23.89c1.896 0 2.163.534 2.876 1.962.506 1.011 1.987 5.362 2.84 7.928H23.376c.8-2.208 2.52-6.927 3.08-8.234zM60.34 5.537C41.336-5.67 16.763.677 5.561 19.679.133 28.884-1.384 39.653 1.286 50c2.671 10.348 9.211 19.035 18.415 24.464A39.752 39.752 0 0 0 39.953 80c13.707 0 27.076-7.04 34.527-19.68a1 1 0 0 0-1.722-1.016C62.113 77.358 38.767 83.383 20.717 72.74 11.973 67.583 5.76 59.33 3.222 49.5.685 39.67 2.127 29.441 7.284 20.695 17.926 2.644 41.273-3.382 59.324 7.26c11.193 6.6 18.176 18.304 18.678 31.226l-.083 1.988a3.354 3.354 0 0 1-3.35 3.351 3.355 3.355 0 0 1-3.352-3.35v-6.092c0-2.95-2.4-5.35-5.35-5.35-2.563 0-4.706 1.812-5.227 4.222h-.004c-.36-1.099-2.547-7.73-3.276-9.189-.788-1.578-1.533-3.068-4.666-3.068H28.805c-2.046 0-3.338.885-4.187 2.87-.731 1.706-3.243 8.67-3.515 9.427-2.292.928-3.536 3.267-3.536 5.121v8.802c0 2.253 2.12 3.766 5.275 3.766H58.8c2.788 0 4.52-1.635 4.52-4.269v-8.55c0-1.352-.332-2.486-.903-3.364a.992.992 0 0 0 .098-.418 3.355 3.355 0 0 1 3.352-3.35 3.353 3.353 0 0 1 3.35 3.35v6.091c0 2.951 2.4 5.352 5.35 5.352 2.95 0 5.351-2.4 5.35-5.31L80 38.49c-.529-13.687-7.878-26.006-19.66-32.953zM44.97 44.14H34.9a1 1 0 1 0 0 2.001h10.07a1 1 0 1 0 0-2zm.252-4.37h-10.31a1 1 0 1 0 0 2h10.31a1 1 0 1 0 0-2zm8.153 12.718a1 1 0 0 0-1 1.001v1.872c0 1.832 1.485 3.212 3.456 3.212h3.93c1.79 0 3.087-1.454 3.087-3.457v-3.07a.999.999 0 1 0-2 0v3.07c0 .704-.286 1.456-1.088 1.456h-3.93c-.87 0-1.455-.486-1.455-1.21v-1.873a1 1 0 0 0-1-1zm-34.388-1.495c-.553 0-1 .447-1 1v3.071c0 2.003 1.298 3.456 3.088 3.456h3.93c1.97 0 3.455-1.38 3.455-3.21v-1.874a.999.999 0 1 0-2 0v1.873c0 .724-.585 1.21-1.455 1.21h-3.93c-.802 0-1.088-.752-1.088-1.455v-3.07a1 1 0 0 0-1-1zm6.12-6.356a1.894 1.894 0 0 1-1.893-1.89 1.893 1.893 0 0 1 3.784 0 1.893 1.893 0 0 1-1.891 1.89zm0-5.784a3.897 3.897 0 0 0-3.893 3.893 3.896 3.896 0 0 0 3.893 3.892 3.896 3.896 0 0 0 3.89-3.892 3.896 3.896 0 0 0-3.89-3.893zm30.677 5.784a1.894 1.894 0 0 1-1.892-1.89c0-1.045.849-1.893 1.892-1.893 1.044 0 1.893.848 1.893 1.892a1.894 1.894 0 0 1-1.893 1.891zm0-5.784a3.896 3.896 0 0 0-3.892 3.893 3.896 3.896 0 0 0 3.892 3.892 3.897 3.897 0 0 0 3.892-3.892 3.897 3.897 0 0 0-3.892-3.893zM44.647 32.6a1 1 0 0 0 1-1 3.184 3.184 0 0 1 3.18-3.18 3.185 3.185 0 0 1 3.182 3.18 1 1 0 1 0 2 0 5.188 5.188 0 0 0-5.181-5.182 5.187 5.187 0 0 0-5.18 5.182 1 1 0 0 0 1 1z"/>
</svg>