<svg xmlns="http://www.w3.org/2000/svg" viewBox="0 0 82 82">
    <path d="M47.4 49.6H34v-3L47.6 44v5.6h-.2zm2-6.8c0-.2-.202-.6-.4-.8-.2-.2-.6-.2-.802-.2l-15.598 3c-.4 0-.8.598-.8 1v4.8c0 .6.4 1 1 1h15.6c.6 0 1-.4 1-1v-7.8zM76 60.2c-.4-.2-1.2-.2-1.4.4C67.6 72.6 54.8 80 41 80S14.2 72.6 7.4 60.6c-.4-.4-1-.6-1.4-.4-.4.2-.6 1-.4 1.4C13 74.2 26.4 82 41 82c14.6 0 28-7.8 35.4-20.4.4-.4.2-1-.4-1.4"/>
    <path d="M41 0c22.6 0 41 18.4 40.8 41 0 5-1 10-2.8 14.8-.2.4-.6.6-1 .6H52.2c-.6 0-1-.4-1-1V22.6H30v31.8h11.2c.6 0 1 .4 1 1s-.4 1-1 1h-12c-.6 0-1-.4-1-1V21.6c0-.6.4-1 1-1h5.4V17c0-.6.4-1 1-1h11c.6 0 1 .4 1 1v3.6h4.8c.6 0 1 .4 1 1v32.8h24.2C79.2 50.2 80 45.6 80 41 80 19.6 62.4 2 41 2S2 19.6 2 41c0 4.6.8 9.2 2.4 13.4h20c.6 0 1 .4 1 1s-.4 1-1 1H3.8c-.4 0-.8-.2-1-.6C1 51 0 46 0 41 0 18.4 18.4 0 41 0zm-4.6 20.6h9V18h-9v2.6z"/>
</svg>
