<svg xmlns="http://www.w3.org/2000/svg" width="32" height="32" viewBox="0 0 32 32">
    <circle cx="16" cy="16" r="16" />
    <path fill="#F2F2F2" d="M12.43 20.193v-8.75l8.414 4.39-8.413 4.36zm13.37-8.158s-.195-1.379-.795-1.986c-.76-.796-1.613-.8-2.003-.847C20.202 9 16.004 9 16.004 9h-.008s-4.198 0-6.997.202c-.391.047-1.243.05-2.004.847-.6.607-.795 1.986-.795 1.986S6 13.653 6 15.27v1.518c0 1.618.2 3.237.2 3.237s.195 1.378.795 1.985c.76.797 1.76.771 2.205.855 1.6.153 6.8.2 6.8.2s4.203-.006 7.002-.208c.39-.047 1.243-.05 2.003-.847.6-.607.796-1.985.796-1.985S26 18.407 26 16.789V15.27c0-1.618-.2-3.236-.2-3.236z"/>
</svg>
