<svg xmlns="http://www.w3.org/2000/svg" viewBox="0 0 82 82">
    <path d="M78.22 24.016C84 36.767 82.906 51.41 75.295 63.183a1 1 0 0 1-1.68-1.086c7.24-11.199 8.28-25.126 2.785-37.255-4.293-9.477-12.106-16.71-22-20.368C44.503.815 33.856 1.226 24.425 5.635 5.2 14.618-3.315 37.657 5.447 56.99c8.862 19.562 31.987 28.262 51.547 19.403-.002 0 .736-.397 1.74-.955 2.722-1.509 3.823-4.902 2.509-7.72L51.196 46.164l-7.752 6.522 10.944 9.363a.73.73 0 0 1 .085.082c.03.03.907.924 2.36.596a1.008 1.008 0 0 1 1.194.76 1.003 1.003 0 0 1-.76 1.194 4.608 4.608 0 0 1-4.21-1.139l-11.165-9.55-11.76 9.895c-.975.98-3.232 2.368-5.115.975-2.086-1.546-1.783-3.74-1.324-4.506.233-.452 4.608-10.069 7.497-16.433l2.968-7.265-.024.017H24.19v3.343a.923.923 0 1 1-1.847 0v-3.343h-2.71a.923.923 0 1 1 0-1.847h15.033l.002-12.94H24.19v3.343a.923.923 0 1 1-1.847 0V21.89h-2.71a.923.923 0 0 1 0-1.847h15.403l5.92-11.025.104-.158.063-.065.064-.065.102-.069.045-.029.005-.003.14-.06.088-.022.11-.023h.182l.103.021.103.027.14.057.005.003.045.03.1.068.128.127.07.105.032.042.005.008v.002l5.969 11.03 15.354-.006a.923.923 0 1 1 0 1.847h-2.711v3.343a.923.923 0 0 1-.923.923h-.001a.92.92 0 0 1-.921-.92v-3.344H48.934V34.83h14.98a.924.924 0 1 1 0 1.847h-2.71v3.343a.924.924 0 0 1-1.846 0v-3.343H49.08l3.377 7.462 10.597 22.733c1.756 3.768.286 8.3-3.35 10.316-1.057.587-1.823.997-1.823.997a40.866 40.866 0 0 1-16.906 3.666c-15.603 0-30.513-8.944-37.351-24.034-9.21-20.327-.26-44.548 19.952-53.994C33.497-.813 44.69-1.247 55.093 2.6 65.49 6.442 73.705 14.05 78.22 24.016zM41.906 51.37l8.422-7.089-3.297-7.284H36.18l-2.868 7.021 8.593 7.352zM28.78 62.415l11.573-9.739-7.881-6.742c-2.79 6.144-6.887 15.156-7.065 15.453.005 0-.378.997.8 1.87.95.704 2.557-.826 2.573-.842zm7.728-27.586h10.578V21.887H36.509V34.83zm5.269-23.443l-4.647 8.656h9.33l-4.683-8.656z"/>
</svg>
