<svg xmlns="http://www.w3.org/2000/svg" viewBox="0 0 82 82">
    <path d="M34.825 29.316l5.265 5.027a1 1 0 0 0 1.381-1.446l-4.956-4.732v-7.331a1 1 0 0 0-1-1h-4.512a1 1 0 0 0-1 1v1.115l-5.08-4.848a1 1 0 0 0-1.38.001L6.994 32.897a1 1 0 0 0 1.381 1.446l15.856-15.136 6.08 5.802a1 1 0 0 0 1.691-.723v-2.452h2.512v6.759c0 .273.112.535.31.723M40.602 48.695a.995.995 0 0 0 .69-.277l5.266-5.027a1 1 0 0 0 .31-.723V35.91h2.512v2.452a1 1 0 0 0 1.69.724l6.08-5.802 15.856 15.135a.999.999 0 1 0 1.381-1.446L57.84 31.177a1 1 0 0 0-1.381 0l-5.08 4.848V34.91a1 1 0 0 0-1-1h-4.511a1 1 0 0 0-1 1v7.331l-4.956 4.732a1 1 0 0 0 .69 1.723"/>
    <path d="M66.66 47.183v11.975a1 1 0 1 0 2 0V47.183a1 1 0 1 0-2 0M12.146 33.906v11.975a1 1 0 1 0 2 0V33.906a1 1 0 1 0-2 0"/>
    <g transform="translate(3 55.915)">
        <path d="M64.83 13.232C57.546 20.175 48.003 24 37.956 24 22.865 24 8.997 15.15 2.623 1.45a.999.999 0 1 0-1.813.844C7.51 16.694 22.09 26 37.957 26c10.562 0 20.597-4.02 28.253-11.32a1 1 0 0 0-1.38-1.448" />
    </g>
    <g transform="translate(0 -.085)">
        <path d="M81.914 41.043C81.914 18.459 63.541.085 40.957.085S0 18.459 0 41.043c0 3.078.348 6.154 1.031 9.144-.003.032-.018.059-.018.092a1 1 0 0 0 1 1h33.758a1 1 0 0 0 1-1V33.992a1 1 0 1 0-2 0v15.287H2.89A39.054 39.054 0 0 1 2 41.043C2 19.562 19.476 2.085 40.957 2.085s38.957 17.477 38.957 38.958a38.755 38.755 0 0 1-6.485 21.512H47.075V47.268a1 1 0 1 0-2 0v16.287a1 1 0 0 0 1 1h28.031a.988.988 0 0 0 .974-.871 40.743 40.743 0 0 0 6.834-22.641" />
    </g>
    <path d="M24.32 34.169h.166c.803 0 1.588.335 1.98.59.594.595.922 1.357.922 2.146 0 .621-.337 1.257-.62 1.683-.822 1.153-1.205 2.358-1.205 3.791 0 .524-.554 1.078-1.077 1.078-.523 0-1.077-.554-1.077-1.078 0-1.466-.399-2.658-1.235-3.66-.37-.37-.59-1.048-.592-1.786.153-1.373 1.393-2.614 2.738-2.764m-2.738 8.376a2.873 2.873 0 0 0 2.904 2.905c1.602 0 2.904-1.229 2.904-2.739 0-.959.334-1.905.96-2.691.6-.997.866-1.856.866-2.783 0-1.351-.498-2.592-1.4-3.495-.82-.819-1.997-1.235-3.496-1.235-2.474 0-4.563 2.09-4.563 4.564a4.78 4.78 0 0 0 1.045 2.97c.481.642.78 1.601.78 2.504M25.4 30.933v-1.66c0-.468-.444-.913-.914-.913-.47 0-.913.445-.913.914v1.493c0 .47.443.914.913.914.462 0 .914-.43.914-.748M20.173 33.173c.184 0 .436 0 .675-.239.214-.214.322-.44.322-.675 0-.233-.108-.46-.322-.674l-.995-.995c-.43-.429-.922-.429-1.35 0-.428.428-.428.92 0 1.35l.996.994c.239.24.49.24.674.24M16.69 35.162c-.47 0-.915.444-.915.914 0 .469.444.913.914.913h1.66c.47 0 .913-.444.913-.913 0-.47-.444-.914-.913-.914h-1.66zM30.459 36.989h1.658c.375 0 .705-.158.863-.412a.615.615 0 0 0 .049-.56c-.034-.447-.462-.855-.912-.855h-1.658c-.47 0-.914.444-.914.914 0 .469.444.913.914.913M30.636 31.938c.428-.427.428-.92 0-1.348-.43-.428-.92-.428-1.35 0l-.995.996c-.214.212-.322.44-.322.674 0 .233.108.46.322.675.24.238.49.238.675.238.184 0 .435 0 .674-.239l.996-.995zM53.194 49.715c0 .879.293 1.758.88 2.49.438.586.731 1.465.731 2.344a2.314 2.314 0 0 0 2.344 2.343c1.318 0 2.343-1.025 2.343-2.197 0-.878.293-1.757.88-2.49.438-.732.731-1.465.731-2.344 0-1.171-.439-2.196-1.172-2.93-.73-.731-1.757-1.024-2.928-1.024-2.05 0-3.809 1.758-3.809 3.808"/>
</svg>
