<svg xmlns="http://www.w3.org/2000/svg" viewBox="0 0 80 80">
    <path d="M34.667 21.058a1 1 0 0 1 1.334.943v11a1 1 0 0 1-1 1H25a1 1 0 0 1-.951-1.309c1.812-5.58 5.632-9.87 10.617-11.634zm-8.24 10.943h7.574V23.5c-3.35 1.617-6.012 4.634-7.573 8.5z"/>
    <path d="M7.083 58.999A37.82 37.82 0 0 1 2 40C2 19.013 19.013 2 40 2s38 17.013 38 38c0 20.986-17.014 38-38 38a37.819 37.819 0 0 1-18.283-4.68 1 1 0 0 0-.964 1.753A39.819 39.819 0 0 0 40 80c22.091 0 40-17.909 40-40C80 17.908 62.091 0 40 0 17.908 0 0 17.908 0 40c0 7.57 2.108 14.832 6.025 21.12.44.563 1.128.605 1.55.192l17.414-17a1 1 0 0 0 .26-1.004c-.293-.974-.394-1.691-.42-3.048h17.277c3.453 0 6.378-3.725 6.378-7.454V25.02c3.856 3.042 6.605 8.452 6.605 13.459 0 8.428-6.604 14.84-15.135 14.84h-5.232c-3.864 0-7.57 1.55-10.3 4.307L7.234 75.328A1 1 0 1 0 8.67 76.72l17.18-17.695a12.49 12.49 0 0 1 8.873-3.707h5.232c9.623 0 17.135-7.296 17.135-16.841 0-6.344-3.859-13.151-9.1-16.216a1 1 0 0 0-1.505.864v9.68c0 2.716-2.15 5.454-4.378 5.454H23.82a1 1 0 0 0-1 1c0 1.913.063 2.897.35 4.033L7.082 59z"/>
    <path d="M33.106 42.553l-3 6a1 1 0 1 0 1.789.894l3-6a1 1 0 1 0-1.79-.894zM38.106 42.553l-3 6a1 1 0 1 0 1.789.894l3-6a1 1 0 1 0-1.79-.894zM44.106 42.553l-3 6a1 1 0 1 0 1.789.894l3-6a1 1 0 1 0-1.79-.894z"/>
</svg>
