<svg xmlns="http://www.w3.org/2000/svg" viewBox="0 0 82 82">
    <path d="M43.321 38.81v-6.006a1 1 0 0 1 1-1h15.907a1 1 0 0 1 1 1v6.005a1 1 0 0 1-1 1H44.321a1 1 0 0 1-1-1zm2-1h13.907v-4.006H45.321v4.005zM44.321 27.87a1 1 0 0 1-1-1v-6.005a1 1 0 0 1 1-1h15.907a1 1 0 0 1 1 1v6.005a1 1 0 0 1-1 1H44.321zm1-2h13.907v-4.005H45.321v4.004zM43.321 50.748v-6.005a1 1 0 0 1 1-1h15.907a1 1 0 0 1 1 1v6.005a1 1 0 0 1-1 1H44.321a1 1 0 0 1-1-1zm2-1h13.907v-4.005H45.321v4.005zM60.228 63.686H44.321a1 1 0 0 1-1-1v-6.004a1 1 0 0 1 1-1h15.907a1 1 0 0 1 1 1v6.004a1 1 0 0 1-1 1zm-14.907-2h13.907v-4.004H45.321v4.004z"/>
    <path d="M36.76 60.85l-5.006 18.986a1.001 1.001 0 0 1-1.2.718c-2.236-.537-7.932-2.984-8.173-3.088C2.212 67.171-5.795 42.458 4.472 22.35 9.446 12.607 17.914 5.386 28.32 2.014c10.407-3.37 21.501-2.489 31.242 2.484 9.741 4.974 16.963 13.444 20.334 23.85 3.371 10.403 2.49 21.5-2.485 31.24-6.366 12.47-18.495 20.744-32.444 22.135a1.001 1.001 0 0 1-.199-1.99C58.038 78.41 69.575 70.54 75.63 58.68c4.731-9.266 5.57-19.819 2.363-29.716-3.207-9.897-10.075-17.952-19.34-22.683-9.266-4.73-19.82-5.57-29.716-2.363C19.04 7.124 10.984 13.993 6.253 23.258c-9.765 19.128-2.149 42.634 16.98 52.4.003 0 4.367 1.874 6.848 2.678L34.6 61.203c-10.109-.618-18.15-9.057-18.15-19.372 0-8.943 5.974-16.597 14.58-18.805v-3.96a1 1 0 0 1 1.54-.842l7.748 4.973a1 1 0 0 1 0 1.684l-7.748 4.973a1.002 1.002 0 0 1-1.54-.842v-2.308a1 1 0 1 1 2 0v.478l4.896-3.143-4.896-3.143v2.971a1 1 0 0 1-1 1c-.034 0-.06-.016-.093-.018-7.942 1.836-13.487 8.815-13.487 16.982 0 9.612 7.774 17.432 17.33 17.432.552 0 .917.378.995.943.022.16.04.4-.014.644"/>
</svg>
