<svg xmlns="http://www.w3.org/2000/svg" viewBox="0 0 21.95 16.73"><path d="M21 3.25H7a1 1 0 0 1 0-2h14a1 1 0 0 1 0 2zm0 6H7a1 1 0 0 1 0-2h14a1 1 0 0 1 0 2zm0 6H7a1 1 0 1 1 0-2h14a1 1 0 1 1 0 2zM2.25 4.5A2.25 2.25 0 1 1 4.5 2.25 2.25 2.25 0 0 1 2.25 4.5zm0-3.5A1.25 1.25 0 1 0 3.5 2.25 1.25 1.25 0 0 0 2.25 1zm0 9.74A2.25 2.25 0 1 1 4.5 8.49a2.25 2.25 0 0 1-2.25 2.25zm0-3.5A1.25 1.25 0 1 0 3.5 8.49a1.25 1.25 0 0 0-1.25-1.25zm.01 9.49a2.25 2.25 0 1 1 2.25-2.25 2.25 2.25 0 0 1-2.25 2.25zm0-3.5a1.25 1.25 0 1 0 1.25 1.25 1.25 1.25 0 0 0-1.25-1.25z"/></svg>
