<svg xmlns="http://www.w3.org/2000/svg" viewBox="0 0 24 24"  className={className} data-size={size} data-flip={flip}>
    <path d="M14.858 22.704c1.015-.988 1.863-2.492 2.454-4.348.056.014.113.025.17.04a22.405 22.405 0 0 1 2.115.642c.153.054.307.11.46.169l.26.104a11.006 11.006 0 0 1-5.46 3.393zM3.683 19.311c.982-.39 1.985-.709 3.005-.955.59 1.853 1.437 3.357 2.45 4.345a11.005 11.005 0 0 1-5.455-3.39zM9.129 1.309c-1.08 1.057-1.969 2.701-2.56 4.73-.07-.018-.14-.033-.208-.05-.164-.043-.326-.09-.489-.135a22.668 22.668 0 0 1-.604-.178c-.163-.05-.326-.106-.488-.16a20.88 20.88 0 0 1-1.076-.395c-.096-.038-.192-.079-.288-.118a11.144 11.144 0 0 1 5.713-3.694zm11.455 3.694c-.096.04-.191.08-.288.118-.16.064-.323.126-.485.187a24.905 24.905 0 0 1-1.683.546c-.163.046-.325.092-.49.134-.068.018-.138.033-.207.05-.591-2.028-1.48-3.672-2.56-4.73 2.223.602 4.235 1.886 5.713 3.695zm-2.359 6.535a21.886 21.886 0 0 0-.558-4.603l.27-.069c.17-.045.338-.095.507-.143.215-.061.43-.122.642-.19.171-.054.34-.114.51-.172.21-.071.417-.142.624-.22.172-.064.342-.133.512-.202.142-.056.286-.108.426-.168a10.962 10.962 0 0 1 1.902 5.767h-4.835zm-5.763 11.493v-5.297c.218.004.436.006.653.016.122.006.243.018.365.026.248.016.496.031.742.055.144.015.288.035.432.051.222.026.444.052.665.084.152.023.304.05.457.076.203.034.406.069.609.108-.882 2.693-2.313 4.575-3.923 4.88zm-.923-5.297v5.297c-1.611-.306-3.042-2.188-3.923-4.88a22.61 22.61 0 0 1 3.923-.417zm-4.841-5.273h4.84v4.35a23.512 23.512 0 0 0-4.186.45 20.508 20.508 0 0 1-.654-4.8zM11.538.97V6.69c-.228-.004-.458-.006-.686-.017-.127-.007-.252-.02-.378-.027-.254-.018-.508-.034-.76-.06-.15-.015-.3-.036-.448-.054-.228-.028-.456-.054-.682-.089-.158-.024-.315-.054-.473-.08a22.904 22.904 0 0 1-.62-.115C8.36 3.344 9.85 1.29 11.54.97zm4.35 5.393c-.157.027-.314.057-.472.081-.227.035-.454.061-.681.089-.15.018-.298.04-.448.054-.253.026-.507.042-.76.06-.127.008-.253.02-.379.027-.228.011-.457.013-.686.017V.97c1.688.32 3.179 2.374 4.047 5.28-.206.04-.413.077-.62.113zm-7.977.902c.164.029.328.061.492.086.24.037.483.065.725.094.154.02.308.043.463.059.267.027.535.044.803.062.133.009.264.023.397.03.249.012.498.014.748.019v3.923H6.698c.033-1.561.228-3.05.552-4.393.22.044.44.08.661.12zm4.55 4.273V7.615c.25-.005.5-.007.747-.02.133-.006.265-.02.397-.029.269-.018.537-.035.803-.062.156-.016.31-.04.464-.059.242-.029.484-.057.725-.094.164-.025.328-.057.491-.086.222-.04.442-.076.661-.12.324 1.343.52 2.832.553 4.393h-4.84zm4.186 5.722c-.216-.044-.434-.08-.651-.116-.165-.028-.329-.06-.494-.085-.23-.034-.462-.06-.693-.087-.155-.019-.309-.041-.464-.057-.258-.025-.517-.04-.776-.058-.131-.009-.26-.022-.392-.028-.238-.012-.477-.014-.715-.018v-4.35h4.84a20.5 20.5 0 0 1-.654 4.799zM2.841 5.77c.142.06.285.112.427.168.17.07.34.138.512.203.206.077.415.148.623.22.17.057.34.117.51.171.214.068.428.129.643.19.169.048.337.098.506.143l.271.069a21.917 21.917 0 0 0-.558 4.603H.94a10.966 10.966 0 0 1 1.901-5.767zm.232 12.783A10.933 10.933 0 0 1 .941 12.46h4.834c.034 1.808.266 3.5.657 5.003a23.42 23.42 0 0 0-3.359 1.09zm17.854 0c-.137-.057-.275-.105-.413-.158-.17-.066-.338-.133-.508-.195-.197-.07-.396-.136-.594-.202-.17-.057-.34-.115-.512-.168-.202-.062-.406-.118-.61-.174-.17-.047-.338-.097-.51-.14l-.212-.053c.391-1.503.623-3.195.657-5.003h4.834a10.937 10.937 0 0 1-2.132 6.093zm.765-13.628A12.049 12.049 0 0 0 12 0a12.048 12.048 0 0 0-9.692 4.926A11.909 11.909 0 0 0 0 12c0 2.71.885 5.27 2.559 7.403A11.936 11.936 0 0 0 12 24c3.706 0 7.147-1.676 9.441-4.597A11.877 11.877 0 0 0 24.001 12c0-2.562-.8-5.008-2.309-7.074z"/>
</svg>
