<svg xmlns="http://www.w3.org/2000/svg" viewBox="0 0 82 82">
    <path d="M42.538 15.425v-4.648h3.886a1 1 0 0 0 0-2h-9.75a1 1 0 1 0 0 2h3.814v4.612c-3.574.07-7.04.866-10.223 2.337a1.026 1.026 0 0 0 .859 1.86A23.48 23.48 0 0 1 41 17.426c13.02 0 23.575 10.555 23.575 23.575S54.02 64.575 41 64.575 17.425 54.02 17.425 41a23.48 23.48 0 0 1 5.493-15.128 1.025 1.025 0 1 0-1.571-1.316A25.524 25.524 0 0 0 15.375 41c0 14.153 11.473 25.625 25.625 25.625S66.625 55.153 66.625 41c0-13.635-10.651-24.78-24.087-25.575M82 41c0 22.644-18.356 41-41 41C18.357 82 0 63.644 0 41a40.84 40.84 0 0 1 10.168-27.027 1.024 1.024 0 1 1 1.541 1.352A38.792 38.792 0 0 0 2.049 41c0 21.51 17.44 38.95 38.95 38.95 21.513 0 38.95-17.44 38.95-38.95C79.95 19.488 62.513 2.05 41 2.05a38.766 38.766 0 0 0-22.518 7.174L40.93 40.487h10.86c.55 0 .998.459.998 1.025 0 .567-.447 1.026-.998 1.026H40.426a.99.99 0 0 1-.803-.417L16.37 9.738c-.022-.031-.027-.068-.045-.1-.02-.022-.046-.033-.064-.057a1.026 1.026 0 0 1 .207-1.435A40.81 40.81 0 0 1 40.999 0c22.645 0 41 18.356 41 41"/>
</svg>
