<svg xmlns="http://www.w3.org/2000/svg" title="icon meterboard wall" viewBox="0 0 80 80">
    <path d="M39.456 23.837a7.685 7.685 0 0 0-2.871.566l.542.765-3.971.37 1.664-3.623.588.828a9.634 9.634 0 0 1 4.042-.905 1 1 0 1 1 .006 2zM34.94 48.555a1 1 0 0 1 1.877-.689l3.101 8.446a1 1 0 0 1-1.876.69l-3.102-8.447zM28.64 28.5a1 1 0 0 1 1.283.594l3.1 8.446a.998.998 0 0 1-.935 1.345 1 1 0 0 1-.941-.656l-3.1-8.446a.996.996 0 0 1 .593-1.283zm10.48 32.895L26.024 25.733l2.817-1.035 13.096 35.664-2.818 1.034zM79.856 36.64C78.004 14.662 58.61-1.7 36.642.141c-10.647.897-20.306 5.887-27.2 14.05C2.55 22.352-.753 32.71.145 43.356c1.76 20.88 19.343 36.7 39.94 36.643a41.064 41.064 0 0 0 3.275-.143c.056-.005.103-.03.156-.045.063-.016.128-.026.187-.054.06-.029.107-.07.16-.108.05-.038.103-.07.146-.118.044-.048.073-.104.107-.16.032-.054.07-.104.091-.163.023-.064.03-.132.04-.2.008-.05.03-.098.03-.15l-.163-58.534a1 1 0 1 0-2 .006l.097 34.976-11.837-32.235a.998.998 0 0 0-1.282-.593L24.398 24.2a1 1 0 0 0-.594 1.283L37.59 63.025a1.005 1.005 0 0 0 .94.656c.115 0 .232-.022.342-.062l3.36-1.234.042 15.533C21.791 79.158 3.872 63.762 2.14 43.19c-.854-10.114 2.284-19.955 8.832-27.709C17.52 7.726 26.695 2.987 36.81 2.135 57.672.361 76.103 15.93 77.864 36.808 78.956 49.756 73.45 62.22 63.137 70.15a.999.999 0 1 0 1.219 1.585c10.855-8.345 16.65-21.465 15.5-35.094z"/>
</svg>