<svg xmlns="http://www.w3.org/2000/svg" viewBox="0 0 80 80" title="icon meterbox">
	<path d="M68.3,11.7C60.7,4.2,50.7,0,40,0h0C17.9,0,0,18,0,40c0,22.1,18,40,40,40h0c0.5,0,1-0.4,1-1V61h15.7c0.5,0,1-0.4,1-1V20 c0-0.5-0.5-1-1-1h-32c-0.6,0-1,0.5-1,1v4.5c0,0,0,0,0,0c-0.6,0-1,0.5-1,1v9c0,0.6,0.4,1,1,1h0v9c0,0,0,0,0,0c-0.6,0-1,0.5-1,1v9 c0,0.6,0.4,1,1,1h0V60c0,0.6,0.4,1,1,1H39v17C18.5,77.5,2,60.6,2,40c0-21,17-38,38-38h0c10.2,0,19.7,4,26.9,11.1 C74,20.3,78,29.8,78,40c0,13-6.5,25-17.5,32c-0.5,0.3-0.6,0.9-0.3,1.4c0.3,0.5,0.9,0.6,1.4,0.3c0,0,0,0,0,0C73.1,66.3,80,53.7,80,40 C80,29.3,75.8,19.3,68.3,11.7z M25.7,59V21h30v38H25.7z M50.9,37.4c-1.4,0-2.6,1.1-2.6,2.6c0,1.4,1.2,2.6,2.6,2.6 c1.4,0,2.6-1.2,2.6-2.6C53.5,38.5,52.3,37.4,50.9,37.4z M50.9,37.4c-1.4,0-2.6,1.1-2.6,2.6c0,1.4,1.2,2.6,2.6,2.6 c1.4,0,2.6-1.2,2.6-2.6C53.5,38.5,52.3,37.4,50.9,37.4z M50.9,37.4c-1.4,0-2.6,1.1-2.6,2.6c0,1.4,1.2,2.6,2.6,2.6 c1.4,0,2.6-1.2,2.6-2.6C53.5,38.5,52.3,37.4,50.9,37.4z M50.9,39.4c-0.3,0-0.6,0.2-0.6,0.6s0.2,0.6,0.6,0.6s0.6-0.3,0.6-0.6 S51.2,39.4,50.9,39.4z"/>
</svg>