<svg xmlns="http://www.w3.org/2000/svg" title="icon chimney" viewBox="0 0 80 80">
    <path d="M37.677 28.448L11.739 49.813a.998.998 0 0 0-.136 1.407.993.993 0 0 0 1.407.136l25.293-20.833 7.839 6.656a.998.998 0 0 0 1.647-.762V32.61h4.759v8.117c0 .277.114.54.316.729l10.493 9.857a1 1 0 1 0 1.369-1.457l-10.178-9.561V31.61a1 1 0 0 0-1-1h-6.76a1 1 0 0 0-1 1v2.646l-6.828-5.8a1 1 0 0 0-1.283-.008zm40.005 25.04c2.912-8.088 3.139-16.861.567-25.225-3.14-10.211-10.068-18.59-19.51-23.59-9.44-5.001-20.263-6.028-30.476-2.887-10.212 3.14-18.59 10.068-23.591 19.51-5.001 9.44-6.026 20.264-2.887 30.476 3.14 10.212 10.07 18.59 19.51 23.59a.985.985 0 0 0 .636.086c.052.009.098.03.152.03a1 1 0 0 0 1-1V49.303a1 1 0 1 0-2 0V72.95C12.703 68.14 6.55 60.465 3.697 51.184.715 41.483 1.689 31.2 6.44 22.23 11.19 13.26 19.15 6.68 28.85 3.698c9.7-2.982 19.984-2.01 28.954 2.742 8.969 4.75 15.55 12.71 18.533 22.41 2.428 7.899 2.233 16.182-.486 23.827-8.403 8.219-21.92 8.174-30.251-.158a1 1 0 0 0-1.414 1.414c4.584 4.584 10.605 6.876 16.627 6.876 4.684 0 9.36-1.406 13.368-4.181-.191.393-.38.787-.586 1.175-3.975 7.505-10.263 13.292-17.798 16.708V62.657a1 1 0 1 0-2 0v12.692a38.776 38.776 0 0 1-10.715 2.479 1 1 0 1 0 .168 1.992c13.73-1.16 25.736-9.041 32.113-21.081a40.369 40.369 0 0 0 2.246-5.061 1.02 1.02 0 0 0 .073-.19zm-23.885-4.186v5.917a1 1 0 1 0 2 0v-5.917a1 1 0 1 0-2 0zM53.36 14.56a1 1 0 0 0-1.426-1.402l-.386.392c-.73.736-1.08 1.723-.96 2.707.128 1.023.746 1.939 1.697 2.512.397.24.656.583.729.969.065.342-.022.68-.247.976l-.922 1.194a1.001 1.001 0 0 0 1.584 1.223l.925-1.2c.575-.753.797-1.665.625-2.567-.182-.952-.772-1.771-1.661-2.308-.428-.257-.692-.63-.744-1.046-.046-.376.093-.75.397-1.054l.389-.396zm-5.3 4.504c-.303.306-.443.68-.397 1.055.052.416.316.787.743 1.045.89.535 1.48 1.354 1.662 2.305.172.904-.05 1.816-.625 2.57l-.924 1.199a1 1 0 0 1-1.404.18 1.003 1.003 0 0 1-.18-1.403l.92-1.193c.226-.296.313-.636.248-.978-.073-.384-.332-.728-.73-.967-.95-.574-1.567-1.49-1.694-2.511-.122-.984.227-1.971.958-2.707l.387-.394a.999.999 0 1 1 1.425 1.403l-.39.396z"/>
</svg>