<svg xmlns="http://www.w3.org/2000/svg" title="icon jacuzzi" viewBox="0 0 80 80">
    <path d="M59.635 38.926l-9.788-1.62v-3.175l9.788 1.62v3.175zm4.91-7.274a1 1 0 1 0 2 0c0-1.897-1.55-3.439-3.454-3.439-1.905 0-3.456 1.542-3.456 3.44v2.071l-9.788-1.62V29.7c0-.793.653-1.437 1.456-1.437.803 0 1.456.644 1.456 1.437a.999.999 0 1 0 1.999 0c0-1.895-1.55-3.437-3.455-3.437s-3.455 1.542-3.455 3.437v11.706a.999.999 0 1 0 1.999 0v-2.072l9.788 1.619v2.404a1 1 0 1 0 2 0V31.652c0-.794.653-1.439 1.456-1.439.803 0 1.455.645 1.455 1.44zM40.469 9.822c-.626.626-.915 1.405-.816 2.2.104.85.652 1.628 1.5 2.136 1.296.775 2.152 1.954 2.412 3.318.244 1.282-.077 2.579-.902 3.654l-1.5 1.929a1 1 0 0 1-1.58-1.228l1.497-1.925c.47-.611.657-1.343.52-2.056-.151-.796-.674-1.498-1.474-1.976-1.382-.827-2.277-2.142-2.46-3.608-.172-1.398.333-2.803 1.385-3.855l.628-.635A1 1 0 0 1 41.1 9.183l-.632.64zm-7.977 6.625c-.625.625-.913 1.405-.815 2.199.105.85.65 1.628 1.5 2.136 1.296.775 2.152 1.953 2.412 3.317.244 1.282-.075 2.58-.901 3.655l-1.5 1.928a1.001 1.001 0 0 1-1.402.176 1 1 0 0 1-.175-1.404l1.495-1.923c.469-.612.655-1.344.518-2.058-.151-.795-.675-1.497-1.473-1.974-1.381-.827-2.277-2.142-2.458-3.607-.173-1.399.33-2.804 1.383-3.857l.63-.636a1 1 0 0 1 1.42 1.41l-.634.638zm47.494 16.628a1.001 1.001 0 0 1-1.97.351C75.66 20.188 66.31 9.051 53.613 4.363 34.895-2.551 13.752 6.176 5.477 24.225 1.155 33.648.854 44.14 4.626 53.77c3.8 9.704 11.22 17.262 20.89 21.284 18.629 7.747 40.215-.282 49.146-18.282 1.548-3.548 1.724-6.673.519-9.29-1.61-3.493-5.671-6.25-12.07-8.193a1 1 0 1 1 .58-1.914c6.969 2.116 11.447 5.236 13.305 9.27 1.457 3.164 1.285 6.85-.511 10.952-.004.01-.01.015-.014.023-.003.007-.002.013-.006.02C69.493 71.711 55.177 80 40.24 80c-5.183 0-10.44-.998-15.492-3.099-10.177-4.232-17.984-12.187-21.985-22.4-3.972-10.14-3.653-21.189.895-31.11C12.367 4.398 34.614-4.784 54.305 2.487c13.36 4.934 23.2 16.654 25.68 30.588zm-20.13 28.832a1.01 1.01 0 0 0-.027.163c-.466.837-4.04 2.386-9.318 3.47l2.19-13.06c3.996-.597 7.509-1.492 10.26-2.627l-3.104 12.054zm-19.888 4.81l-.357-13.392a85.53 85.53 0 0 0 11.016-.572l-2.204 13.14c-.002.013.003.025.002.038-2.55.424-5.414.716-8.457.786zm-10.812-.792c-.002-.011.002-.021 0-.032L26.86 52.21c3.369.585 7.048.944 10.747 1.07l.359 13.45c-3.331-.036-6.292-.347-8.811-.805zm-9.81-3.768c0-.088-.011-.176-.034-.262L15.73 48.678c2.282 1.332 5.48 2.388 9.162 3.156a.972.972 0 0 0-.045.466l2.213 13.188c-4.726-1.105-7.485-2.641-7.714-3.331zm45.587-14.335a.998.998 0 0 0-1.342-.443c-4.84 2.438-13.662 3.953-23.022 3.953-15.621 0-26.505-3.946-26.505-7.488 0-3.542 10.884-7.488 26.518-7.488.017 0 2.1-.026 5.214.154a1.008 1.008 0 0 0 1.056-.94 1 1 0 0 0-.941-1.057c-3.187-.184-5.27-.159-5.342-.157-13.82 0-28.505 3.325-28.505 9.488 0 .963.358 1.857 1.016 2.679v.022l4.276 15.776c.34 3.266 10.698 6.42 21.248 6.42 10.075 0 22.814-3.003 23.212-6.42l3.297-12.804c.213-.754-.038-1.413-.18-1.695z"/>
</svg>