<svg viewBox="0 0 34 34"><g fill="{{fill-colour}}"><path d="M17 0C7.626 0 0 7.626 0 17c0 1.782.274 3.537.816 5.217.105.327.222.656.348.977.084.214.325.32.537.235.213-.083.318-.324.235-.536-.12-.307-.23-.62-.331-.93C1.09 20.365.829 18.695.829 17 .829 8.083 8.083.83 16.999.83 25.918.829 33.172 8.083 33.172 17S25.917 33.171 17 33.171c-4.665 0-9.058-1.997-12.133-5.489l20.88-10.326c.142-.07.232-.214.232-.372 0-.157-.09-.302-.231-.372L11.943 9.781c-.128-.064-.28-.056-.402.02-.122.075-.197.208-.197.351v7.895c0 .23.186.415.415.415.23 0 .414-.185.414-.415V10.82l12.457 6.164L4.018 27.177c-.205.102-.29.35-.188.556.022.044.052.081.086.113.005.008.007.017.013.024C7.172 31.766 11.936 34 16.999 34 26.375 34 34 26.374 34 17c0-9.374-7.626-17-17-17" transform="translate(-498.000000, -3260.000000) translate(-2.000000, 2797.000000) translate(500.000000, 462.996284)"/></g></svg>


