<?xml version="1.0" encoding="utf-8"?>
<!-- Generator: Adobe Illustrator 21.0.2, SVG Export Plug-In . SVG Version: 6.00 Build 0)  -->
<svg version="1.1" id="Layer_1" xmlns="http://www.w3.org/2000/svg" xmlns:xlink="http://www.w3.org/1999/xlink" x="0px" y="0px"
	 viewBox="0 0 20 15" style="enable-background:new 0 0 20 15;" xml:space="preserve">
<style type="text/css">
	.st0{fill:#0099E0;}
</style>
<g>
	<g>
		<path class="st0" d="M12,14.9c-0.1,0-0.3,0-0.4-0.1c-0.2-0.2-0.2-0.5,0-0.7l5.9-5.8H1c-0.3,0-0.5-0.2-0.5-0.5S0.7,7.1,1,7.1h16.8
			L11.6,1c-0.2-0.2-0.2-0.5,0-0.7s0.5-0.2,0.7,0l6.9,6.9c0.1,0.1,0.1,0.2,0.1,0.4s-0.1,0.3-0.1,0.4l-6.9,6.9
			C12.3,14.8,12.1,14.9,12,14.9z"/>
	</g>
</g>
</svg>
