<svg viewBox="0 0 1180 190" version="1.1" xmlns="http://www.w3.org/2000/svg" xmlns:xlink="http://www.w3.org/1999/xlink">
    <g id="Page-1" stroke="none" stroke-width="1" fill="none" fill-rule="evenodd">
        <g id="17-Error-404" transform="translate(0.000000, -398.000000)" stroke="#F76100" stroke-width="3">
            <g id="Page-1" transform="translate(-55.000000, 399.000000)">
                <path d="M1141.6526,82.962 C1134.4736,82.962 1113,89 1110,116 C1107,143 1105,196 1017,186 C929,176 847,-16 672,2 C538.742464,15.7064894 496,153 350,156 C242.085914,158.217413 125.419247,115.550746 0,28" id="Stroke-1" stroke-linecap="round" stroke-linejoin="round"></path>
                <path d="M1209.6272,56.2794 L1209.6272,109.6434 C1209.6272,112.3234 1207.4842,114.4954 1204.8412,114.4954 L1192.8752,114.4954 C1185.3422,114.4954 1178.2492,110.9004 1173.7302,104.7934 C1169.2102,98.6844 1162.1162,94.7874 1154.5842,94.7874 L1147.4042,94.7874 C1144.7612,94.7874 1142.6182,92.6144 1142.6182,89.9354 L1142.6182,75.9874 C1142.6182,73.3084 1144.7612,71.1364 1147.4042,71.1364 L1154.5842,71.1364 C1162.1162,71.1364 1169.2102,67.2384 1173.7302,61.1314 C1178.2492,55.0224 1185.3422,51.4274 1192.8752,51.4274 L1204.8412,51.4274 C1207.4842,51.4274 1209.6272,53.5994 1209.6272,56.2794 Z" id="Stroke-3"></path>
                <path d="M1209.6272,67.1945 L1227.8672,67.1945" id="Stroke-5" stroke-linecap="round"></path>
                <path d="M1209.6272,98.7286 L1227.8672,98.7286" id="Stroke-7" stroke-linecap="round"></path>
                <path d="M1209.6272,82.962 L1233.2772,82.962" id="Stroke-9" stroke-linecap="round"></path>
                <path d="M1182.0354,90.8448 C1177.6814,90.8448 1174.1514,87.3158 1174.1514,82.9618 C1174.1514,78.6078 1177.6814,75.0778 1182.0354,75.0778 C1186.3894,75.0778 1189.9184,78.6078 1189.9184,82.9618 C1189.9184,87.3158 1186.3894,90.8448 1182.0354,90.8448 Z" id="Stroke-11"></path>
            </g>
        </g>
    </g>
</svg>